<svg width="66" height="42" viewBox="0 0 66 42" fill="none" xmlns="http://www.w3.org/2000/svg">
<g clip-path="url(#clip0)">
<path d="M63.8872 -0.197266H2.11248C0.774549 -0.197266 -0.310059 0.887342 -0.310059 2.22527V39.7746C-0.310059 41.1125 0.774549 42.1971 2.11248 42.1971H63.8872C65.2251 42.1971 66.3097 41.1125 66.3097 39.7746V2.22527C66.3097 0.887342 65.2251 -0.197266 63.8872 -0.197266Z" fill="#F9F9F9"/>
<path d="M7.93652 7.05347H8.50703V22.2016H7.93652V7.05347ZM9.07754 7.05347H9.64805V22.2016H9.07754V7.05347ZM12.503 7.05347H13.0735V22.2016H12.503V7.05347ZM23.6079 7.05347H24.1784V22.2016H23.6079V7.05347ZM27.3205 7.05347H27.891V22.2016H27.3205V7.05347ZM30.9203 7.05347H31.4909V22.2016H30.9203V7.05347ZM31.8482 7.05347H32.4187V22.2016H31.8482V7.05347ZM32.7772 7.05347H33.3477V22.2016H32.7772V7.05347ZM33.8213 7.05347H34.3918V22.2016H33.8213V7.05347ZM34.8654 7.05347H35.4359V22.2016H34.8654V7.05347ZM37.7676 7.05347H38.3381V22.2016H37.7676V7.05347ZM44.9638 7.05347H45.5343V22.2016H44.9638V7.05347ZM52.47 7.05347H53.0405V22.2016H52.47V7.05347ZM54.5231 7.05347H55.0936V22.2016H54.5231V7.05347ZM56.0069 7.05347H56.5774V22.2016H56.0069V7.05347ZM56.9202 7.05347H57.4907V22.2016H56.9202V7.05347ZM16.27 7.05347H16.8406V22.2016H16.27V7.05347ZM10.5613 7.05347H11.5885V22.2016H10.5613V7.05347ZM17.3408 7.05347H18.368V22.2016H17.3408V7.05347ZM22.1011 7.05347H23.1283V22.2016H22.1011V7.05347ZM24.5382 7.05347H25.5653V22.2016H24.5382V7.05347ZM28.3682 7.05347H29.3954V22.2016H28.3682V7.05347ZM39.2878 7.05347H40.8854V22.2016H39.2878V7.05347ZM41.3748 7.05347H42.6309V22.2016H41.3748V7.05347ZM43.5769 7.05347H44.604V22.2016H43.5769V7.05347ZM46.4888 7.05347H48.2015V22.2016H46.4888V7.05347ZM49.8428 7.05347H51.5555V22.2016H49.8428V7.05347ZM13.644 7.05347H15.6983V22.2016H13.644V7.05347ZM18.9688 7.05347H20.5664V22.2016H18.9688V7.05347Z" fill="#010101"/>
<path d="M8.67529 35.6515V26.9812H11.9288C12.4724 26.9602 13.0147 27.0497 13.5228 27.2441C13.9123 27.4106 14.2407 27.6936 14.4627 28.0544C14.6827 28.3958 14.8008 28.7929 14.8031 29.1991C14.8031 29.5693 14.6986 29.9321 14.5015 30.2456C14.2796 30.5911 13.9636 30.8659 13.5906 31.0378C14.0693 31.1606 14.4947 31.4367 14.8019 31.8239C15.0862 32.2017 15.2351 32.6642 15.2246 33.1369C15.2279 33.5292 15.14 33.9169 14.9678 34.2694C14.8222 34.5856 14.6034 34.8625 14.3295 35.0773C14.0444 35.2816 13.7216 35.4274 13.3799 35.5061C12.9216 35.6113 12.4522 35.6601 11.9821 35.6515H8.67529ZM9.82358 30.6247H11.6986C12.0648 30.6391 12.4314 30.6053 12.7888 30.5242C13.0503 30.4578 13.2822 30.3061 13.4477 30.093C13.6017 29.8714 13.6795 29.6056 13.6694 29.3359C13.6747 29.0681 13.6028 28.8045 13.4622 28.5765C13.3281 28.36 13.1197 28.1998 12.876 28.1259C12.4437 28.0265 12 27.9857 11.5569 28.0047H9.82358V30.6247ZM9.82358 34.6292H11.9821C12.2432 34.636 12.5044 34.6222 12.7633 34.588C12.9975 34.55 13.2224 34.4678 13.4259 34.3457C13.6118 34.2256 13.7626 34.0584 13.8632 33.8612C13.9805 33.6372 14.0396 33.3873 14.0352 33.1345C14.0433 32.8328 13.9564 32.5362 13.7868 32.2866C13.6196 32.0468 13.377 31.8699 13.0976 31.7839C12.6846 31.6722 12.2571 31.6232 11.8294 31.6385H9.82358V34.6292ZM16.901 31.429C16.8285 30.1936 17.2449 28.9793 18.0602 28.0484C18.4444 27.6448 18.9099 27.3274 19.4258 27.1169C19.9417 26.9065 20.4964 26.8078 21.0532 26.8274C21.8137 26.8169 22.5625 27.0155 23.2178 27.4015C23.8548 27.7781 24.3661 28.3349 24.6871 29.0016C25.0332 29.7277 25.2061 30.5242 25.1922 31.3285C25.2063 32.1462 25.024 32.9554 24.6604 33.688C24.3308 34.3549 23.8044 34.9045 23.1524 35.2627C22.5079 35.618 21.7831 35.8023 21.0472 35.798C20.2771 35.8108 19.5189 35.6063 18.8596 35.2082C18.2252 34.8236 17.7171 34.2619 17.3976 33.5923C17.0686 32.9188 16.8987 32.1786 16.901 31.429ZM18.0844 31.4472C18.0351 32.3494 18.3393 33.2353 18.9323 33.9169C19.1998 34.2099 19.527 34.442 19.8918 34.5977C20.2566 34.7534 20.6506 34.829 21.0472 34.8193C21.4461 34.8295 21.8426 34.7532 22.2093 34.5958C22.576 34.4383 22.9043 34.2035 23.1718 33.9072C23.77 33.1838 24.0694 32.2592 24.0087 31.3224C24.0246 30.6882 23.9044 30.0579 23.6563 29.474C23.4375 28.9705 23.073 28.544 22.6097 28.2494C22.1468 27.9585 21.6097 27.8075 21.0629 27.8146C20.6755 27.8087 20.2907 27.8796 19.9308 28.0233C19.571 28.167 19.2431 28.3805 18.9662 28.6516C18.6386 29.0339 18.3916 29.4786 18.2401 29.9588C18.0886 30.4389 18.0356 30.9448 18.0844 31.446V31.4472ZM27.0733 35.6515V26.9812H28.2203V34.628H32.49V35.6515H27.0733ZM34.3288 35.6515V26.9812H40.5983V28.0047H35.4758V30.6598H40.2724V31.6773H35.4758V34.628H40.7993V35.6515H34.3288ZM45.0388 35.6515V28.0047H42.1814V26.9812H49.0541V28.0047H46.1859V35.6515H45.0388ZM50.1116 31.429C50.0397 30.1933 50.457 28.9789 51.2732 28.0484C51.6574 27.6448 52.1229 27.3274 52.6388 27.1169C53.1547 26.9065 53.7094 26.8078 54.2662 26.8274C55.0267 26.8169 55.7755 27.0155 56.4308 27.4015C57.0678 27.7781 57.5791 28.3349 57.9 29.0016C58.2462 29.7277 58.4191 30.5242 58.4051 31.3285C58.4193 32.1462 58.2369 32.9554 57.8734 33.688C57.5427 34.356 57.0145 34.9062 56.3605 35.2639C55.716 35.6192 54.9913 35.8035 54.2553 35.7993C53.4847 35.8119 52.7261 35.607 52.0666 35.2082C51.4335 34.823 50.9266 34.2614 50.6082 33.5923C50.2791 32.9188 50.1092 32.1786 50.1116 31.429ZM51.295 31.4472C51.2457 32.3494 51.5498 33.2353 52.1429 33.9169C52.4103 34.2099 52.7375 34.442 53.1024 34.5977C53.4672 34.7534 53.8612 34.829 54.2578 34.8193C54.6578 34.8307 55.0556 34.7551 55.4236 34.5979C55.7917 34.4406 56.1212 34.2054 56.3896 33.9085C56.9879 33.185 57.2873 32.2604 57.2266 31.3236C57.239 30.6886 57.1151 30.0583 56.8632 29.4752C56.6444 28.9717 56.2799 28.5452 55.8167 28.2506C55.3537 27.9597 54.8166 27.8087 54.2699 27.8158C53.8824 27.8099 53.4977 27.8809 53.1378 28.0245C52.7779 28.1682 52.4501 28.3817 52.1732 28.6528C51.8461 29.0352 51.5997 29.4797 51.4486 29.9597C51.2975 30.4396 51.2448 30.9452 51.2938 31.446L51.295 31.4472Z" fill="black"/>
</g>
<defs>
<clipPath id="clip0">
<rect width="66" height="42" fill="white"/>
</clipPath>
</defs>
</svg>
