<svg width="100" height="25" viewBox="0 0 100 25" fill="none" xmlns="http://www.w3.org/2000/svg">
<path fill-rule="evenodd" clip-rule="evenodd" d="M31.2275 13.6342C32.3137 12.7261 32.3014 11.0783 31.5559 10.605C30.8103 10.1317 29.1242 10.5092 28.575 11.8634C28.0261 13.2177 27.9815 14.0431 27.6812 14.7799C28.3099 14.7338 30.1408 14.5422 31.2275 13.6342ZM24.1191 18.8503C25.1854 15.6193 26.2011 12.341 26.9675 8.95921C27.5656 8.95921 28.2479 8.97362 28.8456 8.97362L28.62 10.2503C30.1378 9.26811 31.1374 9.01345 32.1327 9.09481C35.7317 9.38802 33.7967 14.1045 31.8949 15.238C30.7789 15.9037 29.267 16.2003 27.1786 15.9041C26.9322 16.8863 26.6863 17.8685 26.4403 18.8503C25.6663 18.8503 24.8927 18.8503 24.1191 18.8503Z" fill="#221F20"/>
<path fill-rule="evenodd" clip-rule="evenodd" d="M37.658 11.3868C36.7132 12.2944 36.7238 13.9427 37.3725 14.416C38.0208 14.8893 39.4876 14.5117 39.9651 13.1575C40.443 11.8037 40.4817 10.9779 40.743 10.241C40.1962 10.2872 38.6028 10.4791 37.658 11.3868ZM41.7137 16.0808C41.0365 16.0808 40.4443 16.0948 39.7676 16.0948L39.8938 14.6317C38.5021 15.9435 36.2464 16.8105 35.2115 15.5745C33.7939 13.6427 35.1367 11.1304 36.7345 10.0986C38.5076 8.95288 40.8619 9.0122 43.2081 8.96262C42.3683 11.291 41.8041 13.6783 41.7137 16.0808Z" fill="#221F20"/>
<path fill-rule="evenodd" clip-rule="evenodd" d="M46.0524 11.3868C45.1072 12.2944 45.1178 13.9427 45.7665 14.416C46.4152 14.8893 47.8821 14.5117 48.3596 13.1575C48.8375 11.8037 48.8761 10.9779 49.1374 10.241C48.5907 10.2872 46.9976 10.4791 46.0524 11.3868ZM42.4849 18.9049L42.8256 17.0994C44.3379 17.588 45.651 17.8232 46.6374 17.3295C47.4046 16.9456 47.9751 16.1206 48.2882 14.6317C46.8969 15.9435 44.6408 16.8105 43.6064 15.5745C42.1883 13.6427 43.5312 11.1304 45.1289 10.0986C46.902 8.95288 49.2568 9.0122 51.603 8.96262C50.8761 10.9766 50.8625 14.1367 49.8978 16.3855C49.3889 17.5727 48.5329 18.335 47.5087 18.7715C46.0112 19.4088 44.1527 19.3503 42.4849 18.9049Z" fill="#221F20"/>
<path fill-rule="evenodd" clip-rule="evenodd" d="M69.2952 11.3868C68.3508 12.2944 68.361 13.9427 69.0093 14.416C69.6584 14.8893 71.1248 14.5118 71.6027 13.1575C72.0802 11.8037 72.1189 10.9779 72.3805 10.241C71.8334 10.2872 70.2404 10.4792 69.2952 11.3868ZM51.9621 14.3067C51.7361 14.7935 51.4825 15.3088 51.2573 15.7956C54.0092 16.3931 56.1163 16.0325 56.9472 15.1495C57.759 14.1507 57.6231 13.0202 56.2148 12.1991C55.9149 11.991 55.0662 11.5715 55.0883 11.0753C55.1282 9.9461 56.8495 10.2147 57.906 10.5414L58.2429 8.99569C57.5046 8.82492 56.567 8.77408 55.8138 8.8478C54.8971 8.93721 53.9103 9.33255 53.1452 10.0914C52.5509 10.7071 52.4285 11.5363 52.646 12.041C52.9073 12.6465 53.7548 12.9007 54.1872 13.1537C54.9103 13.4897 55.341 13.7435 55.2182 14.2541C55.1154 14.6834 54.5912 15.0342 53.6537 14.8673C53.0713 14.7635 52.3907 14.5567 51.9621 14.3067ZM61.0182 11.9465C61.358 11.1961 61.9332 10.4372 63.1027 10.2885C64.0233 10.1995 64.1214 11.1673 63.5806 11.5397C62.5985 11.9618 62.4889 11.383 61.0182 11.9465ZM64.8347 14.4469C64.7786 14.9151 64.6091 15.3834 64.5534 15.852C62.3657 16.1516 60.0182 16.6567 58.8066 14.9529C57.5526 12.541 59.3614 10.3317 60.9472 9.50204C63.7319 8.25628 65.6656 8.8906 66.0742 10.1203C66.8997 12.2766 64.347 13.6995 60.6656 13.2668C60.282 15.1418 62.2025 15.1139 64.8347 14.4469ZM76.3839 8.93975C77.0598 8.95882 77.7361 8.97747 78.412 8.99611C78.0547 10.4944 77.4727 11.9368 77.1163 13.4355C76.5879 15.2584 78.7671 15.069 79.7077 13.941C80.545 12.4728 80.9196 10.7105 81.4545 8.93975C82.1303 8.93975 82.8062 8.93975 83.4825 8.93975C82.717 11.2813 82.0501 13.6228 81.7357 15.9643C81.135 15.9266 80.4209 15.8893 79.8207 15.852C79.8393 15.477 79.8576 15.1024 79.8767 14.7279C77.8449 16.5897 74.5003 17.0812 74.9188 13.941C75.1592 12.2741 75.8376 10.6071 76.3839 8.93975ZM82.9753 15.852C83.8814 13.5567 84.491 10.6275 84.9468 8.99611H86.5811L86.5241 10.4571C87.2378 9.47407 88.5339 8.93086 89.8487 8.99611L89.2289 10.8508C87.5947 10.6368 86.4426 11.941 85.8058 14.0965C85.6435 14.6457 85.514 15.2503 85.4196 15.8986L82.9753 15.852ZM91.3139 9.86729C89.2476 11.2482 88.4188 13.5757 89.4638 15.0651C90.5084 16.5545 93.031 16.6427 95.0964 15.2618C97.1626 13.8813 97.991 11.5533 96.9473 10.0639C95.9022 8.5745 93.3801 8.48637 91.3139 9.86729ZM91.9082 11.9855C91.2412 13.1749 91.3249 14.4368 92.0955 14.8033C92.8661 15.1694 94.0314 14.502 94.6992 13.3122C95.3666 12.1228 95.2829 10.8614 94.5123 10.4944C93.7417 10.1283 92.5756 10.7957 91.9082 11.9855ZM65.728 18.905L66.0683 17.0995C67.5806 17.588 68.8937 17.8232 69.8801 17.3295C70.6473 16.9456 71.2178 16.1206 71.5305 14.6317C70.1392 15.9435 67.8835 16.8105 66.8491 15.5745C65.4311 13.6427 66.7743 11.1304 68.3716 10.0986C70.1448 8.95289 72.4995 9.01221 74.8457 8.96263C74.1189 10.9766 74.1057 14.1368 73.1405 16.3855C72.6312 17.5728 71.776 18.335 70.7518 18.7715C69.2539 19.4088 67.3954 19.3503 65.728 18.905Z" fill="#A5CE39"/>
<path fill-rule="evenodd" clip-rule="evenodd" d="M5.22342 6.46095C4.51909 7.28679 3.98808 8.22619 3.59938 9.25373C3.19156 10.3224 2.97363 11.4207 2.97363 12.5919C2.97363 13.919 3.25741 15.1482 3.74551 16.3096C4.23149 17.4626 4.8959 18.4537 5.77058 19.3244C6.62147 20.1732 7.6185 20.852 8.77101 21.346C9.92309 21.8477 11.1759 22.124 12.4749 22.124C13.7965 22.124 15.0289 21.8596 16.2018 21.346C17.3241 20.8575 18.3369 20.1893 19.2022 19.3244C20.0595 18.4681 20.7205 17.4567 21.1958 16.3096C21.6946 15.1363 21.9775 13.919 21.9775 12.5919C21.9775 11.4207 21.7574 10.3224 21.3509 9.25373C20.9533 8.22619 20.4265 7.30713 19.7268 6.46095C19.0268 5.63299 18.2166 4.94782 17.2986 4.41816C15.8568 3.58808 14.3696 3.09148 12.6457 3.09148C12.562 3.09148 12.4804 3.09148 12.3985 3.09148C10.6971 3.09148 9.13847 3.57749 7.67287 4.41816C6.74509 4.94401 5.92648 5.63638 5.22342 6.46095Z" fill="#221F20"/>
<path fill-rule="evenodd" clip-rule="evenodd" d="M90.8473 19.324C91.0886 19.324 91.2806 19.4011 91.4229 19.5723C91.5678 19.735 91.6455 19.9456 91.6455 20.2232C91.6455 20.4808 91.5678 20.7024 91.4229 20.8562C91.2806 21.016 91.0886 21.0931 90.8473 21.0931C90.6103 21.0931 90.4267 21.0193 90.284 20.8562C90.1298 20.7024 90.0618 20.4808 90.0618 20.2232C90.0618 19.9456 90.1298 19.735 90.284 19.5723C90.4267 19.4011 90.6103 19.324 90.8473 19.324ZM90.8473 17.7562C90.4951 17.7562 90.1693 17.8122 89.86 17.9367C89.5546 18.0617 89.2853 18.2321 89.0567 18.4634C88.8256 18.6939 88.6447 18.9516 88.5287 19.2473C88.4038 19.5461 88.3481 19.8715 88.3481 20.2232C88.3481 20.5575 88.4038 20.8829 88.5287 21.1816C88.6447 21.4655 88.8256 21.7354 89.0567 21.966C89.2972 22.1846 89.5639 22.3651 89.8724 22.4893C90.1693 22.6045 90.5041 22.6723 90.8473 22.6723C91.2041 22.6723 91.521 22.6045 91.8388 22.4893C92.1349 22.3651 92.4106 22.1846 92.6421 21.966C92.8817 21.7354 93.0542 21.4655 93.1791 21.1693C93.3035 20.874 93.3626 20.5579 93.3626 20.2232C93.3626 19.8715 93.3035 19.5461 93.1791 19.2473C93.0635 18.9516 92.8911 18.6939 92.6506 18.4634C92.4229 18.2321 92.1434 18.0617 91.8388 17.9367C91.5304 17.8122 91.2041 17.7562 90.8473 17.7562Z" fill="#221F20"/>
<path fill-rule="evenodd" clip-rule="evenodd" d="M87.5711 21.2291C87.6098 21.0067 87.6263 20.7321 87.6263 20.3952V17.8592H85.9394V20.4156C85.9394 20.7024 85.9097 20.9037 85.8332 21.0283C85.7563 21.1435 85.6433 21.1995 85.4679 21.1995C85.2958 21.1995 85.1811 21.1435 85.1063 21.0283C85.038 20.9211 84.9993 20.7118 84.9993 20.4156V17.8592H83.3217V20.3952C83.3119 20.7499 83.3413 21.0194 83.3799 21.2291C83.4156 21.4482 83.4933 21.6194 83.5792 21.7647C83.7724 22.0596 84.0299 22.2796 84.3561 22.4334C84.6739 22.5961 85.0473 22.6724 85.4679 22.6724C85.8922 22.6724 86.2572 22.5961 86.5804 22.4334C86.9067 22.2796 87.1675 22.0596 87.3481 21.7647C87.4428 21.6194 87.5205 21.4389 87.5711 21.2291Z" fill="#221F20"/>
<path fill-rule="evenodd" clip-rule="evenodd" d="M95.7595 17.8592H94.0713V22.5482H97.3988V21.0283H95.7595V17.8592Z" fill="#221F20"/>
<path fill-rule="evenodd" clip-rule="evenodd" d="M18.8239 6.53926C17.6467 5.11257 16.1238 4.19394 14.244 3.83928C12.3987 3.49267 10.6506 3.77021 8.9955 4.66554C8.14503 5.14224 7.42626 5.73715 6.84682 6.43841C6.25081 7.15578 5.79499 7.98078 5.50145 8.9062C5.19983 9.85492 5.12252 10.8507 5.22362 11.8214C5.47086 11.1973 5.84936 10.6248 6.29924 10.0782C6.9475 9.30662 7.75209 8.72866 8.64928 8.30451C9.54478 7.90324 10.5274 7.67951 11.5478 7.65663C12.5749 7.65663 13.5732 7.85663 14.4993 8.25874C15.4755 8.65239 16.326 9.25365 17.0512 10.0558C17.3226 10.3257 17.5478 10.649 17.7704 10.9731C18.0945 10.9731 18.4203 10.9956 18.6986 11.074C19.4254 11.274 19.9985 11.6439 20.4467 12.1994L20.4683 11.8439C20.5473 10.8723 20.4467 9.95492 20.1765 9.05238C19.8974 8.15747 19.4475 7.30917 18.8239 6.53926Z" fill="#F3A935"/>
<path fill-rule="evenodd" clip-rule="evenodd" d="M5.02131 15.5151C5.14493 16.2634 5.37008 16.9799 5.74689 17.6354C6.09693 18.2841 6.57527 18.8769 7.17085 19.4019L7.47246 19.649C8.50135 20.3511 9.59778 20.8519 10.7979 21.099C11.5714 21.2447 12.3514 21.1985 13.1016 21.0218C13.8973 20.8519 14.6488 20.5282 15.3518 20.0498C14.7019 19.9032 14.1224 19.5553 13.6726 19.0316L13.4958 18.8316C12.5523 18.9316 11.602 18.9011 10.6505 18.7083C9.44315 18.4312 8.40025 17.9291 7.42616 17.2354C6.49795 16.5333 5.72607 15.638 5.14493 14.5905L4.99795 14.2884C4.97501 14.6897 4.97501 15.113 5.02131 15.5151Z" fill="#F3A935"/>
<path fill-rule="evenodd" clip-rule="evenodd" d="M13.9197 9.23048C13.0472 8.85251 12.0943 8.68302 11.1219 8.68302C10.1708 8.70548 9.27317 8.90633 8.44649 9.30675C7.61854 9.67793 6.90104 10.2254 6.29908 10.9275C5.87215 11.4521 5.52381 12.0228 5.30078 12.6237C5.47071 13.3716 5.74683 14.0652 6.15125 14.7677C6.72304 15.7389 7.47241 16.5635 8.40019 17.2118C9.29739 17.8592 10.3263 18.2842 11.4223 18.5296C12.0943 18.6542 12.7995 18.7084 13.4958 18.6762C13.2252 18.2304 13.0472 17.7597 12.9699 17.2118C12.8764 16.6576 12.901 16.1093 13 15.5152C13.1236 14.7902 13.3951 14.119 13.7719 13.4944C14.1767 12.8699 14.7018 12.2995 15.3191 11.844C15.7222 11.5521 16.1474 11.3283 16.5731 11.15L16.3479 10.8957C15.6449 10.1792 14.8479 9.60039 13.9197 9.23048Z" fill="#D94937"/>
<path fill-rule="evenodd" clip-rule="evenodd" d="M20.5998 13.4944L20.3772 13.1169C20.0514 14.2423 19.4473 15.2385 18.6754 16.1406C18.4974 16.8876 18.1958 17.5588 17.8024 18.1838C17.3997 18.8003 16.873 19.3558 16.271 19.8266C16.6967 19.849 17.1219 19.7808 17.5475 19.6253C17.9481 19.4791 18.3194 19.2558 18.6984 18.9537C19.2022 18.4842 19.6737 17.9291 20.0752 17.3588L20.144 17.2588C20.322 16.8876 20.5008 16.5109 20.6227 16.1626C20.7476 15.7851 20.8249 15.4152 20.8487 15.0694C20.8717 14.6898 20.8717 14.3656 20.802 14.0423C20.7476 13.8427 20.6703 13.6648 20.5998 13.4944Z" fill="#EE8A30"/>
<path fill-rule="evenodd" clip-rule="evenodd" d="M4.14677 9.10546C3.82264 10.0025 3.64592 10.9491 3.59961 11.9762C3.57667 13.2931 3.82264 14.5664 4.32646 15.763C4.572 16.3321 4.87574 16.8876 5.2449 17.413C5.60301 17.9063 5.99596 18.3851 6.44371 18.8003C5.4709 17.7283 4.89613 16.4868 4.72153 15.0914C4.67396 14.6139 4.67396 14.1664 4.69732 13.6957C4.37319 12.7919 4.1952 11.8987 4.1952 10.9732C4.1952 10.1025 4.34855 9.25376 4.62001 8.38088C4.85153 7.78089 5.14507 7.20928 5.4709 6.68682C4.89613 7.43428 4.4743 8.23554 4.14677 9.10546Z" fill="#E36B34"/>
<path fill-rule="evenodd" clip-rule="evenodd" d="M21.2197 9.63134C20.995 8.90634 20.7014 8.20423 20.3221 7.55677C19.9516 6.9322 19.4941 6.36059 18.947 5.83814C18.4512 5.31229 17.8718 4.86484 17.2227 4.48772C17.7702 4.86484 18.2724 5.31229 18.7218 5.81398C19.4253 6.60847 19.9516 7.45677 20.2758 8.4055C20.5999 9.37625 20.7477 10.3801 20.6704 11.4207C20.6479 11.7449 20.5999 12.0449 20.5472 12.369C20.6704 12.5695 20.8021 12.8156 20.9032 13.0703C21.1492 13.7957 21.1959 14.5665 21.0723 15.3381C21.4512 14.2673 21.6436 13.1389 21.6207 11.9762C21.574 11.1741 21.4512 10.3801 21.2197 9.63134Z" fill="#E36B34"/>
<path fill-rule="evenodd" clip-rule="evenodd" d="M18.2725 11.9987C18.5205 12.5228 18.6756 13.0944 18.7444 13.6648C18.8239 14.2423 18.8455 14.7902 18.7992 15.3381L18.6985 15.8859C19.4475 15.0152 19.9517 14.0423 20.2457 12.9156C20.0754 12.747 19.8974 12.5694 19.6947 12.4237C19.2933 12.1453 18.8239 11.9987 18.2725 11.9987Z" fill="#E36B34"/>
<path fill-rule="evenodd" clip-rule="evenodd" d="M16.774 18.577C17.0756 18.152 17.3224 17.6833 17.5004 17.2117C16.4945 17.9291 15.398 18.4312 14.1992 18.6761C14.3696 18.9537 14.6002 19.1787 14.8479 19.3558C15.0964 19.5253 15.3738 19.649 15.6979 19.7494C16.1011 19.402 16.4715 19.0003 16.774 18.577Z" fill="#D94937"/>
<path fill-rule="evenodd" clip-rule="evenodd" d="M11.7466 21.2448L12.8235 21.2986C13.7508 21.2761 14.6225 21.099 15.4751 20.8206C16.2708 20.5507 17.0508 20.1732 17.7254 19.7024C17.2984 19.9033 16.8502 20.0499 16.3723 20.0723C16.2245 20.1028 16.0461 20.1028 15.8766 20.1028C14.6485 20.8982 13.2695 21.2761 11.7466 21.2448Z" fill="#D94937"/>
<path fill-rule="evenodd" clip-rule="evenodd" d="M17.701 14.0189C17.5477 13.3715 17.3225 12.7711 16.9984 12.1994C16.4253 12.3689 15.9228 12.6702 15.4508 13.0702C14.9487 13.4944 14.5239 14.0189 14.1993 14.6138C13.9198 15.2138 13.7512 15.785 13.6968 16.3859C13.6275 16.9566 13.6968 17.482 13.851 17.9829C13.9198 18.152 13.9746 18.3062 14.0761 18.4536C14.7019 18.385 15.2733 18.2066 15.8463 17.9596C16.4479 17.7282 16.9984 17.413 17.5235 17.0121L17.5698 16.9799C17.6713 16.6096 17.7482 16.2325 17.8026 15.8609C17.8472 15.2384 17.8247 14.6431 17.701 14.0189Z" fill="#FBE638"/>
</svg>
