<svg width="80" height="54" viewBox="0 0 80 54" fill="none" xmlns="http://www.w3.org/2000/svg">
<path d="M17.9512 19.4357C17.1156 18.854 16.0252 18.5625 14.68 18.5625H9.47216C9.05978 18.5625 8.83195 18.7713 8.78868 19.1886L6.67314 32.6343C6.65116 32.7664 6.68379 32.8871 6.77074 32.9969C6.8572 33.1069 6.96594 33.1616 7.09617 33.1616H9.56986C10.0037 33.1616 10.2422 32.9533 10.286 32.5356L10.8718 28.9106C10.8932 28.735 10.9695 28.5921 11.0997 28.4821C11.2298 28.3723 11.3926 28.3005 11.5879 28.2677C11.7832 28.235 11.9673 28.2185 12.1413 28.2185C12.3147 28.2185 12.5207 28.2297 12.7598 28.2515C12.9982 28.2734 13.1503 28.2842 13.2154 28.2842C15.0814 28.2842 16.5461 27.7518 17.6096 26.6859C18.6725 25.6205 19.2046 24.1432 19.2046 22.2532C19.2046 20.957 18.7864 20.0179 17.9512 19.4354V19.4357ZM15.2661 23.473C15.1573 24.2421 14.8755 24.7472 14.4198 24.9889C13.9641 25.231 13.3131 25.3515 12.467 25.3515L11.3928 25.3843L11.9463 21.858C11.9894 21.6165 12.1304 21.4956 12.3693 21.4956H12.9879C13.8554 21.4956 14.4851 21.6222 14.8757 21.8745C15.2661 22.1273 15.3963 22.6603 15.2661 23.473Z" fill="#003087"/>
<path d="M72.9096 18.5625H70.5013C70.2619 18.5625 70.121 18.6834 70.0781 18.9252L67.9623 32.6349L67.9297 32.7008C67.9297 32.8112 67.9731 32.915 68.0601 33.0139C68.1464 33.1127 68.2554 33.1621 68.3854 33.1621H70.534C70.9456 33.1621 71.1735 32.9538 71.2176 32.5361L73.3331 19.0571V19.0244C73.333 18.7166 73.1916 18.5629 72.9096 18.5629V18.5625Z" fill="#009CDE"/>
<path d="M43.8118 23.8689C43.8118 23.7593 43.7682 23.6547 43.682 23.5561C43.5949 23.4573 43.4972 23.4075 43.389 23.4075H40.8827C40.6436 23.4075 40.4483 23.5179 40.2967 23.737L36.8466 28.8783L35.4144 23.9349C35.3054 23.5837 35.067 23.4075 34.6984 23.4075H32.2568C32.1481 23.4075 32.0505 23.4571 31.9642 23.5561C31.8772 23.6547 31.834 23.7595 31.834 23.8689C31.834 23.9131 32.0456 24.561 32.4686 25.8133C32.8917 27.066 33.3473 28.4172 33.8356 29.8674C34.3239 31.3172 34.5787 32.0866 34.6005 32.1737C32.821 34.6348 31.9317 35.953 31.9317 36.1285C31.9317 36.4144 32.0725 36.557 32.3548 36.557H34.8611C35.0996 36.557 35.2948 36.4474 35.447 36.2276L43.7472 24.0994C43.7902 24.0559 43.8118 23.9794 43.8118 23.8688V23.8689Z" fill="#003087"/>
<path d="M67.1489 23.4075H64.6752C64.371 23.4075 64.1873 23.7701 64.1221 24.4953C63.5572 23.6167 62.5272 23.1768 61.0296 23.1768C59.4674 23.1768 58.1381 23.7701 57.0426 24.9565C55.9466 26.143 55.3989 27.5385 55.3989 29.1422C55.3989 30.4387 55.7732 31.4712 56.5216 32.2399C57.2703 33.0094 58.2737 33.3934 59.5327 33.3934C60.1619 33.3934 60.802 33.2614 61.453 32.9979C62.1039 32.7343 62.6134 32.383 62.983 31.9434C62.983 31.9654 62.9608 32.0639 62.9179 32.2396C62.874 32.4157 62.8526 32.548 62.8526 32.6351C62.8526 32.9871 62.9933 33.1623 63.2759 33.1623H65.5219C65.9337 33.1623 66.1727 32.954 66.2375 32.5363L67.5722 23.9347C67.5936 23.8028 67.5612 23.6822 67.4745 23.5722C67.3873 23.4626 67.2791 23.4075 67.1489 23.4075ZM62.9014 29.9001C62.348 30.4494 61.6807 30.7239 60.8996 30.7239C60.27 30.7239 59.7606 30.5484 59.3698 30.1967C58.979 29.8459 58.7837 29.3625 58.7837 28.7466C58.7837 27.9343 59.055 27.2471 59.5977 26.6869C60.1394 26.1267 60.8127 25.8466 61.6156 25.8466C62.2227 25.8466 62.7273 26.0278 63.1291 26.3902C63.5302 26.7528 63.7315 27.2526 63.7315 27.89C63.7313 28.6808 63.4546 29.3511 62.9014 29.9001Z" fill="#009CDE"/>
<path d="M30.1732 23.4075H27.6994C27.3952 23.4075 27.2111 23.7701 27.146 24.4953C26.5601 23.6167 25.5293 23.1768 24.0538 23.1768C22.4914 23.1768 21.1622 23.7701 20.0665 24.9565C18.9705 26.143 18.4229 27.5385 18.4229 29.1422C18.4229 30.4387 18.7972 31.4712 19.5459 32.2399C20.2945 33.0094 21.2979 33.3934 22.5566 33.3934C23.1639 33.3934 23.7935 33.2614 24.4444 32.9979C25.0953 32.7343 25.6161 32.383 26.0067 31.9434C25.9197 32.2068 25.8765 32.4376 25.8765 32.6351C25.8765 32.9871 26.0175 33.1623 26.2996 33.1623H28.5455C28.9575 33.1623 29.1964 32.954 29.2616 32.5363L30.596 23.9347C30.6174 23.8028 30.585 23.6822 30.4984 23.5722C30.4116 23.4626 30.3032 23.4075 30.1732 23.4075ZM25.9256 29.9164C25.3721 30.4553 24.6937 30.7239 23.8913 30.7239C23.2617 30.7239 22.7572 30.5484 22.3777 30.1967C21.9978 29.8459 21.808 29.3625 21.808 28.7466C21.808 27.9343 22.0791 27.2471 22.6219 26.6869C23.164 26.1267 23.8367 25.8465 24.6399 25.8465C25.2471 25.8465 25.7517 26.0278 26.1535 26.3902C26.5546 26.7528 26.7556 27.2526 26.7556 27.89C26.7555 28.7029 26.4789 29.3787 25.9256 29.9164Z" fill="#003087"/>
<path d="M54.927 19.4356C54.0914 18.854 53.0014 18.5625 51.6559 18.5625H46.4805C46.0464 18.5625 45.8075 18.7713 45.7645 19.1886L43.6487 32.6343C43.6267 32.7663 43.6594 32.8871 43.7464 32.9969C43.8325 33.1069 43.9415 33.1616 44.0718 33.1616H46.7406C47.001 33.1616 47.1745 33.019 47.2616 32.7333L47.8474 28.9106C47.869 28.7349 47.9449 28.5921 48.0754 28.4821C48.2056 28.3723 48.3682 28.3005 48.5637 28.2676C48.7588 28.235 48.9429 28.2185 49.1169 28.2185C49.2904 28.2185 49.4964 28.2297 49.7352 28.2515C49.9738 28.2734 50.1262 28.2842 50.1909 28.2842C52.0573 28.2842 53.5217 27.7518 54.5851 26.6858C55.6484 25.6205 56.18 24.1432 56.18 22.2532C56.1801 20.957 55.7622 20.0178 54.927 19.4353V19.4356ZM51.5908 24.857C51.1134 25.1865 50.3971 25.3511 49.4426 25.3511L48.4009 25.3842L48.9543 21.8578C48.9972 21.6164 49.1383 21.4953 49.3773 21.4953H49.963C50.4404 21.4953 50.8201 21.5174 51.1026 21.5612C51.3842 21.6053 51.6559 21.7424 51.9162 21.973C52.1768 22.2038 52.3068 22.539 52.3068 22.9782C52.3068 23.9013 52.0678 24.5272 51.5908 24.857Z" fill="#009CDE"/>
</svg>
