<svg width="40" height="40" viewBox="0 0 40 40" fill="none" xmlns="http://www.w3.org/2000/svg">
<path d="M20 18.6667C22.9455 18.6667 25.3334 16.2789 25.3334 13.3333C25.3334 10.3878 22.9455 8 20 8C17.0545 8 14.6667 10.3878 14.6667 13.3333C14.6667 16.2789 17.0545 18.6667 20 18.6667Z" stroke="#343A3F" stroke-width="2" stroke-linecap="round" stroke-linejoin="round"/>
<path d="M26 32.1896C27.8507 31.8564 29.3179 31.3488 30 30.6667C30.0958 29.8042 30 28.4445 30 28.4445C30 27.2657 29.4381 26.1353 28.4379 25.3018C25.2793 22.6696 14.7207 22.6696 11.5621 25.3018C10.5619 26.1353 10 27.2657 10 28.4445C10 28.4445 9.90416 29.8042 10 30.6667C10.6821 31.3488 12.1493 31.8564 14 32.1896" stroke="#343A3F" stroke-width="2" stroke-linecap="round" stroke-linejoin="round"/>
<circle cx="20" cy="20" r="19" stroke="#343A3F" stroke-width="2"/>
</svg>
