<svg width="20" height="22" viewBox="0 0 20 22" fill="none" xmlns="http://www.w3.org/2000/svg">
<path d="M12 9.99998V16M8 9.99998V16M1 4.99998H14M14 4.99998H19M14 4.99998V2.99998C14 2.46955 13.7893 1.96084 13.4142 1.58577C13.0391 1.21069 12.5304 0.99998 12 0.99998H8C7.46957 0.99998 6.96086 1.21069 6.58579 1.58577C6.46111 1.71044 6.3546 1.84988 6.26794 1.99998M17 7.99998V19C17 19.5304 16.7893 20.0391 16.4142 20.4142C16.0391 20.7893 15.5304 21 15 21H5C4.46957 21 3.96086 20.7893 3.58579 20.4142C3.21071 20.0391 3 19.5304 3 19V7.99998" stroke="#F10606" stroke-width="2" stroke-linecap="round" stroke-linejoin="round"/>
</svg>
