<svg width="1440" height="252" viewBox="0 0 1440 252" fill="none" xmlns="http://www.w3.org/2000/svg">
<rect opacity="0.5" x="-21" width="1470" height="215" fill="#EEF3F7"/>
<rect x="449" y="79" width="222" height="24" fill="#FEEFA0"/>
<rect x="152" y="124" width="193" height="24" fill="#FEEFA0"/>
<path d="M165.76 99.36C162.987 99.36 160.56 98.7733 158.48 97.6C156.4 96.4267 154.8 94.7467 153.68 92.56C152.56 90.3733 152 87.8133 152 84.88C152 81.9467 152.56 79.4 153.68 77.24C154.8 75.0533 156.4 73.3733 158.48 72.2C160.56 71.0267 162.987 70.44 165.76 70.44C169.253 70.44 172.267 71.4 174.8 73.32C175.2 73.64 175.48 73.96 175.64 74.28C175.8 74.6 175.88 75 175.88 75.48C175.88 76.1733 175.68 76.7733 175.28 77.28C174.907 77.76 174.44 78 173.88 78C173.507 78 173.173 77.96 172.88 77.88C172.613 77.7733 172.307 77.6 171.96 77.36C170.893 76.6667 169.907 76.1733 169 75.88C168.093 75.56 167.12 75.4 166.08 75.4C163.52 75.4 161.587 76.2 160.28 77.8C159 79.3733 158.36 81.7333 158.36 84.88C158.36 91.2267 160.933 94.4 166.08 94.4C167.067 94.4 168 94.2533 168.88 93.96C169.76 93.64 170.787 93.1333 171.96 92.44C172.36 92.2 172.693 92.04 172.96 91.96C173.227 91.8533 173.533 91.8 173.88 91.8C174.44 91.8 174.907 92.0533 175.28 92.56C175.68 93.04 175.88 93.6267 175.88 94.32C175.88 94.8 175.787 95.2133 175.6 95.56C175.44 95.88 175.173 96.1867 174.8 96.48C172.267 98.4 169.253 99.36 165.76 99.36ZM188.479 99.32C186.399 99.32 184.572 98.9067 182.999 98.08C181.425 97.2267 180.212 96.04 179.359 94.52C178.505 92.9733 178.079 91.16 178.079 89.08C178.079 87 178.505 85.2 179.359 83.68C180.212 82.1333 181.425 80.9467 182.999 80.12C184.572 79.2933 186.399 78.88 188.479 78.88C190.559 78.88 192.385 79.2933 193.959 80.12C195.532 80.9467 196.745 82.1333 197.599 83.68C198.452 85.2 198.879 87 198.879 89.08C198.879 91.16 198.452 92.9733 197.599 94.52C196.745 96.04 195.532 97.2267 193.959 98.08C192.385 98.9067 190.559 99.32 188.479 99.32ZM188.479 94.72C191.412 94.72 192.879 92.84 192.879 89.08C192.879 87.1867 192.492 85.7733 191.719 84.84C190.972 83.9067 189.892 83.44 188.479 83.44C185.545 83.44 184.079 85.32 184.079 89.08C184.079 92.84 185.545 94.72 188.479 94.72ZM214.874 78.88C217.221 78.88 218.968 79.5733 220.114 80.96C221.261 82.32 221.834 84.3867 221.834 87.16V96.4C221.834 97.28 221.554 97.9733 220.994 98.48C220.461 98.9867 219.728 99.24 218.794 99.24C217.861 99.24 217.128 98.9867 216.594 98.48C216.061 97.9733 215.794 97.28 215.794 96.4V87.44C215.794 86.1067 215.541 85.1333 215.034 84.52C214.554 83.9067 213.794 83.6 212.754 83.6C211.501 83.6 210.488 84 209.714 84.8C208.968 85.6 208.594 86.6667 208.594 88V96.4C208.594 97.28 208.328 97.9733 207.794 98.48C207.261 98.9867 206.528 99.24 205.594 99.24C204.661 99.24 203.914 98.9867 203.354 98.48C202.821 97.9733 202.554 97.28 202.554 96.4V81.72C202.554 80.8933 202.834 80.2267 203.394 79.72C203.981 79.2133 204.728 78.96 205.634 78.96C206.461 78.96 207.128 79.2133 207.634 79.72C208.168 80.2 208.434 80.8267 208.434 81.6V82.16C209.128 81.0933 210.021 80.28 211.114 79.72C212.234 79.16 213.488 78.88 214.874 78.88ZM237.263 94.84C238.063 94.8933 238.65 95.0933 239.023 95.44C239.397 95.7867 239.583 96.2933 239.583 96.96C239.583 97.7333 239.277 98.32 238.663 98.72C238.05 99.12 237.17 99.28 236.023 99.2L234.903 99.12C230.237 98.7467 227.903 96.3067 227.903 91.8V83.88H226.303C225.423 83.88 224.757 83.6933 224.303 83.32C223.85 82.92 223.623 82.36 223.623 81.64C223.623 80.8933 223.85 80.3333 224.303 79.96C224.757 79.56 225.423 79.36 226.303 79.36H227.903V76.24C227.903 75.36 228.17 74.6667 228.703 74.16C229.263 73.6533 230.01 73.4 230.943 73.4C231.877 73.4 232.61 73.6533 233.143 74.16C233.677 74.6667 233.943 75.36 233.943 76.24V79.36H236.743C238.557 79.36 239.463 80.12 239.463 81.64C239.463 82.36 239.237 82.92 238.783 83.32C238.33 83.6933 237.65 83.88 236.743 83.88H233.943V92.24C233.943 93.04 234.13 93.6533 234.503 94.08C234.877 94.48 235.423 94.7067 236.143 94.76L237.263 94.84ZM253.532 78.96C254.332 78.9067 254.959 79.0933 255.412 79.52C255.892 79.92 256.132 80.5333 256.132 81.36C256.132 82.24 255.919 82.8933 255.492 83.32C255.066 83.7467 254.306 84.0133 253.212 84.12L252.012 84.24C250.546 84.4 249.479 84.88 248.812 85.68C248.172 86.48 247.852 87.5067 247.852 88.76V96.4C247.852 97.3333 247.559 98.04 246.972 98.52C246.412 99 245.706 99.24 244.852 99.24C243.972 99.24 243.239 99 242.652 98.52C242.092 98.04 241.812 97.3333 241.812 96.4V81.72C241.812 80.84 242.106 80.16 242.692 79.68C243.279 79.2 243.986 78.96 244.812 78.96C245.612 78.96 246.279 79.2 246.812 79.68C247.346 80.1333 247.612 80.7733 247.612 81.6V82.68C248.092 81.5333 248.812 80.6533 249.772 80.04C250.759 79.4267 251.826 79.08 252.972 79L253.532 78.96ZM260.907 99.24C260.027 99.24 259.294 99 258.707 98.52C258.147 98.04 257.867 97.3333 257.867 96.4V81.8C257.867 80.8667 258.16 80.16 258.747 79.68C259.334 79.2 260.054 78.96 260.907 78.96C261.76 78.96 262.467 79.2 263.027 79.68C263.614 80.16 263.907 80.8667 263.907 81.8V96.4C263.907 97.3333 263.614 98.04 263.027 98.52C262.467 99 261.76 99.24 260.907 99.24ZM260.907 75.76C259.84 75.76 259 75.4933 258.387 74.96C257.774 74.4 257.467 73.6533 257.467 72.72C257.467 71.7867 257.774 71.0533 258.387 70.52C259 69.9867 259.84 69.72 260.907 69.72C261.947 69.72 262.774 70 263.387 70.56C264.027 71.0933 264.347 71.8133 264.347 72.72C264.347 73.6533 264.04 74.4 263.427 74.96C262.814 75.4933 261.974 75.76 260.907 75.76ZM280.691 78.88C282.398 78.88 283.904 79.2933 285.211 80.12C286.518 80.9467 287.531 82.1333 288.251 83.68C288.998 85.2 289.371 86.9733 289.371 89C289.371 91.0267 288.998 92.8267 288.251 94.4C287.531 95.9467 286.504 97.16 285.171 98.04C283.864 98.8933 282.371 99.32 280.691 99.32C279.331 99.32 278.104 99.04 277.011 98.48C275.918 97.8933 275.078 97.0933 274.491 96.08V96.4C274.491 97.2533 274.224 97.9467 273.691 98.48C273.158 98.9867 272.438 99.24 271.531 99.24C270.624 99.24 269.891 98.9867 269.331 98.48C268.798 97.9467 268.531 97.2533 268.531 96.4V73.36C268.531 72.5333 268.811 71.8667 269.371 71.36C269.958 70.8533 270.718 70.6 271.651 70.6C272.531 70.6 273.238 70.84 273.771 71.32C274.304 71.8 274.571 72.44 274.571 73.24V82C275.158 81.0133 275.984 80.2533 277.051 79.72C278.144 79.16 279.358 78.88 280.691 78.88ZM278.931 94.72C280.344 94.72 281.438 94.2267 282.211 93.24C282.984 92.2267 283.371 90.8133 283.371 89C283.371 87.2133 282.984 85.8533 282.211 84.92C281.438 83.96 280.344 83.48 278.931 83.48C277.518 83.48 276.424 83.9733 275.651 84.96C274.878 85.92 274.491 87.2933 274.491 89.08C274.491 90.8933 274.878 92.2933 275.651 93.28C276.424 94.24 277.518 94.72 278.931 94.72ZM308.942 78.96C309.876 78.96 310.609 79.2133 311.142 79.72C311.702 80.2267 311.982 80.92 311.982 81.8V96.48C311.982 97.3067 311.689 97.9733 311.102 98.48C310.542 98.9867 309.809 99.24 308.902 99.24C308.049 99.24 307.369 99 306.862 98.52C306.356 98.04 306.102 97.4 306.102 96.6V96.2C305.489 97.2133 304.676 97.9867 303.662 98.52C302.676 99.0533 301.556 99.32 300.302 99.32C297.822 99.32 295.969 98.64 294.742 97.28C293.542 95.8933 292.942 93.8133 292.942 91.04V81.8C292.942 80.92 293.209 80.2267 293.742 79.72C294.302 79.2133 295.049 78.96 295.982 78.96C296.916 78.96 297.649 79.2133 298.182 79.72C298.716 80.2267 298.982 80.92 298.982 81.8V91.16C298.982 92.3333 299.222 93.2 299.702 93.76C300.209 94.32 300.969 94.6 301.982 94.6C303.156 94.6 304.102 94.2 304.822 93.4C305.569 92.6 305.942 91.5467 305.942 90.24V81.8C305.942 80.92 306.209 80.2267 306.742 79.72C307.276 79.2133 308.009 78.96 308.942 78.96ZM325.457 78.88C328.337 78.88 330.47 79.5867 331.857 81C333.244 82.3867 333.937 84.52 333.937 87.4V96.44C333.937 97.32 333.684 98.0133 333.177 98.52C332.67 99 331.964 99.24 331.057 99.24C330.204 99.24 329.51 98.9867 328.977 98.48C328.47 97.9467 328.217 97.2667 328.217 96.44V96.16C327.817 97.1467 327.15 97.92 326.217 98.48C325.284 99.04 324.19 99.32 322.937 99.32C321.604 99.32 320.39 99.0533 319.297 98.52C318.23 97.9867 317.377 97.24 316.737 96.28C316.124 95.32 315.817 94.2533 315.817 93.08C315.817 91.64 316.177 90.5067 316.897 89.68C317.644 88.8533 318.83 88.2533 320.457 87.88C322.084 87.5067 324.31 87.32 327.137 87.32H328.177V86.6C328.177 85.48 327.924 84.6667 327.417 84.16C326.937 83.6533 326.124 83.4 324.977 83.4C323.83 83.4 322.177 83.8 320.017 84.6C319.404 84.8933 318.884 85.04 318.457 85.04C317.87 85.04 317.404 84.84 317.057 84.44C316.71 84.0133 316.537 83.4667 316.537 82.8C316.537 82.2667 316.657 81.8267 316.897 81.48C317.137 81.1333 317.524 80.8133 318.057 80.52C318.99 80.0133 320.124 79.6133 321.457 79.32C322.817 79.0267 324.15 78.88 325.457 78.88ZM324.257 95.16C325.43 95.16 326.377 94.7733 327.097 94C327.817 93.2 328.177 92.1733 328.177 90.92V90.24H327.497C325.337 90.24 323.817 90.4133 322.937 90.76C322.084 91.1067 321.657 91.7333 321.657 92.64C321.657 93.3867 321.897 94 322.377 94.48C322.884 94.9333 323.51 95.16 324.257 95.16ZM361.785 78.88C363.465 78.88 364.958 79.32 366.265 80.2C367.598 81.0533 368.625 82.2667 369.345 83.84C370.091 85.3867 370.465 87.1733 370.465 89.2C370.465 91.2267 370.091 93.0133 369.345 94.56C368.625 96.08 367.611 97.2533 366.305 98.08C364.998 98.9067 363.491 99.32 361.785 99.32C360.451 99.32 359.238 99.0533 358.145 98.52C357.078 97.96 356.251 97.1867 355.665 96.2V103.76C355.665 104.56 355.398 105.2 354.865 105.68C354.331 106.16 353.625 106.4 352.745 106.4C351.811 106.4 351.051 106.147 350.465 105.64C349.905 105.133 349.625 104.467 349.625 103.64V81.8C349.625 80.9467 349.891 80.2667 350.425 79.76C350.985 79.2267 351.718 78.96 352.625 78.96C353.531 78.96 354.251 79.2267 354.785 79.76C355.318 80.2667 355.585 80.9467 355.585 81.8V82.12C356.171 81.1067 357.011 80.32 358.105 79.76C359.198 79.1733 360.425 78.88 361.785 78.88ZM360.025 94.72C361.438 94.72 362.531 94.2533 363.305 93.32C364.078 92.36 364.465 90.9867 364.465 89.2C364.465 87.3867 364.078 85.9867 363.305 85C362.531 83.9867 361.438 83.48 360.025 83.48C358.611 83.48 357.518 83.9733 356.745 84.96C355.971 85.92 355.585 87.3067 355.585 89.12C355.585 90.9067 355.971 92.2933 356.745 93.28C357.518 94.24 358.611 94.72 360.025 94.72ZM382.996 78.88C385.876 78.88 388.009 79.5867 389.396 81C390.783 82.3867 391.476 84.52 391.476 87.4V96.44C391.476 97.32 391.223 98.0133 390.716 98.52C390.209 99 389.503 99.24 388.596 99.24C387.743 99.24 387.049 98.9867 386.516 98.48C386.009 97.9467 385.756 97.2667 385.756 96.44V96.16C385.356 97.1467 384.689 97.92 383.756 98.48C382.823 99.04 381.729 99.32 380.476 99.32C379.143 99.32 377.929 99.0533 376.836 98.52C375.769 97.9867 374.916 97.24 374.276 96.28C373.663 95.32 373.356 94.2533 373.356 93.08C373.356 91.64 373.716 90.5067 374.436 89.68C375.183 88.8533 376.369 88.2533 377.996 87.88C379.623 87.5067 381.849 87.32 384.676 87.32H385.716V86.6C385.716 85.48 385.463 84.6667 384.956 84.16C384.476 83.6533 383.663 83.4 382.516 83.4C381.369 83.4 379.716 83.8 377.556 84.6C376.943 84.8933 376.423 85.04 375.996 85.04C375.409 85.04 374.943 84.84 374.596 84.44C374.249 84.0133 374.076 83.4667 374.076 82.8C374.076 82.2667 374.196 81.8267 374.436 81.48C374.676 81.1333 375.063 80.8133 375.596 80.52C376.529 80.0133 377.663 79.6133 378.996 79.32C380.356 79.0267 381.689 78.88 382.996 78.88ZM381.796 95.16C382.969 95.16 383.916 94.7733 384.636 94C385.356 93.2 385.716 92.1733 385.716 90.92V90.24H385.036C382.876 90.24 381.356 90.4133 380.476 90.76C379.623 91.1067 379.196 91.7333 379.196 92.64C379.196 93.3867 379.436 94 379.916 94.48C380.423 94.9333 381.049 95.16 381.796 95.16ZM407.712 78.96C408.512 78.9067 409.139 79.0933 409.592 79.52C410.072 79.92 410.312 80.5333 410.312 81.36C410.312 82.24 410.099 82.8933 409.672 83.32C409.245 83.7467 408.485 84.0133 407.392 84.12L406.192 84.24C404.725 84.4 403.659 84.88 402.992 85.68C402.352 86.48 402.032 87.5067 402.032 88.76V96.4C402.032 97.3333 401.739 98.04 401.152 98.52C400.592 99 399.885 99.24 399.032 99.24C398.152 99.24 397.419 99 396.832 98.52C396.272 98.04 395.992 97.3333 395.992 96.4V81.72C395.992 80.84 396.285 80.16 396.872 79.68C397.459 79.2 398.165 78.96 398.992 78.96C399.792 78.96 400.459 79.2 400.992 79.68C401.525 80.1333 401.792 80.7733 401.792 81.6V82.68C402.272 81.5333 402.992 80.6533 403.952 80.04C404.939 79.4267 406.005 79.08 407.152 79L407.712 78.96ZM420.887 78.88C423.767 78.88 425.9 79.5867 427.287 81C428.673 82.3867 429.367 84.52 429.367 87.4V96.44C429.367 97.32 429.113 98.0133 428.607 98.52C428.1 99 427.393 99.24 426.487 99.24C425.633 99.24 424.94 98.9867 424.407 98.48C423.9 97.9467 423.647 97.2667 423.647 96.44V96.16C423.247 97.1467 422.58 97.92 421.647 98.48C420.713 99.04 419.62 99.32 418.367 99.32C417.033 99.32 415.82 99.0533 414.727 98.52C413.66 97.9867 412.807 97.24 412.167 96.28C411.553 95.32 411.247 94.2533 411.247 93.08C411.247 91.64 411.607 90.5067 412.327 89.68C413.073 88.8533 414.26 88.2533 415.887 87.88C417.513 87.5067 419.74 87.32 422.567 87.32H423.607V86.6C423.607 85.48 423.353 84.6667 422.847 84.16C422.367 83.6533 421.553 83.4 420.407 83.4C419.26 83.4 417.607 83.8 415.447 84.6C414.833 84.8933 414.313 85.04 413.887 85.04C413.3 85.04 412.833 84.84 412.487 84.44C412.14 84.0133 411.967 83.4667 411.967 82.8C411.967 82.2667 412.087 81.8267 412.327 81.48C412.567 81.1333 412.953 80.8133 413.487 80.52C414.42 80.0133 415.553 79.6133 416.887 79.32C418.247 79.0267 419.58 78.88 420.887 78.88ZM419.687 95.16C420.86 95.16 421.807 94.7733 422.527 94C423.247 93.2 423.607 92.1733 423.607 90.92V90.24H422.927C420.767 90.24 419.247 90.4133 418.367 90.76C417.513 91.1067 417.087 91.7333 417.087 92.64C417.087 93.3867 417.327 94 417.807 94.48C418.313 94.9333 418.94 95.16 419.687 95.16ZM454.494 99.32C452.414 99.32 450.588 98.9067 449.014 98.08C447.441 97.2267 446.228 96.04 445.374 94.52C444.521 92.9733 444.094 91.16 444.094 89.08C444.094 87 444.521 85.2 445.374 83.68C446.228 82.1333 447.441 80.9467 449.014 80.12C450.588 79.2933 452.414 78.88 454.494 78.88C456.574 78.88 458.401 79.2933 459.974 80.12C461.548 80.9467 462.761 82.1333 463.614 83.68C464.468 85.2 464.894 87 464.894 89.08C464.894 91.16 464.468 92.9733 463.614 94.52C462.761 96.04 461.548 97.2267 459.974 98.08C458.401 98.9067 456.574 99.32 454.494 99.32ZM454.494 94.72C457.428 94.72 458.894 92.84 458.894 89.08C458.894 87.1867 458.508 85.7733 457.734 84.84C456.988 83.9067 455.908 83.44 454.494 83.44C451.561 83.44 450.094 85.32 450.094 89.08C450.094 92.84 451.561 94.72 454.494 94.72ZM490.422 75.2C489.329 75.28 488.542 75.6133 488.062 76.2C487.582 76.7867 487.342 77.6133 487.342 78.68V79.36H490.142C491.955 79.36 492.862 80.12 492.862 81.64C492.862 83.1333 491.955 83.88 490.142 83.88H487.342V96.36C487.342 97.2933 487.049 98 486.462 98.48C485.902 98.96 485.195 99.2 484.342 99.2C483.462 99.2 482.729 98.96 482.142 98.48C481.582 98 481.302 97.2933 481.302 96.36V83.88H479.702C477.915 83.88 477.022 83.1333 477.022 81.64C477.022 80.12 477.915 79.36 479.702 79.36H481.302C481.302 76.8 482.009 74.7867 483.422 73.32C484.835 71.8533 486.782 71.0267 489.262 70.84L490.302 70.76L491.022 70.72C492.862 70.72 493.782 71.4267 493.782 72.84C493.782 74.2267 493.009 74.9867 491.462 75.12L490.422 75.2ZM510.661 78.96C511.594 78.96 512.328 79.2133 512.861 79.72C513.421 80.2267 513.701 80.92 513.701 81.8V96.48C513.701 97.3067 513.408 97.9733 512.821 98.48C512.261 98.9867 511.528 99.24 510.621 99.24C509.768 99.24 509.088 99 508.581 98.52C508.074 98.04 507.821 97.4 507.821 96.6V96.2C507.208 97.2133 506.394 97.9867 505.381 98.52C504.394 99.0533 503.274 99.32 502.021 99.32C499.541 99.32 497.688 98.64 496.461 97.28C495.261 95.8933 494.661 93.8133 494.661 91.04V81.8C494.661 80.92 494.928 80.2267 495.461 79.72C496.021 79.2133 496.768 78.96 497.701 78.96C498.634 78.96 499.368 79.2133 499.901 79.72C500.434 80.2267 500.701 80.92 500.701 81.8V91.16C500.701 92.3333 500.941 93.2 501.421 93.76C501.928 94.32 502.688 94.6 503.701 94.6C504.874 94.6 505.821 94.2 506.541 93.4C507.288 92.6 507.661 91.5467 507.661 90.24V81.8C507.661 80.92 507.928 80.2267 508.461 79.72C508.994 79.2133 509.728 78.96 510.661 78.96ZM529.256 94.84C530.056 94.8933 530.642 95.0933 531.016 95.44C531.389 95.7867 531.576 96.2933 531.576 96.96C531.576 97.7333 531.269 98.32 530.656 98.72C530.042 99.12 529.162 99.28 528.016 99.2L526.896 99.12C522.229 98.7467 519.896 96.3067 519.896 91.8V83.88H518.296C517.416 83.88 516.749 83.6933 516.296 83.32C515.842 82.92 515.616 82.36 515.616 81.64C515.616 80.8933 515.842 80.3333 516.296 79.96C516.749 79.56 517.416 79.36 518.296 79.36H519.896V76.24C519.896 75.36 520.162 74.6667 520.696 74.16C521.256 73.6533 522.002 73.4 522.936 73.4C523.869 73.4 524.602 73.6533 525.136 74.16C525.669 74.6667 525.936 75.36 525.936 76.24V79.36H528.736C530.549 79.36 531.456 80.12 531.456 81.64C531.456 82.36 531.229 82.92 530.776 83.32C530.322 83.6933 529.642 83.88 528.736 83.88H525.936V92.24C525.936 93.04 526.122 93.6533 526.496 94.08C526.869 94.48 527.416 94.7067 528.136 94.76L529.256 94.84ZM549.684 78.96C550.618 78.96 551.351 79.2133 551.884 79.72C552.444 80.2267 552.724 80.92 552.724 81.8V96.48C552.724 97.3067 552.431 97.9733 551.844 98.48C551.284 98.9867 550.551 99.24 549.644 99.24C548.791 99.24 548.111 99 547.604 98.52C547.098 98.04 546.844 97.4 546.844 96.6V96.2C546.231 97.2133 545.418 97.9867 544.404 98.52C543.418 99.0533 542.298 99.32 541.044 99.32C538.564 99.32 536.711 98.64 535.484 97.28C534.284 95.8933 533.684 93.8133 533.684 91.04V81.8C533.684 80.92 533.951 80.2267 534.484 79.72C535.044 79.2133 535.791 78.96 536.724 78.96C537.658 78.96 538.391 79.2133 538.924 79.72C539.458 80.2267 539.724 80.92 539.724 81.8V91.16C539.724 92.3333 539.964 93.2 540.444 93.76C540.951 94.32 541.711 94.6 542.724 94.6C543.898 94.6 544.844 94.2 545.564 93.4C546.311 92.6 546.684 91.5467 546.684 90.24V81.8C546.684 80.92 546.951 80.2267 547.484 79.72C548.018 79.2133 548.751 78.96 549.684 78.96ZM569.079 78.96C569.879 78.9067 570.506 79.0933 570.959 79.52C571.439 79.92 571.679 80.5333 571.679 81.36C571.679 82.24 571.466 82.8933 571.039 83.32C570.612 83.7467 569.852 84.0133 568.759 84.12L567.559 84.24C566.092 84.4 565.026 84.88 564.359 85.68C563.719 86.48 563.399 87.5067 563.399 88.76V96.4C563.399 97.3333 563.106 98.04 562.519 98.52C561.959 99 561.252 99.24 560.399 99.24C559.519 99.24 558.786 99 558.199 98.52C557.639 98.04 557.359 97.3333 557.359 96.4V81.72C557.359 80.84 557.652 80.16 558.239 79.68C558.826 79.2 559.532 78.96 560.359 78.96C561.159 78.96 561.826 79.2 562.359 79.68C562.892 80.1333 563.159 80.7733 563.159 81.6V82.68C563.639 81.5333 564.359 80.6533 565.319 80.04C566.306 79.4267 567.372 79.08 568.519 79L569.079 78.96ZM582.463 99.32C580.383 99.32 578.556 98.9067 576.983 98.08C575.41 97.2267 574.196 96.04 573.343 94.52C572.49 92.9733 572.063 91.16 572.063 89.08C572.063 87 572.49 85.2 573.343 83.68C574.196 82.1333 575.41 80.9467 576.983 80.12C578.556 79.2933 580.383 78.88 582.463 78.88C584.543 78.88 586.37 79.2933 587.943 80.12C589.516 80.9467 590.73 82.1333 591.583 83.68C592.436 85.2 592.863 87 592.863 89.08C592.863 91.16 592.436 92.9733 591.583 94.52C590.73 96.04 589.516 97.2267 587.943 98.08C586.37 98.9067 584.543 99.32 582.463 99.32ZM582.463 94.72C585.396 94.72 586.863 92.84 586.863 89.08C586.863 87.1867 586.476 85.7733 585.703 84.84C584.956 83.9067 583.876 83.44 582.463 83.44C579.53 83.44 578.063 85.32 578.063 89.08C578.063 92.84 579.53 94.72 582.463 94.72ZM624.471 70.6C625.404 70.6 626.151 70.8533 626.711 71.36C627.297 71.8667 627.591 72.5333 627.591 73.36V96.4C627.591 97.2533 627.311 97.9467 626.751 98.48C626.217 98.9867 625.497 99.24 624.591 99.24C623.684 99.24 622.951 98.9867 622.391 98.48C621.857 97.9467 621.591 97.2533 621.591 96.4V96.08C621.004 97.0933 620.164 97.8933 619.071 98.48C618.004 99.04 616.791 99.32 615.431 99.32C613.751 99.32 612.244 98.8933 610.911 98.04C609.604 97.16 608.577 95.9467 607.831 94.4C607.111 92.8267 606.751 91.0267 606.751 89C606.751 86.9733 607.111 85.2 607.831 83.68C608.577 82.1333 609.604 80.9467 610.911 80.12C612.217 79.2933 613.724 78.88 615.431 78.88C616.764 78.88 617.964 79.16 619.031 79.72C620.124 80.28 620.964 81.0667 621.551 82.08V73.24C621.551 72.44 621.817 71.8 622.351 71.32C622.884 70.84 623.591 70.6 624.471 70.6ZM617.191 94.72C618.604 94.72 619.684 94.24 620.431 93.28C621.204 92.2933 621.591 90.8933 621.591 89.08C621.591 87.2667 621.204 85.88 620.431 84.92C619.684 83.96 618.604 83.48 617.191 83.48C615.777 83.48 614.684 83.96 613.911 84.92C613.137 85.8533 612.751 87.2133 612.751 89C612.751 90.8133 613.137 92.2267 613.911 93.24C614.684 94.2267 615.777 94.72 617.191 94.72ZM641.082 78.88C643.962 78.88 646.095 79.5867 647.482 81C648.869 82.3867 649.562 84.52 649.562 87.4V96.44C649.562 97.32 649.309 98.0133 648.802 98.52C648.295 99 647.589 99.24 646.682 99.24C645.829 99.24 645.135 98.9867 644.602 98.48C644.095 97.9467 643.842 97.2667 643.842 96.44V96.16C643.442 97.1467 642.775 97.92 641.842 98.48C640.909 99.04 639.815 99.32 638.562 99.32C637.229 99.32 636.015 99.0533 634.922 98.52C633.855 97.9867 633.002 97.24 632.362 96.28C631.749 95.32 631.442 94.2533 631.442 93.08C631.442 91.64 631.802 90.5067 632.522 89.68C633.269 88.8533 634.455 88.2533 636.082 87.88C637.709 87.5067 639.935 87.32 642.762 87.32H643.802V86.6C643.802 85.48 643.549 84.6667 643.042 84.16C642.562 83.6533 641.749 83.4 640.602 83.4C639.455 83.4 637.802 83.8 635.642 84.6C635.029 84.8933 634.509 85.04 634.082 85.04C633.495 85.04 633.029 84.84 632.682 84.44C632.335 84.0133 632.162 83.4667 632.162 82.8C632.162 82.2667 632.282 81.8267 632.522 81.48C632.762 81.1333 633.149 80.8133 633.682 80.52C634.615 80.0133 635.749 79.6133 637.082 79.32C638.442 79.0267 639.775 78.88 641.082 78.88ZM639.882 95.16C641.055 95.16 642.002 94.7733 642.722 94C643.442 93.2 643.802 92.1733 643.802 90.92V90.24H643.122C640.962 90.24 639.442 90.4133 638.562 90.76C637.709 91.1067 637.282 91.7333 637.282 92.64C637.282 93.3867 637.522 94 638.002 94.48C638.509 94.9333 639.135 95.16 639.882 95.16ZM168.08 137.16C168.613 137.16 169.04 137.373 169.36 137.8C169.707 138.227 169.88 138.773 169.88 139.44C169.88 139.893 169.747 140.32 169.48 140.72C169.213 141.093 168.84 141.413 168.36 141.68C167.453 142.16 166.4 142.56 165.2 142.88C164 143.173 162.893 143.32 161.88 143.32C159.747 143.32 157.88 142.907 156.28 142.08C154.707 141.253 153.493 140.08 152.64 138.56C151.787 137.013 151.36 135.2 151.36 133.12C151.36 131.12 151.773 129.347 152.6 127.8C153.427 126.253 154.573 125.053 156.04 124.2C157.507 123.32 159.173 122.88 161.04 122.88C162.827 122.88 164.387 123.28 165.72 124.08C167.08 124.853 168.133 125.973 168.88 127.44C169.627 128.88 170 130.573 170 132.52C170 133.107 169.853 133.56 169.56 133.88C169.293 134.173 168.907 134.32 168.4 134.32H157.2C157.387 135.893 157.867 137.04 158.64 137.76C159.413 138.453 160.52 138.8 161.96 138.8C162.733 138.8 163.427 138.707 164.04 138.52C164.653 138.333 165.333 138.08 166.08 137.76C166.453 137.6 166.813 137.467 167.16 137.36C167.507 137.227 167.813 137.16 168.08 137.16ZM161.2 127.04C160.053 127.04 159.133 127.413 158.44 128.16C157.747 128.88 157.333 129.933 157.2 131.32H164.92C164.84 129.907 164.48 128.84 163.84 128.12C163.227 127.4 162.347 127.04 161.2 127.04ZM190.408 114.6C191.341 114.6 192.088 114.853 192.648 115.36C193.235 115.867 193.528 116.533 193.528 117.36V140.4C193.528 141.253 193.248 141.947 192.688 142.48C192.155 142.987 191.435 143.24 190.528 143.24C189.621 143.24 188.888 142.987 188.328 142.48C187.795 141.947 187.528 141.253 187.528 140.4V140.08C186.941 141.093 186.101 141.893 185.008 142.48C183.941 143.04 182.728 143.32 181.368 143.32C179.688 143.32 178.181 142.893 176.848 142.04C175.541 141.16 174.515 139.947 173.768 138.4C173.048 136.827 172.688 135.027 172.688 133C172.688 130.973 173.048 129.2 173.768 127.68C174.515 126.133 175.541 124.947 176.848 124.12C178.155 123.293 179.661 122.88 181.368 122.88C182.701 122.88 183.901 123.16 184.968 123.72C186.061 124.28 186.901 125.067 187.488 126.08V117.24C187.488 116.44 187.755 115.8 188.288 115.32C188.821 114.84 189.528 114.6 190.408 114.6ZM183.128 138.72C184.541 138.72 185.621 138.24 186.368 137.28C187.141 136.293 187.528 134.893 187.528 133.08C187.528 131.267 187.141 129.88 186.368 128.92C185.621 127.96 184.541 127.48 183.128 127.48C181.715 127.48 180.621 127.96 179.848 128.92C179.075 129.853 178.688 131.213 178.688 133C178.688 134.813 179.075 136.227 179.848 137.24C180.621 138.227 181.715 138.72 183.128 138.72ZM214.059 122.96C214.993 122.96 215.726 123.213 216.259 123.72C216.819 124.227 217.099 124.92 217.099 125.8V140.48C217.099 141.307 216.806 141.973 216.219 142.48C215.659 142.987 214.926 143.24 214.019 143.24C213.166 143.24 212.486 143 211.979 142.52C211.473 142.04 211.219 141.4 211.219 140.6V140.2C210.606 141.213 209.793 141.987 208.779 142.52C207.793 143.053 206.673 143.32 205.419 143.32C202.939 143.32 201.086 142.64 199.859 141.28C198.659 139.893 198.059 137.813 198.059 135.04V125.8C198.059 124.92 198.326 124.227 198.859 123.72C199.419 123.213 200.166 122.96 201.099 122.96C202.033 122.96 202.766 123.213 203.299 123.72C203.833 124.227 204.099 124.92 204.099 125.8V135.16C204.099 136.333 204.339 137.2 204.819 137.76C205.326 138.32 206.086 138.6 207.099 138.6C208.273 138.6 209.219 138.2 209.939 137.4C210.686 136.6 211.059 135.547 211.059 134.24V125.8C211.059 124.92 211.326 124.227 211.859 123.72C212.393 123.213 213.126 122.96 214.059 122.96ZM230.814 143.32C228.787 143.32 227.014 142.907 225.494 142.08C223.974 141.253 222.801 140.08 221.974 138.56C221.174 137.04 220.774 135.253 220.774 133.2C220.774 131.147 221.201 129.347 222.054 127.8C222.934 126.227 224.161 125.013 225.734 124.16C227.307 123.307 229.121 122.88 231.174 122.88C232.241 122.88 233.307 123.027 234.374 123.32C235.467 123.613 236.441 124.027 237.294 124.56C238.121 125.067 238.534 125.813 238.534 126.8C238.534 127.493 238.374 128.067 238.054 128.52C237.734 128.947 237.307 129.16 236.774 129.16C236.427 129.16 236.094 129.107 235.774 129C235.481 128.867 235.081 128.68 234.574 128.44C234.014 128.147 233.507 127.92 233.054 127.76C232.627 127.6 232.134 127.52 231.574 127.52C230.081 127.52 228.934 128 228.134 128.96C227.361 129.893 226.974 131.267 226.974 133.08C226.974 134.893 227.361 136.28 228.134 137.24C228.934 138.2 230.081 138.68 231.574 138.68C232.134 138.68 232.627 138.613 233.054 138.48C233.481 138.32 234.001 138.08 234.614 137.76C235.121 137.52 235.521 137.347 235.814 137.24C236.107 137.107 236.427 137.04 236.774 137.04C237.281 137.04 237.694 137.267 238.014 137.72C238.361 138.173 238.534 138.747 238.534 139.44C238.534 140.427 238.121 141.16 237.294 141.64C236.441 142.173 235.454 142.587 234.334 142.88C233.214 143.173 232.041 143.32 230.814 143.32ZM250.34 122.88C253.22 122.88 255.353 123.587 256.74 125C258.126 126.387 258.82 128.52 258.82 131.4V140.44C258.82 141.32 258.566 142.013 258.06 142.52C257.553 143 256.846 143.24 255.94 143.24C255.086 143.24 254.393 142.987 253.86 142.48C253.353 141.947 253.1 141.267 253.1 140.44V140.16C252.7 141.147 252.033 141.92 251.1 142.48C250.166 143.04 249.073 143.32 247.82 143.32C246.486 143.32 245.273 143.053 244.18 142.52C243.113 141.987 242.26 141.24 241.62 140.28C241.006 139.32 240.7 138.253 240.7 137.08C240.7 135.64 241.06 134.507 241.78 133.68C242.526 132.853 243.713 132.253 245.34 131.88C246.966 131.507 249.193 131.32 252.02 131.32H253.06V130.6C253.06 129.48 252.806 128.667 252.3 128.16C251.82 127.653 251.006 127.4 249.86 127.4C248.713 127.4 247.06 127.8 244.9 128.6C244.286 128.893 243.766 129.04 243.34 129.04C242.753 129.04 242.286 128.84 241.94 128.44C241.593 128.013 241.42 127.467 241.42 126.8C241.42 126.267 241.54 125.827 241.78 125.48C242.02 125.133 242.406 124.813 242.94 124.52C243.873 124.013 245.006 123.613 246.34 123.32C247.7 123.027 249.033 122.88 250.34 122.88ZM249.14 139.16C250.313 139.16 251.26 138.773 251.98 138C252.7 137.2 253.06 136.173 253.06 134.92V134.24H252.38C250.22 134.24 248.7 134.413 247.82 134.76C246.966 135.107 246.54 135.733 246.54 136.64C246.54 137.387 246.78 138 247.26 138.48C247.766 138.933 248.393 139.16 249.14 139.16ZM278.376 137.04C278.882 137.04 279.296 137.267 279.616 137.72C279.962 138.173 280.136 138.747 280.136 139.44C280.136 140.427 279.722 141.16 278.896 141.64C277.456 142.573 275.682 143.12 273.576 143.28L273.416 144.68C273.842 144.627 274.136 144.6 274.296 144.6C275.122 144.6 275.816 144.853 276.376 145.36C276.962 145.867 277.256 146.533 277.256 147.36C277.256 148.4 276.789 149.24 275.856 149.88C274.922 150.547 273.589 150.88 271.856 150.88C270.736 150.88 269.789 150.747 269.016 150.48C268.482 150.293 268.216 149.893 268.216 149.28C268.216 148.907 268.336 148.587 268.576 148.32C268.816 148.053 269.109 147.973 269.456 148.08C270.362 148.293 271.109 148.4 271.696 148.4C272.922 148.4 273.536 148.053 273.536 147.36C273.536 147.12 273.442 146.933 273.256 146.8C273.096 146.667 272.869 146.6 272.576 146.6C272.336 146.6 272.029 146.64 271.656 146.72C271.282 146.8 271.002 146.84 270.816 146.84C270.549 146.84 270.336 146.76 270.176 146.6C270.042 146.467 269.989 146.267 270.016 146L270.376 143.16C267.896 142.787 265.936 141.72 264.496 139.96C263.082 138.173 262.376 135.92 262.376 133.2C262.376 131.147 262.802 129.347 263.656 127.8C264.536 126.227 265.762 125.013 267.336 124.16C268.909 123.307 270.722 122.88 272.776 122.88C273.842 122.88 274.909 123.027 275.976 123.32C277.069 123.613 278.042 124.027 278.896 124.56C279.722 125.067 280.136 125.813 280.136 126.8C280.136 127.493 279.976 128.067 279.656 128.52C279.336 128.947 278.909 129.16 278.376 129.16C278.029 129.16 277.696 129.107 277.376 129C277.082 128.867 276.682 128.68 276.176 128.44C275.616 128.147 275.109 127.92 274.656 127.76C274.229 127.6 273.736 127.52 273.176 127.52C271.682 127.52 270.536 128 269.736 128.96C268.962 129.893 268.576 131.267 268.576 133.08C268.576 134.893 268.962 136.28 269.736 137.24C270.536 138.2 271.682 138.68 273.176 138.68C273.736 138.68 274.229 138.613 274.656 138.48C275.082 138.32 275.602 138.08 276.216 137.76C276.722 137.52 277.122 137.347 277.416 137.24C277.709 137.107 278.029 137.04 278.376 137.04ZM291.941 122.88C294.821 122.88 296.955 123.587 298.341 125C299.728 126.387 300.421 128.52 300.421 131.4V140.44C300.421 141.32 300.168 142.013 299.661 142.52C299.155 143 298.448 143.24 297.541 143.24C296.688 143.24 295.995 142.987 295.461 142.48C294.955 141.947 294.701 141.267 294.701 140.44V140.16C294.301 141.147 293.635 141.92 292.701 142.48C291.768 143.04 290.675 143.32 289.421 143.32C288.088 143.32 286.875 143.053 285.781 142.52C284.715 141.987 283.861 141.24 283.221 140.28C282.608 139.32 282.301 138.253 282.301 137.08C282.301 135.64 282.661 134.507 283.381 133.68C284.128 132.853 285.315 132.253 286.941 131.88C288.568 131.507 290.795 131.32 293.621 131.32H294.661V130.6C294.661 129.48 294.408 128.667 293.901 128.16C293.421 127.653 292.608 127.4 291.461 127.4C290.315 127.4 288.661 127.8 286.501 128.6C285.888 128.893 285.368 129.04 284.941 129.04C284.355 129.04 283.888 128.84 283.541 128.44C283.195 128.013 283.021 127.467 283.021 126.8C283.021 126.267 283.141 125.827 283.381 125.48C283.621 125.133 284.008 124.813 284.541 124.52C285.475 124.013 286.608 123.613 287.941 123.32C289.301 123.027 290.635 122.88 291.941 122.88ZM290.741 139.16C291.915 139.16 292.861 138.773 293.581 138C294.301 137.2 294.661 136.173 294.661 134.92V134.24H293.981C291.821 134.24 290.301 134.413 289.421 134.76C288.568 135.107 288.141 135.733 288.141 136.64C288.141 137.387 288.381 138 288.861 138.48C289.368 138.933 289.995 139.16 290.741 139.16ZM294.941 119.76C294.435 119.76 293.928 119.653 293.421 119.44C292.941 119.227 292.381 118.933 291.741 118.56C291.155 118.24 290.688 118.013 290.341 117.88C289.995 117.72 289.675 117.64 289.381 117.64C288.981 117.64 288.661 117.733 288.421 117.92C288.181 118.107 287.901 118.4 287.581 118.8C287.341 119.12 287.128 119.36 286.941 119.52C286.781 119.653 286.555 119.72 286.261 119.72C285.915 119.72 285.635 119.573 285.421 119.28C285.208 118.987 285.101 118.613 285.101 118.16C285.101 117.6 285.261 116.973 285.581 116.28C285.928 115.587 286.395 115 286.981 114.52C287.568 114.013 288.221 113.76 288.941 113.76C289.421 113.76 289.888 113.867 290.341 114.08C290.821 114.267 291.421 114.56 292.141 114.96C292.675 115.28 293.115 115.52 293.461 115.68C293.835 115.84 294.181 115.92 294.501 115.92C294.901 115.92 295.221 115.827 295.461 115.64C295.701 115.453 295.981 115.16 296.301 114.76C296.541 114.413 296.741 114.173 296.901 114.04C297.088 113.88 297.328 113.8 297.621 113.8C297.968 113.8 298.248 113.947 298.461 114.24C298.675 114.533 298.781 114.907 298.781 115.36C298.781 115.92 298.608 116.547 298.261 117.24C297.941 117.933 297.488 118.533 296.901 119.04C296.315 119.52 295.661 119.76 294.941 119.76ZM314.377 143.32C312.297 143.32 310.471 142.907 308.897 142.08C307.324 141.227 306.111 140.04 305.257 138.52C304.404 136.973 303.977 135.16 303.977 133.08C303.977 131 304.404 129.2 305.257 127.68C306.111 126.133 307.324 124.947 308.897 124.12C310.471 123.293 312.297 122.88 314.377 122.88C316.457 122.88 318.284 123.293 319.857 124.12C321.431 124.947 322.644 126.133 323.497 127.68C324.351 129.2 324.777 131 324.777 133.08C324.777 135.16 324.351 136.973 323.497 138.52C322.644 140.04 321.431 141.227 319.857 142.08C318.284 142.907 316.457 143.32 314.377 143.32ZM314.377 138.72C317.311 138.72 318.777 136.84 318.777 133.08C318.777 131.187 318.391 129.773 317.617 128.84C316.871 127.907 315.791 127.44 314.377 127.44C311.444 127.44 309.977 129.32 309.977 133.08C309.977 136.84 311.444 138.72 314.377 138.72Z" fill="#45464E"/>
<g clip-path="url(#clip0)">
<path opacity="0.1" d="M1047.63 48.4036C1028.14 47.7257 1009.58 41.4316 991.854 34.5441C974.13 27.6565 956.575 20.0247 937.553 16.3761C925.318 14.029 911.325 13.6976 901.469 20.2597C891.981 26.5869 888.916 37.4787 887.269 47.5961C886.028 55.2068 885.299 63.2152 888.699 70.3408C891.057 75.288 895.245 79.4459 898.139 84.2003C908.218 100.687 901.096 121.018 890.174 137.116C885.055 144.67 879.108 151.88 875.157 159.912C871.207 167.945 869.376 177.161 872.833 185.363C876.263 193.498 884.432 199.596 893.279 203.889C911.253 212.612 932.425 215.106 953.085 216.519C998.804 219.65 1044.76 218.294 1090.6 216.938C1107.57 216.435 1124.61 215.926 1141.3 213.302C1150.56 211.843 1160.13 209.532 1166.86 203.946C1175.4 196.857 1177.52 184.85 1171.8 175.962C1162.19 161.051 1135.66 157.348 1128.94 141.344C1125.25 132.537 1129.04 122.727 1134.41 114.556C1145.92 97.0324 1165.22 81.6574 1166.24 61.6274C1166.94 47.8673 1157.66 34.0921 1143.31 27.5812C1128.28 20.7328 1107.42 21.6005 1096.33 32.896C1084.91 44.535 1064.84 49.0001 1047.63 48.4036Z" fill="#397EF3"/>
<path d="M998.124 215.043L895.056 214.54L884.814 190.506L921.027 187.876L914.716 161.524L986.341 152.236L917.754 128.379L923.813 126.939L1034.1 144.941L1028.03 186.065L1019.34 208.665L998.124 215.043Z" fill="#397EF3"/>
<path d="M896.636 204.474C896.636 204.474 902.96 203.461 906.754 207.933C906.754 207.933 903.972 210.126 897.985 207.089L896.636 204.474Z" fill="#397EF3"/>
<path d="M895.974 204.375C895.974 204.375 891.939 209.343 893.926 214.875C893.926 214.875 897.215 213.558 897.573 206.851L895.974 204.375Z" fill="#397EF3"/>
<path d="M892.349 196.206C892.349 196.206 894.878 191.563 904.996 198.062C904.996 198.062 903.647 201.184 899.178 200.931C894.709 200.678 893.529 198.653 892.349 196.206Z" fill="#397EF3"/>
<path d="M891.695 195.872C891.695 195.872 886.447 195.269 885.938 207.291C885.938 207.291 889.265 207.981 891.629 204.178C893.993 200.376 893.023 198.243 891.695 195.872Z" fill="#397EF3"/>
<path d="M888.639 186.282C888.639 186.282 891.59 178.099 902.298 183.92C902.298 183.92 899.852 191.428 889.735 189.066L888.639 186.282Z" fill="#397EF3"/>
<path d="M885.35 174.05C885.35 174.05 890.915 165.782 900.78 173.447C900.78 173.447 897.323 181.208 886.194 176.99L885.35 174.05Z" fill="#397EF3"/>
<path d="M884.17 162.408C884.17 162.408 890.662 154.812 900.431 162.408C900.431 162.408 894.276 169.072 884.17 164.348V162.408Z" fill="#397EF3"/>
<path d="M883.158 151.1C883.158 151.1 889.735 143.17 899.094 150.678C899.094 150.678 891.674 157.68 883.158 152.956V151.1Z" fill="#397EF3"/>
<path d="M883.748 141.06C883.748 141.06 890.674 130.853 899.431 137.77C899.431 137.77 892.011 146.544 883.748 143.001V141.06Z" fill="#397EF3"/>
<path d="M885.35 129.334C885.35 129.334 892.686 119.211 901.201 126.972C901.201 126.972 892.517 135.746 885.35 131.19V129.334Z" fill="#397EF3"/>
<path d="M887.795 118.852C887.795 118.852 896.48 109.338 904.056 113.128C904.056 113.128 895.007 123.233 887.416 121.377L887.795 118.852Z" fill="#397EF3"/>
<path d="M890.831 108.915C890.831 108.915 900.852 97.2615 906.682 101.154C906.682 101.154 899.298 110.193 890.12 111.097L890.831 108.915Z" fill="#397EF3"/>
<path d="M895.212 97.3909C895.212 97.3909 903.984 87.876 910.392 90.2382C910.392 90.2382 902.888 100.109 894.035 100.362L895.212 97.3909Z" fill="#397EF3"/>
<path d="M899.178 86.611C899.178 86.611 908.874 77.4998 913.09 79.1027C913.09 79.1027 906.092 89.2262 898.756 88.6357L899.178 86.611Z" fill="#397EF3"/>
<path d="M903.056 76.6561C903.056 76.6561 911.404 65.7704 915.959 66.614C915.959 66.614 910.898 76.3187 903.056 77.7619V76.6561Z" fill="#397EF3"/>
<path d="M907.266 63.2335C907.266 63.2335 914.644 54.8906 918.63 54.9087C918.63 54.9087 912.807 66.0566 906.962 65.9542L907.266 63.2335Z" fill="#397EF3"/>
<path d="M909.759 54.2971L916.887 36.9185C916.887 36.9185 917.242 52.6279 908.853 57.5209L909.759 54.2971Z" fill="#397EF3"/>
<path d="M912.653 35.1319C912.653 35.1319 913.834 20.6186 913.075 19.4375C913.075 19.4375 918.17 31.5043 912.605 41.5434L912.653 35.1319Z" fill="#397EF3"/>
<path d="M888.362 186.089C888.362 186.089 880.972 181.506 876.187 192.717C876.187 192.717 882.764 197.086 889.232 188.948L888.362 186.089Z" fill="#397EF3"/>
<path d="M885.113 173.582C885.113 173.582 876.049 169.446 871.652 181.151C871.652 181.151 878.653 185.972 885.938 176.541L885.113 173.582Z" fill="#397EF3"/>
<path d="M883.748 163.103C883.748 163.103 877.256 155.508 867.488 163.103C867.488 163.103 873.643 169.768 883.748 165.044V163.103Z" fill="#397EF3"/>
<path d="M882.935 151.1C882.935 151.1 876.359 143.17 867 150.678C867 150.678 874.42 157.68 882.935 152.956V151.1Z" fill="#397EF3"/>
<path d="M883.748 141.35C883.748 141.35 879.135 129.916 869.108 134.833C869.108 134.833 874.528 144.971 883.339 143.248L883.748 141.35Z" fill="#397EF3"/>
<path d="M885.932 129.277C885.932 129.277 881.345 117.644 871.177 123.037C871.177 123.037 877.404 133.7 885.48 131.073L885.932 129.277Z" fill="#397EF3"/>
<path d="M888.774 118.909C888.774 118.909 886.967 106.156 878.536 105.014C878.536 105.014 880.325 118.463 887.639 121.208L888.774 118.909Z" fill="#397EF3"/>
<path d="M891.045 108.94C891.045 108.94 890.34 93.5739 883.369 93.0376C883.369 93.0376 883.604 104.701 890.259 111.115L891.045 108.94Z" fill="#397EF3"/>
<path d="M895.935 96.9601C895.935 96.9601 893.857 84.1823 887.202 82.6216C887.202 82.6216 888.027 94.9957 895.275 100.097L895.935 96.9601Z" fill="#397EF3"/>
<path d="M899.967 86.7163C899.967 86.7163 899.898 73.4051 895.832 71.4497C895.832 71.4497 893.312 83.5015 898.789 88.4156L899.967 86.7163Z" fill="#397EF3"/>
<path d="M903.367 76.5053C903.367 76.5053 902.797 62.7995 898.588 60.8682C898.588 60.8682 897.148 71.7147 902.737 77.4032L903.367 76.5053Z" fill="#397EF3"/>
<path d="M907.853 64.3271C907.853 64.3271 907.829 53.1792 904.824 50.564C904.824 50.564 901.837 62.7754 906.284 66.5687L907.853 64.3271Z" fill="#397EF3"/>
<path d="M909.407 53.749L906.483 35.1953C906.483 35.1953 902.511 50.3986 909.546 57.0994L909.407 53.749Z" fill="#397EF3"/>
<path d="M909.976 35.3068C909.976 35.3068 902.472 22.8332 902.626 21.4473C902.626 21.4473 903.424 34.5204 912.864 41.0314L909.976 35.3068Z" fill="#397EF3"/>
<path d="M910.855 31.6219C910.855 31.6219 903.773 13.9058 900.569 12.4717C900.569 12.4717 910.687 17.6178 911.446 31.1157L910.855 31.6219Z" fill="#397EF3"/>
<path d="M906.926 66.0595L906.441 65.9119C912.418 46.4091 913.909 33.9747 910.642 30.8563L910.988 30.4888C914.454 33.7789 913.048 46.0777 906.926 66.0595Z" fill="#444053"/>
<path d="M890.466 111.723L889.75 111.467C890.385 109.681 891.069 107.867 891.785 106.08C898.025 90.5214 903.336 76.0473 906.742 64.9356L907.365 64.6343C903.954 75.7671 898.735 90.7956 892.49 106.376C891.776 108.129 891.096 109.934 890.466 111.723Z" fill="#444053"/>
<path d="M905.547 219.069C905.45 218.963 895.763 208.047 889.009 189.412C885.051 178.502 882.849 167.033 882.484 155.432C882.02 140.931 885.061 124.739 890.271 110.03L890.837 110.693C879.141 143.706 883.788 171.994 889.952 189.03C896.633 207.496 906.212 218.291 906.305 218.4L905.547 219.069Z" fill="#444053"/>
<path d="M1056.93 195.893C1056.93 195.893 1050.1 204.23 1055.52 216.833L1001.02 240.484L995.787 241.581L993.378 231.036L994.989 217.728V210.455L1056.93 195.893Z" fill="#D5D6DB"/>
<path d="M884.814 190.506L960.252 176.746L1060.21 192.678L998.124 215.043L884.814 190.506Z" fill="#397EF3"/>
<path d="M884.814 190.506L960.252 176.746L1060.21 192.678L998.124 215.043L884.814 190.506Z" fill="#397EF3"/>
<path d="M884.814 190.503C884.814 190.503 877.759 203.877 885.889 216.23L997.756 240.485C997.756 240.485 990.812 229.831 998.115 215.043L884.814 190.503Z" fill="#397EF3"/>
<path opacity="0.1" d="M884.814 190.503C884.814 190.503 877.759 203.877 885.889 216.23L997.756 240.485C997.756 240.485 990.812 229.831 998.115 215.043L884.814 190.503Z" fill="black"/>
<path opacity="0.1" d="M888.148 195.14C888.148 195.14 884.116 204.926 888.148 211.259V195.14Z" fill="black"/>
<path d="M997.756 240.484L1060.21 213.82C1060.21 213.82 1063.7 214.573 1061.44 217.134C1059.19 219.695 998.961 243.045 998.961 243.045L885.889 216.23L997.756 240.484Z" fill="#397EF3"/>
<path opacity="0.1" d="M997.756 240.484L1060.21 213.82C1060.21 213.82 1063.7 214.573 1061.44 217.134C1059.19 219.695 998.961 243.045 998.961 243.045L885.889 216.23L997.756 240.484Z" fill="black"/>
<path opacity="0.1" d="M992.637 217.737C992.637 217.737 986.615 224.968 992.637 235.814V217.737Z" fill="black"/>
<path opacity="0.1" d="M1021.79 217.614L994.781 226.632L994.876 226.918L1021.89 217.9L1021.79 217.614Z" fill="black"/>
<path opacity="0.1" d="M1027.2 216.717L994.772 229.057L994.879 229.339L1027.31 216.999L1027.2 216.717Z" fill="black"/>
<path opacity="0.1" d="M1032.17 216.674L994.953 231.917L995.067 232.196L1032.29 216.953L1032.17 216.674Z" fill="black"/>
<path opacity="0.1" d="M1037.58 215.368L995.388 234.438L995.512 234.712L1037.7 215.643L1037.58 215.368Z" fill="black"/>
<path opacity="0.1" d="M1042.12 215.375L995.722 235.666L995.842 235.942L1042.24 215.651L1042.12 215.375Z" fill="black"/>
<path opacity="0.1" d="M1052.05 213.688L996.421 237.727L996.541 238.003L1052.17 213.964L1052.05 213.688Z" fill="black"/>
<path opacity="0.3" d="M912.84 191.976L965.837 180.829L998.124 187.005L954.696 201.015L912.84 191.976Z" fill="white"/>
<path d="M1060.21 192.678C1060.21 192.678 1062.95 193.784 1061.34 195.492C1059.73 197.201 998.115 215.043 998.115 215.043L1060.21 192.678Z" fill="#397EF3"/>
<path d="M1086.83 166.915C1086.83 166.915 1080 175.248 1085.42 187.854L1030.92 211.506L1025.69 212.609L1023.28 202.063L1024.91 188.758V181.476L1086.83 166.915Z" fill="#D5D6DB"/>
<path d="M914.716 161.525L990.15 147.768L1090.11 163.7L1028.03 186.065L914.716 161.525Z" fill="#FF9292"/>
<path d="M914.704 161.524C914.704 161.524 907.645 174.899 915.776 187.252L1027.64 211.506C1027.64 211.506 1020.7 200.843 1028.01 186.062L914.704 161.524Z" fill="#FF9292"/>
<path opacity="0.1" d="M918.046 166.162C918.046 166.162 914.017 175.945 918.046 182.281V166.162Z" fill="black"/>
<path d="M1027.65 211.506L1090.11 184.842C1090.11 184.842 1093.6 185.595 1091.34 188.156C1089.08 190.717 1028.86 214.067 1028.86 214.067L915.788 187.252L1027.65 211.506Z" fill="#FF9292"/>
<path opacity="0.1" d="M1027.65 211.506L1090.11 184.842C1090.11 184.842 1093.6 185.595 1091.34 188.156C1089.08 190.717 1028.86 214.067 1028.86 214.067L915.788 187.252L1027.65 211.506Z" fill="#FF9292"/>
<path opacity="0.1" d="M1022.54 188.758C1022.54 188.758 1016.51 195.989 1022.54 206.836V188.758Z" fill="black"/>
<path opacity="0.1" d="M1051.69 188.639L1024.68 197.657L1024.78 197.943L1051.79 188.925L1051.69 188.639Z" fill="black"/>
<path opacity="0.1" d="M1057.11 187.741L1024.68 200.081L1024.78 200.362L1057.22 188.022L1057.11 187.741Z" fill="black"/>
<path opacity="0.1" d="M1062.07 187.693L1024.85 202.937L1024.97 203.216L1062.19 187.972L1062.07 187.693Z" fill="black"/>
<path opacity="0.1" d="M1067.48 186.388L1025.29 205.458L1025.42 205.732L1067.6 186.663L1067.48 186.388Z" fill="black"/>
<path opacity="0.1" d="M1072.02 186.391L1025.62 206.682L1025.74 206.958L1072.14 186.667L1072.02 186.391Z" fill="black"/>
<path opacity="0.1" d="M1081.95 184.703L1026.32 208.742L1026.44 209.019L1082.07 184.98L1081.95 184.703Z" fill="black"/>
<path opacity="0.45" d="M942.741 162.998L995.739 151.85L1028.03 158.027L984.597 172.037L942.741 162.998Z" fill="white"/>
<path d="M1090.11 163.7C1090.11 163.7 1092.85 164.805 1091.24 166.511C1089.64 168.216 1028.03 186.062 1028.03 186.062L1090.11 163.7Z" fill="#FF9292"/>
<path d="M1089.66 133.763C1089.66 133.763 1082.83 148.728 1088.25 161.332L1033.75 178.355L1028.53 179.46L1026.12 168.915L1027.73 155.607V148.325L1089.66 133.763Z" fill="#D5D6DB"/>
<path d="M917.555 128.376L992.993 114.616L1092.95 130.549L1030.86 152.914L917.555 128.376Z" fill="#397EF3"/>
<path d="M917.555 128.373C917.555 128.373 910.488 141.747 918.618 154.101L1030.49 178.355C1030.49 178.355 1023.54 167.692 1030.85 152.913L917.555 128.373Z" fill="#397EF3"/>
<path opacity="0.1" d="M917.555 128.373C917.555 128.373 910.488 141.747 918.618 154.101L1030.49 178.355C1030.49 178.355 1023.54 167.692 1030.85 152.913L917.555 128.373Z" fill="black"/>
<path opacity="0.1" d="M920.889 133.01C920.889 133.01 916.857 142.796 920.889 149.13V133.01Z" fill="black"/>
<path d="M1030.5 178.355L1092.95 158.319C1092.95 158.319 1096.44 159.072 1094.18 161.633C1091.93 164.194 1031.7 180.916 1031.7 180.916L918.631 154.101L1030.5 178.355Z" fill="#397EF3"/>
<path opacity="0.1" d="M1030.5 178.355L1092.95 158.319C1092.95 158.319 1096.44 159.072 1094.18 161.633C1091.93 164.194 1031.7 180.916 1031.7 180.916L918.631 154.101L1030.5 178.355Z" fill="#FF9292"/>
<path opacity="0.1" d="M1025.38 155.607C1025.38 155.607 1019.36 162.838 1025.38 173.685V155.607Z" fill="black"/>
<path opacity="0.1" d="M1054.54 155.487L1027.52 164.505L1027.62 164.791L1054.63 155.773L1054.54 155.487Z" fill="black"/>
<path opacity="0.1" d="M1059.95 154.59L1027.52 166.93L1027.63 167.212L1060.06 154.872L1059.95 154.59Z" fill="black"/>
<path opacity="0.1" d="M1064.91 154.544L1027.69 169.788L1027.81 170.067L1065.03 154.823L1064.91 154.544Z" fill="black"/>
<path opacity="0.1" d="M1070.32 153.237L1028.13 172.306L1028.26 172.581L1070.45 153.512L1070.32 153.237Z" fill="black"/>
<path opacity="0.1" d="M1074.86 153.242L1028.47 173.533L1028.59 173.809L1074.98 153.518L1074.86 153.242Z" fill="black"/>
<path opacity="0.1" d="M1084.79 151.557L1029.17 175.596L1029.29 175.872L1084.91 151.834L1084.79 151.557Z" fill="black"/>
<path opacity="0.3" d="M945.581 129.847L998.578 118.699L1030.86 124.875L987.437 138.885L945.581 129.847Z" fill="white"/>
<path d="M1092.95 130.548C1092.95 130.548 1095.69 131.654 1094.08 133.362C1092.47 135.071 1030.86 152.913 1030.86 152.913L1092.95 130.548Z" fill="#397EF3"/>
<path d="M960.474 39.0876C960.474 39.0876 949.032 38.3976 950.369 46.4301C950.369 46.4301 950.101 47.8492 951.387 48.494C951.387 48.494 951.408 47.8914 952.561 48.0993C952.972 48.17 953.391 48.1903 953.808 48.1595C954.369 48.1211 954.903 47.9011 955.328 47.5328C955.328 47.5328 958.547 46.2011 959.8 40.9345C959.8 40.9345 960.727 39.7866 960.703 39.4913L958.764 40.3169C958.764 40.3169 959.424 41.7119 958.906 42.8718C958.906 42.8718 958.842 40.3681 958.469 40.4253C958.394 40.4253 957.466 40.9104 957.466 40.9104C957.466 40.9104 958.601 43.3418 957.743 45.1074C957.743 45.1074 958.068 42.1126 957.111 41.0852L955.75 41.8806C955.75 41.8806 957.078 44.3904 956.177 46.4392C956.177 46.4392 956.409 43.2967 955.464 42.0734L954.229 43.0375C954.229 43.0375 955.479 45.5112 954.717 47.2105C954.717 47.2105 954.618 43.5528 953.964 43.2756C953.964 43.2756 952.883 44.2277 952.721 44.6193C952.721 44.6193 953.576 46.4271 953.043 47.3641C953.043 47.3641 952.721 44.9267 952.44 44.9146C952.44 44.9146 951.365 46.5295 951.254 47.6262C951.306 46.6038 951.625 45.6128 952.179 44.7519C951.559 44.8692 950.987 45.1656 950.534 45.6046C950.534 45.6046 950.7 44.4627 952.447 44.3632C952.447 44.3632 953.335 43.137 953.573 43.0647C953.573 43.0647 951.835 42.917 950.784 43.384C950.784 43.384 951.712 42.3084 953.889 42.7814L955.093 41.7872C955.093 41.7872 952.811 41.4859 951.841 41.8203C951.841 41.8203 952.958 40.8682 955.422 41.5612L956.75 40.7688C956.75 40.7688 954.801 40.35 953.642 40.5007C953.642 40.5007 954.865 39.8408 957.138 40.5549L958.084 40.1301C958.084 40.1301 956.659 39.8499 956.241 39.8047C955.822 39.7595 955.801 39.645 955.801 39.645C956.705 39.4964 957.633 39.6007 958.481 39.9463C958.481 39.9463 960.514 39.2141 960.474 39.0876Z" fill="#397EF3"/>
<path opacity="0.1" d="M1121.45 72.1037C1121.45 72.1037 1110.01 71.4137 1111.35 79.4462C1111.35 79.4462 1111.08 80.8653 1112.37 81.5101C1112.37 81.5101 1112.39 80.9075 1113.54 81.1154C1113.95 81.1845 1114.37 81.2047 1114.79 81.1757C1115.34 81.1347 1115.87 80.9148 1116.29 80.549C1116.29 80.549 1119.52 79.2173 1120.76 73.9506C1120.76 73.9506 1121.69 72.8027 1121.67 72.5074L1119.74 73.333C1119.74 73.333 1120.39 74.728 1119.88 75.888C1119.88 75.888 1119.81 73.3842 1119.44 73.4414C1119.37 73.4414 1118.44 73.9265 1118.44 73.9265C1118.44 73.9265 1119.57 76.358 1118.72 78.1236C1118.72 78.1236 1119.04 75.1287 1118.08 74.1013L1116.72 74.8967C1116.72 74.8967 1118.05 77.4065 1117.15 79.4553C1117.15 79.4553 1117.38 76.3128 1116.43 75.0895L1115.2 76.0537C1115.2 76.0537 1116.45 78.5273 1115.69 80.2266C1115.69 80.2266 1115.59 76.5689 1114.94 76.2917C1114.94 76.2917 1113.86 77.2438 1113.69 77.6355C1113.69 77.6355 1114.55 79.4432 1114.02 80.3802C1114.02 80.3802 1113.69 77.9428 1113.41 77.9307C1113.41 77.9307 1112.34 79.5457 1112.23 80.6424C1112.28 79.6195 1112.6 78.6283 1113.16 77.768C1112.54 77.8856 1111.96 78.182 1111.51 78.6207C1111.51 78.6207 1111.68 77.4788 1113.42 77.3794C1113.42 77.3794 1114.31 76.1531 1114.55 76.0778C1114.55 76.0778 1112.81 75.9331 1111.76 76.4002C1111.76 76.4002 1112.69 75.3245 1114.86 75.7976L1116.07 74.8033C1116.07 74.8033 1113.78 74.502 1112.82 74.8364C1112.82 74.8364 1113.93 73.8843 1116.4 74.5773L1117.72 73.7849C1117.72 73.7849 1115.77 73.3661 1114.61 73.5168C1114.61 73.5168 1115.84 72.8569 1118.11 73.571L1119.06 73.1462C1119.06 73.1462 1117.63 72.866 1117.21 72.8208C1116.79 72.7756 1116.77 72.6611 1116.77 72.6611C1117.68 72.5106 1118.6 72.615 1119.45 72.9624C1119.45 72.9624 1121.49 72.2302 1121.45 72.1037Z" fill="#397EF3"/>
<path opacity="0.1" d="M979.746 88.711C979.746 88.711 974.76 78.3675 968.412 83.4654C968.412 83.4654 967.042 83.9234 967.108 85.3606C967.108 85.3606 967.635 85.0864 968.012 86.1952C968.152 86.5871 968.338 86.9613 968.566 87.31C968.874 87.7826 969.327 88.1422 969.857 88.3344C969.857 88.3344 972.589 90.4977 977.795 89.0213C977.795 89.0213 979.249 89.2714 979.487 89.0966L977.825 87.8101C977.825 87.8101 976.922 89.0665 975.663 89.178C975.663 89.178 977.819 87.9035 977.587 87.6082C977.539 87.548 976.684 86.9665 976.684 86.9665C976.684 86.9665 975.115 89.1448 973.158 89.2563C973.158 89.2563 975.928 88.0813 976.356 86.7405L975.001 85.9391C975.001 85.9391 973.456 88.3253 971.231 88.5362C971.231 88.5362 974.085 87.2075 974.69 85.7854L973.251 85.1828C973.251 85.1828 971.7 87.4787 969.845 87.6444C969.845 87.6444 972.989 85.7734 972.911 85.0653C972.911 85.0653 971.553 84.5893 971.131 84.6345C971.131 84.6345 969.981 86.2584 968.897 86.2584C968.897 86.2584 970.863 84.7851 970.743 84.5471C970.743 84.5471 968.81 84.3964 967.792 84.8484C968.709 84.3923 969.729 84.1845 970.752 84.2458C970.346 83.7619 969.808 83.4069 969.204 83.2244C969.204 83.2244 970.282 82.8147 971.219 84.288C971.219 84.288 972.724 84.4657 972.902 84.6375C972.902 84.6375 972.182 83.0527 971.264 82.3627C971.264 82.3627 972.655 82.6429 973.29 84.7731L974.751 85.3515C974.751 85.3515 973.911 83.2063 973.137 82.5284C973.137 82.5284 974.51 83.0376 975.109 85.5414L976.446 86.3127C976.446 86.3127 975.865 84.4055 975.166 83.4685C975.166 83.4685 976.338 84.2157 976.822 86.5477L977.656 87.1684C977.656 87.1684 977.205 85.7854 977.054 85.3998C976.904 85.0141 976.979 84.9358 976.979 84.9358C977.552 85.6511 977.915 86.5117 978.027 87.4214C978.027 87.4214 979.638 88.8014 979.746 88.711Z" fill="#397EF3"/>
<path opacity="0.1" d="M1095.31 57.4908C1095.31 57.4908 1090.33 47.1473 1083.98 52.2452C1083.98 52.2452 1082.61 52.7032 1082.67 54.1404C1082.67 54.1404 1083.2 53.8692 1083.58 54.975C1083.72 55.3685 1083.9 55.7438 1084.13 56.0928C1084.44 56.5646 1084.89 56.9232 1085.42 57.1141C1085.42 57.1141 1088.16 59.2774 1093.36 57.8041C1093.36 57.8041 1094.81 58.0512 1095.05 57.8764L1093.4 56.5869C1093.4 56.5869 1092.5 57.8463 1091.24 57.9578C1091.24 57.9578 1093.4 56.6803 1093.16 56.385C1093.12 56.3248 1092.26 55.7433 1092.26 55.7433C1092.26 55.7433 1090.69 57.9216 1088.73 58.0331C1088.73 58.0331 1091.51 56.858 1091.94 55.5203L1090.56 54.7249C1090.56 54.7249 1089.02 57.1081 1086.79 57.322C1086.79 57.322 1089.64 55.9903 1090.25 54.5682L1088.81 53.9656C1088.81 53.9656 1087.26 56.2645 1085.41 56.4272C1085.41 56.4272 1088.55 54.5562 1088.47 53.8511C1088.47 53.8511 1087.11 53.3721 1086.69 53.4203C1086.69 53.4203 1085.54 55.0412 1084.46 55.0412C1084.46 55.0412 1086.42 53.5679 1086.3 53.3299C1086.3 53.3299 1084.37 53.1792 1083.35 53.6312C1084.27 53.1749 1085.29 52.9672 1086.31 53.0286C1085.91 52.5444 1085.37 52.1893 1084.77 52.0072C1084.77 52.0072 1085.84 51.5974 1086.78 53.0708C1086.78 53.0708 1088.29 53.2516 1088.46 53.4233C1088.46 53.4233 1087.74 51.8355 1086.82 51.1455C1086.82 51.1455 1088.21 51.4287 1088.85 53.5709L1090.31 54.1494C1090.31 54.1494 1089.47 52.0012 1088.7 51.3233C1088.7 51.3233 1090.07 51.8325 1090.67 54.3362L1092.01 55.1075C1092.01 55.1075 1091.42 53.2033 1090.72 52.2633C1090.72 52.2633 1091.9 53.0105 1092.38 55.3425L1093.22 55.9632C1093.22 55.9632 1092.77 54.5803 1092.61 54.1946C1092.46 53.8089 1092.54 53.7336 1092.54 53.7336C1093.11 54.4496 1093.47 55.31 1093.58 56.2193C1093.58 56.2193 1095.22 57.5872 1095.31 57.4908Z" fill="#397EF3"/>
<path opacity="0.1" d="M1111.24 108.654C1111.24 108.654 1106.25 98.3072 1099.89 103.405C1099.89 103.405 1098.53 103.863 1098.59 105.3C1098.59 105.3 1099.12 105.029 1099.49 106.135C1099.63 106.528 1099.82 106.903 1100.05 107.253C1100.35 107.724 1100.81 108.083 1101.34 108.274C1101.34 108.274 1104.07 110.44 1109.28 108.964C1109.28 108.964 1110.73 109.214 1110.97 109.036L1109.31 107.75C1109.31 107.75 1108.4 109.009 1107.15 109.121C1107.15 109.121 1109.3 107.843 1109.07 107.548C1109.02 107.488 1108.16 106.906 1108.16 106.906C1108.16 106.906 1106.6 109.084 1104.64 109.199C1104.64 109.199 1107.41 108.021 1107.84 106.683L1106.48 105.882C1106.48 105.882 1104.94 108.268 1102.71 108.479C1102.71 108.479 1105.56 107.147 1106.17 105.725L1104.73 105.122C1104.73 105.122 1103.18 107.418 1101.33 107.584C1101.33 107.584 1104.47 105.713 1104.39 105.005C1104.39 105.005 1103.03 104.526 1102.61 104.574C1102.61 104.574 1101.46 106.195 1100.38 106.195C1100.38 106.195 1102.35 104.722 1102.22 104.484C1102.22 104.484 1100.29 104.333 1099.27 104.785C1100.19 104.329 1101.21 104.121 1102.23 104.182C1101.83 103.697 1101.29 103.342 1100.69 103.161C1100.69 103.161 1101.76 102.748 1102.7 104.225C1102.7 104.225 1104.21 104.402 1104.38 104.574C1104.38 104.574 1103.66 102.989 1102.75 102.296C1102.75 102.296 1104.14 102.58 1104.77 104.722L1106.23 105.3C1106.23 105.3 1105.39 103.152 1104.62 102.477C1104.62 102.477 1105.99 102.983 1106.59 105.49L1107.93 106.258C1107.93 106.258 1107.34 104.354 1106.65 103.414C1106.65 103.414 1107.82 104.161 1108.3 106.496L1109.14 107.099C1109.14 107.099 1108.69 105.716 1108.54 105.33C1108.39 104.945 1108.46 104.869 1108.46 104.869C1109.03 105.585 1109.4 106.445 1109.51 107.355C1109.51 107.355 1111.14 108.744 1111.24 108.654Z" fill="#397EF3"/>
<path opacity="0.1" d="M927.812 243.262C931.635 243.262 934.735 242.916 934.735 242.488C934.735 242.061 931.635 241.714 927.812 241.714C923.988 241.714 920.889 242.061 920.889 242.488C920.889 242.916 923.988 243.262 927.812 243.262Z" fill="#397EF3"/>
<path opacity="0.1" d="M882.429 230.102C886.253 230.102 889.352 229.755 889.352 229.328C889.352 228.9 886.253 228.553 882.429 228.553C878.606 228.553 875.507 228.9 875.507 229.328C875.507 229.755 878.606 230.102 882.429 230.102Z" fill="#397EF3"/>
<path opacity="0.1" d="M1139.68 232.964C1143.5 232.964 1146.6 232.617 1146.6 232.19C1146.6 231.762 1143.5 231.416 1139.68 231.416C1135.85 231.416 1132.75 231.762 1132.75 232.19C1132.75 232.617 1135.85 232.964 1139.68 232.964Z" fill="#397EF3"/>
<path opacity="0.1" d="M1082.07 229.207C1085.89 229.207 1088.99 228.86 1088.99 228.433C1088.99 228.005 1085.89 227.658 1082.07 227.658C1078.24 227.658 1075.14 228.005 1075.14 228.433C1075.14 228.86 1078.24 229.207 1082.07 229.207Z" fill="#397EF3"/>
<path opacity="0.1" d="M1044.8 247.532C1049.32 247.532 1052.99 246.902 1052.99 246.125C1052.99 245.348 1049.32 244.718 1044.8 244.718C1040.28 244.718 1036.61 245.348 1036.61 246.125C1036.61 246.902 1040.28 247.532 1044.8 247.532Z" fill="#397EF3"/>
<path d="M1048.45 231.982C1048.45 231.982 1037.05 237.875 1042.94 244.817C1042.94 244.817 1043.5 246.324 1045.1 246.218C1045.1 246.218 1044.78 245.634 1046 245.167C1046.44 244.998 1046.85 244.779 1047.23 244.513C1047.75 244.155 1048.14 243.637 1048.34 243.039C1048.34 243.039 1050.67 239.918 1048.86 234.142C1048.86 234.142 1049.09 232.509 1048.89 232.244L1047.5 234.145C1047.5 234.145 1048.94 235.106 1049.1 236.519C1049.1 236.519 1047.6 234.148 1047.29 234.41C1047.23 234.465 1046.61 235.45 1046.61 235.45C1046.61 235.45 1049.09 237.134 1049.27 239.321C1049.27 239.321 1047.88 236.257 1046.37 235.82L1045.5 237.363C1045.5 237.363 1048.21 239.014 1048.51 241.497C1048.51 241.497 1046.94 238.348 1045.33 237.713L1044.7 239.343C1044.7 239.343 1047.31 241.006 1047.55 243.073C1047.55 243.073 1045.36 239.617 1044.58 239.725C1044.58 239.725 1044.08 241.256 1044.15 241.729C1044.15 241.729 1046 242.964 1046.03 244.178C1046.03 244.178 1044.32 242.024 1044.06 242.166C1044.06 242.166 1043.95 244.332 1044.48 245.459C1044.48 245.459 1043.58 243.85 1043.72 242.166C1043.19 242.633 1042.81 243.245 1042.63 243.925C1042.63 243.925 1042.14 242.735 1043.76 241.638C1043.76 241.638 1043.91 239.954 1044.1 239.746C1044.1 239.746 1042.35 240.602 1041.6 241.65C1041.6 241.65 1041.88 240.087 1044.25 239.309L1044.85 237.658C1044.85 237.658 1042.48 238.665 1041.75 239.55C1041.75 239.55 1042.27 237.999 1045.04 237.255L1045.86 235.748C1045.86 235.748 1043.75 236.459 1042.72 237.255C1042.72 237.255 1043.52 235.92 1046.11 235.305L1046.78 234.356C1046.78 234.356 1045.25 234.901 1044.82 235.097C1044.39 235.293 1044.31 235.197 1044.31 235.197C1045.09 234.535 1046.04 234.103 1047.05 233.949C1047.05 233.949 1048.56 232.084 1048.45 231.982Z" fill="#397EF3"/>
<path d="M1082.29 120.675C1080.32 115.321 1069.48 114.818 1064.78 116.183C1061.43 117.156 1054.39 118.253 1050.62 118.804L1050.38 118.572C1050.87 118.428 1050.88 118.072 1050.82 117.545C1050.79 116.85 1050.8 116.153 1050.85 115.46C1053.16 116.177 1055.21 114.481 1055.21 114.481C1057.92 113.276 1057.19 108.117 1057.71 106.707C1058.1 105.653 1058.52 99.4401 1058.7 96.3428H1058.74L1058.76 95.3033C1058.79 94.8544 1058.8 94.5923 1058.8 94.5923C1058.8 94.5923 1059.07 87.0178 1059.59 85.4842C1060.07 84.0741 1060.46 76.9696 1060.52 75.8428C1060.52 75.7464 1060.52 75.6952 1060.52 75.6952L1060.48 75.0383C1060.51 74.5593 1060.52 74.026 1060.52 73.4656C1060.52 70.8895 1060.25 67.6446 1060.22 67.1203C1060.22 67.045 1060.22 66.9546 1060.22 66.8462C1060.24 65.7464 1060.1 60.2388 1055.42 58.1568C1053.69 57.3855 1051.62 56.4666 1049.61 55.5717C1049.09 51.0975 1047.91 46.6474 1048.01 42.1401C1048.01 41.4622 1048.07 40.7842 1048.13 40.1093C1048.13 40.3052 1048.11 40.504 1048.11 40.7119C1048.11 41.1488 1048.11 41.5887 1048.11 42.0256C1048.29 36.3884 1050.42 30.721 1050.22 25.2043C1050.2 25.7437 1050.16 26.286 1050.11 26.8283C1050.21 24.9623 1050.02 23.0918 1049.53 21.2875C1049.35 20.6518 1049.11 19.995 1048.59 19.5701C1048.09 19.228 1047.53 19.0043 1046.94 18.9163C1045.51 18.5514 1044.06 18.2817 1042.6 18.1089C1042.38 17.4291 1042.05 16.7893 1041.63 16.2137C1038.57 12.0197 1034.05 8.0788 1028.7 7.17492C1026.02 6.72298 1022.93 7.0996 1021.11 9.01884C1020.92 9.18744 1020.74 9.36862 1020.57 9.56117C1019.59 10.7332 1019.17 12.2728 1018.16 13.4418C1018.1 13.5202 1018.02 13.5925 1017.95 13.6678C1015.98 15.4304 1012.91 15.7979 1010.72 17.3797C1010.34 17.6637 1009.98 17.9791 1009.64 18.3228C1008.76 19.1974 1007.97 20.1595 1007.28 21.1941C1006.3 22.5801 1005.28 24.0233 1004.97 25.6774C1004.34 28.9916 1006.6 32.1341 1007.02 35.4694C1007.95 42.9325 999.696 49.5549 1001.26 56.9185C1001.68 58.7275 1002.6 60.3813 1003.91 61.688C1000.7 64.6045 997.955 67.4337 997.955 67.4337V67.6024H997.446L997.498 68.205H997.446L997.726 71.474L997.446 76.2345C997.446 76.2345 997.446 76.2857 997.446 76.3821V76.4062V76.5358C997.446 76.5358 997.446 76.587 997.446 76.6834H997.464C997.558 78.4279 997.928 84.7008 998.368 86.0235C998.886 87.5571 999.148 95.1316 999.148 95.1316C999.148 95.1316 999.72 105.837 1000.24 107.253C1000.77 108.669 1000.02 113.812 1002.74 115.026C1003.54 115.637 1004.48 116.027 1005.47 116.159C1005.34 117.286 1005.42 118.102 1005.87 118.358C1006.06 118.471 1006.28 118.534 1006.5 118.539C1006.32 118.813 1006.16 119.1 1006.01 119.398C1004.93 119.285 1003.87 119.035 1002.86 118.654C999.937 117.448 990.243 114.737 987.428 116.644C984.612 118.551 977.837 120.281 980.966 127.958C984.095 135.635 985.552 135.827 985.552 135.827C986.515 136.527 987.36 137.376 988.054 138.343C988.994 139.756 997.747 142.989 999.937 142.989C1000.87 142.975 1001.8 143.021 1002.72 143.128C1002.72 143.128 1000.35 145.213 1000.66 146.424C1000.98 147.635 999.94 157.331 999.94 157.331C999.94 157.331 1002.35 159.759 1003.38 156.574L1003.41 156.623C1003.61 156.885 1004.65 158.069 1006.61 156.574C1007.41 155.965 1008.26 155.425 1009.16 154.96L1018.65 153.616C1019.64 153.554 1020.63 153.547 1021.62 153.595C1023.13 153.718 1024.6 152.826 1025.54 152.136C1027.5 152.884 1029.71 153.7 1030.76 153.998C1032.89 154.601 1042.69 157.231 1044.98 156.409C1045.46 156.219 1045.88 155.917 1046.22 155.529L1048.41 155.598L1047.38 155.803C1047.38 155.803 1049.37 155.836 1052.08 155.872L1051.97 155.939L1055.37 155.909C1060.34 155.954 1065.93 155.969 1066.67 155.803C1067.82 155.547 1073.8 155.728 1075.56 155.803H1076.05C1076.05 155.803 1082.62 154.493 1079.91 147.825C1077.82 142.703 1071.42 141.214 1068.57 140.805C1069.38 140.645 1070.07 140.522 1070.52 140.449C1072.51 140.148 1076.36 138.34 1076.67 137.722C1076.99 137.105 1080.22 135.312 1081.05 134.291C1081.89 133.269 1084.27 126.029 1082.29 120.675ZM1027.89 135.659L1027.57 135.764L1027.35 135.836L1026.94 136.246C1026.61 136.023 1026.25 135.788 1025.88 135.547C1026.53 135.586 1027.21 135.625 1027.89 135.659Z" fill="url(#paint0_linear)"/>
<path d="M1047.09 103.89C1047.09 103.89 1051.7 115.942 1054.32 114.737C1056.94 113.531 1056.23 108.409 1056.73 107.005C1057.23 105.601 1057.78 94.9536 1057.78 94.9536C1057.78 94.9536 1058.03 87.4213 1058.53 85.8967C1059 84.4957 1059.37 77.4304 1059.44 76.3186C1059.44 76.2222 1059.44 76.171 1059.44 76.171L1058.94 67.4335L1056.13 66.7314L1049.61 69.1418L1048.7 74.303L1048.35 76.3186L1048.2 77.1773L1047.09 103.89Z" fill="#BE6F72"/>
<path opacity="0.1" d="M1048.61 101.872C1048.61 101.872 1053.01 105.472 1054.33 105.788C1055.66 106.105 1056.47 108.913 1056.47 108.913" fill="black"/>
<path d="M1011.06 104.417C1011.06 104.417 1006.46 116.469 1003.84 115.264C1001.22 114.059 1001.93 108.937 1001.43 107.533C1000.93 106.129 1000.37 95.481 1000.37 95.481C1000.37 95.481 1000.12 87.9486 999.62 86.4241C999.157 85.0231 998.78 77.9577 998.717 76.846C998.717 76.7495 998.717 76.6983 998.717 76.6983L999.217 67.9608L1002.03 67.2588L1008.55 69.6691L1009.45 74.8303L1009.81 76.846L1009.96 77.7046L1011.06 104.417Z" fill="#BE6F72"/>
<path d="M1041.06 39.9224H1030.78V55.9603H1041.06V39.9224Z" fill="#3E373A"/>
<path opacity="0.1" d="M1041.06 39.9224H1030.78V55.9603H1041.06V39.9224Z" fill="black"/>
<path d="M1009.26 116.421C1009.26 116.421 1005.74 120.286 1007.05 120.988C1008.35 121.69 1016.78 134.848 1016.78 134.848C1016.78 134.848 1044.49 138.261 1049.71 133.139C1054.94 128.017 1054.83 118.867 1054.83 118.867C1054.83 118.867 1050.63 119.771 1050.18 119.28C1049.72 118.789 1047.2 116.421 1047.2 116.421C1047.2 116.421 1011.67 114.263 1009.26 116.421Z" fill="#4B4B5B"/>
<path opacity="0.02" d="M1009.26 116.421C1009.26 116.421 1005.74 120.286 1007.05 120.988C1008.35 121.69 1016.78 134.848 1016.78 134.848C1016.78 134.848 1044.49 138.261 1049.71 133.139C1054.94 128.017 1054.83 118.867 1054.83 118.867C1054.83 118.867 1050.63 119.771 1050.18 119.28C1049.72 118.789 1047.2 116.421 1047.2 116.421C1047.2 116.421 1011.67 114.263 1009.26 116.421Z" fill="black"/>
<path d="M1059.13 67.5601L1050.09 74.7912L1047.36 74.99L1046.36 75.0623L1029.52 76.2976L1012.05 75.0202L1009.46 74.8303L1006.14 74.5893L999.217 67.9608C999.217 67.9608 1004.12 62.7063 1008.41 59.1601C1010.11 57.759 1011.7 56.6262 1012.87 56.1803L1013.07 56.111C1013.8 55.825 1014.46 55.3685 1014.98 54.7793C1018.37 51.2812 1021.5 42.6492 1021.5 42.6492C1021.5 42.6492 1036.46 34.918 1034.65 45.0595C1032.85 55.2011 1041.38 52.6943 1041.38 52.6943L1044.19 53.9778L1045.3 54.487L1048.13 55.7856L1054.53 58.7202C1059.54 61.0311 1059.13 67.5601 1059.13 67.5601Z" fill="#BE6F72"/>
<path opacity="0.1" d="M1028.82 50.9078C1036.25 50.9078 1042.27 44.8821 1042.27 37.449C1042.27 30.0159 1036.25 23.9902 1028.82 23.9902C1021.39 23.9902 1015.37 30.0159 1015.37 37.449C1015.37 44.8821 1021.39 50.9078 1028.82 50.9078Z" fill="black"/>
<path opacity="0.1" d="M1059.15 77.1472H998.717C998.717 77.0508 998.717 76.9995 998.717 76.9995L999.217 68.262C999.217 68.262 1004.12 63.0075 1008.41 59.4612L1046.35 57.9548L1048.12 56.0928L1054.51 59.0274C1059.53 61.3353 1059.13 67.8643 1059.13 67.8643C1059.13 67.8643 1059.81 75.4298 1059.15 77.1472Z" fill="black"/>
<path d="M1059.15 76.8459H998.717C998.717 76.7495 998.717 76.6983 998.717 76.6983L999.217 67.9608C999.217 67.9608 1004.12 62.7062 1008.41 59.16L1046.35 57.6535L1048.12 55.7915L1054.51 58.7261C1059.53 61.034 1059.13 67.5631 1059.13 67.5631C1059.13 67.5631 1059.81 75.1286 1059.15 76.8459Z" fill="#E7C7CA"/>
<path opacity="0.1" d="M1019.13 52.3449C1019.13 52.3449 1028.66 64.4991 1041.36 52.0948C1054.06 39.6905 1042.77 79.7626 1042.77 79.7626L1015.37 83.0166L1019.13 52.3449Z" fill="black"/>
<path d="M1019.13 52.9474C1019.13 52.9474 1028.66 65.1016 1041.36 52.6973C1054.06 40.2931 1042.77 80.3651 1042.77 80.3651L1015.37 83.6191L1019.13 52.9474Z" fill="#E7C7CA"/>
<path opacity="0.1" d="M1045.29 55.0806L1046.29 70.4737L1047.38 75.5957L1048.2 79.5125C1048.2 79.5125 1050.31 109.642 1049.71 111.148C1049.1 112.655 1050.01 113.86 1050.13 114.661C1050.26 115.463 1050.01 117.476 1050.11 118.379C1050.21 119.283 1050.11 119.684 1047.8 119.362C1045.49 119.039 1042.28 118.479 1042.28 118.479C1042.28 118.479 1034.15 119.081 1031.34 118.078C1028.53 117.075 1023.21 117.072 1023.21 117.072C1023.21 117.072 1015.18 117.274 1012.57 116.972C1009.96 116.671 1008.55 120.187 1006.85 119.181C1005.14 118.175 1008.85 108.437 1010.06 105.623C1011.26 102.809 1008.45 95.68 1008.45 95.68L1012.07 75.6228L1012.87 71.0763V56.7829L1013.07 56.7136C1013.8 56.4276 1014.46 55.9711 1014.98 55.3819L1015.88 69.7657L1044.19 70.772V54.5835" fill="black"/>
<path d="M1045.29 54.4781L1046.29 69.8712L1047.38 74.9932L1048.2 78.91C1048.2 78.91 1050.31 109.039 1049.71 110.546C1049.1 112.052 1050.01 113.257 1050.13 114.059C1050.26 114.86 1050.01 116.873 1050.11 117.777C1050.21 118.681 1050.11 119.081 1047.8 118.759C1045.49 118.437 1042.28 117.876 1042.28 117.876C1042.28 117.876 1034.15 118.479 1031.34 117.476C1028.53 116.472 1023.21 116.469 1023.21 116.469C1023.21 116.469 1015.18 116.671 1012.57 116.37C1009.96 116.069 1008.55 119.585 1006.85 118.578C1005.14 117.572 1008.85 107.834 1010.06 105.02C1011.26 102.206 1008.45 95.0774 1008.45 95.0774L1012.07 75.0203L1012.87 70.4738V56.1804L1013.07 56.1111C1013.8 55.8251 1014.46 55.3686 1014.98 54.7794L1015.88 69.1631L1044.19 70.1695V53.981" fill="#E7C7CA"/>
<path opacity="0.1" d="M1048.54 22.3539C1048.37 21.7242 1048.13 21.0704 1047.64 20.6485C1047.17 20.3097 1046.62 20.0868 1046.05 19.9977C1044.67 19.6364 1043.28 19.3686 1041.87 19.1963C1041.67 18.5273 1041.36 17.8939 1040.96 17.3192C1038.01 13.1493 1033.65 9.21746 1028.51 8.32865C1025.82 7.86164 1022.7 8.28044 1020.98 10.4015C1020.04 11.5676 1019.63 13.1132 1018.68 14.2581C1016.84 16.4817 1013.51 16.7558 1011.2 18.4762C1009.96 19.3801 1009.06 20.6907 1008.18 21.9622C1007.24 23.3391 1006.26 24.7733 1005.96 26.4183C1005.36 29.7054 1007.53 32.8389 1007.93 36.1561C1008.83 43.577 1000.88 50.1603 1002.38 57.4817C1003.26 61.751 1007.2 64.7579 1011.28 66.2825C1012.72 66.8218 1014.36 67.3581 1015.03 68.738C1015.33 69.3406 1015.38 70.0366 1015.66 70.6452C1016.62 72.6759 1019.74 72.7543 1021.42 71.2749C1023.1 69.7956 1023.63 67.4033 1023.83 65.1707C1024.64 55.4208 1020.74 45.7885 1021.19 36.0145C1021.33 33.0588 1022.16 29.7054 1024.81 28.3677C1028.37 26.5599 1032.65 29.5729 1036.57 28.9974C1038.43 33.5142 1038.82 38.4992 1037.7 43.2516C1037.08 45.8518 1036 48.3736 1035.92 51.0551C1035.8 55.1376 1038 58.8676 1039.91 62.4771C1040.32 63.1521 1040.59 63.9002 1040.71 64.6796C1040.74 65.4704 1040.59 66.2579 1040.28 66.9845C1039.21 69.8799 1037.35 72.5675 1037.14 75.6497C1037.08 76.0095 1037.16 76.3792 1037.37 76.6801C1037.58 76.881 1037.85 77.0041 1038.14 77.0296C1041.4 77.587 1044.21 74.7036 1045.79 71.8082C1047.56 68.6102 1048.59 65.0564 1048.81 61.4075C1049.14 55.2732 1046.94 49.2383 1047.08 43.0979C1047.23 36.117 1050.39 29.0878 1048.54 22.3539Z" fill="black"/>
<path d="M1048.84 22.0526C1048.67 21.4229 1048.43 20.7691 1047.94 20.3473C1047.47 20.0085 1046.92 19.7855 1046.35 19.6965C1044.97 19.3351 1043.58 19.0673 1042.17 18.895C1041.97 18.226 1041.66 17.5927 1041.27 17.018C1038.31 12.8481 1033.95 8.91619 1028.81 8.02738C1026.12 7.56037 1023.01 7.97917 1021.28 10.1003C1020.34 11.2663 1019.93 12.8119 1018.98 13.9568C1017.14 16.1804 1013.82 16.4546 1011.5 18.175C1010.26 19.0788 1009.36 20.3895 1008.49 21.6609C1007.54 23.0378 1006.56 24.472 1006.26 26.1171C1005.66 29.4042 1007.83 32.5376 1008.23 35.8549C1009.13 43.2757 1001.18 49.859 1002.69 57.1804C1003.56 61.4498 1007.5 64.4567 1011.58 65.9812C1013.02 66.5205 1014.66 67.0568 1015.33 68.4368C1015.63 69.0394 1015.68 69.7353 1015.97 70.344C1016.92 72.3747 1020.05 72.453 1021.73 70.9737C1023.41 69.4943 1023.94 67.102 1024.13 64.8695C1024.94 55.1196 1021.04 45.4872 1021.49 35.7133C1021.63 32.7576 1022.46 29.4042 1025.11 28.0664C1028.67 26.2587 1032.95 29.2716 1036.88 28.6961C1038.73 33.2129 1039.12 38.198 1038 42.9503C1037.38 45.5505 1036.3 48.0723 1036.22 50.7538C1036.1 54.8364 1038.31 58.5664 1040.21 62.1759C1040.62 62.8509 1040.89 63.5989 1041.01 64.3783C1041.04 65.1692 1040.9 65.9567 1040.58 66.6832C1039.51 69.5787 1037.65 72.2662 1037.44 75.3484C1037.38 75.7082 1037.46 76.078 1037.67 76.3789C1037.88 76.5797 1038.15 76.7029 1038.44 76.7284C1041.7 77.2858 1044.51 74.4024 1046.1 71.507C1047.86 68.309 1048.9 64.7551 1049.11 61.1063C1049.44 54.972 1047.24 48.937 1047.38 42.7967C1047.53 35.8157 1050.69 28.7865 1048.84 22.0526Z" fill="#3E373A"/>
<path d="M1042.19 155.457L1054.14 155.839L1052.42 146.975L1043.27 147.846L1042.19 155.457Z" fill="#C3C7D9"/>
<path d="M1079.2 134.447C1078.4 135.451 1075.29 137.258 1074.99 137.861C1074.69 138.464 1070.97 140.271 1069.07 140.573C1067.16 140.874 1061.14 142.182 1060.03 142.884C1059.24 143.39 1052.88 144.993 1048.71 145.881C1047.57 146.149 1046.43 146.355 1045.28 146.499C1043.47 146.599 1023.7 139.871 1023.7 139.871L1027.51 135.954L1027.72 135.882C1028.8 135.517 1033.78 133.833 1036.54 133.031C1039.66 132.127 1043.27 128.413 1043.27 128.413C1043.27 128.413 1048.59 126.605 1049.29 126.403C1050 126.201 1047.49 119.374 1047.49 119.374C1047.49 119.374 1059.03 117.771 1063.55 116.412C1068.06 115.053 1078.5 115.556 1080.41 120.88C1082.31 126.204 1080.02 133.444 1079.2 134.447Z" fill="#4B4B5B"/>
<path d="M1026.61 151.419C1026.61 151.419 1024.3 153.829 1021.99 153.631C1019.68 153.432 1011.61 154.233 1011.61 154.233C1010.14 154.817 1008.77 155.612 1007.54 156.592C1005.65 158.081 1004.65 156.894 1004.46 156.641L1004.43 156.592C1003.42 159.759 1001.11 157.346 1001.11 157.346C1001.11 157.346 1002.12 147.704 1001.81 146.499C1001.5 145.294 1003.79 143.224 1003.79 143.224L1006.5 142.534L1013.37 140.774L1023.21 144.188L1026.61 151.419Z" fill="#E7C7CA"/>
<path opacity="0.1" d="M1006.49 142.534L1004.46 156.641L1004.43 156.592C1003.42 159.759 1001.11 157.346 1001.11 157.346C1001.11 157.346 1002.12 147.704 1001.81 146.499C1001.5 145.294 1003.79 143.224 1003.79 143.224L1006.49 142.534Z" fill="black"/>
<path opacity="0.1" d="M1020.7 102.408C1020.7 102.408 1026.02 104.216 1030.64 102.408H1020.7Z" fill="black"/>
<path opacity="0.1" d="M1038.85 105.824C1038.85 105.824 1041.06 106.927 1042.77 105.824H1038.85Z" fill="black"/>
<path opacity="0.1" d="M1038.85 108.44C1038.85 108.44 1042.57 108.937 1043.27 107.934L1038.85 108.44Z" fill="black"/>
<path opacity="0.1" d="M1037.65 114.059C1037.65 114.059 1044.62 113.155 1046.35 111.95L1037.65 114.059Z" fill="black"/>
<path opacity="0.1" d="M1016.37 111.95C1016.37 111.95 1020.28 114.158 1023.2 114.059L1016.37 111.95Z" fill="black"/>
<path opacity="0.1" d="M1048.7 145.881C1047.57 146.149 1046.43 146.355 1045.27 146.499C1043.47 146.598 1023.7 139.87 1023.7 139.87L1027.51 135.954L1027.72 135.881C1028.32 136.306 1028.81 136.671 1029.17 136.948C1030.83 138.256 1032.43 136.547 1033.03 136.547C1033.63 136.547 1038.85 140.865 1038.85 140.865C1038.85 140.865 1043.67 141.97 1044.47 142.974C1045.28 143.977 1048.09 143.778 1048.59 144.48C1048.74 144.697 1048.75 145.23 1048.7 145.881Z" fill="black"/>
<path d="M1011.6 119.783C1011.6 119.783 1006.73 120.064 1003.92 118.88C1001.11 117.695 991.779 114.963 989.069 116.882C986.359 118.801 979.834 120.497 982.845 128.132C985.856 135.767 987.262 135.966 987.262 135.966C988.194 136.665 989.007 137.509 989.671 138.467C990.575 139.874 999.006 143.085 1001.11 143.085C1003.22 143.085 1006.93 143.085 1012.15 146.701C1017.37 150.316 1022.09 150.72 1022.09 150.72C1022.09 150.72 1028.71 153.432 1030.78 154.034C1032.84 154.637 1042.27 157.246 1044.48 156.445C1046.69 155.643 1048.09 150.618 1048.09 150.618C1048.09 150.618 1049.09 146.098 1048.59 145.396C1048.09 144.694 1045.28 144.893 1044.48 143.89C1043.67 142.887 1038.85 141.781 1038.85 141.781C1038.85 141.781 1033.65 137.46 1033.04 137.46C1032.44 137.46 1030.84 139.166 1029.18 137.861C1025.88 135.412 1022.4 133.197 1018.79 131.233C1014.98 129.223 1011.6 119.783 1011.6 119.783Z" fill="#4B4B5B"/>
<path opacity="0.1" d="M1001.81 122.697C1002.68 122.519 1003.57 122.545 1004.43 122.771C1005.29 122.997 1006.08 123.418 1006.74 124.001C1009.15 126.011 1017.26 130.045 1017.26 130.045" fill="black"/>
<path opacity="0.1" d="M1062.04 122.57C1062.04 122.57 1051.3 124.197 1049.29 126.406L1062.04 122.57Z" fill="black"/>
<path d="M1074.39 155.839H1073.91C1072.21 155.779 1066.46 155.598 1065.35 155.839C1064.05 156.14 1046.78 155.839 1046.78 155.839L1050.16 155.137C1050.16 155.137 1048.9 150.744 1049.7 150.38C1049.7 150.38 1045.18 147.403 1048.59 145.393C1051.99 143.384 1055.67 144.23 1055.67 144.23L1064.21 141.332L1065.86 140.774C1065.86 140.774 1075.49 141.278 1078.1 147.906C1080.71 154.534 1074.39 155.839 1074.39 155.839Z" fill="#E7C7CA"/>
<path opacity="0.1" d="M1074.39 155.839H1073.91C1076.72 153.525 1083.06 146.481 1064.21 141.347L1065.86 140.79C1065.86 140.79 1075.49 141.293 1078.1 147.921C1080.71 154.55 1074.39 155.839 1074.39 155.839Z" fill="black"/>
<path d="M1056.67 148.03C1056.96 148.03 1057.2 147.794 1057.2 147.502C1057.2 147.211 1056.96 146.975 1056.67 146.975C1056.38 146.975 1056.14 147.211 1056.14 147.502C1056.14 147.794 1056.38 148.03 1056.67 148.03Z" fill="#4B4B5B"/>
<path d="M1053.61 148.9C1053.9 148.9 1054.14 148.664 1054.14 148.373C1054.14 148.082 1053.9 147.846 1053.61 147.846C1053.32 147.846 1053.08 148.082 1053.08 148.373C1053.08 148.664 1053.32 148.9 1053.61 148.9Z" fill="#4B4B5B"/>
<g opacity="0.1">
<path opacity="0.1" d="M1038.69 36.9513C1038.8 33.6373 1038.22 30.3364 1036.96 27.2677C1033.04 27.8522 1028.76 24.8302 1025.19 26.638C1022.55 27.9757 1021.73 31.3291 1021.58 34.2848C1021.54 35.0652 1021.54 35.8455 1021.55 36.6259C1021.55 36.3487 1021.55 36.0685 1021.58 35.7913C1021.72 32.8356 1022.54 29.4822 1025.19 28.1445C1028.76 26.3367 1033.04 29.3496 1036.96 28.7742C1038.02 31.3734 1038.61 34.1437 1038.69 36.9513Z" fill="black"/>
<path opacity="0.1" d="M1008.35 36.4C1008.4 35.7435 1008.39 35.0835 1008.31 34.4295C1007.99 31.7782 1006.55 29.2443 1006.28 26.6592C1005.95 29.7776 1007.93 32.7724 1008.31 35.936C1008.35 36.0987 1008.35 36.2433 1008.35 36.4Z" fill="black"/>
<path opacity="0.1" d="M1024.22 63.4382C1024.03 65.6738 1023.51 68.063 1021.81 69.5454C1020.11 71.0278 1016.99 70.9464 1016.05 68.9157C1015.75 68.3131 1015.7 67.6111 1015.41 67.0085C1014.74 65.6286 1013.1 65.0923 1011.66 64.553C1007.58 63.0254 1003.65 60.0336 1002.77 55.7522C1002.69 55.3643 1002.64 54.9718 1002.61 54.5771C1002.54 55.474 1002.59 56.3769 1002.77 57.2587C1003.65 61.528 1007.59 64.5319 1011.66 66.0594C1013.1 66.5988 1014.74 67.1351 1015.41 68.515C1015.71 69.1176 1015.76 69.8136 1016.05 70.4222C1017 72.4529 1020.13 72.5312 1021.81 71.0519C1023.49 69.5725 1024.02 67.1803 1024.22 64.9447C1024.31 63.768 1024.34 62.5874 1024.31 61.4075C1024.31 62.0914 1024.27 62.7663 1024.22 63.4382Z" fill="black"/>
<path opacity="0.1" d="M1047.48 41.3685C1047.48 41.8053 1047.48 42.2392 1047.48 42.6731C1047.65 37.069 1049.7 31.4348 1049.5 25.9482C1049.34 31.022 1047.59 36.2103 1047.48 41.3685Z" fill="black"/>
<path opacity="0.1" d="M1041.02 64.0376C1041.09 63.6801 1041.11 63.3139 1041.08 62.9499C1040.96 62.1701 1040.69 61.4218 1040.28 60.7474C1038.54 57.4332 1036.56 54.0406 1036.32 50.3618C1036.32 50.5185 1036.3 50.6631 1036.3 50.8318C1036.18 54.9114 1038.38 58.6444 1040.28 62.2539C1040.6 62.8129 1040.85 63.4128 1041.02 64.0376Z" fill="black"/>
<path opacity="0.1" d="M1049.21 59.6783C1048.98 63.3285 1047.95 66.8822 1046.17 70.0789C1044.58 72.9744 1041.77 75.8578 1038.52 75.3004C1038.22 75.2752 1037.95 75.1508 1037.74 74.9479C1037.68 74.8788 1037.63 74.7992 1037.6 74.7128C1037.56 74.9479 1037.53 75.1859 1037.51 75.4269C1037.45 75.7858 1037.53 76.1547 1037.74 76.4543C1037.95 76.6573 1038.22 76.7817 1038.52 76.8068C1041.77 77.3642 1044.58 74.4808 1046.17 71.5854C1047.95 68.3887 1048.98 64.835 1049.21 61.1847C1049.25 60.4797 1049.25 59.7777 1049.23 59.0757C1049.22 59.2776 1049.22 59.4764 1049.21 59.6783Z" fill="black"/>
</g>
<path opacity="0.1" d="M1049.7 150.38C1049.7 150.38 1057.32 153.579 1062.35 146.499" stroke="black" stroke-miterlimit="10"/>
<path opacity="0.1" d="M1051.2 155.971C1051.2 155.971 1057.42 151.922 1065.35 155.839" stroke="black" stroke-miterlimit="10"/>
<path opacity="0.1" d="M1009.54 155.053C1009.54 155.053 1012.15 149.153 1019.13 153.652" stroke="black" stroke-miterlimit="10"/>
<path opacity="0.1" d="M1001.06 67.8098L1006.39 62.9891C1006.39 62.9891 1027.06 61.6333 1027.91 68.6625C1027.91 68.6625 1035.24 60.3287 1050.65 62.1847L1057.17 67.379L1039.15 75.2909L1021.64 81.368L1008.74 75.5922L1001.06 67.8098Z" fill="black"/>
<path d="M1001.06 68.1116L1006.39 63.2909C1006.39 63.2909 1027.06 61.9351 1027.91 68.9642C1027.91 68.9642 1035.24 60.6305 1050.65 62.4864L1057.17 67.6807L1039.15 75.5927L1021.64 81.6698L1008.74 75.894L1001.06 68.1116Z" fill="#D5D6DB"/>
<path opacity="0.1" d="M998.705 68.7139L1001.06 96.9361L1026.06 98.1925L1024.97 70.0908L1024.95 69.6177L998.705 68.7139Z" fill="black"/>
<path d="M998.705 68.1113L1001.06 96.3335L1026.06 97.5899L1024.97 69.4882L1024.95 69.0152L998.705 68.1113Z" fill="#397EF3"/>
<path opacity="0.1" d="M1058.31 68.1113L1032.53 71.9799V100.329L1057.73 96.686L1058.31 68.1113Z" fill="black"/>
<path d="M1058.31 67.5088L1032.53 71.3774V99.7262L1057.73 96.0835L1058.31 67.5088Z" fill="#397EF3"/>
<path opacity="0.3" d="M1052.23 74.4263L1038.31 75.9749L1038.61 80.7233L1052.22 79.2349L1052.23 74.4263Z" fill="white"/>
<path d="M1002.42 111.447L1003.84 115.264C1003.84 115.264 1005.94 117.072 1008.25 116.168C1010.56 115.264 1012.57 114.815 1013.57 113.935C1014.57 113.056 1015.98 108.636 1015.98 108.636C1015.98 108.636 1017.39 103.815 1018.79 102.61C1020.19 101.405 1023.91 84.8002 1018.79 86.4242C1013.67 88.0482 1009.76 103.113 1009.76 103.113C1009.76 103.113 1008.85 104.216 1007.55 104.318C1006.25 104.42 1003.63 104.116 1003.13 105.222C1002.63 106.328 1000.91 109.238 1002.42 111.447Z" fill="#BE6F72"/>
<path opacity="0.1" d="M1032.53 71.9769C1031.21 72.2745 1029.84 72.259 1028.53 71.9315C1027.21 71.604 1025.99 70.9736 1024.97 70.0908L1026.06 98.1895C1026.06 98.1895 1028.62 100.961 1032.53 100.329V71.9769Z" fill="black"/>
<path d="M1032.53 71.3744C1031.21 71.672 1029.84 71.6564 1028.53 71.3289C1027.21 71.0014 1025.99 70.3711 1024.97 69.4883L1026.06 97.5869C1026.06 97.5869 1028.62 100.359 1032.53 99.7261V71.3744Z" fill="#397EF3"/>
<path opacity="0.1" d="M1032.53 71.3744C1031.21 71.672 1029.84 71.6564 1028.53 71.3289C1027.21 71.0014 1025.99 70.3711 1024.97 69.4883L1026.06 97.5869C1026.06 97.5869 1028.62 100.359 1032.53 99.7261V71.3744Z" fill="black"/>
<path opacity="0.1" d="M1033.13 68.2077C1033.13 68.2077 1043.62 64.9989 1046.35 65.4508L1033.13 68.2077Z" fill="black"/>
<path opacity="0.1" d="M1021.4 66.8066C1021.4 66.8066 1011.23 64.3963 1009.54 65.0802L1021.4 66.8066Z" fill="black"/>
<path opacity="0.1" d="M1039.74 68.6083C1039.74 68.6083 1046.76 66.0353 1049.29 67.2585L1039.74 68.6083Z" fill="black"/>
<path opacity="0.1" d="M1036.21 133.155C1037.3 132.338 1038.46 131.619 1039.67 131.006C1041.48 130.136 1044.79 127.876 1044.79 127.876" fill="black"/>
<path opacity="0.1" d="M1009.54 102.408C1009.54 102.408 1005.14 106.008 1003.81 106.325C1002.49 106.641 1001.68 109.449 1001.68 109.449" fill="black"/>
<path d="M1055.73 110.91L1054.32 114.737C1054.32 114.737 1052.21 116.544 1049.9 115.641C1047.6 114.737 1045.59 114.288 1044.58 113.408C1043.58 112.528 1042.17 108.108 1042.17 108.108C1042.17 108.108 1040.77 103.288 1039.37 102.082C1037.96 100.877 1034.25 84.2729 1039.37 85.8968C1044.48 87.5208 1048.4 102.586 1048.4 102.586C1048.4 102.586 1049.3 103.688 1050.61 103.791C1051.91 103.893 1054.52 103.589 1055.02 104.695C1055.53 105.8 1057.23 108.711 1055.73 110.91Z" fill="#BE6F72"/>
<path opacity="0.1" d="M1053.27 103.872C1053.27 103.872 1056.14 105.722 1056.13 107.934L1053.27 103.872Z" fill="black"/>
<path d="M1028.87 50.2477C1036.29 50.2477 1042.32 44.222 1042.32 36.7889C1042.32 29.3558 1036.29 23.3301 1028.87 23.3301C1021.44 23.3301 1015.41 29.3558 1015.41 36.7889C1015.41 44.222 1021.44 50.2477 1028.87 50.2477Z" fill="#BE6F72"/>
<path d="M1020.42 33.1762C1022.05 32.9201 1023.48 31.971 1025.04 31.4257C1028.53 30.1994 1032.39 31.04 1035.92 32.1458C1037.28 32.5706 1038.65 33.0497 1040.08 33.0497C1041.5 33.0497 1043.01 32.4682 1043.73 31.2419C1044.4 30.1151 1044.27 28.6508 1043.71 27.4667C1043.14 26.2826 1042.2 25.3305 1041.25 24.4327C1038.12 21.4739 1034.23 18.7081 1029.94 19.0094C1028.21 19.1329 1026.56 19.7506 1024.97 20.4345C1022.96 21.2977 1021.02 22.2796 1019.13 23.3751C1017.68 24.2157 1015 25.3395 1014.16 26.8761C1012.27 30.338 1017.47 33.6402 1020.42 33.1762Z" fill="#3E373A"/>
<path opacity="0.1" d="M1043.73 29.9766C1043.01 31.2028 1041.5 31.7843 1040.08 31.7843C1038.65 31.7843 1037.28 31.3234 1035.92 30.8985C1032.39 29.7928 1028.53 28.9492 1025.04 30.1784C1023.48 30.7238 1022.05 31.6849 1020.42 31.9259C1018.04 32.2995 1014.21 30.2266 1013.79 27.5903C1013.32 30.6364 1017.77 33.2456 1020.42 32.8298C1022.05 32.5737 1023.48 31.6246 1025.04 31.0823C1028.53 29.853 1032.39 30.6967 1035.92 31.8024C1037.28 32.2272 1038.65 32.7063 1040.08 32.6882C1041.5 32.6701 1043.01 32.1097 1043.73 30.8805C1044.11 30.2117 1044.26 29.4385 1044.15 28.678C1044.11 29.1359 1043.96 29.5785 1043.73 29.9766Z" fill="black"/>
<path d="M1152.89 193.263C1152.89 193.263 1154.68 195.598 1152.07 199.126C1149.46 202.654 1147.31 205.631 1148.17 207.83C1148.17 207.83 1152.11 201.28 1155.32 201.187C1158.52 201.093 1156.41 197.201 1152.89 193.263Z" fill="#397EF3"/>
<path opacity="0.1" d="M1152.89 193.263C1153.05 193.488 1153.17 193.735 1153.26 193.995C1156.38 197.671 1158.05 201.102 1155.04 201.187C1152.24 201.268 1148.88 206.279 1148.08 207.541C1148.11 207.643 1148.14 207.744 1148.17 207.842C1148.17 207.842 1152.11 201.292 1155.32 201.199C1158.52 201.105 1156.41 197.201 1152.89 193.263Z" fill="black"/>
<path d="M1156.2 196.24C1156.2 197.062 1156.11 197.728 1156 197.728C1155.89 197.728 1155.79 197.062 1155.79 196.24C1155.79 195.417 1155.91 195.806 1156.02 195.806C1156.13 195.806 1156.2 195.417 1156.2 196.24Z" fill="#FFD037"/>
<path d="M1157.35 197.222C1156.63 197.613 1156 197.851 1155.94 197.752C1155.89 197.653 1156.43 197.252 1157.15 196.848C1157.87 196.444 1157.58 196.74 1157.64 196.848C1157.69 196.957 1158.07 196.827 1157.35 197.222Z" fill="#FFD037"/>
<path d="M1143.45 193.263C1143.45 193.263 1141.67 195.598 1144.28 199.126C1146.89 202.654 1149.04 205.631 1148.17 207.83C1148.17 207.83 1144.23 201.28 1141.03 201.187C1137.82 201.093 1139.94 197.201 1143.45 193.263Z" fill="#397EF3"/>
<path opacity="0.1" d="M1143.45 193.263C1143.3 193.488 1143.18 193.735 1143.09 193.995C1139.96 197.671 1138.3 201.102 1141.3 201.187C1144.1 201.268 1147.46 206.279 1148.27 207.541C1148.24 207.644 1148.21 207.744 1148.17 207.842C1148.17 207.842 1144.23 201.292 1141.03 201.199C1137.82 201.105 1139.94 197.201 1143.45 193.263Z" fill="black"/>
<path d="M1140.14 196.24C1140.14 197.062 1140.23 197.728 1140.34 197.728C1140.46 197.728 1140.55 197.062 1140.55 196.24C1140.55 195.417 1140.43 195.806 1140.32 195.806C1140.21 195.806 1140.14 195.417 1140.14 196.24Z" fill="#FFD037"/>
<path d="M1139 197.222C1139.72 197.613 1140.35 197.851 1140.4 197.752C1140.46 197.653 1139.92 197.252 1139.2 196.848C1138.48 196.444 1138.76 196.74 1138.71 196.848C1138.65 196.957 1138.28 196.827 1139 197.222Z" fill="#FFD037"/>
<path opacity="0.1" d="M1148.17 225.703C1158.48 225.703 1166.84 224.42 1166.84 222.838C1166.84 221.256 1158.48 219.973 1148.17 219.973C1137.86 219.973 1129.5 221.256 1129.5 222.838C1129.5 224.42 1137.86 225.703 1148.17 225.703Z" fill="#397EF3"/>
<path d="M1157.78 204.682L1157.69 205.411L1157.56 206.442L1157.51 206.872L1157.39 207.903L1157.33 208.334L1157.21 209.361L1155.78 221.081C1155.65 222.127 1153.95 222.943 1151.88 222.943H1144.46C1142.4 222.943 1140.69 222.127 1140.56 221.081L1139.13 209.361L1139.01 208.334L1138.96 207.903L1138.83 206.872L1138.77 206.442L1138.65 205.411L1138.56 204.682C1138.49 204.079 1139.41 203.591 1140.58 203.591H1155.76C1156.93 203.591 1157.85 204.088 1157.78 204.682Z" fill="#65617D"/>
<path d="M1157.69 205.411L1157.57 206.442H1138.78L1138.65 205.411H1157.69Z" fill="#9D9CB5"/>
<path d="M1157.51 206.873L1157.39 207.903H1138.96L1138.83 206.873H1157.51Z" fill="#9D9CB5"/>
<path d="M1157.34 208.333L1157.21 209.364H1139.13L1139.01 208.333H1157.34Z" fill="#9D9CB5"/>
</g>
<defs>
<linearGradient id="paint0_linear" x1="1031.61" y1="158.226" x2="1031.61" y2="7.00017" gradientUnits="userSpaceOnUse">
<stop stop-color="#808080" stop-opacity="0.25"/>
<stop offset="0.54" stop-color="#808080" stop-opacity="0.12"/>
<stop offset="1" stop-color="#808080" stop-opacity="0.1"/>
</linearGradient>
<clipPath id="clip0">
<rect width="308" height="245" fill="white" transform="translate(867 7)"/>
</clipPath>
</defs>
</svg>
