<svg width="1140" height="660" viewBox="0 0 1140 660" fill="none" xmlns="http://www.w3.org/2000/svg">
<rect y="69" width="1140" height="591" rx="16" fill="white"/>
<path d="M585 16C585 7.16345 592.163 0 601 0H871C879.837 0 887 7.16344 887 16V89H585V16Z" fill="white"/>
<path d="M680.565 47.76C680.709 48 680.781 48.232 680.781 48.456C680.781 48.744 680.669 48.976 680.445 49.152C680.221 49.344 679.957 49.44 679.653 49.44C679.141 49.44 678.733 49.2 678.429 48.72L677.037 46.416C676.525 45.6 675.685 45.192 674.517 45.192C672.917 45.192 671.525 44.84 670.341 44.136C669.173 43.432 668.269 42.432 667.629 41.136C666.989 39.84 666.669 38.312 666.669 36.552C666.669 34.776 666.981 33.24 667.605 31.944C668.245 30.632 669.157 29.632 670.341 28.944C671.525 28.24 672.917 27.888 674.517 27.888C676.133 27.888 677.533 28.24 678.717 28.944C679.901 29.632 680.805 30.632 681.429 31.944C682.069 33.24 682.389 34.768 682.389 36.528C682.389 38.496 681.989 40.184 681.189 41.592C680.389 42.984 679.261 43.976 677.805 44.568C678.493 44.792 679.093 45.328 679.605 46.176L680.565 47.76ZM669.189 36.528C669.189 38.656 669.653 40.296 670.581 41.448C671.525 42.6 672.837 43.176 674.517 43.176C676.213 43.176 677.533 42.6 678.477 41.448C679.421 40.296 679.893 38.656 679.893 36.528C679.893 34.4 679.421 32.768 678.477 31.632C677.549 30.48 676.229 29.904 674.517 29.904C672.837 29.904 671.525 30.48 670.581 31.632C669.653 32.768 669.189 34.4 669.189 36.528ZM694.545 33.048C694.913 33.048 695.201 33.152 695.409 33.36C695.633 33.568 695.745 33.856 695.745 34.224V43.992C695.745 44.328 695.633 44.6 695.409 44.808C695.185 45.016 694.889 45.12 694.521 45.12C694.185 45.12 693.913 45.024 693.705 44.832C693.497 44.624 693.393 44.352 693.393 44.016V43.104C693.025 43.776 692.513 44.288 691.857 44.64C691.217 44.992 690.497 45.168 689.697 45.168C686.849 45.168 685.425 43.6 685.425 40.464V34.224C685.425 33.856 685.529 33.568 685.737 33.36C685.961 33.152 686.265 33.048 686.649 33.048C687.017 33.048 687.305 33.152 687.513 33.36C687.737 33.568 687.849 33.856 687.849 34.224V40.44C687.849 41.384 688.041 42.08 688.425 42.528C688.809 42.976 689.401 43.2 690.201 43.2C691.145 43.2 691.897 42.896 692.457 42.288C693.033 41.68 693.321 40.872 693.321 39.864V34.224C693.321 33.872 693.433 33.592 693.657 33.384C693.881 33.16 694.177 33.048 694.545 33.048ZM708.305 42.048C708.529 42.048 708.713 42.136 708.857 42.312C709.001 42.488 709.073 42.712 709.073 42.984C709.073 43.448 708.785 43.84 708.209 44.16C707.649 44.48 707.033 44.728 706.361 44.904C705.705 45.08 705.073 45.168 704.465 45.168C702.609 45.168 701.145 44.632 700.073 43.56C699.001 42.472 698.465 40.992 698.465 39.12C698.465 37.92 698.697 36.856 699.161 35.928C699.641 35 700.305 34.28 701.153 33.768C702.017 33.256 702.993 33 704.081 33C705.649 33 706.889 33.504 707.801 34.512C708.713 35.52 709.169 36.88 709.169 38.592C709.169 39.232 708.881 39.552 708.305 39.552H700.889C701.049 42.032 702.241 43.272 704.465 43.272C705.057 43.272 705.569 43.192 706.001 43.032C706.433 42.872 706.889 42.664 707.369 42.408C707.417 42.376 707.545 42.312 707.753 42.216C707.977 42.104 708.161 42.048 708.305 42.048ZM704.129 34.776C703.201 34.776 702.457 35.072 701.897 35.664C701.337 36.256 701.001 37.088 700.889 38.16H707.081C707.033 37.072 706.753 36.24 706.241 35.664C705.745 35.072 705.041 34.776 704.129 34.776ZM717.984 33.048C718.752 33 719.136 33.328 719.136 34.032C719.136 34.384 719.048 34.648 718.872 34.824C718.696 35 718.392 35.104 717.96 35.136L717.24 35.208C716.232 35.304 715.48 35.656 714.984 36.264C714.504 36.872 714.264 37.608 714.264 38.472V43.968C714.264 44.352 714.152 44.64 713.928 44.832C713.704 45.024 713.416 45.12 713.064 45.12C712.712 45.12 712.416 45.024 712.176 44.832C711.952 44.64 711.84 44.352 711.84 43.968V34.2C711.84 33.832 711.952 33.552 712.176 33.36C712.416 33.152 712.712 33.048 713.064 33.048C713.384 33.048 713.648 33.152 713.856 33.36C714.08 33.552 714.192 33.824 714.192 34.176V35.328C714.512 34.624 714.976 34.088 715.584 33.72C716.192 33.352 716.88 33.136 717.648 33.072L717.984 33.048ZM725.483 45.168C724.331 45.168 723.315 44.92 722.435 44.424C721.571 43.928 720.899 43.224 720.419 42.312C719.955 41.384 719.723 40.312 719.723 39.096C719.723 37.864 719.955 36.792 720.419 35.88C720.899 34.952 721.571 34.24 722.435 33.744C723.315 33.248 724.331 33 725.483 33C726.635 33 727.643 33.248 728.507 33.744C729.387 34.24 730.059 34.952 730.523 35.88C731.003 36.792 731.243 37.864 731.243 39.096C731.243 40.312 731.003 41.384 730.523 42.312C730.059 43.224 729.387 43.928 728.507 44.424C727.643 44.92 726.635 45.168 725.483 45.168ZM725.483 43.248C726.555 43.248 727.371 42.896 727.931 42.192C728.507 41.488 728.795 40.456 728.795 39.096C728.795 37.752 728.507 36.728 727.931 36.024C727.355 35.304 726.539 34.944 725.483 34.944C724.427 34.944 723.611 35.304 723.035 36.024C722.459 36.728 722.171 37.752 722.171 39.096C722.171 40.456 722.451 41.488 723.011 42.192C723.587 42.896 724.411 43.248 725.483 43.248ZM745.19 33C746.742 33 747.894 33.392 748.646 34.176C749.414 34.96 749.798 36.152 749.798 37.752V43.968C749.798 44.336 749.694 44.624 749.486 44.832C749.278 45.024 748.99 45.12 748.622 45.12C748.27 45.12 747.99 45.016 747.782 44.808C747.574 44.6 747.47 44.32 747.47 43.968V43.08C747.166 43.752 746.71 44.272 746.102 44.64C745.51 44.992 744.814 45.168 744.014 45.168C743.246 45.168 742.542 45.016 741.902 44.712C741.278 44.392 740.782 43.96 740.414 43.416C740.046 42.872 739.862 42.256 739.862 41.568C739.846 40.704 740.062 40.032 740.51 39.552C740.958 39.056 741.686 38.704 742.694 38.496C743.702 38.272 745.102 38.16 746.894 38.16H747.446V37.464C747.446 36.568 747.262 35.92 746.894 35.52C746.526 35.12 745.934 34.92 745.118 34.92C744.558 34.92 744.03 34.992 743.534 35.136C743.038 35.28 742.494 35.488 741.902 35.76C741.47 36 741.166 36.12 740.99 36.12C740.75 36.12 740.55 36.032 740.39 35.856C740.246 35.68 740.174 35.456 740.174 35.184C740.174 34.944 740.238 34.736 740.366 34.56C740.51 34.368 740.734 34.184 741.038 34.008C741.598 33.704 742.254 33.464 743.006 33.288C743.758 33.096 744.486 33 745.19 33ZM744.446 43.368C745.326 43.368 746.046 43.072 746.606 42.48C747.166 41.872 747.446 41.096 747.446 40.152V39.528H747.014C745.766 39.528 744.806 39.584 744.134 39.696C743.462 39.808 742.982 40 742.694 40.272C742.406 40.528 742.262 40.904 742.262 41.4C742.262 41.976 742.47 42.448 742.886 42.816C743.302 43.184 743.822 43.368 744.446 43.368ZM751.05 49.368C750.57 49.4 750.202 49.336 749.946 49.176C749.69 49.016 749.562 48.768 749.562 48.432C749.562 48.176 749.642 47.968 749.802 47.808C749.962 47.664 750.218 47.576 750.57 47.544L751.242 47.496C751.866 47.464 752.33 47.272 752.634 46.92C752.954 46.568 753.114 46.008 753.114 45.24V34.224C753.114 33.84 753.226 33.552 753.45 33.36C753.69 33.152 753.986 33.048 754.338 33.048C754.69 33.048 754.978 33.152 755.202 33.36C755.426 33.552 755.538 33.84 755.538 34.224V45.096C755.538 46.44 755.226 47.456 754.602 48.144C753.978 48.832 753.01 49.224 751.698 49.32L751.05 49.368ZM754.338 30.696C753.874 30.696 753.506 30.568 753.234 30.312C752.962 30.056 752.826 29.72 752.826 29.304C752.826 28.888 752.962 28.56 753.234 28.32C753.506 28.064 753.874 27.936 754.338 27.936C754.786 27.936 755.146 28.064 755.418 28.32C755.706 28.56 755.85 28.888 755.85 29.304C755.85 29.72 755.714 30.056 755.442 30.312C755.17 30.568 754.802 30.696 754.338 30.696ZM767.998 33.048C768.366 33.048 768.654 33.152 768.862 33.36C769.086 33.568 769.198 33.856 769.198 34.224V43.992C769.198 44.328 769.086 44.6 768.862 44.808C768.638 45.016 768.342 45.12 767.974 45.12C767.638 45.12 767.366 45.024 767.158 44.832C766.95 44.624 766.846 44.352 766.846 44.016V43.104C766.478 43.776 765.966 44.288 765.31 44.64C764.67 44.992 763.95 45.168 763.15 45.168C760.302 45.168 758.878 43.6 758.878 40.464V34.224C758.878 33.856 758.982 33.568 759.19 33.36C759.414 33.152 759.718 33.048 760.102 33.048C760.47 33.048 760.758 33.152 760.966 33.36C761.19 33.568 761.302 33.856 761.302 34.224V40.44C761.302 41.384 761.494 42.08 761.878 42.528C762.262 42.976 762.854 43.2 763.654 43.2C764.598 43.2 765.35 42.896 765.91 42.288C766.486 41.68 766.774 40.872 766.774 39.864V34.224C766.774 33.872 766.886 33.592 767.11 33.384C767.334 33.16 767.63 33.048 767.998 33.048ZM782.166 27.96C782.534 27.96 782.83 28.064 783.054 28.272C783.278 28.48 783.39 28.76 783.39 29.112V43.944C783.39 44.312 783.278 44.6 783.054 44.808C782.846 45.016 782.558 45.12 782.19 45.12C781.822 45.12 781.526 45.016 781.302 44.808C781.094 44.6 780.99 44.312 780.99 43.944V42.984C780.638 43.688 780.126 44.232 779.454 44.616C778.782 44.984 778.006 45.168 777.126 45.168C776.118 45.168 775.214 44.912 774.414 44.4C773.63 43.888 773.014 43.168 772.566 42.24C772.134 41.312 771.918 40.248 771.918 39.048C771.918 37.832 772.134 36.768 772.566 35.856C773.014 34.944 773.63 34.24 774.414 33.744C775.198 33.248 776.102 33 777.126 33C778.006 33 778.774 33.192 779.43 33.576C780.102 33.944 780.614 34.472 780.966 35.16V29.064C780.966 28.728 781.07 28.464 781.278 28.272C781.502 28.064 781.798 27.96 782.166 27.96ZM777.702 43.248C778.742 43.248 779.55 42.888 780.126 42.168C780.702 41.448 780.99 40.424 780.99 39.096C780.99 37.768 780.702 36.744 780.126 36.024C779.566 35.304 778.758 34.944 777.702 34.944C776.646 34.944 775.822 35.304 775.23 36.024C774.654 36.728 774.366 37.736 774.366 39.048C774.366 40.36 774.662 41.392 775.254 42.144C775.846 42.88 776.662 43.248 777.702 43.248ZM791.69 33C793.242 33 794.394 33.392 795.146 34.176C795.914 34.96 796.298 36.152 796.298 37.752V43.968C796.298 44.336 796.194 44.624 795.986 44.832C795.778 45.024 795.49 45.12 795.122 45.12C794.77 45.12 794.49 45.016 794.282 44.808C794.074 44.6 793.97 44.32 793.97 43.968V43.08C793.666 43.752 793.21 44.272 792.602 44.64C792.01 44.992 791.314 45.168 790.514 45.168C789.746 45.168 789.042 45.016 788.402 44.712C787.778 44.392 787.282 43.96 786.914 43.416C786.546 42.872 786.362 42.256 786.362 41.568C786.346 40.704 786.562 40.032 787.01 39.552C787.458 39.056 788.186 38.704 789.194 38.496C790.202 38.272 791.602 38.16 793.394 38.16H793.946V37.464C793.946 36.568 793.762 35.92 793.394 35.52C793.026 35.12 792.434 34.92 791.618 34.92C791.058 34.92 790.53 34.992 790.034 35.136C789.538 35.28 788.994 35.488 788.402 35.76C787.97 36 787.666 36.12 787.49 36.12C787.25 36.12 787.05 36.032 786.89 35.856C786.746 35.68 786.674 35.456 786.674 35.184C786.674 34.944 786.738 34.736 786.866 34.56C787.01 34.368 787.234 34.184 787.538 34.008C788.098 33.704 788.754 33.464 789.506 33.288C790.258 33.096 790.986 33 791.69 33ZM790.946 43.368C791.826 43.368 792.546 43.072 793.106 42.48C793.666 41.872 793.946 41.096 793.946 40.152V39.528H793.514C792.266 39.528 791.306 39.584 790.634 39.696C789.962 39.808 789.482 40 789.194 40.272C788.906 40.528 788.762 40.904 788.762 41.4C788.762 41.976 788.97 42.448 789.386 42.816C789.802 43.184 790.322 43.368 790.946 43.368ZM805.758 33.048C806.526 33 806.91 33.328 806.91 34.032C806.91 34.384 806.822 34.648 806.646 34.824C806.47 35 806.166 35.104 805.734 35.136L805.014 35.208C804.006 35.304 803.254 35.656 802.758 36.264C802.278 36.872 802.038 37.608 802.038 38.472V43.968C802.038 44.352 801.926 44.64 801.702 44.832C801.478 45.024 801.19 45.12 800.838 45.12C800.486 45.12 800.19 45.024 799.95 44.832C799.726 44.64 799.614 44.352 799.614 43.968V34.2C799.614 33.832 799.726 33.552 799.95 33.36C800.19 33.152 800.486 33.048 800.838 33.048C801.158 33.048 801.422 33.152 801.63 33.36C801.854 33.552 801.966 33.824 801.966 34.176V35.328C802.286 34.624 802.75 34.088 803.358 33.72C803.966 33.352 804.654 33.136 805.422 33.072L805.758 33.048Z" fill="#397EF3"/>
</svg>
