<svg width="14" height="16" viewBox="0 0 14 16" fill="none" xmlns="http://www.w3.org/2000/svg">
<path d="M7 15.3334C7 15.3334 13 11.3334 13 6.66675C13 5.07545 12.3679 3.54933 11.2426 2.42411C10.1174 1.29889 8.5913 0.666748 7 0.666748C5.4087 0.666748 3.88258 1.29889 2.75736 2.42411C1.63214 3.54933 1 5.07545 1 6.66675C1 9.52759 3.25489 12.1379 5 13.7297M7 8.66675C8.10457 8.66675 9 7.77132 9 6.66675C9 5.56218 8.10457 4.66675 7 4.66675C5.89543 4.66675 5 5.56218 5 6.66675C5 7.07566 5.12272 7.45591 5.33333 7.77268" stroke="#51535F" stroke-width="2" stroke-linecap="round" stroke-linejoin="round"/>
</svg>
