<svg width="549" height="435" viewBox="0 0 549 435" fill="none" xmlns="http://www.w3.org/2000/svg">
<g clip-path="url(#clip0)">
<path d="M272.014 288.789C285.894 288.789 297.145 277.574 297.145 263.741C297.145 249.907 285.894 238.693 272.014 238.693C258.134 238.693 246.883 249.907 246.883 263.741C246.883 277.574 258.134 288.789 272.014 288.789Z" fill="#375A8F"/>
<path d="M210.893 324.69C210.36 324.436 209.906 324.043 209.578 323.554C209.25 323.064 209.061 322.496 209.029 321.908L208.664 315.01C208.618 314.143 208.921 313.293 209.503 312.647C210.086 312.002 210.902 311.613 211.773 311.566L269.456 308.529C270.327 308.484 271.179 308.785 271.827 309.366C272.475 309.947 272.865 310.76 272.912 311.627L273.278 318.525C273.323 319.393 273.021 320.243 272.438 320.888C271.855 321.534 271.039 321.923 270.169 321.97L212.485 325.007C211.936 325.037 211.388 324.928 210.893 324.69Z" fill="#375A8F"/>
<path d="M250.657 324.825C250.096 324.555 249.623 324.131 249.294 323.604C248.964 323.076 248.791 322.467 248.795 321.845L248.727 308.858C248.73 308.427 248.818 308.002 248.987 307.605C249.155 307.209 249.4 306.849 249.708 306.547C250.016 306.245 250.38 306.007 250.781 305.845C251.181 305.684 251.609 305.602 252.041 305.606L278.357 307.918C279.053 307.922 279.933 308.998 280.639 309.861C280.861 310.132 281.053 310.367 281.193 310.508C281.254 310.57 281.312 310.635 281.368 310.701C281.871 311.298 282.143 312.054 282.136 312.833L282.078 319.74C282.07 320.609 281.717 321.439 281.095 322.048C280.474 322.657 279.635 322.995 278.764 322.989L252.076 325.148C251.585 325.146 251.1 325.036 250.657 324.825Z" fill="#FCCD54"/>
<path d="M267.115 422.796H260.184C259.313 422.795 258.477 422.449 257.861 421.835C257.245 421.221 256.898 420.388 256.897 419.519V361.01C256.898 360.142 257.245 359.309 257.861 358.695C258.478 358.081 259.313 357.735 260.184 357.734H267.115C267.987 357.735 268.822 358.081 269.438 358.695C270.054 359.309 270.401 360.142 270.402 361.01V419.519C270.401 420.388 270.054 421.221 269.438 421.835C268.822 422.449 267.987 422.795 267.115 422.796Z" fill="#375A8F"/>
<path d="M285.396 422.796H278.466C277.594 422.795 276.759 422.449 276.143 421.835C275.526 421.221 275.18 420.388 275.179 419.519V361.01C275.18 360.142 275.526 359.309 276.143 358.695C276.759 358.081 277.594 357.735 278.466 357.734H285.396C286.268 357.735 287.103 358.081 287.719 358.695C288.336 359.309 288.682 360.142 288.683 361.01V419.519C288.682 420.388 288.336 421.221 287.719 421.835C287.103 422.449 286.268 422.795 285.396 422.796Z" fill="#375A8F"/>
<path d="M275.36 273.024L275.386 272.088C273.639 272.04 272.098 271.931 270.941 271.088C270.613 270.835 270.343 270.515 270.15 270.15C269.957 269.784 269.846 269.381 269.823 268.968C269.802 268.716 269.841 268.463 269.935 268.228C270.028 267.993 270.175 267.783 270.364 267.614C271.132 266.967 272.369 267.176 273.27 267.588L274.047 267.943L272.557 257.09L271.626 257.217L272.894 266.449C272.375 266.257 271.816 266.198 271.268 266.277C270.721 266.355 270.201 266.569 269.758 266.899C269.46 267.159 269.225 267.483 269.074 267.848C268.922 268.213 268.857 268.608 268.884 269.001C268.912 269.556 269.06 270.097 269.32 270.588C269.58 271.079 269.944 271.508 270.387 271.844C271.874 272.927 273.807 272.981 275.36 273.024Z" fill="white"/>
<path d="M300.646 347.158L277.45 301.055H277.777C278.586 301.054 279.362 300.733 279.934 300.163C280.507 299.593 280.828 298.819 280.829 298.013V297.077C280.828 296.27 280.507 295.497 279.934 294.927C279.362 294.356 278.586 294.035 277.777 294.035H267.446C266.637 294.035 265.861 294.356 265.289 294.927C264.717 295.497 264.395 296.27 264.394 297.077V298.013C264.397 298.757 264.673 299.474 265.171 300.028C265.669 300.583 266.354 300.935 267.096 301.02L243.833 347.183C242.727 349.378 242.202 351.819 242.31 354.274C242.417 356.728 243.153 359.115 244.447 361.206C245.741 363.297 247.55 365.023 249.703 366.22C251.855 367.418 254.279 368.046 256.744 368.046H287.711C290.179 368.046 292.606 367.417 294.761 366.218C296.916 365.02 298.728 363.292 300.025 361.198C301.321 359.105 302.059 356.716 302.167 354.259C302.276 351.801 301.752 349.357 300.646 347.158Z" fill="#FCCD54"/>
<path d="M273.1 311.489L325.423 287.096C326.213 286.729 327.117 286.689 327.936 286.985C328.755 287.281 329.423 287.889 329.793 288.676L332.729 294.932C333.098 295.72 333.138 296.62 332.841 297.437C332.544 298.253 331.934 298.919 331.145 299.288L278.822 323.681C278.032 324.048 277.128 324.088 276.309 323.792C275.49 323.496 274.822 322.888 274.452 322.102L271.515 315.845C271.331 315.455 271.227 315.033 271.208 314.603C271.189 314.174 271.255 313.744 271.404 313.34C271.52 313.02 271.685 312.719 271.894 312.449C272.213 312.038 272.627 311.708 273.1 311.489Z" fill="#375A8F"/>
<path d="M271.306 311.339L294.342 297.653C295.127 297.278 296.03 297.228 296.852 297.514C297.674 297.801 298.348 298.401 298.727 299.183L304.536 310.815C304.724 311.204 304.833 311.627 304.857 312.058C304.88 312.489 304.818 312.92 304.673 313.328C304.529 313.735 304.305 314.109 304.015 314.43C303.724 314.75 303.373 315.01 302.982 315.195L278.374 324.669C277.729 324.978 276.464 324.4 275.448 323.935C275.129 323.79 274.854 323.664 274.666 323.598C274.583 323.57 274.502 323.537 274.423 323.503C273.708 323.188 273.129 322.629 272.791 321.926L269.787 315.701C269.522 315.152 269.416 314.541 269.48 313.936C269.544 313.33 269.775 312.754 270.148 312.272C270.456 311.875 270.852 311.555 271.306 311.339Z" fill="#FCCD54"/>
<path d="M335.161 251.154C337.441 251.154 339.289 249.312 339.289 247.039C339.289 244.767 337.441 242.925 335.161 242.925C332.881 242.925 331.033 244.767 331.033 247.039C331.033 249.312 332.881 251.154 335.161 251.154Z" fill="#375A8F"/>
<path d="M282.087 145.357C283.715 145.357 285.035 144.041 285.035 142.418C285.035 140.795 283.715 139.479 282.087 139.479C280.458 139.479 279.138 140.795 279.138 142.418C279.138 144.041 280.458 145.357 282.087 145.357Z" fill="#FF6584"/>
<path d="M217.808 236.46C219.436 236.46 220.757 235.144 220.757 233.521C220.757 231.898 219.436 230.582 217.808 230.582C216.179 230.582 214.859 231.898 214.859 233.521C214.859 235.144 216.179 236.46 217.808 236.46Z" fill="#FF6584"/>
<path d="M321.008 226.468C322.636 226.468 323.956 225.152 323.956 223.529C323.956 221.906 322.636 220.59 321.008 220.59C319.379 220.59 318.059 221.906 318.059 223.529C318.059 225.152 319.379 226.468 321.008 226.468Z" fill="#375A8F"/>
<path d="M231.371 266.435C233 266.435 234.32 265.12 234.32 263.497C234.32 261.874 233 260.558 231.371 260.558C229.743 260.558 228.423 261.874 228.423 263.497C228.423 265.12 229.743 266.435 231.371 266.435Z" fill="#375A8F"/>
<path d="M324.546 274.664C326.175 274.664 327.495 273.348 327.495 271.725C327.495 270.102 326.175 268.786 324.546 268.786C322.918 268.786 321.598 270.102 321.598 271.725C321.598 273.348 322.918 274.664 324.546 274.664Z" fill="#E6E6E6"/>
<path d="M298.598 170.043C300.227 170.043 301.547 168.727 301.547 167.104C301.547 165.481 300.227 164.165 298.598 164.165C296.97 164.165 295.65 165.481 295.65 167.104C295.65 168.727 296.97 170.043 298.598 170.043Z" fill="#CCCCCC"/>
<path d="M187.153 202.356C190.24 202.55 193.238 203.47 195.899 205.041C198.561 206.613 200.811 208.79 202.465 211.396C202.929 212.135 203.534 212.946 203.213 213.856C203.101 214.204 202.874 214.505 202.569 214.708C202.263 214.911 201.898 215.005 201.532 214.975C201.076 214.877 200.665 214.632 200.362 214.278C200.059 213.924 199.881 213.481 199.856 213.016C199.831 212.552 199.961 212.092 200.224 211.708C200.487 211.324 200.869 211.037 201.313 210.891C203.454 209.98 205.614 211.387 207.359 212.51C211.333 215.069 215.704 217.383 220.52 217.674C224.976 217.944 229.754 216.203 232.233 212.351C232.666 211.678 231.59 211.055 231.158 211.725C228.7 215.545 223.731 216.917 219.411 216.326C216.836 215.921 214.35 215.08 212.06 213.839C210.873 213.225 209.721 212.544 208.593 211.828C207.519 211.081 206.381 210.431 205.192 209.885C203.208 209.073 200.583 209.136 199.198 211.006C197.905 212.75 198.904 215.653 201.066 216.144C201.54 216.237 202.03 216.211 202.492 216.069C202.953 215.927 203.373 215.673 203.712 215.33C204.051 214.987 204.299 214.565 204.435 214.103C204.57 213.64 204.588 213.151 204.487 212.68C204.271 211.653 203.496 210.648 202.895 209.809C201.09 207.279 198.739 205.184 196.015 203.68C193.29 202.175 190.262 201.299 187.153 201.116C186.352 201.076 186.354 202.316 187.153 202.356L187.153 202.356Z" fill="#CCCCCC"/>
<path d="M361.538 239.897C359.469 238.569 357.745 236.772 356.508 234.652C355.271 232.533 354.555 230.151 354.419 227.702C354.385 227.01 354.28 226.213 354.856 225.705C355.07 225.506 355.344 225.385 355.635 225.362C355.927 225.339 356.217 225.415 356.459 225.578C356.738 225.822 356.928 226.151 357.001 226.513C357.074 226.876 357.025 227.253 356.861 227.585C356.698 227.917 356.43 228.187 356.097 228.352C355.765 228.517 355.388 228.568 355.023 228.498C353.182 228.303 352.229 226.492 351.454 225.038C349.689 221.726 347.553 218.43 344.322 216.367C341.332 214.458 337.336 213.821 334.117 215.538C333.554 215.839 334.06 216.687 334.62 216.388C337.813 214.685 341.797 215.652 344.568 217.731C346.199 219.007 347.598 220.552 348.706 222.299C349.291 223.184 349.826 224.102 350.332 225.035C350.787 225.968 351.325 226.86 351.938 227.698C353 229.029 354.848 229.999 356.537 229.236C356.913 229.042 357.239 228.762 357.488 228.42C357.736 228.078 357.901 227.683 357.969 227.266C358.038 226.849 358.007 226.422 357.88 226.02C357.753 225.617 357.533 225.249 357.238 224.946C356.945 224.698 356.594 224.526 356.218 224.446C355.843 224.367 355.453 224.381 355.084 224.488C354.715 224.596 354.378 224.793 354.104 225.062C353.83 225.331 353.628 225.663 353.515 226.029C353.341 226.89 353.337 227.776 353.504 228.639C353.773 231.093 354.591 233.456 355.898 235.553C357.205 237.651 358.967 239.429 361.056 240.758C361.596 241.094 362.077 240.232 361.538 239.897L361.538 239.897Z" fill="#CCCCCC"/>
<path d="M259.791 158.526C257.335 158.372 254.951 157.64 252.834 156.39C250.717 155.14 248.927 153.408 247.612 151.336C247.243 150.748 246.762 150.103 247.017 149.379C247.106 149.102 247.287 148.863 247.529 148.702C247.772 148.54 248.063 148.465 248.354 148.489C248.717 148.567 249.044 148.762 249.285 149.043C249.526 149.325 249.667 149.678 249.687 150.047C249.707 150.416 249.604 150.782 249.395 151.088C249.185 151.393 248.881 151.621 248.529 151.737C246.826 152.462 245.107 151.343 243.72 150.449C240.559 148.415 237.082 146.574 233.252 146.342C229.708 146.128 225.907 147.513 223.936 150.576C223.591 151.112 224.448 151.607 224.791 151.074C226.746 148.036 230.698 146.945 234.134 147.414C236.182 147.736 238.159 148.405 239.98 149.393C240.925 149.881 241.841 150.423 242.738 150.992C243.592 151.586 244.498 152.103 245.443 152.538C247.021 153.183 249.109 153.133 250.211 151.646C250.444 151.294 250.592 150.892 250.642 150.472C250.692 150.053 250.643 149.628 250.499 149.23C250.354 148.833 250.119 148.475 249.811 148.185C249.503 147.895 249.131 147.681 248.725 147.56C248.348 147.485 247.958 147.506 247.591 147.619C247.223 147.732 246.89 147.934 246.62 148.207C246.351 148.48 246.153 148.815 246.045 149.183C245.938 149.551 245.923 149.939 246.004 150.314C246.273 151.15 246.703 151.926 247.27 152.598C248.705 154.61 250.575 156.276 252.742 157.473C254.909 158.669 257.318 159.366 259.791 159.512C260.427 159.543 260.425 158.557 259.791 158.526L259.791 158.526Z" fill="#CCCCCC"/>
<path d="M262.036 189.775H259.088V199.431H262.036V189.775Z" fill="#CCCCCC"/>
<path d="M214.362 183.036L216.411 180.994L209.678 174.283L207.629 176.325L214.362 183.036Z" fill="#B3B3B3"/>
<path d="M297.266 203.328L299.315 205.371L306.048 198.66L303.999 196.618L297.266 203.328Z" fill="#B3B3B3"/>
<path d="M213.527 286.791L215.576 288.833L222.309 282.122L220.26 280.08L213.527 286.791Z" fill="#FF6584"/>
</g>
<g clip-path="url(#clip1)">
<path d="M517.711 225.942C528.984 208.304 524.686 185.416 512.7 177.754C500.713 170.092 478.137 175.801 466.863 193.438C456.428 209.764 459.875 230.921 469.397 239.702C469.214 239.731 469.038 239.794 468.879 239.89L466.09 241.638C465.877 241.771 465.702 241.956 465.582 242.176C465.461 242.396 465.398 242.643 465.4 242.894C465.401 243.145 465.467 243.391 465.591 243.61C465.714 243.828 465.892 244.011 466.106 244.142L472.094 247.791C472.308 247.921 472.552 247.995 472.803 248.005C473.053 248.014 473.302 247.96 473.526 247.846C473.75 247.733 473.941 247.564 474.081 247.355C474.221 247.147 474.305 246.907 474.326 246.657L474.601 243.377C474.608 243.262 474.602 243.147 474.582 243.035C486.553 248.058 507.253 242.303 517.711 225.942Z" fill="#375A8F"/>
<path d="M511.98 191.147C513.811 197.022 513.338 203.373 510.656 208.911C507.975 214.45 503.286 218.76 497.542 220.967C496.23 221.473 496.8 223.608 498.129 223.096C504.427 220.717 509.583 216.03 512.551 209.987C515.519 203.944 516.076 196.999 514.109 190.56C513.698 189.204 511.566 189.782 511.98 191.147Z" fill="white"/>
<path d="M109.476 161.794C121.115 146.217 142.417 142.458 153.002 150.368C163.588 158.279 166.02 179.774 154.381 195.35C143.607 209.768 124.089 213.7 113.338 208.298C113.373 208.467 113.375 208.64 113.344 208.81L112.738 211.806C112.692 212.035 112.588 212.248 112.437 212.425C112.285 212.602 112.091 212.737 111.872 212.818C111.653 212.899 111.418 212.922 111.188 212.886C110.957 212.85 110.74 212.756 110.556 212.613L105.424 208.603C105.24 208.459 105.096 208.271 105.006 208.057C104.915 207.842 104.881 207.608 104.906 207.376C104.932 207.144 105.016 206.923 105.151 206.733C105.286 206.543 105.468 206.391 105.678 206.291L108.439 204.978C108.536 204.934 108.638 204.902 108.743 204.882C100.456 196.121 98.6793 176.243 109.476 161.794Z" fill="#E6E6E6"/>
<path d="M134.935 155.913C129.242 156.817 124.113 159.873 120.607 164.45C117.101 169.026 115.486 174.774 116.096 180.507C116.221 181.82 114.169 181.811 114.045 180.507C113.458 174.328 115.229 168.155 119.002 163.227C122.775 158.299 128.272 154.98 134.39 153.935C135.681 153.716 136.235 155.692 134.935 155.913Z" fill="white"/>
<path d="M402.412 381.714C411.56 367.403 408.072 348.831 398.346 342.614C388.62 336.397 370.301 341.029 361.154 355.341C352.687 368.588 355.484 385.754 363.21 392.879C363.061 392.903 362.919 392.954 362.79 393.031L360.527 394.45C360.354 394.558 360.212 394.708 360.114 394.887C360.016 395.065 359.966 395.266 359.967 395.469C359.968 395.673 360.021 395.873 360.122 396.05C360.222 396.227 360.366 396.376 360.54 396.482L365.398 399.442C365.572 399.548 365.77 399.608 365.973 399.616C366.177 399.624 366.379 399.58 366.56 399.488C366.742 399.395 366.897 399.258 367.01 399.089C367.124 398.92 367.193 398.725 367.21 398.522L367.433 395.861C367.439 395.768 367.433 395.675 367.417 395.583C377.131 399.659 393.926 394.99 402.412 381.714Z" fill="#F2F2F2"/>
<path d="M540.665 58.4914H7.66125C5.63005 58.4936 3.68269 59.3016 2.24641 60.7379C0.810141 62.1742 0.00225572 64.1216 0 66.1529V427.339C0.00225767 429.37 0.810153 431.317 2.24643 432.753C3.6827 434.19 5.63005 434.998 7.66125 435H540.665C542.697 434.998 544.644 434.19 546.08 432.753C547.516 431.317 548.324 429.37 548.327 427.339V66.1529C548.324 64.1216 547.516 62.1742 546.08 60.7379C544.644 59.3016 542.697 58.4936 540.665 58.4914ZM546.138 427.339C546.137 428.79 545.56 430.181 544.534 431.207C543.508 432.234 542.117 432.81 540.665 432.811H7.66125C6.21007 432.81 4.81849 432.234 3.79235 431.207C2.76622 430.181 2.18949 428.79 2.18892 427.339V66.1529C2.18949 64.7017 2.76623 63.3101 3.79236 62.2839C4.8185 61.2577 6.21007 60.681 7.66125 60.6804H540.665C542.117 60.681 543.508 61.2577 544.534 62.2839C545.56 63.3101 546.137 64.7017 546.138 66.1529V427.339Z" fill="#3F3D56"/>
<path d="M547.232 89.1812H1.09424V91.3702H547.232V89.1812Z" fill="#3F3D56"/>
<path d="M19.7006 81.4759C23.3273 81.4759 26.2674 78.5358 26.2674 74.9089C26.2674 71.2821 23.3273 68.3419 19.7006 68.3419C16.0738 68.3419 13.1338 71.2821 13.1338 74.9089C13.1338 78.5358 16.0738 81.4759 19.7006 81.4759Z" fill="#3F3D56"/>
<path d="M38.58 81.4759C42.2067 81.4759 45.1468 78.5358 45.1468 74.9089C45.1468 71.2821 42.2067 68.3419 38.58 68.3419C34.9532 68.3419 32.0132 71.2821 32.0132 74.9089C32.0132 78.5358 34.9532 81.4759 38.58 81.4759Z" fill="#3F3D56"/>
<path d="M57.4594 81.4759C61.0861 81.4759 64.0261 78.5358 64.0261 74.9089C64.0261 71.2821 61.0861 68.3419 57.4594 68.3419C53.8326 68.3419 50.8926 71.2821 50.8926 74.9089C50.8926 78.5358 53.8326 81.4759 57.4594 81.4759Z" fill="#3F3D56"/>
<path d="M275.548 148.542L284.007 150.342L283.549 147.855L277.662 146.601L275.548 148.542Z" fill="#E6E6E6"/>
<path d="M397.762 353.481C399.248 358.248 398.864 363.402 396.688 367.896C394.512 372.39 390.708 375.887 386.047 377.678C384.983 378.088 385.445 379.821 386.524 379.405C391.634 377.475 395.818 373.672 398.226 368.769C400.634 363.866 401.086 358.23 399.49 353.005C399.156 351.905 397.426 352.374 397.762 353.481Z" fill="white"/>
<path d="M460.306 51.5153C471.58 33.8775 467.282 10.9898 455.295 3.32777C443.309 -4.33428 420.732 1.37439 409.459 19.0122C399.023 35.3381 402.47 56.4947 411.992 65.2753C411.809 65.3044 411.634 65.3682 411.474 65.4633L408.686 67.2113C408.473 67.3445 408.298 67.5299 408.177 67.7498C408.057 67.9697 407.994 68.2169 407.996 68.4678C407.997 68.7186 408.063 68.965 408.186 69.1833C408.31 69.4017 408.487 69.5849 408.702 69.7154L414.689 73.3644C414.903 73.4949 415.147 73.5686 415.398 73.5783C415.649 73.588 415.898 73.5335 416.122 73.4199C416.345 73.3063 416.536 73.1374 416.676 72.9292C416.816 72.721 416.901 72.4805 416.922 72.2305L417.197 68.9506C417.204 68.8361 417.198 68.7212 417.178 68.6083C429.149 73.6315 449.848 67.8767 460.306 51.5153Z" fill="#E6E6E6"/>
<path d="M454.575 16.7206C456.406 22.5953 455.933 28.9467 453.252 34.4851C450.57 40.0235 445.881 44.3337 440.138 46.5407C438.826 47.0465 439.395 49.1821 440.724 48.6697C447.022 46.2908 452.179 41.604 455.147 35.5611C458.115 29.5182 458.672 22.5722 456.704 16.1336C456.293 14.7775 454.162 15.3555 454.575 16.7206Z" fill="white"/>
<path d="M149.926 43.0689C137.396 26.3003 114.464 22.2533 103.068 30.7692C91.6721 39.285 89.0544 62.4252 101.584 79.1938C113.182 94.7152 134.195 98.9483 145.769 93.1332C145.731 93.3148 145.729 93.5018 145.762 93.6843L146.415 96.9103C146.464 97.1562 146.576 97.3853 146.739 97.5759C146.902 97.7664 147.112 97.9122 147.347 97.9991C147.582 98.0861 147.836 98.1115 148.084 98.0728C148.332 98.0342 148.566 97.9328 148.763 97.7784L154.289 93.4615C154.487 93.307 154.642 93.1046 154.739 92.8734C154.837 92.6422 154.873 92.3899 154.846 92.1405C154.818 91.8911 154.728 91.6528 154.582 91.4484C154.437 91.2439 154.242 91.08 154.015 90.9722L151.043 89.5585C150.938 89.5115 150.828 89.4771 150.716 89.4558C159.637 80.0241 161.55 58.6241 149.926 43.0689Z" fill="#375A8F"/>
<path d="M122.519 36.7379C128.648 37.7115 134.169 41.0013 137.943 45.9281C141.718 50.855 143.456 57.0428 142.8 63.2143C142.665 64.628 144.874 64.6188 145.008 63.2143C145.64 56.5624 143.734 49.9175 139.671 44.6123C135.609 39.3071 129.692 35.7337 123.106 34.6089C121.716 34.3726 121.119 36.4999 122.519 36.7379Z" fill="white"/>
<path d="M99.6239 273.8C105.102 274.145 110.421 275.783 115.143 278.581C119.866 281.379 123.859 285.256 126.794 289.894C127.616 291.209 128.69 292.654 128.121 294.273C127.922 294.894 127.519 295.429 126.978 295.79C126.436 296.152 125.787 296.32 125.138 296.265C123.459 296.061 122.376 294.418 122.169 292.845C121.934 291.059 123.194 289.658 124.748 288.995C128.548 287.374 132.381 289.879 135.476 291.878C142.528 296.433 150.285 300.552 158.83 301.071C166.736 301.552 175.215 298.452 179.612 291.595C180.382 290.395 178.471 289.287 177.706 290.481C173.345 297.281 164.528 299.723 156.862 298.672C152.293 297.951 147.882 296.453 143.819 294.244C141.712 293.15 139.668 291.938 137.666 290.663C135.761 289.334 133.741 288.176 131.631 287.204C128.112 285.758 123.454 285.871 120.996 289.199C118.703 292.304 120.475 297.474 124.31 298.347C127.945 299.174 131.13 295.755 130.382 292.181C129.999 290.352 128.622 288.563 127.556 287.068C124.354 282.564 120.183 278.835 115.348 276.156C110.514 273.478 105.141 271.918 99.6238 271.592C98.2036 271.522 98.2073 273.73 99.6238 273.8H99.6239Z" fill="#F39191"/>
<path d="M430.359 271.912C425.301 274.61 419.653 276.012 413.921 275.993C408.188 275.973 402.549 274.533 397.51 271.801C396.368 271.171 395.409 270.453 395.28 269.059C395.213 268.484 395.321 267.903 395.59 267.391C395.86 266.879 396.277 266.461 396.789 266.19C398.374 265.417 400.26 266.319 401.251 267.641C402.316 269.062 401.89 270.906 400.904 272.245C398.354 275.706 393.533 275.378 389.719 275.301C381.504 275.135 372.867 275.791 365.508 279.782C358.593 283.532 353.039 290.566 352.886 298.66C352.859 300.081 355.067 300.081 355.094 298.66C355.245 290.673 361.281 284.091 368.231 280.885C372.544 279.015 377.157 277.93 381.851 277.68C384.143 277.51 386.442 277.464 388.739 277.492C391.031 277.614 393.328 277.565 395.612 277.346C399.552 276.806 403.788 274.267 404.079 269.885C404.342 265.919 399.837 262.555 396.124 264.084C395.444 264.389 394.837 264.837 394.346 265.398C393.856 265.959 393.492 266.619 393.28 267.334C393.067 268.049 393.012 268.801 393.118 269.539C393.223 270.276 393.487 270.983 393.891 271.61C394.884 273.123 396.649 273.897 398.232 274.647C403.45 277.121 409.177 278.335 414.951 278.191C420.725 278.047 426.384 276.549 431.473 273.818C432.719 273.134 431.607 271.227 430.359 271.912V271.912Z" fill="#F39191"/>
<path d="M330.619 128.745C340.551 132.162 347.507 142.23 348.097 152.596C348.396 157.858 347.148 163.94 343.224 167.726C342.356 168.646 341.272 169.335 340.07 169.729C338.869 170.124 337.588 170.213 336.344 169.988C334.177 169.517 331.915 168.039 331.545 165.692C331.187 163.424 332.736 161.551 334.615 160.517C335.682 159.939 336.854 159.581 338.062 159.467C339.27 159.352 340.489 159.482 341.645 159.85C344.71 160.802 347.305 162.846 349.779 164.819C352.194 166.821 354.761 168.632 357.458 170.233C368.098 176.362 380.712 178.09 392.608 175.051C404.504 172.011 414.743 164.444 421.139 153.963C421.916 152.705 422.628 151.41 423.275 150.08C423.898 148.809 421.995 147.689 421.369 148.966C418.562 154.763 414.541 159.889 409.579 163.995C404.617 168.102 398.829 171.093 392.61 172.766C386.39 174.439 379.883 174.756 373.53 173.693C367.178 172.63 361.128 170.214 355.791 166.608C350.652 163.164 345.725 157.247 339.04 157.205C334.118 157.174 328.199 160.895 329.46 166.495C330.033 169.042 332.187 170.877 334.546 171.759C335.815 172.23 337.171 172.416 338.52 172.305C339.868 172.194 341.176 171.79 342.351 171.119C347.564 168.192 349.84 161.694 350.272 156.048C351.122 144.954 344.851 133.448 334.997 128.246C333.777 127.606 332.51 127.061 331.206 126.616C329.86 126.153 329.281 128.285 330.619 128.745V128.745Z" fill="#E6E6E6"/>
<path d="M260.5 258C261.333 258.5 263.5 259.2 265.5 258" stroke="white"/>
<path d="M279 258C279.833 258.5 282 259.2 284 258" stroke="white"/>
<path d="M276.5 279.5C278.329 280.2 280.5 279.5 280.824 276.99" stroke="white"/>
</g>
<defs>
<clipPath id="clip0">
<rect width="175.22" height="283.317" fill="white" transform="translate(186.553 139.479)"/>
</clipPath>
<clipPath id="clip1">
<rect width="548.327" height="435" fill="white"/>
</clipPath>
</defs>
</svg>
