<svg width="100" height="100" viewBox="0 0 100 100" fill="none" xmlns="http://www.w3.org/2000/svg">
<g clip-path="url(#clip0)">
<path d="M45.5823 77.8303C39.0242 74.5271 29.5356 73.6258 24.8456 73.3798C23.245 73.2971 22 72.0134 22 70.474V46.5404C22 44.8614 23.4556 43.5315 25.2012 43.6304M45.5823 77.8303L25.1164 45.128C27.674 45.2734 31.4796 45.6096 35.4153 46.3843C39.3629 47.1614 43.3219 48.3573 46.2823 50.1621V76.4994C46.2812 76.4993 46.28 76.4991 46.2787 76.4988C46.2752 76.4981 46.2681 76.4962 46.2571 76.4906L46.2571 76.4906C39.3906 73.0321 29.6156 72.1279 24.9242 71.8818L24.923 71.8818C24.0812 71.8383 23.5 71.177 23.5 70.474V46.5404C23.5 45.7768 24.1766 45.075 25.116 45.128L25.2012 43.6304M45.5823 77.8303C46.5889 78.3373 47.7823 77.6466 47.7823 76.5552V50.1305M45.5823 77.8303L47.7823 50.1305M25.2012 43.6304C30.3961 43.9258 40.7193 44.9979 47.0927 48.8994M25.2012 43.6304L47.0927 48.8994M47.7823 50.1305C47.7812 49.6288 47.5331 49.169 47.0927 48.8994M47.7823 50.1305L47.0927 48.8994M74.0769 71.8851L74.077 71.8851C74.9199 71.8409 75.5011 71.179 75.5011 70.4762V46.5414C75.5006 45.7767 74.823 45.0748 73.8836 45.128C71.3268 45.2729 67.5212 45.6091 63.5853 46.3839C59.6381 47.161 55.6796 48.357 52.7198 50.1615V76.5001C52.7225 76.5001 52.7255 76.4998 52.7288 76.4991C52.7313 76.4986 52.7349 76.4976 52.7398 76.4958L74.0769 71.8851ZM74.0769 71.8851C69.3864 72.1311 59.6172 73.0353 52.752 76.4903L74.0769 71.8851ZM52.6916 50.1787L52.6917 50.1787L52.6916 50.1787ZM49.5 24.5C54.3671 24.5 58.3125 28.4454 58.3125 33.3125C58.3125 38.1796 54.3671 42.125 49.5 42.125C44.6329 42.125 40.6875 38.1796 40.6875 33.3125C40.6875 28.4454 44.6329 24.5 49.5 24.5Z" stroke="#FF9292" stroke-width="3"/>
</g>
<g opacity="0.15" filter="url(#filter0_f)">
<circle cx="50" cy="50" r="40" fill="#FF9292"/>
</g>
<defs>
<filter id="filter0_f" x="0" y="0" width="100" height="100" filterUnits="userSpaceOnUse" color-interpolation-filters="sRGB">
<feFlood flood-opacity="0" result="BackgroundImageFix"/>
<feBlend mode="normal" in="SourceGraphic" in2="BackgroundImageFix" result="shape"/>
<feGaussianBlur stdDeviation="5" result="effect1_foregroundBlur"/>
</filter>
<clipPath id="clip0">
<rect width="55" height="55" fill="white" transform="translate(22 23)"/>
</clipPath>
</defs>
</svg>
