<svg width="100" height="100" viewBox="0 0 100 100" fill="none" xmlns="http://www.w3.org/2000/svg">
<g opacity="0.15" filter="url(#filter0_f)">
<circle cx="50" cy="50" r="40" fill="#FF9292"/>
</g>
<mask id="path-2-inside-1" fill="white">
<path d="M30.1661 39.0569H30.1738L34.432 36.8718C34.5238 36.8072 34.6009 36.7151 34.6562 36.6042C34.7115 36.4932 34.7431 36.3669 34.7483 36.2368C34.7434 36.1067 34.7118 35.9803 34.6565 35.8693C34.6012 35.7583 34.524 35.6663 34.432 35.6019L30.1721 33.4147H30.1661L28.3906 28.1618C28.3431 28.0446 28.2701 27.946 28.1796 27.877C28.0891 27.8081 27.9848 27.7716 27.8784 27.7716C27.772 27.7716 27.6678 27.8081 27.5773 27.877C27.4868 27.946 27.4137 28.0446 27.3663 28.1618L25.5873 33.4136H25.583L21.318 35.603C21.2257 35.6671 21.1481 35.7589 21.0925 35.87C21.0369 35.981 21.0051 36.1076 21 36.2379C21.0051 36.3679 21.0368 36.4943 21.0921 36.6052C21.1474 36.7162 21.2245 36.8082 21.3162 36.8728L25.5779 39.0527H25.5839L27.3594 44.3076C27.4066 44.4252 27.4796 44.5242 27.5701 44.5933C27.6606 44.6625 27.765 44.6992 27.8716 44.6992C27.9781 44.6992 28.0825 44.6625 28.173 44.5933C28.2635 44.5242 28.3365 44.4252 28.3838 44.3076L30.1618 39.0569H30.1661ZM61.5092 70.4607L61.4233 70.4163L61.3373 70.3634C60.7861 70.0232 60.3227 69.5008 59.9988 68.8548C59.6749 68.2087 59.5033 67.4645 59.5033 66.7052C59.5033 65.946 59.6749 65.2017 59.9988 64.5557C60.3227 63.9097 60.7861 63.3873 61.3373 63.0471L61.4233 62.9952L61.5092 62.9497L64.731 61.2958L66.0742 57.3297L66.1095 57.2239L66.1498 57.1233C66.4807 56.3043 67.0591 55.681 67.7268 55.2884C67.7268 55.1477 67.7483 55.0038 67.75 54.8652V36.2379C67.75 35.3398 67.4603 34.4785 66.9445 33.8435C66.4288 33.2085 65.7293 32.8517 65 32.8517C64.2707 32.8517 63.5712 33.2085 63.0555 33.8435C62.5397 34.4785 62.25 35.3398 62.25 36.2379V43.8568C62.25 44.0814 62.1776 44.2967 62.0486 44.4555C61.9197 44.6142 61.7448 44.7034 61.5625 44.7034H60.1875C60.0052 44.7034 59.8303 44.6142 59.7014 44.4555C59.5724 44.2967 59.5 44.0814 59.5 43.8568V27.7724C59.5 26.8743 59.2103 26.013 58.6945 25.378C58.1788 24.743 57.4793 24.3862 56.75 24.3862C56.0207 24.3862 55.3212 24.743 54.8055 25.378C54.2897 26.013 54 26.8743 54 27.7724V43.8568C54 44.0814 53.9276 44.2967 53.7986 44.4555C53.6697 44.6142 53.4948 44.7034 53.3125 44.7034H51.9375C51.7552 44.7034 51.5803 44.6142 51.4514 44.4555C51.3224 44.2967 51.25 44.0814 51.25 43.8568V24.3862C51.25 23.4881 50.9603 22.6268 50.4445 21.9918C49.9288 21.3568 49.2293 21 48.5 21C47.7707 21 47.0712 21.3568 46.5555 21.9918C46.0397 22.6268 45.75 23.4881 45.75 24.3862V43.8568C45.75 44.0814 45.6776 44.2967 45.5486 44.4555C45.4197 44.6142 45.2448 44.7034 45.0625 44.7034H43.6875C43.5052 44.7034 43.3303 44.6142 43.2014 44.4555C43.0724 44.2967 43 44.0814 43 43.8568V27.7724C43 26.8743 42.7103 26.013 42.1945 25.378C41.6788 24.743 40.9793 24.3862 40.25 24.3862C39.5207 24.3862 38.8212 24.743 38.3055 25.378C37.7897 26.013 37.5 26.8743 37.5 27.7724V53.2747L35.4727 49.8367C34.9361 48.9286 34.1285 48.3203 33.2276 48.1454C32.3267 47.9706 31.4063 48.2436 30.6688 48.9044C29.9314 49.5652 29.4373 50.5596 29.2954 51.669C29.1534 52.7783 29.3751 53.9116 29.9117 54.8197L40.7055 73.085C41.088 73.7325 41.5893 74.2597 42.1686 74.6236C42.7479 74.9875 43.3887 75.1778 44.039 75.1792H61.0211C62.6745 75.1792 64.0848 73.9379 64.737 72.1327L64.731 72.1147L61.5092 70.4607ZM51.0601 56.9276L48.5 58.2408L47.4327 61.3921C47.4041 61.4622 47.3602 61.5212 47.3059 61.5624C47.2517 61.6036 47.1892 61.6255 47.1254 61.6255C47.0617 61.6255 46.9992 61.6036 46.9449 61.5624C46.8907 61.5212 46.8468 61.4622 46.8182 61.3921L45.75 58.2408L43.1899 56.9276C43.1327 56.8925 43.0846 56.8384 43.051 56.7715C43.0173 56.7046 42.9995 56.6274 42.9995 56.5487C42.9995 56.4701 43.0173 56.3929 43.051 56.326C43.0846 56.2591 43.1327 56.205 43.1899 56.1699L45.75 54.8556L46.8173 51.7044C46.8459 51.6342 46.8898 51.5752 46.9441 51.534C46.9983 51.4928 47.0608 51.471 47.1246 51.471C47.1883 51.471 47.2508 51.4928 47.3051 51.534C47.3593 51.5752 47.4032 51.6342 47.4318 51.7044L48.5 54.8556L51.0601 56.1699C51.1173 56.205 51.1654 56.2591 51.199 56.326C51.2327 56.3929 51.2505 56.4701 51.2505 56.5487C51.2505 56.6274 51.2327 56.7046 51.199 56.7715C51.1654 56.8384 51.1173 56.8925 51.0601 56.9276ZM76 66.7042C75.9952 66.5741 75.9636 66.4476 75.9083 66.3365C75.853 66.2255 75.7758 66.1335 75.6838 66.0693L71.4238 63.882H71.4178L69.6406 58.6323C69.5931 58.5151 69.5201 58.4165 69.4296 58.3475C69.3391 58.2786 69.2348 58.2421 69.1284 58.2421C69.022 58.2421 68.9178 58.2786 68.8273 58.3475C68.7368 58.4165 68.6637 58.5151 68.6162 58.6323L66.8373 63.8841H66.833L62.568 66.0788C62.476 66.1431 62.3987 66.235 62.3434 66.3461C62.2881 66.4571 62.2565 66.5836 62.2517 66.7137C62.2573 66.8429 62.2892 66.9682 62.3445 67.0783C62.3998 67.1883 62.4766 67.2794 62.568 67.3433L66.8279 69.5306H66.8339L68.6094 74.7781C68.6566 74.8957 68.7296 74.9947 68.8201 75.0639C68.9106 75.133 69.015 75.1697 69.1216 75.1697C69.2281 75.1697 69.3325 75.133 69.423 75.0639C69.5135 74.9947 69.5865 74.8957 69.6338 74.7781L71.4118 69.5274H71.4195L75.6777 67.3412C75.7691 67.2773 75.8459 67.1862 75.9012 67.0762C75.9565 66.9661 75.9884 66.8408 75.994 66.7116L76 66.7042Z"/>
</mask>
<path d="M30.1661 39.0569H30.1738L34.432 36.8718C34.5238 36.8072 34.6009 36.7151 34.6562 36.6042C34.7115 36.4932 34.7431 36.3669 34.7483 36.2368C34.7434 36.1067 34.7118 35.9803 34.6565 35.8693C34.6012 35.7583 34.524 35.6663 34.432 35.6019L30.1721 33.4147H30.1661L28.3906 28.1618C28.3431 28.0446 28.2701 27.946 28.1796 27.877C28.0891 27.8081 27.9848 27.7716 27.8784 27.7716C27.772 27.7716 27.6678 27.8081 27.5773 27.877C27.4868 27.946 27.4137 28.0446 27.3663 28.1618L25.5873 33.4136H25.583L21.318 35.603C21.2257 35.6671 21.1481 35.7589 21.0925 35.87C21.0369 35.981 21.0051 36.1076 21 36.2379C21.0051 36.3679 21.0368 36.4943 21.0921 36.6052C21.1474 36.7162 21.2245 36.8082 21.3162 36.8728L25.5779 39.0527H25.5839L27.3594 44.3076C27.4066 44.4252 27.4796 44.5242 27.5701 44.5933C27.6606 44.6625 27.765 44.6992 27.8716 44.6992C27.9781 44.6992 28.0825 44.6625 28.173 44.5933C28.2635 44.5242 28.3365 44.4252 28.3838 44.3076L30.1618 39.0569H30.1661ZM61.5092 70.4607L61.4233 70.4163L61.3373 70.3634C60.7861 70.0232 60.3227 69.5008 59.9988 68.8548C59.6749 68.2087 59.5033 67.4645 59.5033 66.7052C59.5033 65.946 59.6749 65.2017 59.9988 64.5557C60.3227 63.9097 60.7861 63.3873 61.3373 63.0471L61.4233 62.9952L61.5092 62.9497L64.731 61.2958L66.0742 57.3297L66.1095 57.2239L66.1498 57.1233C66.4807 56.3043 67.0591 55.681 67.7268 55.2884C67.7268 55.1477 67.7483 55.0038 67.75 54.8652V36.2379C67.75 35.3398 67.4603 34.4785 66.9445 33.8435C66.4288 33.2085 65.7293 32.8517 65 32.8517C64.2707 32.8517 63.5712 33.2085 63.0555 33.8435C62.5397 34.4785 62.25 35.3398 62.25 36.2379V43.8568C62.25 44.0814 62.1776 44.2967 62.0486 44.4555C61.9197 44.6142 61.7448 44.7034 61.5625 44.7034H60.1875C60.0052 44.7034 59.8303 44.6142 59.7014 44.4555C59.5724 44.2967 59.5 44.0814 59.5 43.8568V27.7724C59.5 26.8743 59.2103 26.013 58.6945 25.378C58.1788 24.743 57.4793 24.3862 56.75 24.3862C56.0207 24.3862 55.3212 24.743 54.8055 25.378C54.2897 26.013 54 26.8743 54 27.7724V43.8568C54 44.0814 53.9276 44.2967 53.7986 44.4555C53.6697 44.6142 53.4948 44.7034 53.3125 44.7034H51.9375C51.7552 44.7034 51.5803 44.6142 51.4514 44.4555C51.3224 44.2967 51.25 44.0814 51.25 43.8568V24.3862C51.25 23.4881 50.9603 22.6268 50.4445 21.9918C49.9288 21.3568 49.2293 21 48.5 21C47.7707 21 47.0712 21.3568 46.5555 21.9918C46.0397 22.6268 45.75 23.4881 45.75 24.3862V43.8568C45.75 44.0814 45.6776 44.2967 45.5486 44.4555C45.4197 44.6142 45.2448 44.7034 45.0625 44.7034H43.6875C43.5052 44.7034 43.3303 44.6142 43.2014 44.4555C43.0724 44.2967 43 44.0814 43 43.8568V27.7724C43 26.8743 42.7103 26.013 42.1945 25.378C41.6788 24.743 40.9793 24.3862 40.25 24.3862C39.5207 24.3862 38.8212 24.743 38.3055 25.378C37.7897 26.013 37.5 26.8743 37.5 27.7724V53.2747L35.4727 49.8367C34.9361 48.9286 34.1285 48.3203 33.2276 48.1454C32.3267 47.9706 31.4063 48.2436 30.6688 48.9044C29.9314 49.5652 29.4373 50.5596 29.2954 51.669C29.1534 52.7783 29.3751 53.9116 29.9117 54.8197L40.7055 73.085C41.088 73.7325 41.5893 74.2597 42.1686 74.6236C42.7479 74.9875 43.3887 75.1778 44.039 75.1792H61.0211C62.6745 75.1792 64.0848 73.9379 64.737 72.1327L64.731 72.1147L61.5092 70.4607ZM51.0601 56.9276L48.5 58.2408L47.4327 61.3921C47.4041 61.4622 47.3602 61.5212 47.3059 61.5624C47.2517 61.6036 47.1892 61.6255 47.1254 61.6255C47.0617 61.6255 46.9992 61.6036 46.9449 61.5624C46.8907 61.5212 46.8468 61.4622 46.8182 61.3921L45.75 58.2408L43.1899 56.9276C43.1327 56.8925 43.0846 56.8384 43.051 56.7715C43.0173 56.7046 42.9995 56.6274 42.9995 56.5487C42.9995 56.4701 43.0173 56.3929 43.051 56.326C43.0846 56.2591 43.1327 56.205 43.1899 56.1699L45.75 54.8556L46.8173 51.7044C46.8459 51.6342 46.8898 51.5752 46.9441 51.534C46.9983 51.4928 47.0608 51.471 47.1246 51.471C47.1883 51.471 47.2508 51.4928 47.3051 51.534C47.3593 51.5752 47.4032 51.6342 47.4318 51.7044L48.5 54.8556L51.0601 56.1699C51.1173 56.205 51.1654 56.2591 51.199 56.326C51.2327 56.3929 51.2505 56.4701 51.2505 56.5487C51.2505 56.6274 51.2327 56.7046 51.199 56.7715C51.1654 56.8384 51.1173 56.8925 51.0601 56.9276ZM76 66.7042C75.9952 66.5741 75.9636 66.4476 75.9083 66.3365C75.853 66.2255 75.7758 66.1335 75.6838 66.0693L71.4238 63.882H71.4178L69.6406 58.6323C69.5931 58.5151 69.5201 58.4165 69.4296 58.3475C69.3391 58.2786 69.2348 58.2421 69.1284 58.2421C69.022 58.2421 68.9178 58.2786 68.8273 58.3475C68.7368 58.4165 68.6637 58.5151 68.6162 58.6323L66.8373 63.8841H66.833L62.568 66.0788C62.476 66.1431 62.3987 66.235 62.3434 66.3461C62.2881 66.4571 62.2565 66.5836 62.2517 66.7137C62.2573 66.8429 62.2892 66.9682 62.3445 67.0783C62.3998 67.1883 62.4766 67.2794 62.568 67.3433L66.8279 69.5306H66.8339L68.6094 74.7781C68.6566 74.8957 68.7296 74.9947 68.8201 75.0639C68.9106 75.133 69.015 75.1697 69.1216 75.1697C69.2281 75.1697 69.3325 75.133 69.423 75.0639C69.5135 74.9947 69.5865 74.8957 69.6338 74.7781L71.4118 69.5274H71.4195L75.6777 67.3412C75.7691 67.2773 75.8459 67.1862 75.9012 67.0762C75.9565 66.9661 75.9884 66.8408 75.994 66.7116L76 66.7042Z" stroke="#FF9292" stroke-width="4" mask="url(#path-2-inside-1)"/>
<defs>
<filter id="filter0_f" x="0" y="0" width="100" height="100" filterUnits="userSpaceOnUse" color-interpolation-filters="sRGB">
<feFlood flood-opacity="0" result="BackgroundImageFix"/>
<feBlend mode="normal" in="SourceGraphic" in2="BackgroundImageFix" result="shape"/>
<feGaussianBlur stdDeviation="5" result="effect1_foregroundBlur"/>
</filter>
</defs>
</svg>
