<svg width="100" height="100" viewBox="0 0 100 100" fill="none" xmlns="http://www.w3.org/2000/svg">
<g opacity="0.15" filter="url(#filter0_f)">
<circle cx="50" cy="50" r="40" fill="#FF9292"/>
</g>
<g clip-path="url(#clip0)">
<path d="M50.3729 48.8857L50.377 48.89C50.424 48.9396 50.4673 48.9508 50.5012 48.9508C50.5354 48.9508 50.585 48.9391 50.6389 48.8833C50.6392 48.883 50.6395 48.8827 50.6398 48.8823L61.0341 37.9822L50.3729 48.8857ZM50.3729 48.8857L39.9754 37.9822C39.9753 37.9821 39.9752 37.982 39.9751 37.9819C37.5384 35.4214 37.6928 31.1581 40.4061 28.806L40.4061 28.806C42.6697 26.8438 46.1443 27.1248 48.3523 29.4502L48.3563 29.4544L49.4162 30.5621L50.4998 31.6944L51.5836 30.5623L52.653 29.4451L52.6555 29.4425C54.8636 27.1247 58.3395 26.8434 60.6034 28.806L60.605 28.8074M50.3729 48.8857L60.605 28.8074M60.605 28.8074C63.3235 31.1572 63.4731 35.4186 61.0351 37.9812L60.605 28.8074ZM75.9707 58.4418L75.9744 58.4451C76.7178 59.1146 76.6564 60.2401 75.9199 60.8263L75.9169 60.8287L61.4809 72.3813C61.4807 72.3815 61.4805 72.3816 61.4803 72.3818C60.6589 73.0373 59.643 73.3905 58.5972 73.3905H24.5278C24.5239 73.3905 24.5226 73.39 24.5211 73.3893C24.5186 73.3883 24.5142 73.3857 24.5094 73.381C24.5047 73.3763 24.5022 73.3719 24.5011 73.3694C24.5008 73.3686 24.5005 73.3678 24.5003 73.3666C24.5001 73.3656 24.5 73.3644 24.5 73.3627V64.196C24.5 64.1922 24.5005 64.1908 24.5011 64.1893C24.5022 64.1868 24.5047 64.1824 24.5094 64.1777C24.5142 64.173 24.5186 64.1704 24.5211 64.1694C24.5226 64.1687 24.5239 64.1682 24.5278 64.1682H29.8177H30.3494L30.7624 63.8334L35.2016 60.2343C36.9416 58.8257 39.1012 58.0571 41.3333 58.0571H56.6111C57.5636 58.0571 58.3102 58.9041 58.1485 59.8841C58.0369 60.5551 57.3433 61.1682 56.4488 61.1682H48.9722C47.3035 61.1682 45.9444 62.5273 45.9444 64.196C45.9444 65.8647 47.3035 67.2238 48.9722 67.2238H60.2682C61.9977 67.2238 63.6767 66.6432 65.0267 65.5567C65.0273 65.5562 65.0279 65.5557 65.0285 65.5553L73.8475 58.502L73.8522 58.4982C74.546 57.9387 75.4681 57.986 75.9707 58.4418Z" stroke="#FF9292" stroke-width="3"/>
</g>
<defs>
<filter id="filter0_f" x="0" y="0" width="100" height="100" filterUnits="userSpaceOnUse" color-interpolation-filters="sRGB">
<feFlood flood-opacity="0" result="BackgroundImageFix"/>
<feBlend mode="normal" in="SourceGraphic" in2="BackgroundImageFix" result="shape"/>
<feGaussianBlur stdDeviation="5" result="effect1_foregroundBlur"/>
</filter>
<clipPath id="clip0">
<rect width="55" height="48.8889" fill="white" transform="translate(23 26)"/>
</clipPath>
</defs>
</svg>
