<svg width="182" height="69" viewBox="0 0 182 69" fill="none" xmlns="http://www.w3.org/2000/svg">
<g clip-path="url(#clip0)">
<path d="M58.8285 16.5031L41.951 8.75829L25.0736 1.01343L5.02166 44.7102L38.7765 60.1999C38.8978 60.2555 39.0346 60.264 39.157 60.2235C39.2794 60.1831 39.3772 60.0969 39.429 59.984L59.0903 17.1386C59.1421 17.0257 59.1436 16.8953 59.0945 16.7762C59.0454 16.657 58.9497 16.5588 58.8285 16.5031ZM7.47995 44.3784C7.31417 44.3023 7.17312 44.1822 7.07463 44.0332C6.97615 43.8842 6.92464 43.713 6.92663 43.5413C6.92862 43.3696 6.98402 43.2051 7.08582 43.0686C7.18762 42.9321 7.33125 42.8297 7.49854 42.7743C7.66584 42.719 7.84929 42.7132 8.02569 42.7577C8.20209 42.8022 8.36353 42.895 8.48958 43.0244C8.61563 43.1537 8.70064 43.3138 8.73385 43.4844C8.76707 43.6549 8.74699 43.8284 8.67617 43.9827C8.62915 44.0852 8.56091 44.1767 8.47535 44.252C8.38978 44.3274 8.28857 44.3851 8.17749 44.4218C8.06641 44.4585 7.94764 44.4736 7.82795 44.4662C7.70827 44.4587 7.59001 44.4289 7.47995 44.3784ZM9.30285 40.4059C9.13707 40.3299 8.99602 40.2097 8.89754 40.0608C8.79905 39.9118 8.74754 39.7406 8.74953 39.5689C8.75152 39.3972 8.80692 39.2327 8.90872 39.0962C9.01052 38.9597 9.15415 38.8573 9.32144 38.8019C9.48874 38.7466 9.67219 38.7408 9.84859 38.7853C10.025 38.8298 10.1864 38.9226 10.3125 39.0519C10.4385 39.1813 10.5235 39.3413 10.5568 39.5119C10.59 39.6825 10.5699 39.8559 10.4991 40.0103C10.4521 40.1127 10.3838 40.2043 10.2982 40.2796C10.2127 40.3549 10.1115 40.4126 10.0004 40.4494C9.88931 40.4861 9.77054 40.5012 9.65085 40.4937C9.53117 40.4863 9.41291 40.4565 9.30285 40.4059ZM11.1257 36.4335C10.96 36.3574 10.8189 36.2373 10.7204 36.0883C10.622 35.9393 10.5704 35.7682 10.5724 35.5965C10.5744 35.4248 10.6298 35.2603 10.7316 35.1238C10.8334 34.9872 10.9771 34.8848 11.1443 34.8295C11.3116 34.7741 11.4951 34.7684 11.6715 34.8129C11.8479 34.8574 12.0093 34.9502 12.1354 35.0795C12.2614 35.2088 12.3464 35.3689 12.3797 35.5395C12.4129 35.7101 12.3928 35.8835 12.322 36.0378C12.275 36.1403 12.2067 36.2318 12.1211 36.3072C12.0356 36.3825 11.9344 36.4402 11.8233 36.4769C11.7122 36.5137 11.5934 36.5288 11.4738 36.5213C11.3541 36.5139 11.2358 36.484 11.1257 36.4335ZM12.9486 32.4611C12.7829 32.385 12.6418 32.2649 12.5433 32.1159C12.4449 31.9669 12.3933 31.7957 12.3953 31.624C12.3973 31.4524 12.4527 31.2878 12.5545 31.1513C12.6563 31.0148 12.8 30.9124 12.9672 30.8571C13.1345 30.8017 13.318 30.7959 13.4944 30.8404C13.6708 30.8849 13.8322 30.9777 13.9583 31.1071C14.0843 31.2364 14.1693 31.3965 14.2026 31.5671C14.2358 31.7377 14.2157 31.9111 14.1449 32.0654C14.0979 32.1679 14.0296 32.2594 13.944 32.3347C13.8585 32.4101 13.7573 32.4678 13.6462 32.5045C13.5351 32.5412 13.4163 32.5563 13.2967 32.5489C13.177 32.5414 13.0587 32.5116 12.9486 32.4611ZM14.7716 28.4887C14.6058 28.4126 14.4647 28.2925 14.3662 28.1435C14.2678 27.9945 14.2162 27.8233 14.2182 27.6516C14.2202 27.4799 14.2756 27.3154 14.3774 27.1789C14.4792 27.0424 14.6229 26.94 14.7901 26.8846C14.9574 26.8293 15.1409 26.8235 15.3173 26.868C15.4937 26.9125 15.6551 27.0053 15.7812 27.1346C15.9072 27.264 15.9922 27.4241 16.0255 27.5946C16.0587 27.7652 16.0386 27.9386 15.9678 28.093C15.9208 28.1954 15.8525 28.287 15.767 28.3623C15.6814 28.4376 15.5802 28.4953 15.4691 28.5321C15.358 28.5688 15.2392 28.5839 15.1196 28.5764C14.9999 28.569 14.8816 28.5392 14.7716 28.4887ZM16.5945 24.5162C16.4287 24.4402 16.2876 24.32 16.1891 24.171C16.0907 24.022 16.0391 23.8509 16.0411 23.6792C16.0431 23.5075 16.0985 23.343 16.2003 23.2065C16.3021 23.0699 16.4458 22.9675 16.613 22.9122C16.7803 22.8569 16.9638 22.8511 17.1402 22.8956C17.3166 22.9401 17.478 23.0329 17.6041 23.1622C17.7301 23.2916 17.8151 23.4516 17.8484 23.6222C17.8816 23.7928 17.8615 23.9662 17.7907 24.1205C17.7437 24.223 17.6754 24.3145 17.5899 24.3899C17.5043 24.4652 17.4031 24.5229 17.292 24.5597C17.1809 24.5964 17.0621 24.6115 16.9425 24.604C16.8228 24.5966 16.7045 24.5667 16.5945 24.5162ZM18.4174 20.5438C18.2516 20.4677 18.1105 20.3476 18.012 20.1986C17.9136 20.0496 17.862 19.8785 17.864 19.7068C17.866 19.5351 17.9214 19.3706 18.0232 19.234C18.125 19.0975 18.2687 18.9951 18.436 18.9398C18.6032 18.8844 18.7867 18.8787 18.9631 18.9232C19.1395 18.9677 19.3009 19.0604 19.427 19.1898C19.553 19.3191 19.638 19.4792 19.6713 19.6498C19.7045 19.8204 19.6844 19.9938 19.6136 20.1481C19.5666 20.2506 19.4983 20.3421 19.4128 20.4174C19.3272 20.4928 19.226 20.5505 19.1149 20.5872C19.0038 20.624 18.885 20.639 18.7654 20.6316C18.6457 20.6241 18.5274 20.5943 18.4174 20.5438ZM20.2403 16.5714C20.0745 16.4953 19.9334 16.3752 19.8349 16.2262C19.7365 16.0772 19.685 15.906 19.6869 15.7343C19.6889 15.5626 19.7443 15.3981 19.8461 15.2616C19.9479 15.1251 20.0916 15.0227 20.2589 14.9673C20.4261 14.912 20.6096 14.9062 20.786 14.9507C20.9624 14.9952 21.1238 15.088 21.2499 15.2174C21.3759 15.3467 21.4609 15.5068 21.4942 15.6774C21.5274 15.8479 21.5073 16.0214 21.4365 16.1757C21.3895 16.2782 21.3212 16.3697 21.2357 16.445C21.1501 16.5204 21.0489 16.578 20.9378 16.6148C20.8267 16.6515 20.7079 16.6666 20.5883 16.6592C20.4686 16.6517 20.3503 16.6219 20.2403 16.5714ZM22.0632 12.5989C21.8974 12.5229 21.7563 12.4027 21.6578 12.2538C21.5594 12.1048 21.5079 11.9336 21.5098 11.7619C21.5118 11.5902 21.5672 11.4257 21.669 11.2892C21.7708 11.1527 21.9145 11.0503 22.0818 10.9949C22.249 10.9396 22.4325 10.9338 22.6089 10.9783C22.7853 11.0228 22.9467 11.1156 23.0728 11.2449C23.1988 11.3743 23.2838 11.5343 23.3171 11.7049C23.3503 11.8755 23.3302 12.0489 23.2594 12.2033C23.2124 12.3057 23.1441 12.3972 23.0586 12.4726C22.973 12.5479 22.8718 12.6056 22.7607 12.6424C22.6496 12.6791 22.5308 12.6942 22.4112 12.6867C22.2915 12.6793 22.1732 12.6494 22.0632 12.5989ZM23.8861 8.62651C23.7203 8.55044 23.5792 8.43031 23.4807 8.28132C23.3823 8.13233 23.3308 7.96116 23.3327 7.78947C23.3347 7.61778 23.3901 7.45327 23.4919 7.31675C23.5937 7.18023 23.7374 7.07782 23.9047 7.02248C24.0719 6.96715 24.2554 6.96136 24.4318 7.00587C24.6082 7.05037 24.7696 7.14315 24.8957 7.27249C25.0217 7.40183 25.1068 7.56191 25.14 7.7325C25.1732 7.90308 25.1531 8.0765 25.0823 8.23083C25.0353 8.3333 24.967 8.42482 24.8815 8.50016C24.7959 8.5755 24.6947 8.63319 24.5836 8.66993C24.4725 8.70667 24.3537 8.72175 24.2341 8.7143C24.1144 8.70685 23.9961 8.67702 23.8861 8.62651ZM25.709 4.65408C25.5432 4.57801 25.4021 4.45788 25.3036 4.30889C25.2052 4.1599 25.1537 3.98874 25.1556 3.81704C25.1576 3.64535 25.213 3.48084 25.3148 3.34432C25.4166 3.2078 25.5603 3.10539 25.7276 3.05006C25.8948 2.99472 26.0783 2.98894 26.2547 3.03344C26.4311 3.07794 26.5925 3.17072 26.7186 3.30006C26.8446 3.4294 26.9297 3.58949 26.9629 3.76007C26.9961 3.93065 26.976 4.10407 26.9052 4.2584C26.8582 4.36087 26.7899 4.45239 26.7044 4.52773C26.6188 4.60307 26.5176 4.66076 26.4065 4.6975C26.2954 4.73425 26.1766 4.74932 26.057 4.74187C25.9373 4.73442 25.819 4.70459 25.709 4.65408Z" fill="#E2E6EF"/>
<path d="M23.9667 3.42551C23.7406 3.32172 21.7616 2.40157 21.9198 2.05683C22.078 1.71209 24.0661 2.61236 24.2923 2.71615L24.2272 2.85802C23.0589 2.32191 22.2455 2.09604 22.0817 2.13112C22.1619 2.27817 22.8636 2.74753 24.0319 3.28364C25.1975 3.81855 26.0099 4.04457 26.1762 4.01078C26.1348 3.94461 25.9301 3.75183 25.3047 3.40155L25.3827 3.26625C26.4425 3.85976 26.3674 4.02328 26.3392 4.08483C26.181 4.42957 24.1929 3.5293 23.9667 3.42551Z" fill="#E2E6EF"/>
<path d="M22.1764 7.32712C21.9502 7.22333 19.9713 6.30318 20.1294 5.95844C20.2876 5.6137 22.2757 6.51397 22.5019 6.61776L22.4368 6.75963C21.2685 6.22353 20.4551 5.99766 20.2913 6.03273C20.3716 6.17978 21.0732 6.64915 22.2415 7.18525C23.4071 7.72016 24.2195 7.94619 24.3858 7.91239C24.3444 7.84623 24.1398 7.65345 23.5143 7.30317L23.5923 7.16787C24.6521 7.76138 24.5771 7.9249 24.5488 7.98644C24.3906 8.33118 22.4025 7.43091 22.1764 7.32712Z" fill="#E2E6EF"/>
<path d="M20.3538 11.2995C20.1276 11.1957 18.1487 10.2756 18.3069 9.93085C18.4651 9.58611 20.4532 10.4864 20.6793 10.5902L20.6142 10.732C19.4459 10.1959 18.6326 9.97007 18.4688 10.0051C18.549 10.1522 19.2506 10.6216 20.4189 11.1577C21.5846 11.6926 22.3969 11.9186 22.5632 11.8848C22.5218 11.8186 22.3172 11.6259 21.6918 11.2756L21.7697 11.1403C22.8295 11.7338 22.7545 11.8973 22.7263 11.9589C22.5681 12.3036 20.58 11.4033 20.3538 11.2995Z" fill="#E2E6EF"/>
<path d="M18.5303 15.2739C18.3041 15.1701 16.3252 14.25 16.4834 13.9052C16.6416 13.5605 18.6296 14.4607 18.8558 14.5645L18.7907 14.7064C17.6224 14.1703 16.809 13.9444 16.6453 13.9795C16.7255 14.1266 17.4271 14.5959 18.5954 15.132C19.7611 15.6669 20.5734 15.893 20.7397 15.8592C20.6983 15.793 20.4937 15.6002 19.8682 15.2499L19.9462 15.1146C21.006 15.7082 20.931 15.8717 20.9027 15.9332C20.7445 16.278 18.7565 15.3777 18.5303 15.2739Z" fill="#E2E6EF"/>
<path d="M16.708 19.2444C16.4818 19.1406 14.5028 18.2204 14.661 17.8757C14.8192 17.5309 16.8073 18.4312 17.0335 18.535L16.9684 18.6769C15.8001 18.1408 14.9867 17.9149 14.8229 17.95C14.9031 18.097 15.6048 18.5664 16.7731 19.1025C17.9387 19.6374 18.7511 19.8634 18.9174 19.8296C18.876 19.7635 18.6714 19.5707 18.0459 19.2204L18.1239 19.0851C19.1837 19.6786 19.1087 19.8421 19.0804 19.9037C18.9222 20.2484 16.9341 19.3481 16.708 19.2444Z" fill="#E2E6EF"/>
<path d="M14.8847 23.217C14.6585 23.1132 12.6795 22.1931 12.8377 21.8483C12.9959 21.5036 14.984 22.4039 15.2102 22.5077L15.1451 22.6495C13.9768 22.1134 13.1634 21.8875 12.9996 21.9226C13.0798 22.0697 13.7815 22.539 14.9498 23.0751C16.1154 23.61 16.9278 23.8361 17.0941 23.8023C17.0527 23.7361 16.8481 23.5433 16.2226 23.1931L16.3006 23.0578C17.3604 23.6513 17.2853 23.8148 17.2571 23.8763C17.0989 24.2211 15.1108 23.3208 14.8847 23.217Z" fill="#E2E6EF"/>
<path d="M13.0621 27.1889C12.8359 27.0852 10.8569 26.165 11.0151 25.8203C11.1733 25.4755 13.1614 26.3758 13.3876 26.4796L13.3225 26.6214C12.1542 26.0853 11.3408 25.8595 11.177 25.8946C11.2572 26.0416 11.9589 26.511 13.1272 27.0471C14.2928 27.582 15.1052 27.808 15.2715 27.7742C15.2301 27.708 15.0255 27.5153 14.4 27.165L14.478 27.0297C15.5378 27.6232 15.4627 27.7867 15.4345 27.8483C15.2763 28.193 13.2882 27.2927 13.0621 27.1889Z" fill="#E2E6EF"/>
<path d="M11.239 31.1626C11.0129 31.0588 9.0339 30.1386 9.1921 29.7939C9.3503 29.4492 11.3384 30.3494 11.5645 30.4532L11.4994 30.5951C10.3312 30.059 9.51778 29.8331 9.354 29.8682C9.4342 30.0152 10.1359 30.4846 11.3041 31.0207C12.4698 31.5556 13.2822 31.7816 13.4484 31.7478C13.4071 31.6817 13.2024 31.4889 12.577 31.1386L12.6549 31.0033C13.7148 31.5968 13.6397 31.7603 13.6115 31.8219C13.4533 32.1666 11.4652 31.2664 11.239 31.1626Z" fill="#E2E6EF"/>
<path d="M9.41633 35.1325C9.19016 35.0288 7.21121 34.1086 7.3694 33.7639C7.5276 33.4191 9.51568 34.3194 9.74185 34.4232L9.67675 34.5651C8.50848 34.0289 7.69508 33.8031 7.5313 33.8382C7.61151 33.9852 8.31317 34.4546 9.48144 34.9907C10.6471 35.5256 11.4595 35.7516 11.6258 35.7178C11.5844 35.6516 11.3797 35.4589 10.7543 35.1086L10.8323 34.9733C11.8921 35.5668 11.817 35.7303 11.7888 35.7919C11.6306 36.1366 9.6425 35.2363 9.41633 35.1325Z" fill="#E2E6EF"/>
<path d="M7.5931 39.1064C7.36693 39.0026 5.38797 38.0825 5.54617 37.7377C5.70436 37.393 7.69244 38.2933 7.91861 38.3971L7.85351 38.5389C6.68524 38.0028 5.87185 37.7769 5.70807 37.812C5.78828 37.9591 6.48993 38.4284 7.6582 38.9645C8.82387 39.4994 9.63624 39.7255 9.80252 39.6917C9.76113 39.6255 9.55649 39.4327 8.93105 39.0825L9.00901 38.9472C10.0688 39.5407 9.99379 39.7042 9.96554 39.7657C9.80735 40.1105 7.81927 39.2102 7.5931 39.1064Z" fill="#E2E6EF"/>
<path d="M5.77074 43.0788C5.54457 42.975 3.56562 42.0549 3.72381 41.7101C3.88201 41.3654 5.87008 42.2657 6.09625 42.3695L6.03115 42.5113C4.86288 41.9752 4.04949 41.7494 3.88571 41.7844C3.96592 41.9315 4.66757 42.4008 5.83584 42.9369C7.00151 43.4719 7.81388 43.6979 7.98016 43.6641C7.93877 43.5979 7.73413 43.4052 7.10869 43.0549L7.18666 42.9196C8.24647 43.5131 8.17143 43.6766 8.14319 43.7381C7.98499 44.0829 5.99691 43.1826 5.77074 43.0788Z" fill="#E2E6EF"/>
</g>
<path d="M8.05331 40.2567C11.2049 43.6916 18.9239 48.5753 24.5873 40.6314L37.0001 23.8282C39.0051 20.8611 46.0311 20.8944 44.5842 28.3708L47.8515 24.1799C49.5072 21.6176 56.3116 23.1452 54.2016 28.4219L54.001 28.7392L55.5881 26.6618C59.4665 24.9336 61.5162 28.4219 58.6278 32.1769L49.1873 46.0733C48.6434 47.0124 48.0639 48.4599 50.0969 46.7371L57.8356 38.7518C58.9167 38.0427 61.4631 38.3215 60.2671 41.4401C57.6254 46.5459 49.2301 58.1988 36.782 63.9628C33.1381 65.6959 23.8549 67.8064 15.8733 62.3834C12.4016 59.7721 4.79475 52.0661 2.14152 42.1327C1.50147 39.7363 3.41226 35.7295 8.05331 40.2567Z" fill="#51535F"/>
<path d="M25.253 42.9664C19.577 50.9013 9.78806 44.9956 6.64191 41.5557C2.00803 37.0212 0.090902 41.025 0.727156 43.4224C3.36465 53.36 13.0369 62.0877 16.5046 64.7045C24.4775 70.1402 33.764 68.0444 37.4107 66.317C49.8679 60.5727 58.2817 48.9332 60.9314 43.8315C62.8173 41.3283 60.0241 39.6057 58.4189 41.3283L50.7528 49.1125C48.7171 50.832 49.2989 49.3854 49.8443 48.4472L59.3068 34.5657C62.4861 30.2709 57.3196 28.638 55.7201 30.7802L45.2375 44.456C41.9018 48.0576 43.0603 45.2676 44.0565 43.4223L53.0764 28.7261C54.4767 24.8504 49.9848 23.5756 48.3687 25.5767L36.4473 41.3885C33.643 44.2057 34.5272 41.7139 35.3815 40.5787L42.9313 28.4801C44.9704 23.9566 40.3194 22.6177 38.4778 24.7841L25.253 42.9664Z" fill="#E2E6EF"/>
<path d="M71.578 66C70.5047 66 69.6767 65.7087 69.094 65.126C68.5113 64.5433 68.22 63.7153 68.22 62.642V36.928C68.22 35.8547 68.5113 35.0267 69.094 34.444C69.6767 33.8613 70.5047 33.57 71.578 33.57H80.824C84.3507 33.57 87.3867 34.214 89.932 35.502C92.4773 36.79 94.4247 38.6453 95.774 41.068C97.1233 43.4907 97.798 46.3887 97.798 49.762C97.798 53.1353 97.1233 56.0487 95.774 58.502C94.4553 60.9247 92.5233 62.78 89.978 64.068C87.4327 65.356 84.3813 66 80.824 66H71.578ZM80.318 60.204C87.218 60.204 90.668 56.7233 90.668 49.762C90.668 42.8313 87.218 39.366 80.318 39.366H75.396V60.204H80.318ZM111.768 66.368C109.376 66.368 107.275 65.8927 105.466 64.942C103.657 63.9607 102.261 62.596 101.28 60.848C100.299 59.0693 99.808 56.984 99.808 54.592C99.808 52.2 100.299 50.13 101.28 48.382C102.261 46.6033 103.657 45.2387 105.466 44.288C107.275 43.3373 109.376 42.862 111.768 42.862C114.16 42.862 116.261 43.3373 118.07 44.288C119.879 45.2387 121.275 46.6033 122.256 48.382C123.237 50.13 123.728 52.2 123.728 54.592C123.728 56.984 123.237 59.0693 122.256 60.848C121.275 62.596 119.879 63.9607 118.07 64.942C116.261 65.8927 114.16 66.368 111.768 66.368ZM111.768 61.078C115.141 61.078 116.828 58.916 116.828 54.592C116.828 52.4147 116.383 50.7893 115.494 49.716C114.635 48.6427 113.393 48.106 111.768 48.106C108.395 48.106 106.708 50.268 106.708 54.592C106.708 58.916 108.395 61.078 111.768 61.078ZM144.239 59.284C144.852 59.284 145.343 59.5293 145.711 60.02C146.11 60.5107 146.309 61.1393 146.309 61.906C146.309 62.4273 146.156 62.918 145.849 63.378C145.542 63.8073 145.113 64.1753 144.561 64.482C143.518 65.034 142.307 65.494 140.927 65.862C139.547 66.1993 138.274 66.368 137.109 66.368C134.656 66.368 132.509 65.8927 130.669 64.942C128.86 63.9913 127.464 62.642 126.483 60.894C125.502 59.1153 125.011 57.03 125.011 54.638C125.011 52.338 125.486 50.2987 126.437 48.52C127.388 46.7413 128.706 45.3613 130.393 44.38C132.08 43.368 133.996 42.862 136.143 42.862C138.198 42.862 139.992 43.322 141.525 44.242C143.089 45.1313 144.3 46.4193 145.159 48.106C146.018 49.762 146.447 51.7093 146.447 53.948C146.447 54.6227 146.278 55.144 145.941 55.512C145.634 55.8493 145.19 56.018 144.607 56.018H131.727C131.942 57.8273 132.494 59.146 133.383 59.974C134.272 60.7713 135.545 61.17 137.201 61.17C138.09 61.17 138.888 61.0627 139.593 60.848C140.298 60.6333 141.08 60.342 141.939 59.974C142.368 59.79 142.782 59.6367 143.181 59.514C143.58 59.3607 143.932 59.284 144.239 59.284ZM136.327 47.646C135.008 47.646 133.95 48.0753 133.153 48.934C132.356 49.762 131.88 50.9733 131.727 52.568H140.605C140.513 50.9427 140.099 49.716 139.363 48.888C138.658 48.06 137.646 47.646 136.327 47.646ZM152.298 66.276C151.286 66.276 150.443 66 149.768 65.448C149.124 64.896 148.802 64.0833 148.802 63.01V46.22C148.802 45.1467 149.14 44.334 149.814 43.782C150.489 43.23 151.317 42.954 152.298 42.954C153.28 42.954 154.092 43.23 154.736 43.782C155.411 44.334 155.748 45.1467 155.748 46.22V63.01C155.748 64.0833 155.411 64.896 154.736 65.448C154.092 66 153.28 66.276 152.298 66.276ZM152.298 39.274C151.072 39.274 150.106 38.9673 149.4 38.354C148.695 37.71 148.342 36.8513 148.342 35.778C148.342 34.7047 148.695 33.8613 149.4 33.248C150.106 32.6347 151.072 32.328 152.298 32.328C153.494 32.328 154.445 32.65 155.15 33.294C155.886 33.9073 156.254 34.7353 156.254 35.778C156.254 36.8513 155.902 37.71 155.196 38.354C154.491 38.9673 153.525 39.274 152.298 39.274ZM162.538 55.972C161.986 55.972 161.511 55.788 161.112 55.42C160.744 55.052 160.514 54.5153 160.422 53.81L158.398 37.71C158.367 37.5567 158.352 37.342 158.352 37.066C158.352 35.9313 158.751 35.0267 159.548 34.352C160.345 33.6773 161.342 33.34 162.538 33.34C163.857 33.34 164.915 33.7387 165.712 34.536C166.54 35.3333 166.862 36.4067 166.678 37.756L164.608 53.81C164.547 54.5153 164.317 55.052 163.918 55.42C163.55 55.788 163.09 55.972 162.538 55.972ZM162.538 66.276C161.403 66.276 160.468 65.908 159.732 65.172C158.996 64.4053 158.628 63.4547 158.628 62.32C158.628 61.1853 158.996 60.25 159.732 59.514C160.468 58.7473 161.403 58.364 162.538 58.364C163.673 58.364 164.608 58.7473 165.344 59.514C166.08 60.25 166.448 61.1853 166.448 62.32C166.448 63.4547 166.08 64.4053 165.344 65.172C164.608 65.908 163.673 66.276 162.538 66.276Z" fill="#E2E6EF"/>
<defs>
<clipPath id="clip0">
<rect width="41.7947" height="49.5314" fill="white" transform="translate(22.864) rotate(24.6498)"/>
</clipPath>
</defs>
</svg>
