<svg width="136" height="40" viewBox="0 0 136 40" fill="none" xmlns="http://www.w3.org/2000/svg">
<path d="M133.143 0H98.8482C97.2768 0 96 1.29464 96 2.88393V37.1161C96 38.7054 97.2768 40 98.8482 40H133.143C134.714 40 136 38.7054 136 37.1161V2.88393C136 1.29464 134.714 0 133.143 0ZM108.089 34.2857H102.161V15.1964H108.098V34.2857H108.089ZM105.125 12.5893C103.223 12.5893 101.688 11.0446 101.688 9.15179C101.688 7.25893 103.223 5.71429 105.125 5.71429C107.018 5.71429 108.562 7.25893 108.562 9.15179C108.562 11.0536 107.027 12.5893 105.125 12.5893ZM130.312 34.2857H124.384V25C124.384 22.7857 124.339 19.9375 121.304 19.9375C118.214 19.9375 117.741 22.3482 117.741 24.8393V34.2857H111.813V15.1964H117.5V17.8036H117.58C118.375 16.3036 120.313 14.7232 123.196 14.7232C129.196 14.7232 130.312 18.6786 130.312 23.8214V34.2857Z" fill="#E2E6EF"/>
<g clip-path="url(#clip0)">
<path d="M68.125 15.1125C67.1773 15.1129 66.2509 15.3925 65.463 15.916C64.6752 16.4395 64.0612 17.1834 63.6988 18.0537C63.3364 18.924 63.2417 19.8815 63.4268 20.8052C63.6119 21.7289 64.0685 22.5774 64.7388 23.2432C65.4091 23.9091 66.263 24.3625 67.1925 24.5461C68.1221 24.7297 69.0856 24.6353 69.9611 24.2748C70.8367 23.9143 71.585 23.3039 72.1115 22.5207C72.638 21.7376 72.9191 20.8169 72.9191 19.875C72.9181 18.6119 72.4127 17.4008 71.5138 16.5078C70.6148 15.6148 69.396 15.113 68.125 15.1125ZM79.3294 11.4518C79.0854 10.8374 78.717 10.2793 78.2471 9.81224C77.7771 9.34517 77.2155 8.97906 76.5973 8.73661C74.7105 7.99643 70.2184 8.1625 68.125 8.1625C66.0316 8.1625 61.5439 7.99018 59.6518 8.73661C59.0336 8.97906 58.472 9.34517 58.002 9.81224C57.5321 10.2793 57.1637 10.8374 56.9197 11.4518C56.1758 13.3268 56.342 17.7955 56.342 19.8741C56.342 21.9527 56.1758 26.4161 56.9233 28.2973C57.1672 28.9117 57.5356 29.4698 58.0056 29.9369C58.4756 30.4039 59.0372 30.7701 59.6554 31.0125C61.5421 31.7527 66.0343 31.5866 68.1286 31.5866C70.2228 31.5866 74.7087 31.7589 76.6009 31.0125C77.2191 30.7701 77.7807 30.4039 78.2507 29.9369C78.7206 29.4698 79.089 28.9117 79.333 28.2973C80.0832 26.4223 79.9107 21.9536 79.9107 19.875C79.9107 17.7964 80.0832 13.3339 79.333 11.4527L79.3294 11.4518ZM68.125 27.1964C66.6679 27.1964 65.2435 26.767 64.032 25.9625C62.8205 25.1581 61.8762 24.0146 61.3186 22.6768C60.761 21.339 60.6151 19.8669 60.8994 18.4467C61.1836 17.0264 61.8853 15.7219 62.9156 14.698C63.9459 13.674 65.2586 12.9768 66.6877 12.6943C68.1168 12.4118 69.5981 12.5567 70.9443 13.1109C72.2905 13.665 73.4411 14.6034 74.2506 15.8074C75.0601 17.0114 75.4922 18.427 75.4922 19.875C75.4934 20.8368 75.3036 21.7894 74.9338 22.6782C74.564 23.567 74.0214 24.3746 73.337 25.0547C72.6527 25.7347 71.8401 26.274 70.9457 26.6415C70.0513 27.009 69.0928 27.1976 68.125 27.1964ZM75.7959 13.9554C75.4557 13.9555 75.1232 13.8555 74.8403 13.6678C74.5573 13.4801 74.3368 13.2133 74.2065 12.901C74.0762 12.5888 74.042 12.2451 74.1083 11.9136C74.1745 11.582 74.3382 11.2774 74.5787 11.0384C74.8191 10.7993 75.1256 10.6364 75.4592 10.5704C75.7927 10.5044 76.1385 10.5382 76.4528 10.6675C76.7671 10.7968 77.0357 11.0159 77.2247 11.2969C77.4137 11.578 77.5146 11.9084 77.5146 12.2464C77.5155 12.4709 77.4719 12.6934 77.3861 12.901C77.3003 13.1087 77.1742 13.2975 77.0148 13.4566C76.8555 13.6157 76.6661 13.742 76.4575 13.8282C76.249 13.9144 76.0253 13.9588 75.7995 13.9589L75.7959 13.9554ZM83.9375 -0.125H52.3125C51.1688 -0.125 50.0719 0.32653 49.2631 1.13026C48.4544 1.93398 48 3.02407 48 4.16071V35.5893C48 36.7259 48.4544 37.816 49.2631 38.6197C50.0719 39.4235 51.1688 39.875 52.3125 39.875H83.9375C85.0812 39.875 86.1781 39.4235 86.9869 38.6197C87.7956 37.816 88.25 36.7259 88.25 35.5893V4.16071C88.25 3.02407 87.7956 1.93398 86.9869 1.13026C86.1781 0.32653 85.0812 -0.125 83.9375 -0.125ZM82.3994 25.7679C82.2835 28.0563 81.7579 30.0839 80.0769 31.75C78.3959 33.4161 76.3574 33.9491 74.0574 34.058C71.6846 34.1911 64.5708 34.1911 62.198 34.058C59.8953 33.9429 57.8621 33.4196 56.1785 31.75C54.4948 30.0804 53.9656 28.0518 53.856 25.7679C53.7221 23.4089 53.7221 16.3384 53.856 13.9821C53.9719 11.6938 54.4912 9.66607 56.1785 8C57.8657 6.33393 59.9043 5.80714 62.198 5.69821C64.5708 5.56518 71.6846 5.56518 74.0574 5.69821C76.3601 5.81339 78.3995 6.33661 80.0769 8.00625C81.7543 9.67589 82.2898 11.7045 82.3994 13.9929C82.5332 16.3429 82.5332 23.4071 82.3994 25.7679Z" fill="#E2E6EF"/>
</g>
<path d="M35.7143 0H4.28571C3.14907 0 2.05898 0.451529 1.25526 1.25526C0.451529 2.05898 0 3.14907 0 4.28571L0 35.7143C0 36.8509 0.451529 37.941 1.25526 38.7447C2.05898 39.5485 3.14907 40 4.28571 40H16.5402V26.4009H10.9152V20H16.5402V15.1214C16.5402 9.57232 19.8438 6.50714 24.9036 6.50714C27.3268 6.50714 29.8607 6.93929 29.8607 6.93929V12.3857H27.0688C24.3179 12.3857 23.4598 14.0929 23.4598 15.8438V20H29.6009L28.6188 26.4009H23.4598V40H35.7143C36.8509 40 37.941 39.5485 38.7447 38.7447C39.5485 37.941 40 36.8509 40 35.7143V4.28571C40 3.14907 39.5485 2.05898 38.7447 1.25526C37.941 0.451529 36.8509 0 35.7143 0Z" fill="#E2E6EF"/>
<defs>
<clipPath id="clip0">
<rect width="40" height="40" fill="white" transform="translate(48)"/>
</clipPath>
</defs>
</svg>
