<svg width="201" height="72" viewBox="0 0 201 72" fill="none" xmlns="http://www.w3.org/2000/svg">
<g clip-path="url(#clip0)">
<path d="M61.0177 17.1173L43.5122 9.08422L26.0067 1.05115L5.20854 46.374L40.2196 62.4401C40.3453 62.4978 40.4873 62.5067 40.6142 62.4647C40.7411 62.4227 40.8426 62.3333 40.8963 62.2163L61.2893 17.7763C61.343 17.6593 61.3446 17.5241 61.2936 17.4005C61.2427 17.2769 61.1434 17.175 61.0177 17.1173ZM7.7583 46.0298C7.58636 45.9509 7.44006 45.8263 7.33791 45.6718C7.23575 45.5173 7.18233 45.3397 7.1844 45.1617C7.18646 44.9836 7.24392 44.813 7.34951 44.6714C7.45509 44.5297 7.60407 44.4235 7.77759 44.3661C7.95111 44.3087 8.14139 44.3027 8.32435 44.3489C8.50732 44.3951 8.67476 44.4913 8.80551 44.6254C8.93625 44.7596 9.02442 44.9256 9.05887 45.1026C9.09332 45.2795 9.0725 45.4594 8.99905 45.6194C8.95027 45.7257 8.87949 45.8206 8.79074 45.8988C8.702 45.9769 8.59701 46.0368 8.4818 46.0749C8.36659 46.113 8.2434 46.1286 8.11926 46.1209C7.99512 46.1132 7.87247 46.0822 7.7583 46.0298ZM9.64904 41.9096C9.4771 41.8307 9.3308 41.7061 9.22865 41.5516C9.12649 41.397 9.07307 41.2195 9.07513 41.0414C9.0772 40.8633 9.13466 40.6927 9.24025 40.5511C9.34583 40.4095 9.49481 40.3033 9.66833 40.2459C9.84185 40.1885 10.0321 40.1825 10.2151 40.2286C10.3981 40.2748 10.5655 40.371 10.6962 40.5052C10.827 40.6393 10.9152 40.8054 10.9496 40.9823C10.9841 41.1592 10.9632 41.3391 10.8898 41.4992C10.841 41.6055 10.7702 41.7004 10.6815 41.7785C10.5927 41.8567 10.4878 41.9165 10.3725 41.9546C10.2573 41.9927 10.1341 42.0084 10.01 42.0007C9.88586 41.9929 9.7632 41.962 9.64904 41.9096ZM11.5398 37.7893C11.3678 37.7104 11.2215 37.5858 11.1194 37.4313C11.0172 37.2768 10.9638 37.0992 10.9659 36.9211C10.9679 36.7431 11.0254 36.5724 11.131 36.4308C11.2366 36.2892 11.3855 36.183 11.5591 36.1256C11.7326 36.0682 11.9229 36.0622 12.1058 36.1084C12.2888 36.1545 12.4562 36.2508 12.587 36.3849C12.7177 36.5191 12.8059 36.6851 12.8403 36.8621C12.8748 37.039 12.854 37.2189 12.7805 37.3789C12.7317 37.4852 12.661 37.5801 12.5722 37.6583C12.4835 37.7364 12.3785 37.7963 12.2633 37.8344C12.1481 37.8725 12.0249 37.8881 11.9007 37.8804C11.7766 37.8727 11.6539 37.8417 11.5398 37.7893ZM13.4305 33.6691C13.2586 33.5902 13.1123 33.4656 13.0101 33.311C12.908 33.1565 12.8545 32.979 12.8566 32.8009C12.8587 32.6228 12.9161 32.4522 13.0217 32.3106C13.1273 32.169 13.2763 32.0628 13.4498 32.0054C13.6233 31.948 13.8136 31.942 13.9966 31.9881C14.1795 32.0343 14.347 32.1305 14.4777 32.2647C14.6085 32.3988 14.6966 32.5649 14.7311 32.7418C14.7655 32.9187 14.7447 33.0986 14.6713 33.2587C14.6225 33.365 14.5517 33.4599 14.463 33.538C14.3742 33.6162 14.2692 33.676 14.154 33.7141C14.0388 33.7522 13.9156 33.7679 13.7915 33.7601C13.6673 33.7524 13.5447 33.7215 13.4305 33.6691ZM15.3213 29.5488C15.1493 29.4699 15.003 29.3453 14.9009 29.1908C14.7987 29.0362 14.7453 28.8587 14.7473 28.6806C14.7494 28.5026 14.8069 28.3319 14.9125 28.1903C15.018 28.0487 15.167 27.9425 15.3405 27.8851C15.5141 27.8277 15.7043 27.8217 15.8873 27.8679C16.0703 27.914 16.2377 28.0103 16.3685 28.1444C16.4992 28.2786 16.5874 28.4446 16.6218 28.6215C16.6563 28.7985 16.6355 28.9783 16.562 29.1384C16.5132 29.2447 16.4424 29.3396 16.3537 29.4178C16.2649 29.4959 16.16 29.5558 16.0448 29.5939C15.9295 29.632 15.8063 29.6476 15.6822 29.6399C15.5581 29.6322 15.4354 29.6012 15.3213 29.5488ZM17.212 25.4286C17.04 25.3497 16.8938 25.2251 16.7916 25.0705C16.6894 24.916 16.636 24.7385 16.6381 24.5604C16.6401 24.3823 16.6976 24.2117 16.8032 24.0701C16.9088 23.9285 17.0578 23.8222 17.2313 23.7649C17.4048 23.7075 17.5951 23.7015 17.778 23.7476C17.961 23.7938 18.1285 23.89 18.2592 24.0242C18.3899 24.1583 18.4781 24.3244 18.5126 24.5013C18.547 24.6782 18.5262 24.8581 18.4527 25.0182C18.404 25.1244 18.3332 25.2194 18.2444 25.2975C18.1557 25.3757 18.0507 25.4355 17.9355 25.4736C17.8203 25.5117 17.6971 25.5274 17.5729 25.5196C17.4488 25.5119 17.3262 25.481 17.212 25.4286ZM19.1027 21.3083C18.9308 21.2294 18.7845 21.1048 18.6823 20.9503C18.5802 20.7957 18.5268 20.6182 18.5288 20.4401C18.5309 20.262 18.5883 20.0914 18.6939 19.9498C18.7995 19.8082 18.9485 19.702 19.122 19.6446C19.2955 19.5872 19.4858 19.5812 19.6688 19.6274C19.8517 19.6735 20.0192 19.7698 20.1499 19.9039C20.2807 20.0381 20.3688 20.2041 20.4033 20.381C20.4377 20.558 20.4169 20.7378 20.3435 20.8979C20.2947 21.0042 20.2239 21.0991 20.1352 21.1773C20.0464 21.2554 19.9414 21.3152 19.8262 21.3533C19.711 21.3915 19.5878 21.4071 19.4637 21.3994C19.3395 21.3916 19.2169 21.3607 19.1027 21.3083ZM20.9935 17.188C20.8215 17.1091 20.6752 16.9846 20.5731 16.83C20.4709 16.6755 20.4175 16.4979 20.4196 16.3199C20.4216 16.1418 20.4791 15.9712 20.5847 15.8295C20.6903 15.6879 20.8392 15.5817 21.0128 15.5243C21.1863 15.4669 21.3766 15.4609 21.5595 15.5071C21.7425 15.5533 21.9099 15.6495 22.0407 15.7837C22.1714 15.9178 22.2596 16.0838 22.294 16.2608C22.3285 16.4377 22.3077 16.6176 22.2342 16.7776C22.1854 16.8839 22.1147 16.9789 22.0259 17.057C21.9372 17.1351 21.8322 17.195 21.717 17.2331C21.6018 17.2712 21.4786 17.2868 21.3544 17.2791C21.2303 17.2714 21.1076 17.2404 20.9935 17.188ZM22.8842 13.0678C22.7123 12.9889 22.566 12.8643 22.4638 12.7098C22.3617 12.5552 22.3082 12.3777 22.3103 12.1996C22.3124 12.0215 22.3698 11.8509 22.4754 11.7093C22.581 11.5677 22.73 11.4615 22.9035 11.4041C23.077 11.3467 23.2673 11.3407 23.4503 11.3868C23.6332 11.433 23.8007 11.5292 23.9314 11.6634C24.0621 11.7975 24.1503 11.9636 24.1848 12.1405C24.2192 12.3174 24.1984 12.4973 24.1249 12.6574C24.0762 12.7637 24.0054 12.8586 23.9166 12.9367C23.8279 13.0149 23.7229 13.0747 23.6077 13.1128C23.4925 13.1509 23.3693 13.1666 23.2452 13.1589C23.121 13.1511 22.9984 13.1202 22.8842 13.0678ZM24.7749 8.94754C24.603 8.86863 24.4567 8.74404 24.3545 8.5895C24.2524 8.43497 24.199 8.25743 24.201 8.07935C24.2031 7.90127 24.2606 7.73064 24.3661 7.58904C24.4717 7.44744 24.6207 7.34122 24.7942 7.28382C24.9677 7.22643 25.158 7.22043 25.341 7.26658C25.524 7.31274 25.6914 7.40898 25.8221 7.54313C25.9529 7.67729 26.0411 7.84333 26.0755 8.02026C26.11 8.19719 26.0891 8.37706 26.0157 8.53713C25.9669 8.64342 25.8961 8.73834 25.8074 8.81649C25.7186 8.89463 25.6137 8.95447 25.4984 8.99258C25.3832 9.03069 25.26 9.04633 25.1359 9.0386C25.0118 9.03087 24.8891 8.99992 24.7749 8.94754ZM26.6657 4.82728C26.4937 4.74838 26.3474 4.62378 26.2453 4.46925C26.1431 4.31471 26.0897 4.13718 26.0918 3.9591C26.0938 3.78101 26.1513 3.61038 26.2569 3.46878C26.3625 3.32718 26.5114 3.22096 26.685 3.16357C26.8585 3.10617 27.0488 3.10017 27.2317 3.14633C27.4147 3.19249 27.5821 3.28872 27.7129 3.42288C27.8436 3.55703 27.9318 3.72307 27.9662 3.9C28.0007 4.07693 27.9799 4.2568 27.9064 4.41688C27.8576 4.52316 27.7869 4.61808 27.6981 4.69623C27.6094 4.77437 27.5044 4.83421 27.3892 4.87232C27.274 4.91043 27.1508 4.92607 27.0266 4.91834C26.9025 4.91061 26.7798 4.87967 26.6657 4.82728Z" fill="#FF9292"/>
<path d="M24.8586 3.55312C24.624 3.44547 22.5714 2.49107 22.7355 2.13351C22.8996 1.77594 24.9617 2.70971 25.1962 2.81736L25.1287 2.96451C23.917 2.40846 23.0733 2.17418 22.9034 2.21056C22.9866 2.36308 23.7144 2.84991 24.9261 3.40597C26.1352 3.96078 26.9778 4.19522 27.1503 4.16017C27.1073 4.09154 26.8951 3.89159 26.2464 3.52827L26.3272 3.38793C27.4265 4.00353 27.3486 4.17313 27.3193 4.23697C27.1553 4.59454 25.0932 3.66077 24.8586 3.55312Z" fill="#397EF3"/>
<path d="M23.0016 7.59963C22.767 7.49198 20.7144 6.53758 20.8785 6.18001C21.0426 5.82244 23.1047 6.75622 23.3393 6.86387L23.2717 7.01102C22.06 6.45497 21.2163 6.22069 21.0464 6.25707C21.1296 6.40959 21.8574 6.89642 23.0691 7.45248C24.2782 8.0073 25.1208 8.24173 25.2933 8.20668C25.2503 8.13805 25.0381 7.9381 24.3894 7.57478L24.4702 7.43445C25.5695 8.05004 25.4916 8.21965 25.4624 8.28349C25.2983 8.64105 23.2362 7.70728 23.0016 7.59963Z" fill="#397EF3"/>
<path d="M21.1112 11.7201C20.8766 11.6125 18.8241 10.6581 18.9881 10.3005C19.1522 9.94292 21.2143 10.8767 21.4489 10.9844L21.3813 11.1315C20.1696 10.5754 19.3259 10.3412 19.1561 10.3776C19.2393 10.5301 19.967 11.0169 21.1788 11.573C22.3878 12.1278 23.2304 12.3622 23.4029 12.3272C23.36 12.2585 23.1477 12.0586 22.499 11.6953L22.5798 11.5549C23.6791 12.1705 23.6013 12.3401 23.572 12.404C23.4079 12.7615 21.3458 11.8278 21.1112 11.7201Z" fill="#397EF3"/>
<path d="M19.2198 15.8422C18.9853 15.7345 16.9327 14.7801 17.0967 14.4226C17.2608 14.065 19.3229 14.9988 19.5575 15.1064L19.49 15.2536C18.2782 14.6975 17.4345 14.4632 17.2647 14.4996C17.3479 14.6521 18.0756 15.139 19.2874 15.695C20.4964 16.2498 21.339 16.4843 21.5115 16.4492C21.4686 16.3806 21.2563 16.1806 20.6076 15.8173L20.6885 15.677C21.7877 16.2926 21.7099 16.4622 21.6806 16.526C21.5165 16.8836 19.4544 15.9498 19.2198 15.8422Z" fill="#397EF3"/>
<path d="M17.3297 19.9605C17.0951 19.8528 15.0425 18.8984 15.2066 18.5409C15.3707 18.1833 17.4328 19.1171 17.6673 19.2247L17.5998 19.3719C16.3881 18.8158 15.5444 18.5815 15.3745 18.6179C15.4577 18.7704 16.1855 19.2573 17.3972 19.8133C18.6063 20.3681 19.4489 20.6026 19.6214 20.5675C19.5784 20.4989 19.3662 20.2989 18.7175 19.9356L18.7983 19.7953C19.8976 20.4109 19.8197 20.5805 19.7904 20.6443C19.6264 21.0019 17.5643 20.0681 17.3297 19.9605Z" fill="#397EF3"/>
<path d="M15.4385 24.0811C15.204 23.9734 13.1514 23.019 13.3154 22.6615C13.4795 22.3039 15.5416 23.2377 15.7762 23.3453L15.7086 23.4925C14.4969 22.9364 13.6532 22.7021 13.4834 22.7385C13.5666 22.891 14.2943 23.3779 15.5061 23.9339C16.7151 24.4887 17.5577 24.7232 17.7302 24.6881C17.6873 24.6195 17.475 24.4195 16.8263 24.0562L16.9072 23.9159C18.0064 24.5315 17.9286 24.7011 17.8993 24.7649C17.7352 25.1225 15.6731 24.1887 15.4385 24.0811Z" fill="#397EF3"/>
<path d="M13.5481 28.2008C13.3135 28.0932 11.2609 27.1388 11.425 26.7812C11.5891 26.4236 13.6511 27.3574 13.8857 27.4651L13.8182 27.6122C12.6065 27.0562 11.7628 26.8219 11.5929 26.8583C11.6761 27.0108 12.4039 27.4976 13.6156 28.0537C14.8247 28.6085 15.6673 28.8429 15.8397 28.8079C15.7968 28.7392 15.5846 28.5393 14.9358 28.176L15.0167 28.0356C16.116 28.6512 16.0381 28.8208 16.0088 28.8847C15.8447 29.2422 13.7827 28.3085 13.5481 28.2008Z" fill="#397EF3"/>
<path d="M11.6573 32.3223C11.4227 32.2146 9.37007 31.2602 9.53416 30.9027C9.69824 30.5451 11.7603 31.4789 11.9949 31.5865L11.9274 31.7337C10.7156 31.1776 9.87195 30.9433 9.70208 30.9797C9.78527 31.1322 10.513 31.6191 11.7248 32.1751C12.9338 32.73 13.7764 32.9644 13.9489 32.9293C13.906 32.8607 13.6937 32.6607 13.045 32.2974L13.1259 32.1571C14.2251 32.7727 14.1473 32.9423 14.118 33.0061C13.9539 33.3637 11.8918 32.4299 11.6573 32.3223Z" fill="#397EF3"/>
<path d="M9.76672 36.4398C9.53214 36.3322 7.47954 35.3778 7.64362 35.0202C7.80771 34.6627 9.86977 35.5964 10.1044 35.7041L10.0368 35.8512C8.82508 35.2952 7.98142 35.0609 7.81154 35.0973C7.89474 35.2498 8.62251 35.7366 9.83425 36.2927C11.0433 36.8475 11.8859 37.0819 12.0584 37.0469C12.0154 36.9783 11.8032 36.7783 11.1545 36.415L11.2353 36.2747C12.3346 36.8902 12.2568 37.0599 12.2275 37.1237C12.0634 37.4813 10.0013 36.5475 9.76672 36.4398Z" fill="#397EF3"/>
<path d="M7.87565 40.5618C7.64106 40.4541 5.58846 39.4997 5.75254 39.1422C5.91663 38.7846 7.97869 39.7184 8.21327 39.826L8.14575 39.9732C6.93401 39.4171 6.09034 39.1828 5.92047 39.2192C6.00366 39.3717 6.73143 39.8586 7.94317 40.4146C9.15221 40.9694 9.99482 41.2039 10.1673 41.1688C10.1244 41.1002 9.91211 40.9002 9.26339 40.5369L9.34425 40.3966C10.4435 41.0122 10.3657 41.1818 10.3364 41.2456C10.1723 41.6032 8.11023 40.6694 7.87565 40.5618Z" fill="#397EF3"/>
<path d="M5.98548 44.682C5.75089 44.5744 3.6983 43.62 3.86238 43.2624C4.02646 42.9048 6.08852 43.8386 6.32311 43.9463L6.25558 44.0934C5.04384 43.5374 4.20018 43.3031 4.0303 43.3395C4.1135 43.492 4.84126 43.9788 6.05301 44.5349C7.26205 45.0897 8.10466 45.3241 8.27712 45.2891C8.23419 45.2204 8.02194 45.0205 7.37322 44.6572L7.45409 44.5168C8.55334 45.1324 8.47551 45.302 8.44621 45.3659C8.28213 45.7234 6.22007 44.7897 5.98548 44.682Z" fill="#03C3F9"/>
</g>
<path d="M8.35297 41.7548C11.6219 45.3175 19.6281 50.383 25.5023 42.1435L38.377 24.715C40.4566 21.6374 47.744 21.672 46.2433 29.4266L49.6322 25.0798C51.3495 22.4222 58.4071 24.0065 56.2186 29.4796L56.0105 29.8088L57.6567 27.654C61.6794 25.8616 63.8054 29.4796 60.8095 33.3743L51.0177 47.7879C50.4536 48.762 49.8525 50.2633 51.9611 48.4764L59.9878 40.194C61.1092 39.4584 63.7503 39.7476 62.5098 42.9823C59.7698 48.2782 51.0621 60.3646 38.1508 66.3431C34.3712 68.1408 24.7425 70.3298 16.464 64.705C12.8631 61.9965 4.97315 54.0037 2.22118 43.7007C1.55732 41.2152 3.53921 37.0591 8.35297 41.7548Z" fill="white"/>
<path d="M26.1927 44.5654C20.3055 52.7957 10.1523 46.6702 6.88907 43.1023C2.08275 38.399 0.09428 42.5518 0.754211 45.0384C3.48986 55.3458 13.5221 64.3984 17.1187 67.1125C25.3884 72.7505 35.0205 70.5767 38.8029 68.785C51.7236 62.8269 60.4505 50.7543 63.1989 45.4628C65.1549 42.8664 62.2578 41.0797 60.5929 42.8664L52.6415 50.9402C50.5301 52.7237 51.1335 51.2233 51.6992 50.2502L61.5138 35.8522C64.8115 31.3975 59.4526 29.7039 57.7936 31.9258L46.9209 46.1105C43.4611 49.8461 44.6627 46.9523 45.696 45.0384L55.0515 29.7952C56.5039 25.7753 51.845 24.4531 50.1687 26.5286L37.8036 42.9289C34.8949 45.8508 35.812 43.2663 36.6981 42.0889L44.5289 29.5401C46.6439 24.8482 41.8198 23.4595 39.9097 25.7066L26.1927 44.5654Z" fill="#397EF3"/>
<path d="M73.008 62C71.7013 62 70.6933 61.6453 69.984 60.936C69.2747 60.2267 68.92 59.2187 68.92 57.912V26.608C68.92 25.3013 69.2747 24.2933 69.984 23.584C70.6933 22.8747 71.7013 22.52 73.008 22.52H84.264C88.5573 22.52 92.2533 23.304 95.352 24.872C98.4507 26.44 100.821 28.6987 102.464 31.648C104.107 34.5973 104.928 38.1253 104.928 42.232C104.928 46.3387 104.107 49.8853 102.464 52.872C100.859 55.8213 98.5067 58.08 95.408 59.648C92.3093 61.216 88.5947 62 84.264 62H73.008ZM83.648 54.944C92.048 54.944 96.248 50.7067 96.248 42.232C96.248 33.7947 92.048 29.576 83.648 29.576H77.656V54.944H83.648ZM121.935 62.448C119.023 62.448 116.466 61.8693 114.263 60.712C112.06 59.5173 110.362 57.856 109.167 55.728C107.972 53.5627 107.375 51.024 107.375 48.112C107.375 45.2 107.972 42.68 109.167 40.552C110.362 38.3867 112.06 36.7253 114.263 35.568C116.466 34.4107 119.023 33.832 121.935 33.832C124.847 33.832 127.404 34.4107 129.607 35.568C131.81 36.7253 133.508 38.3867 134.703 40.552C135.898 42.68 136.495 45.2 136.495 48.112C136.495 51.024 135.898 53.5627 134.703 55.728C133.508 57.856 131.81 59.5173 129.607 60.712C127.404 61.8693 124.847 62.448 121.935 62.448ZM121.935 56.008C126.042 56.008 128.095 53.376 128.095 48.112C128.095 45.4613 127.554 43.4827 126.471 42.176C125.426 40.8693 123.914 40.216 121.935 40.216C117.828 40.216 115.775 42.848 115.775 48.112C115.775 53.376 117.828 56.008 121.935 56.008ZM161.465 53.824C162.211 53.824 162.809 54.1227 163.257 54.72C163.742 55.3173 163.985 56.0827 163.985 57.016C163.985 57.6507 163.798 58.248 163.425 58.808C163.051 59.3307 162.529 59.7787 161.857 60.152C160.587 60.824 159.113 61.384 157.433 61.832C155.753 62.2427 154.203 62.448 152.785 62.448C149.798 62.448 147.185 61.8693 144.945 60.712C142.742 59.5547 141.043 57.912 139.849 55.784C138.654 53.6187 138.057 51.08 138.057 48.168C138.057 45.368 138.635 42.8853 139.793 40.72C140.95 38.5547 142.555 36.8747 144.609 35.68C146.662 34.448 148.995 33.832 151.609 33.832C154.11 33.832 156.294 34.392 158.161 35.512C160.065 36.5947 161.539 38.1627 162.585 40.216C163.63 42.232 164.153 44.6027 164.153 47.328C164.153 48.1493 163.947 48.784 163.537 49.232C163.163 49.6427 162.622 49.848 161.913 49.848H146.233C146.494 52.0507 147.166 53.656 148.249 54.664C149.331 55.6347 150.881 56.12 152.897 56.12C153.979 56.12 154.95 55.9893 155.809 55.728C156.667 55.4667 157.619 55.112 158.665 54.664C159.187 54.44 159.691 54.2533 160.177 54.104C160.662 53.9173 161.091 53.824 161.465 53.824ZM151.833 39.656C150.227 39.656 148.939 40.1787 147.969 41.224C146.998 42.232 146.419 43.7067 146.233 45.648H157.041C156.929 43.6693 156.425 42.176 155.529 41.168C154.67 40.16 153.438 39.656 151.833 39.656ZM171.276 62.336C170.044 62.336 169.018 62 168.196 61.328C167.412 60.656 167.02 59.6667 167.02 58.36V37.92C167.02 36.6133 167.431 35.624 168.252 34.952C169.074 34.28 170.082 33.944 171.276 33.944C172.471 33.944 173.46 34.28 174.244 34.952C175.066 35.624 175.476 36.6133 175.476 37.92V58.36C175.476 59.6667 175.066 60.656 174.244 61.328C173.46 62 172.471 62.336 171.276 62.336ZM171.276 29.464C169.783 29.464 168.607 29.0907 167.748 28.344C166.89 27.56 166.46 26.5147 166.46 25.208C166.46 23.9013 166.89 22.8747 167.748 22.128C168.607 21.3813 169.783 21.008 171.276 21.008C172.732 21.008 173.89 21.4 174.748 22.184C175.644 22.9307 176.092 23.9387 176.092 25.208C176.092 26.5147 175.663 27.56 174.804 28.344C173.946 29.0907 172.77 29.464 171.276 29.464ZM183.742 49.792C183.07 49.792 182.491 49.568 182.006 49.12C181.558 48.672 181.278 48.0187 181.166 47.16L178.702 27.56C178.665 27.3733 178.646 27.112 178.646 26.776C178.646 25.3947 179.131 24.2933 180.102 23.472C181.073 22.6507 182.286 22.24 183.742 22.24C185.347 22.24 186.635 22.7253 187.606 23.696C188.614 24.6667 189.006 25.9733 188.782 27.616L186.262 47.16C186.187 48.0187 185.907 48.672 185.422 49.12C184.974 49.568 184.414 49.792 183.742 49.792ZM183.742 62.336C182.361 62.336 181.222 61.888 180.326 60.992C179.43 60.0587 178.982 58.9013 178.982 57.52C178.982 56.1387 179.43 55 180.326 54.104C181.222 53.1707 182.361 52.704 183.742 52.704C185.123 52.704 186.262 53.1707 187.158 54.104C188.054 55 188.502 56.1387 188.502 57.52C188.502 58.9013 188.054 60.0587 187.158 60.992C186.262 61.888 185.123 62.336 183.742 62.336Z" fill="#397EF3"/>
<defs>
<clipPath id="clip0">
<rect width="43.35" height="51.3746" fill="white" transform="translate(23.7148) rotate(24.6498)"/>
</clipPath>
</defs>
</svg>
