<?xml version="1.0" standalone="no"?>
<!DOCTYPE svg PUBLIC "-//W3C//DTD SVG 20010904//EN"
 "http://www.w3.org/TR/2001/REC-SVG-20010904/DTD/svg10.dtd">
<svg version="1.0" xmlns="http://www.w3.org/2000/svg"
 width="1251.000000pt" height="638.000000pt" viewBox="0 0 1251.000000 638.000000"
 preserveAspectRatio="xMidYMid meet">

<g transform="translate(0.000000,638.000000) scale(0.100000,-0.100000)"
fill="#000000" stroke="none">
<path d="M2606 5071 c-4 -5 -2 -12 3 -15 5 -4 12 -2 15 3 4 5 2 12 -3 15 -5 4
-12 2 -15 -3z"/>
<path d="M6650 5065 c0 -8 5 -15 10 -15 6 0 10 7 10 15 0 8 -4 15 -10 15 -5 0
-10 -7 -10 -15z"/>
<path d="M1641 5044 c-28 -36 -27 -79 4 -109 29 -30 55 -32 86 -6 31 25 19 38
-14 16 -50 -32 -97 28 -63 80 19 28 47 32 70 10 18 -19 26 -19 26 0 0 8 -9 19
-19 25 -34 18 -68 12 -90 -16z"/>
<path d="M1998 5038 c0 -18 0 -44 1 -56 4 -46 -39 -69 -59 -32 -14 26 3 60 31
60 11 0 17 5 14 10 -10 16 -40 12 -58 -8 -22 -24 -21 -54 2 -83 16 -21 22 -22
45 -11 17 7 26 8 26 1 0 -6 5 -7 10 -4 6 3 10 40 10 81 0 43 -4 74 -10 74 -5
0 -11 -15 -12 -32z"/>
<path d="M5760 4995 c-23 -73 -23 -108 0 -66 13 25 80 31 80 7 0 -16 18 -31
26 -23 3 3 -7 39 -22 81 -36 101 -52 102 -84 1z m59 -7 c1 -12 -6 -18 -19 -18
-23 0 -24 8 -9 47 10 26 12 27 19 8 5 -11 9 -28 9 -37z"/>
<path d="M6460 5045 c0 -22 -3 -25 -25 -19 -36 9 -55 -11 -55 -57 0 -32 5 -42
25 -51 19 -8 28 -8 40 2 11 9 15 9 15 1 0 -7 5 -9 10 -6 6 3 10 40 10 81 0 43
-4 74 -10 74 -5 0 -10 -11 -10 -25z m-2 -72 c2 -24 -1 -33 -17 -38 -29 -9 -41
1 -41 34 0 34 8 43 35 39 14 -2 21 -12 23 -35z"/>
<path d="M2310 5046 c0 -8 -6 -17 -12 -19 -10 -4 -10 -8 -1 -14 6 -4 13 -26
15 -47 3 -39 29 -68 45 -52 4 4 0 12 -10 17 -22 13 -24 79 -2 79 8 0 15 5 15
10 0 6 -7 10 -15 10 -8 0 -15 7 -15 15 0 8 -4 15 -10 15 -5 0 -10 -6 -10 -14z"/>
<path d="M1800 5015 c-10 -12 -6 -13 26 -8 29 5 36 3 32 -8 -3 -8 -18 -16 -34
-19 -21 -4 -30 -12 -32 -29 -5 -33 10 -43 52 -36 35 7 36 9 36 49 0 23 -5 47
-12 54 -16 16 -53 15 -68 -3z m60 -60 c0 -19 -24 -29 -47 -20 -17 6 -17 7 1
21 26 18 46 18 46 -1z"/>
<path d="M2067 5023 c-15 -15 -5 -22 23 -16 23 4 30 2 30 -11 0 -10 -8 -16
-24 -16 -32 0 -53 -26 -39 -48 7 -11 24 -17 52 -18 l41 0 0 46 c0 25 -5 51
-12 58 -13 13 -60 16 -71 5z m53 -73 c0 -13 -7 -20 -18 -20 -26 0 -34 11 -21
27 17 20 39 16 39 -7z"/>
<path d="M2190 5015 c-18 -22 -5 -45 30 -51 17 -4 30 -13 30 -21 0 -12 -8 -14
-37 -9 -35 6 -37 5 -19 -9 24 -18 48 -19 64 -3 23 23 14 47 -20 56 -39 10 -35
28 5 26 29 -2 36 10 11 20 -26 10 -51 7 -64 -9z"/>
<path d="M2390 4974 c0 -29 5 -56 10 -59 6 -4 10 12 10 40 0 38 4 48 20 52 30
8 24 20 -10 20 -30 0 -30 -1 -30 -53z"/>
<path d="M2486 5014 c-33 -33 -10 -104 33 -104 9 0 26 7 37 15 18 13 16 14
-21 12 -30 -2 -40 2 -43 16 -3 14 4 17 37 17 42 0 48 8 31 41 -13 23 -53 25
-74 3z m62 -21 c2 -9 -7 -13 -27 -13 -30 0 -39 9 -24 24 11 10 46 3 51 -11z"/>
<path d="M2600 4976 c0 -30 5 -58 10 -61 6 -4 10 17 10 54 0 34 -4 61 -10 61
-5 0 -10 -24 -10 -54z"/>
<path d="M5898 5004 c-8 -17 -9 -33 -2 -52 8 -23 15 -27 47 -26 40 1 49 -14
21 -37 -12 -10 -20 -10 -34 -1 -18 11 -36 2 -23 -12 11 -11 68 -7 81 6 7 7 12
40 12 78 l0 66 -45 2 c-40 1 -47 -2 -57 -24z m72 -9 c16 -19 -2 -65 -24 -65
-23 0 -39 36 -26 60 13 24 33 26 50 5z"/>
<path d="M6030 4998 c0 -70 22 -98 59 -78 12 6 22 5 29 -2 9 -9 12 3 12 50 0
35 -4 62 -10 62 -5 0 -10 -20 -10 -44 0 -31 -5 -46 -16 -50 -26 -10 -34 2 -34
50 0 32 -4 44 -15 44 -10 0 -15 -10 -15 -32z"/>
<path d="M6180 5015 c-10 -12 -6 -13 26 -8 29 5 36 3 32 -8 -3 -8 -18 -16 -34
-19 -24 -4 -29 -10 -29 -35 0 -29 2 -30 42 -30 l43 0 0 46 c0 25 -5 50 -12 57
-16 16 -53 15 -68 -3z m60 -60 c0 -19 -24 -29 -47 -20 -17 6 -17 7 1 21 26 18
46 18 46 -1z"/>
<path d="M6300 4968 c0 -37 4 -57 10 -53 6 3 10 24 10 47 0 31 4 41 20 45 30
8 24 20 -10 20 -30 0 -30 0 -30 -59z"/>
<path d="M6530 5014 c-20 -23 -16 -75 5 -90 24 -18 46 -18 71 1 18 13 16 14
-21 12 -30 -2 -40 2 -43 16 -3 14 4 17 37 17 34 0 41 3 41 20 0 36 -66 54 -90
24z m68 -21 c2 -9 -7 -13 -27 -13 -30 0 -39 9 -24 24 11 10 46 3 51 -11z"/>
<path d="M6650 4976 c0 -30 5 -58 10 -61 6 -4 10 17 10 54 0 34 -4 61 -10 61
-5 0 -10 -24 -10 -54z"/>
<path d="M10452 4798 c-35 -17 -26 -60 16 -74 49 -15 61 -32 38 -50 -25 -18
-31 -18 -50 1 -19 19 -26 19 -26 0 0 -31 85 -33 104 -2 15 24 -2 48 -44 62
-40 13 -47 27 -25 45 13 11 21 11 36 2 31 -19 46 -13 20 8 -26 22 -36 23 -69
8z"/>
<path d="M11350 4750 c0 -27 5 -50 10 -50 6 0 10 23 10 50 0 28 -4 50 -10 50
-5 0 -10 -22 -10 -50z"/>
<path d="M10870 4762 c-39 -12 -53 -68 -24 -96 16 -17 69 -22 78 -7 9 15 -6
20 -24 9 -14 -9 -22 -9 -34 1 -26 21 -19 31 22 31 46 0 55 6 41 31 -12 23 -39
38 -59 31z m38 -29 c5 -16 -22 -27 -44 -19 -13 5 -14 9 -4 22 15 17 41 15 48
-3z"/>
<path d="M10570 4716 c0 -52 12 -65 63 -63 l37 1 0 53 c0 29 -4 53 -10 53 -5
0 -10 -18 -10 -40 0 -28 -5 -42 -18 -49 -27 -14 -42 5 -42 51 0 21 -4 38 -10
38 -5 0 -10 -20 -10 -44z"/>
<path d="M10713 4734 c-15 -24 -15 -29 -2 -53 9 -15 25 -27 39 -29 28 -2 58
13 47 24 -3 4 -13 2 -20 -5 -32 -26 -68 19 -47 59 12 23 30 26 48 8 13 -13 27
-5 17 11 -13 22 -64 12 -82 -15z"/>
<path d="M10971 4747 c-13 -17 5 -44 34 -49 11 -2 21 -12 23 -22 4 -16 0 -18
-27 -13 -20 4 -30 3 -26 -3 9 -15 61 -12 75 5 16 19 0 40 -35 49 -14 4 -25 14
-25 22 0 13 7 15 30 10 19 -3 29 -2 25 4 -9 15 -61 12 -74 -3z"/>
<path d="M11094 4745 c-9 -23 3 -45 26 -45 21 0 38 -25 26 -38 -4 -3 -15 -1
-26 6 -18 11 -37 2 -23 -12 11 -10 58 -7 71 6 21 21 13 37 -20 46 -20 5 -34
16 -36 27 -4 15 1 17 27 12 20 -4 30 -3 26 3 -10 16 -65 12 -71 -5z"/>
<path d="M11224 4752 c-41 -26 -15 -102 34 -102 36 0 52 17 52 55 0 17 -5 36
-12 43 -13 13 -57 16 -74 4z m54 -14 c28 -28 3 -85 -32 -72 -16 6 -23 64 -9
77 10 11 28 8 41 -5z"/>
<path d="M933 4645 c0 -33 2 -45 4 -27 2 18 2 45 0 60 -2 15 -4 0 -4 -33z"/>
<path d="M2308 4645 c-1 -30 0 -55 5 -55 4 0 7 25 7 55 0 71 -7 71 -12 0z"/>
<path d="M2939 4680 c-3 -67 -2 -91 4 -97 4 -3 7 21 7 55 0 34 -2 62 -5 62 -3
0 -5 -9 -6 -20z"/>
<path d="M2710 4665 c1 -26 2 -28 11 -12 8 14 8 22 0 30 -8 8 -11 3 -11 -18z"/>
<path d="M3190 4670 c0 -5 5 -10 10 -10 6 0 10 5 10 10 0 6 -4 10 -10 10 -5 0
-10 -4 -10 -10z"/>
<path d="M1084 4659 c-3 -6 -2 -15 3 -20 5 -5 9 -1 9 11 0 23 -2 24 -12 9z"/>
<path d="M1173 4630 c0 -25 2 -35 4 -22 2 12 2 32 0 45 -2 12 -4 2 -4 -23z"/>
<path d="M1210 4654 c0 -8 5 -12 10 -9 6 3 10 10 10 16 0 5 -4 9 -10 9 -5 0
-10 -7 -10 -16z"/>
<path d="M1430 4650 c-8 -15 -8 -25 0 -38 11 -16 11 -16 6 1 -3 10 -1 27 4 38
6 10 8 19 6 19 -3 0 -10 -9 -16 -20z"/>
<path d="M1486 4657 c3 -10 9 -15 12 -12 3 3 0 11 -7 18 -10 9 -11 8 -5 -6z"/>
<path d="M1534 4659 c-3 -6 -2 -15 3 -20 5 -5 9 -1 9 11 0 23 -2 24 -12 9z"/>
<path d="M1742 4650 c0 -14 2 -19 5 -12 2 6 2 18 0 25 -3 6 -5 1 -5 -13z"/>
<path d="M1953 4630 c0 -25 2 -35 4 -22 2 12 2 32 0 45 -2 12 -4 2 -4 -23z"/>
<path d="M2104 4659 c-3 -6 -2 -15 3 -20 5 -5 9 -1 9 11 0 23 -2 24 -12 9z"/>
<path d="M2362 4658 c-7 -7 -11 -21 -11 -32 1 -21 1 -21 6 -1 3 11 10 26 15
33 13 15 6 16 -10 0z"/>
<path d="M2772 4639 c-1 -24 4 -41 16 -50 15 -12 15 -12 5 1 -6 8 -13 31 -16
50 l-4 35 -1 -36z"/>
<path d="M2833 4625 c0 -27 2 -38 4 -22 2 15 2 37 0 50 -2 12 -4 0 -4 -28z"/>
<path d="M2882 4658 c-14 -14 -16 -54 -3 -62 4 -3 6 6 3 19 -2 14 1 32 8 40
15 18 9 20 -8 3z"/>
<path d="M3037 4633 c5 -50 13 -55 13 -10 0 20 -4 38 -9 41 -4 3 -6 -11 -4
-31z"/>
<path d="M3080 4631 c0 -23 2 -41 4 -41 8 0 12 71 4 76 -4 3 -8 -13 -8 -35z"/>
<path d="M11350 4660 c0 -5 5 -10 10 -10 6 0 10 5 10 10 0 6 -4 10 -10 10 -5
0 -10 -4 -10 -10z"/>
<path d="M2247 4653 c-9 -9 -9 -51 1 -56 4 -3 7 10 7 29 0 19 0 34 -1 34 0 0
-4 -3 -7 -7z"/>
<path d="M1339 4648 c-6 -11 -3 -58 3 -58 4 0 8 14 8 30 0 25 -6 38 -11 28z"/>
<path d="M2419 4622 c-3 -20 -2 -29 4 -23 5 5 7 19 5 32 -3 20 -5 19 -9 -9z"/>
<path d="M5165 4601 c-9 -28 -21 -51 -26 -51 -5 0 -9 -5 -9 -11 0 -6 5 -9 12
-7 12 4 51 108 44 115 -2 3 -12 -18 -21 -46z"/>
<path d="M6307 4643 c-4 -3 -7 -31 -7 -61 0 -31 2 -53 4 -51 4 4 14 119 11
119 -1 0 -5 -3 -8 -7z"/>
<path d="M2511 4624 c0 -11 3 -14 6 -6 3 7 2 16 -1 19 -3 4 -6 -2 -5 -13z"/>
<path d="M3251 4624 c0 -11 3 -14 6 -6 3 7 2 16 -1 19 -3 4 -6 -2 -5 -13z"/>
<path d="M5101 4630 c0 -18 27 -79 28 -64 1 7 -6 27 -14 45 -8 19 -14 27 -14
19z"/>
<path d="M1212 4610 c0 -14 2 -19 5 -12 2 6 2 18 0 25 -3 6 -5 1 -5 -13z"/>
<path d="M1570 4626 c0 -2 8 -10 18 -17 15 -13 16 -12 3 4 -13 16 -21 21 -21
13z"/>
<path d="M2060 4610 c-6 -11 -8 -20 -6 -20 3 0 10 9 16 20 6 11 8 20 6 20 -3
0 -10 -9 -16 -20z"/>
<path d="M6190 4614 c0 -8 5 -12 10 -9 6 4 8 11 5 16 -9 14 -15 11 -15 -7z"/>
<path d="M1131 4604 c0 -11 3 -14 6 -6 3 7 2 16 -1 19 -3 4 -6 -2 -5 -13z"/>
<path d="M1280 4606 c0 -8 4 -17 9 -20 5 -4 7 3 4 14 -6 23 -13 26 -13 6z"/>
<path d="M1741 4604 c0 -11 3 -14 6 -6 3 7 2 16 -1 19 -3 4 -6 -2 -5 -13z"/>
<path d="M2153 4605 c0 -8 4 -12 9 -9 5 3 6 10 3 15 -9 13 -12 11 -12 -6z"/>
<path d="M2981 4604 c0 -11 3 -14 6 -6 3 7 2 16 -1 19 -3 4 -6 -2 -5 -13z"/>
<path d="M6662 4600 c0 -14 2 -19 5 -12 2 6 2 18 0 25 -3 6 -5 1 -5 -13z"/>
<path d="M5210 4590 c-6 -11 -8 -20 -6 -20 3 0 10 9 16 20 6 11 8 20 6 20 -3
0 -10 -9 -16 -20z"/>
<path d="M5571 4594 c0 -11 3 -14 6 -6 3 7 2 16 -1 19 -3 4 -6 -2 -5 -13z"/>
<path d="M5664 4596 c-3 -8 -4 -23 -2 -33 3 -11 6 -6 9 15 6 34 2 42 -7 18z"/>
<path d="M5760 4600 c0 -5 5 -10 10 -10 6 0 10 5 10 10 0 6 -4 10 -10 10 -5 0
-10 -4 -10 -10z"/>
<path d="M5884 4569 c0 -21 3 -39 8 -39 10 0 11 67 0 74 -4 2 -8 -13 -8 -35z"/>
<path d="M5983 4570 c0 -25 2 -35 4 -22 2 12 2 32 0 45 -2 12 -4 2 -4 -23z"/>
<path d="M6040 4567 c4 -41 5 -41 8 -8 2 18 0 37 -5 42 -5 5 -6 -11 -3 -34z"/>
<path d="M6084 4596 c-3 -8 -4 -23 -2 -33 3 -11 6 -6 9 15 6 34 2 42 -7 18z"/>
<path d="M6363 4570 c0 -25 2 -35 4 -22 2 12 2 32 0 45 -2 12 -4 2 -4 -23z"/>
<path d="M6554 4569 c0 -21 3 -39 8 -39 10 0 11 67 1 73 -5 3 -8 -13 -9 -34z"/>
<path d="M6600 4595 c0 -8 2 -15 4 -15 2 0 6 7 10 15 3 8 1 15 -4 15 -6 0 -10
-7 -10 -15z"/>
<path d="M6715 4599 c-4 -6 -5 -12 -2 -15 2 -3 7 2 10 11 7 17 1 20 -8 4z"/>
<path d="M6923 4570 c0 -25 2 -35 4 -22 2 12 2 32 0 45 -2 12 -4 2 -4 -23z"/>
<path d="M7061 4594 c0 -11 3 -14 6 -6 3 7 2 16 -1 19 -3 4 -6 -2 -5 -13z"/>
<path d="M7153 4570 c0 -25 2 -35 4 -22 2 12 2 32 0 45 -2 12 -4 2 -4 -23z"/>
<path d="M7190 4570 c0 -22 2 -40 4 -40 2 0 6 18 8 40 2 22 0 40 -4 40 -5 0
-8 -18 -8 -40z"/>
<path d="M7248 4570 c2 -22 6 -40 8 -40 2 0 4 18 4 40 0 22 -3 40 -8 40 -4 0
-6 -18 -4 -40z"/>
<path d="M7301 4594 c0 -11 3 -14 6 -6 3 7 2 16 -1 19 -3 4 -6 -2 -5 -13z"/>
<path d="M5721 4584 c0 -11 3 -14 6 -6 3 7 2 16 -1 19 -3 4 -6 -2 -5 -13z"/>
<path d="M6252 4575 c0 -16 2 -22 5 -12 2 9 2 23 0 30 -3 6 -5 -1 -5 -18z"/>
<path d="M5310 4571 c0 -11 4 -22 9 -25 4 -3 6 6 3 19 -5 30 -12 33 -12 6z"/>
<path d="M5410 4571 c0 -25 6 -27 13 -6 4 8 2 17 -3 20 -6 4 -10 -3 -10 -14z"/>
<path d="M6151 4574 c0 -11 3 -14 6 -6 3 7 2 16 -1 19 -3 4 -6 -2 -5 -13z"/>
<path d="M6400 4566 c0 -14 4 -27 8 -30 5 -3 6 8 4 25 -5 35 -12 38 -12 5z"/>
<path d="M5616 4557 c3 -10 9 -15 12 -12 3 3 0 11 -7 18 -10 9 -11 8 -5 -6z"/>
<path d="M5832 4550 c0 -14 2 -19 5 -12 2 6 2 18 0 25 -3 6 -5 1 -5 -13z"/>
<path d="M6502 4550 c0 -14 2 -19 5 -12 2 6 2 18 0 25 -3 6 -5 1 -5 -13z"/>
<path d="M6600 4556 c0 -8 4 -17 9 -20 5 -4 7 3 4 14 -6 23 -13 26 -13 6z"/>
<path d="M6662 4550 c0 -14 2 -19 5 -12 2 6 2 18 0 25 -3 6 -5 1 -5 -13z"/>
<path d="M6710 4550 c6 -11 13 -20 16 -20 2 0 0 9 -6 20 -6 11 -13 20 -16 20
-2 0 0 -9 6 -20z"/>
<path d="M7106 4557 c3 -10 9 -15 12 -12 3 3 0 11 -7 18 -10 9 -11 8 -5 -6z"/>
<path d="M7302 4550 c0 -14 2 -19 5 -12 2 6 2 18 0 25 -3 6 -5 1 -5 -13z"/>
<path d="M5210 4551 c0 -6 4 -13 10 -16 6 -3 7 1 4 9 -7 18 -14 21 -14 7z"/>
<path d="M1741 4433 c1 -32 4 -48 6 -35 4 21 43 34 43 14 0 -5 7 -17 15 -28
14 -18 14 -17 3 9 -9 21 -9 30 0 39 7 7 12 19 11 28 0 9 -4 6 -9 -7 -6 -16
-18 -23 -36 -23 -24 0 -26 3 -22 30 3 17 1 30 -4 30 -4 0 -7 -26 -7 -57z"/>
<path d="M2761 4449 c-7 -22 -15 -48 -17 -58 -4 -10 -1 -9 7 4 7 11 14 25 15
31 1 6 5 22 9 34 6 18 9 20 17 9 8 -12 9 -12 6 0 -8 30 -25 20 -37 -20z"/>
<path d="M2863 4430 c0 -36 2 -50 4 -32 2 17 2 47 0 65 -2 17 -4 3 -4 -33z"/>
<path d="M2198 4468 c-8 -22 7 -91 20 -94 7 -1 8 0 2 3 -12 6 -13 70 -1 75 5
2 3 8 -4 15 -10 9 -15 9 -17 1z"/>
<path d="M1025 4450 c-3 -6 1 -7 9 -4 18 7 21 14 7 14 -6 0 -13 -4 -16 -10z"/>
<path d="M1182 4448 c-15 -15 -15 -51 0 -66 14 -14 44 -16 52 -4 2 4 -8 8 -22
7 -23 0 -27 4 -27 30 0 26 4 30 27 30 14 -1 24 3 22 7 -8 12 -38 10 -52 -4z"/>
<path d="M1277 4453 c-9 -8 -9 -46 -1 -67 3 -9 17 -16 30 -16 47 0 58 75 13
88 -8 2 -5 -2 5 -10 27 -21 15 -71 -17 -66 -26 4 -37 55 -15 69 7 5 8 9 2 9
-6 0 -14 -3 -17 -7z"/>
<path d="M1383 4415 c0 -27 2 -38 4 -22 2 15 2 37 0 50 -2 12 -4 0 -4 -28z"/>
<path d="M1428 4421 c5 -56 9 -60 13 -14 3 25 0 44 -6 47 -7 2 -9 -10 -7 -33z"/>
<path d="M1477 4449 c6 -8 13 -27 16 -44 4 -23 4 -20 3 9 -1 25 -6 41 -16 44
-12 4 -13 2 -3 -9z"/>
<path d="M1585 4449 c-11 -16 -1 -19 13 -3 7 8 8 14 3 14 -5 0 -13 -5 -16 -11z"/>
<path d="M1620 4456 c0 -2 7 -7 16 -10 8 -3 12 -2 9 4 -6 10 -25 14 -25 6z"/>
<path d="M1855 4450 c-3 -6 1 -7 9 -4 18 7 21 14 7 14 -6 0 -13 -4 -16 -10z"/>
<path d="M1954 4433 c-8 -31 6 -57 32 -60 15 -2 14 -1 -3 7 -25 10 -31 48 -11
68 9 9 9 12 0 12 -6 0 -15 -12 -18 -27z"/>
<path d="M2005 4446 c12 -9 16 -20 12 -37 -3 -13 -2 -31 3 -39 7 -11 10 0 10
35 0 45 -3 51 -21 52 -20 2 -20 1 -4 -11z"/>
<path d="M2063 4415 c0 -27 2 -38 4 -22 2 15 2 37 0 50 -2 12 -4 0 -4 -28z"/>
<path d="M2107 4453 c-15 -14 -6 -33 18 -39 35 -9 34 -38 -1 -31 -16 3 -22 1
-16 -5 15 -15 46 -5 50 15 2 11 -6 20 -23 27 -18 7 -25 15 -21 25 6 16 3 19
-7 8z"/>
<path d="M2263 4420 c0 -25 2 -35 4 -22 2 12 2 32 0 45 -2 12 -4 2 -4 -23z"/>
<path d="M2325 4449 c-11 -16 -1 -19 13 -3 7 8 8 14 3 14 -5 0 -13 -5 -16 -11z"/>
<path d="M2360 4456 c0 -2 7 -7 16 -10 8 -3 12 -2 9 4 -6 10 -25 14 -25 6z"/>
<path d="M2485 4450 c-3 -6 1 -7 9 -4 18 7 21 14 7 14 -6 0 -13 -4 -16 -10z"/>
<path d="M2596 4451 c-3 -4 6 -6 19 -3 14 2 25 6 25 8 0 8 -39 4 -44 -5z"/>
<path d="M2904 4420 c1 -40 4 -45 26 -47 22 -2 23 -2 5 6 -13 5 -22 21 -26 47
l-7 39 2 -45z"/>
<path d="M2963 4415 c0 -27 2 -38 4 -22 2 15 2 37 0 50 -2 12 -4 0 -4 -28z"/>
<path d="M3000 4415 c0 -27 2 -46 4 -44 8 8 10 78 3 85 -4 4 -7 -14 -7 -41z"/>
<path d="M3030 4456 c0 -2 9 -6 20 -9 11 -3 18 -1 14 4 -5 9 -34 13 -34 5z"/>
<path d="M3115 4450 c-3 -6 1 -7 9 -4 18 7 21 14 7 14 -6 0 -13 -4 -16 -10z"/>
<path d="M1910 4434 c0 -12 -7 -15 -30 -12 -16 3 -30 1 -30 -4 0 -4 16 -8 35
-8 28 0 35 4 35 20 0 11 -2 20 -5 20 -3 0 -5 -7 -5 -16z"/>
<path d="M2800 4439 c0 -9 7 -30 15 -45 19 -37 19 -17 0 27 -8 19 -14 27 -15
18z"/>
<path d="M1080 4429 c0 -7 -12 -10 -30 -7 -16 3 -30 1 -30 -4 0 -4 16 -8 35
-8 24 0 35 5 35 15 0 8 -2 15 -5 15 -3 0 -5 -5 -5 -11z"/>
<path d="M2650 4432 c0 -7 -17 -13 -37 -14 l-38 -1 34 -4 c33 -4 61 10 48 24
-4 3 -7 1 -7 -5z"/>
<path d="M6738 4384 c-1 -31 0 -58 5 -61 4 -2 7 23 7 56 0 76 -7 79 -12 5z"/>
<path d="M2471 4414 c0 -11 3 -14 6 -6 3 7 2 16 -1 19 -3 4 -6 -2 -5 -13z"/>
<path d="M10170 4410 c-18 -12 -2 -12 25 0 13 6 15 9 5 9 -8 0 -22 -4 -30 -9z"/>
<path d="M2541 4394 c0 -11 3 -14 6 -6 3 7 2 16 -1 19 -3 4 -6 -2 -5 -13z"/>
<path d="M5112 4398 c-25 -25 -8 -89 23 -88 5 0 2 5 -7 11 -11 6 -18 22 -18
39 0 17 7 33 18 39 9 6 12 11 7 11 -6 0 -16 -5 -23 -12z"/>
<path d="M5341 4407 c2 -1 13 -9 24 -17 19 -14 19 -14 6 3 -7 9 -18 17 -24 17
-6 0 -8 -1 -6 -3z"/>
<path d="M5832 4360 c1 -40 2 -41 5 -10 2 19 11 40 20 47 13 10 13 12 -6 10
-18 -1 -21 -7 -19 -47z"/>
<path d="M5932 4398 c9 -7 18 -20 21 -28 4 -10 6 -8 6 6 1 12 -6 25 -15 28
-25 9 -29 7 -12 -6z"/>
<path d="M6319 4393 c-13 -17 -13 -17 6 -3 11 8 22 16 24 17 2 2 0 3 -6 3 -6
0 -17 -8 -24 -17z"/>
<path d="M7020 4406 c0 -2 7 -7 16 -10 8 -3 12 -2 9 4 -6 10 -25 14 -25 6z"/>
<path d="M7105 4400 c-3 -6 1 -7 9 -4 18 7 21 14 7 14 -6 0 -13 -4 -16 -10z"/>
<path d="M7238 4394 c25 -18 29 -46 7 -64 -26 -22 -48 -4 -43 35 2 20 0 31 -5
26 -14 -14 -4 -63 15 -75 20 -12 58 17 58 45 0 20 -25 49 -43 49 -6 0 -1 -7
11 -16z"/>
<path d="M1023 4390 c4 -18 45 -26 59 -12 6 6 0 8 -17 4 -17 -3 -31 1 -37 9
-8 12 -9 11 -5 -1z"/>
<path d="M2380 4392 c0 -7 -10 -13 -22 -13 -19 -1 -20 -2 -4 -6 20 -5 44 12
33 24 -4 3 -7 1 -7 -5z"/>
<path d="M5160 4380 c8 -14 8 -26 0 -40 -9 -16 -8 -20 5 -20 11 0 15 11 15 40
0 29 -4 40 -15 40 -13 0 -14 -4 -5 -20z"/>
<path d="M5212 4364 c-2 -31 2 -44 14 -48 13 -5 14 -3 6 6 -6 7 -12 29 -15 48
-4 34 -4 34 -5 -6z"/>
<path d="M5273 4360 c0 -25 2 -35 4 -22 2 12 2 32 0 45 -2 12 -4 2 -4 -23z"/>
<path d="M5317 4393 c-9 -9 -9 -61 1 -66 4 -3 7 12 7 34 0 21 0 39 -1 39 0 0
-4 -3 -7 -7z"/>
<path d="M5525 4360 c0 -22 3 -40 8 -40 4 0 7 18 7 40 0 22 -3 40 -7 40 -5 0
-8 -18 -8 -40z"/>
<path d="M5734 4379 c0 -10 4 -19 8 -19 4 0 8 6 8 14 0 8 -4 17 -8 20 -4 2 -8
-4 -8 -15z"/>
<path d="M5897 4393 c-9 -9 -9 -61 1 -66 4 -3 7 12 7 34 0 21 0 39 -1 39 0 0
-4 -3 -7 -7z"/>
<path d="M5997 4393 c-10 -9 -9 -61 1 -67 4 -2 7 13 7 35 0 21 0 39 -1 39 0 0
-4 -3 -7 -7z"/>
<path d="M6097 4393 c-4 -3 -7 -18 -7 -31 0 -32 11 -23 14 12 3 28 3 30 -7 19z"/>
<path d="M6200 4360 c0 -22 2 -40 4 -40 2 0 6 18 8 40 2 22 0 40 -4 40 -5 0
-8 -18 -8 -40z"/>
<path d="M6364 4379 c0 -10 4 -19 8 -19 4 0 8 6 8 14 0 8 -4 17 -8 20 -4 2 -8
-4 -8 -15z"/>
<path d="M6410 4360 c0 -22 2 -40 4 -40 2 0 6 18 8 40 2 22 0 40 -4 40 -5 0
-8 -18 -8 -40z"/>
<path d="M6580 4385 c0 -8 -6 -15 -12 -15 -9 0 -9 -3 1 -9 8 -5 11 -16 8 -25
-4 -9 -2 -16 3 -16 6 0 10 18 10 40 0 22 -2 40 -5 40 -3 0 -5 -7 -5 -15z"/>
<path d="M6677 4393 c-21 -21 6 -83 36 -83 6 0 1 7 -12 16 -18 13 -22 23 -17
45 6 30 4 34 -7 22z"/>
<path d="M6785 4380 c-14 -45 28 -87 60 -60 16 13 21 65 7 74 -4 2 -6 -11 -4
-30 3 -24 0 -35 -12 -40 -26 -10 -49 16 -42 48 6 32 0 38 -9 8z"/>
<path d="M6995 4389 c-4 -6 -5 -12 -2 -15 2 -3 7 2 10 11 7 17 1 20 -8 4z"/>
<path d="M7146 4386 c4 -10 1 -16 -7 -16 -12 0 -12 -2 0 -9 8 -5 11 -16 8 -25
-4 -9 -2 -16 3 -16 13 0 13 67 0 75 -6 3 -7 -1 -4 -9z"/>
<path d="M1615 4380 l-30 -8 27 -1 c15 0 30 4 33 9 3 6 5 9 3 9 -2 -1 -16 -5
-33 -9z"/>
<path d="M1885 4380 l-30 -8 27 -1 c15 0 30 4 33 9 3 6 5 9 3 9 -2 -1 -16 -5
-33 -9z"/>
<path d="M2488 4378 c6 -6 18 -8 28 -6 14 3 12 5 -9 10 -19 3 -25 2 -19 -4z"/>
<path d="M2597 4378 c2 -5 15 -8 28 -8 13 0 26 3 28 8 3 4 -10 7 -28 7 -18 0
-31 -3 -28 -7z"/>
<path d="M3119 4377 c5 -5 19 -7 32 -5 20 3 19 5 -9 9 -20 3 -29 2 -23 -4z"/>
<path d="M5675 4379 c-21 -33 32 -87 59 -59 8 8 7 10 -7 4 -24 -9 -48 14 -43
42 5 26 1 31 -9 13z"/>
<path d="M5462 4360 c0 -14 2 -19 5 -12 2 6 2 18 0 25 -3 6 -5 1 -5 -13z"/>
<path d="M10327 4345 c2 -26 -1 -37 -12 -42 -24 -8 -44 15 -25 28 13 9 13 10
0 6 -8 -2 -15 -12 -15 -23 0 -15 7 -19 33 -20 31 -1 32 0 32 43 0 23 -4 43 -9
43 -4 0 -6 -16 -4 -35z"/>
<path d="M10374 4368 c-8 -12 22 -38 44 -38 7 0 12 -6 9 -12 -2 -7 -17 -12
-32 -11 -20 2 -25 -1 -17 -9 15 -15 62 -1 62 18 0 8 -14 20 -31 26 -19 7 -28
15 -25 24 6 17 0 18 -10 2z"/>
<path d="M10470 4365 c-29 -35 21 -93 55 -65 16 13 21 65 8 73 -5 3 -8 -11 -8
-31 0 -30 -4 -37 -19 -37 -28 0 -44 30 -28 55 14 23 10 27 -8 5z"/>
<path d="M10680 4373 c0 -4 5 -15 10 -23 8 -13 10 -13 10 2 0 9 -4 20 -10 23
-5 3 -10 3 -10 -2z"/>
<path d="M10842 4368 c-15 -15 -16 -52 -1 -43 6 4 8 13 5 20 -2 7 1 18 7 24 6
6 9 11 6 11 -3 0 -10 -5 -17 -12z"/>
<path d="M10889 4367 c6 -8 8 -17 4 -20 -3 -4 -1 -7 5 -7 14 0 14 2 6 24 -3 9
-11 16 -16 16 -7 0 -6 -5 1 -13z"/>
<path d="M10943 4335 c0 -27 2 -38 4 -22 2 15 2 37 0 50 -2 12 -4 0 -4 -28z"/>
<path d="M10982 4333 c1 -48 1 -48 5 -8 3 22 10 43 16 47 8 5 6 8 -5 8 -15 0
-18 -8 -16 -47z"/>
<path d="M11097 4345 c2 -26 -1 -37 -12 -42 -24 -8 -44 15 -25 28 13 9 13 10
0 6 -8 -2 -15 -12 -15 -23 0 -15 7 -19 33 -20 31 -1 32 0 32 43 0 23 -4 43 -9
43 -4 0 -6 -16 -4 -35z"/>
<path d="M11299 4367 c6 -8 8 -17 4 -20 -3 -4 -1 -7 5 -7 14 0 14 2 6 24 -3 9
-11 16 -16 16 -7 0 -6 -5 1 -13z"/>
<path d="M11351 4364 c0 -11 3 -14 6 -6 3 7 2 16 -1 19 -3 4 -6 -2 -5 -13z"/>
<path d="M11647 4359 c4 -13 8 -18 11 -10 2 7 -1 18 -6 23 -8 8 -9 4 -5 -13z"/>
<path d="M6938 4363 c7 -3 16 -2 19 1 4 3 -2 6 -13 5 -11 0 -14 -3 -6 -6z"/>
<path d="M6525 4350 c-8 -12 12 -40 28 -40 6 0 3 6 -8 13 -10 8 -15 19 -11 25
4 7 5 12 2 12 -3 0 -8 -5 -11 -10z"/>
<path d="M7090 4349 c0 -5 5 -7 10 -4 6 3 10 8 10 11 0 2 -4 4 -10 4 -5 0 -10
-5 -10 -11z"/>
<path d="M11240 4339 c0 -14 5 -30 12 -37 14 -14 44 -16 52 -4 2 4 -7 8 -22 7
-21 0 -27 5 -28 23 -2 31 -14 41 -14 11z"/>
<path d="M1967 4338 c2 -5 13 -8 23 -8 10 0 21 3 23 8 3 4 -8 7 -23 7 -15 0
-26 -3 -23 -7z"/>
<path d="M5626 4335 c-3 -8 -1 -15 4 -15 6 0 10 7 10 15 0 8 -2 15 -4 15 -2 0
-6 -7 -10 -15z"/>
<path d="M6990 4343 c0 -5 8 -17 19 -27 16 -15 19 -15 31 -1 11 13 10 14 -5 9
-12 -5 -23 -1 -31 11 -8 10 -14 14 -14 8z"/>
<path d="M5580 4331 c0 -5 7 -12 16 -15 14 -5 15 -4 4 9 -14 17 -20 19 -20 6z"/>
<path d="M6036 4324 c-11 -8 -16 -14 -10 -14 13 0 39 18 34 24 -3 2 -14 -2
-24 -10z"/>
<path d="M6246 4325 c-11 -8 -15 -15 -9 -15 6 0 16 7 23 15 16 19 11 19 -14 0z"/>
<path d="M6319 4328 c15 -20 36 -23 46 -8 3 6 -1 7 -10 4 -8 -4 -23 0 -33 7
-15 13 -16 12 -3 -3z"/>
<path d="M10152 4325 c5 -29 54 -44 73 -22 8 9 10 12 3 7 -20 -17 -46 -11 -63
13 -15 20 -16 20 -13 2z"/>
<path d="M5350 4320 c-8 -5 -10 -10 -5 -10 6 0 17 5 25 10 8 5 11 10 5 10 -5
0 -17 -5 -25 -10z"/>
<path d="M5480 4320 c8 -5 20 -10 25 -10 6 0 3 5 -5 10 -8 5 -19 10 -25 10 -5
0 -3 -5 5 -10z"/>
<path d="M5930 4320 c-8 -5 -10 -10 -5 -10 6 0 17 5 25 10 8 5 11 10 5 10 -5
0 -17 -5 -25 -10z"/>
<path d="M6110 4320 c8 -5 20 -10 25 -10 6 0 3 5 -5 10 -8 5 -19 10 -25 10 -5
0 -3 -5 5 -10z"/>
<path d="M7098 4318 c5 -5 16 -8 23 -6 8 3 3 7 -10 11 -17 4 -21 3 -13 -5z"/>
<path d="M10620 4324 c0 -17 27 -37 42 -31 8 4 7 6 -4 6 -9 1 -22 9 -27 19 -6
9 -11 12 -11 6z"/>
<path d="M10686 4315 c-3 -8 -1 -15 4 -15 6 0 10 7 10 15 0 8 -2 15 -4 15 -2
0 -6 -7 -10 -15z"/>
<path d="M10786 4315 c-3 -8 -1 -15 4 -15 6 0 10 7 10 15 0 8 -2 15 -4 15 -2
0 -6 -7 -10 -15z"/>
<path d="M11599 4308 c14 -19 46 -24 55 -9 4 5 -3 7 -14 4 -11 -3 -28 1 -38 8
-15 13 -16 12 -3 -3z"/>
<path d="M10747 4299 c7 -7 15 -10 18 -7 3 3 -2 9 -12 12 -14 6 -15 5 -6 -5z"/>
<path d="M10847 4298 c2 -5 13 -8 23 -8 10 0 21 3 23 8 3 4 -8 7 -23 7 -15 0
-26 -3 -23 -7z"/>
<path d="M2650 4262 c0 -15 -7 -18 -32 -16 l-33 3 30 -7 c25 -6 30 -12 31 -39
1 -61 14 -46 14 15 0 34 -2 62 -5 62 -3 0 -5 -8 -5 -18z"/>
<path d="M2860 4262 c0 -13 -8 -17 -32 -17 -29 0 -33 -4 -36 -28 -4 -32 13
-57 37 -56 10 0 8 3 -7 10 -29 11 -28 62 2 67 23 5 38 -16 31 -45 -3 -12 -1
-25 5 -28 6 -4 10 16 10 54 0 34 -2 61 -5 61 -3 0 -5 -8 -5 -18z"/>
<path d="M1865 4250 c-3 -5 1 -10 9 -10 9 0 16 5 16 10 0 6 -4 10 -9 10 -6 0
-13 -4 -16 -10z"/>
<path d="M1033 4243 c9 -2 23 -2 30 0 6 3 -1 5 -18 5 -16 0 -22 -2 -12 -5z"/>
<path d="M1117 4243 c-3 -5 10 -8 28 -8 18 0 31 3 28 8 -2 4 -15 7 -28 7 -13
0 -26 -3 -28 -7z"/>
<path d="M1212 4223 c-3 -41 6 -63 26 -63 14 0 14 1 -1 13 -9 6 -18 28 -20 47
l-4 35 -1 -32z"/>
<path d="M1273 4205 c0 -27 2 -38 4 -22 2 15 2 37 0 50 -2 12 -4 0 -4 -28z"/>
<path d="M1372 4238 c-27 -27 -7 -78 29 -78 10 0 20 4 23 8 2 4 -8 8 -22 7
-23 0 -27 4 -27 30 0 26 4 30 28 30 15 -1 27 3 27 7 0 12 -45 9 -58 -4z"/>
<path d="M1466 4242 c-3 -4 8 -6 24 -4 27 4 28 2 27 -29 -2 -27 -7 -35 -24
-37 -26 -4 -33 24 -8 31 11 4 10 4 -2 3 -11 -1 -18 -9 -18 -21 0 -16 7 -20 33
-21 33 -1 33 0 30 40 -3 36 -6 41 -30 44 -14 2 -29 -1 -32 -6z"/>
<path d="M1564 4223 c-8 -31 6 -57 32 -60 14 -2 13 0 -4 7 -18 7 -23 16 -20
37 4 34 36 43 55 17 11 -15 13 -15 13 -2 0 17 -20 28 -51 28 -12 0 -21 -9 -25
-27z"/>
<path d="M1707 4243 c17 -3 21 -11 20 -36 -2 -25 -7 -33 -24 -35 -26 -4 -33
24 -8 31 11 4 10 4 -2 3 -11 -1 -18 -9 -18 -21 0 -16 7 -20 33 -21 33 -1 33 0
30 40 -3 36 -6 41 -28 42 -20 1 -21 0 -3 -3z"/>
<path d="M1793 4243 c9 -2 23 -2 30 0 6 3 -1 5 -18 5 -16 0 -22 -2 -12 -5z"/>
<path d="M1932 4200 c1 -40 2 -41 5 -10 2 19 11 40 20 47 13 10 13 12 -6 10
-18 -1 -21 -7 -19 -47z"/>
<path d="M1994 4223 c-9 -33 7 -58 36 -58 29 0 45 25 36 58 -5 22 -12 27 -36
27 -24 0 -31 -5 -36 -27z m61 -18 c0 -25 -4 -30 -25 -30 -16 0 -26 6 -28 18
-6 30 6 49 30 45 18 -2 23 -9 23 -33z"/>
<path d="M2150 4229 c-17 -31 2 -69 34 -69 14 0 27 4 30 8 3 5 -8 7 -23 4 -19
-3 -30 1 -34 12 -5 12 0 16 16 17 17 1 18 2 5 6 -27 7 -22 33 6 33 17 0 26 -7
29 -22 5 -20 5 -20 4 2 -3 35 -50 41 -67 9z"/>
<path d="M2301 4240 c0 -8 4 -22 9 -30 12 -18 12 -2 0 25 -6 13 -9 15 -9 5z"/>
<path d="M2356 4235 c-9 -26 -7 -32 5 -12 6 10 9 21 6 23 -2 3 -7 -2 -11 -11z"/>
<path d="M2407 4243 c-3 -5 8 -8 23 -8 15 0 26 3 23 8 -2 4 -13 7 -23 7 -10 0
-21 -3 -23 -7z"/>
<path d="M2543 4210 c0 -25 2 -35 4 -22 2 12 2 32 0 45 -2 12 -4 2 -4 -23z"/>
<path d="M2696 4242 c-3 -4 8 -6 24 -4 28 4 29 3 26 -32 -1 -21 2 -39 6 -42 5
-3 8 14 6 38 -3 38 -6 43 -30 46 -14 2 -29 -1 -32 -6z"/>
<path d="M2907 4243 c-4 -3 -7 -21 -7 -39 0 -28 4 -35 27 -40 41 -11 71 44 41
74 -13 13 -50 16 -61 5z m58 -14 c4 -5 4 -21 1 -35 -5 -19 -12 -25 -29 -22
-37 5 -36 68 2 68 11 0 23 -5 26 -11z"/>
<path d="M3060 4233 c0 -14 2 -15 9 -4 5 8 18 12 30 8 12 -3 21 -1 21 4 0 5
-13 9 -30 9 -22 0 -30 -5 -30 -17z"/>
<path d="M3165 4239 c-4 -6 -4 -13 -1 -16 3 -4 6 -1 6 6 0 9 10 12 29 9 17 -2
28 -1 25 4 -7 12 -52 10 -59 -3z"/>
<path d="M5164 4170 c-12 -33 -17 -60 -13 -60 5 0 9 7 9 15 0 22 56 20 69 -2
15 -26 13 -10 -4 28 -8 19 -14 26 -15 17 0 -11 -8 -18 -21 -18 -16 0 -19 4
-14 23 9 28 25 46 25 27 0 -7 2 -11 5 -8 7 6 -5 38 -14 38 -3 0 -15 -27 -27
-60z"/>
<path d="M6870 4170 c0 -35 2 -61 5 -58 8 7 9 108 1 115 -3 3 -6 -22 -6 -57z"/>
<path d="M1780 4215 c0 -2 14 -10 31 -19 23 -12 28 -12 20 -2 -11 12 -51 29
-51 21z"/>
<path d="M3122 4190 c0 -19 2 -27 5 -17 2 9 2 25 0 35 -3 9 -5 1 -5 -18z"/>
<path d="M1053 4204 c9 -3 17 -12 17 -19 0 -8 -8 -15 -17 -18 -14 -3 -13 -4 2
-3 13 1 20 8 20 21 0 12 -7 20 -20 22 -16 1 -16 1 -2 -3z"/>
<path d="M2694 4195 c-8 -19 4 -35 24 -34 15 1 15 2 0 6 -10 2 -18 11 -18 18
0 7 8 16 18 18 16 4 16 5 -1 6 -10 0 -20 -6 -23 -14z"/>
<path d="M1626 4185 c-3 -8 -1 -15 4 -15 6 0 10 7 10 15 0 8 -2 15 -4 15 -2 0
-6 -7 -10 -15z"/>
<path d="M2340 4191 c0 -7 -4 -9 -10 -6 -5 3 -10 2 -10 -4 0 -5 4 -12 9 -15
10 -6 25 24 16 32 -3 3 -5 0 -5 -7z"/>
<path d="M2580 4194 c0 -17 27 -37 42 -31 8 4 7 6 -4 6 -9 1 -22 9 -27 19 -6
9 -11 12 -11 6z"/>
<path d="M5279 4183 c-12 -16 -12 -17 1 -7 8 6 22 14 30 17 13 5 12 6 -1 6 -9
1 -23 -7 -30 -16z"/>
<path d="M5395 4190 c-3 -6 1 -7 10 -4 8 4 23 0 33 -7 15 -13 16 -12 3 4 -15
19 -36 22 -46 7z"/>
<path d="M5562 4191 c-9 -5 -4 -8 16 -7 17 1 28 4 25 9 -6 9 -25 9 -41 -2z"/>
<path d="M5712 4188 c-14 -14 -16 -64 -3 -72 5 -4 7 3 4 14 -5 17 0 20 26 20
19 0 31 5 31 13 0 16 -20 37 -35 37 -6 0 -16 -5 -23 -12z m46 -15 c2 -8 -6
-13 -22 -13 -25 0 -33 10 -19 24 10 10 36 3 41 -11z"/>
<path d="M5863 4193 c-23 -9 -14 -34 16 -44 22 -8 28 -15 24 -27 -5 -14 -4
-15 8 -4 12 11 11 15 -5 28 -11 8 -26 14 -34 14 -7 0 -12 6 -9 13 2 6 13 12
25 11 12 0 19 3 16 8 -6 9 -22 9 -41 1z"/>
<path d="M5952 4188 c-17 -17 -15 -54 4 -72 22 -23 31 -20 10 3 -26 29 -17 66
16 66 14 -1 24 3 22 7 -8 12 -38 10 -52 -4z"/>
<path d="M6120 4196 c0 -2 9 -6 20 -9 11 -3 18 -1 14 4 -5 9 -34 13 -34 5z"/>
<path d="M6209 4183 c-13 -16 -12 -17 3 -4 10 7 25 11 33 7 9 -3 13 -2 10 4
-10 15 -31 12 -46 -7z"/>
<path d="M6309 4183 c-13 -15 -12 -15 8 -3 18 12 24 12 40 -1 16 -13 17 -13 4
4 -17 21 -35 22 -52 0z"/>
<path d="M6443 4189 c11 -6 18 -23 18 -47 l2 -37 6 40 c5 30 2 42 -9 47 -24
10 -37 9 -17 -3z"/>
<path d="M6503 4189 c11 -6 18 -24 19 -47 l1 -37 4 33 c4 34 -10 62 -31 62 -6
0 -3 -5 7 -11z"/>
<path d="M6560 4135 c0 -38 2 -66 4 -64 8 7 10 118 3 126 -4 3 -7 -24 -7 -62z"/>
<path d="M6608 4184 c24 -17 29 -43 10 -62 -9 -9 -9 -12 0 -12 17 0 25 45 12
69 -6 12 -18 21 -28 21 -13 0 -12 -3 6 -16z"/>
<path d="M6676 4192 c-3 -5 6 -7 19 -4 29 5 36 -24 8 -31 -16 -4 -16 -5 -1 -6
9 0 19 -11 21 -23 3 -13 4 -3 3 22 -1 38 -4 45 -23 48 -11 2 -24 -1 -27 -6z"/>
<path d="M6790 4196 c0 -2 9 -6 20 -9 11 -3 18 -1 14 4 -5 9 -34 13 -34 5z"/>
<path d="M6913 4189 c11 -6 18 -24 19 -47 l1 -37 4 33 c4 34 -10 62 -31 62 -6
0 -3 -5 7 -11z"/>
<path d="M6986 4191 c-4 -5 3 -7 14 -4 23 6 26 13 6 13 -8 0 -17 -4 -20 -9z"/>
<path d="M7202 4188 c-13 -13 -16 -64 -4 -71 4 -3 7 11 7 31 0 30 4 37 19 37
29 0 44 -30 27 -57 -13 -21 -13 -22 2 -9 21 17 22 45 1 65 -19 19 -36 20 -52
4z"/>
<path d="M3169 4178 c14 -19 46 -24 55 -9 4 5 -3 7 -14 4 -11 -3 -28 1 -38 8
-15 13 -16 12 -3 -3z"/>
<path d="M5331 4174 c0 -11 3 -14 6 -6 3 7 2 16 -1 19 -3 4 -6 -2 -5 -13z"/>
<path d="M5480 4150 c0 -22 2 -40 4 -40 2 0 6 18 8 40 2 22 0 40 -4 40 -5 0
-8 -18 -8 -40z"/>
<path d="M1150 4170 c-23 -7 -23 -8 -3 -9 12 -1 25 4 28 9 3 6 5 10 3 9 -2 -1
-14 -5 -28 -9z"/>
<path d="M1779 4167 c5 -5 19 -7 32 -5 20 3 19 5 -9 9 -20 3 -29 2 -23 -4z"/>
<path d="M7030 4171 c0 -5 -8 -12 -17 -14 -16 -4 -16 -5 1 -6 13 -1 17 -6 13
-21 -3 -11 -1 -20 4 -20 5 0 9 16 9 35 0 19 -2 35 -5 35 -3 0 -5 -4 -5 -9z"/>
<path d="M10267 4169 c6 -8 13 -30 15 -49 l3 -35 6 38 c4 32 2 40 -15 49 -18
10 -19 9 -9 -3z"/>
<path d="M10323 4169 c11 -7 18 -24 19 -52 l1 -42 4 38 c4 38 -9 67 -31 67 -6
0 -3 -5 7 -11z"/>
<path d="M10395 4170 c-3 -6 1 -7 9 -4 18 7 21 14 7 14 -6 0 -13 -4 -16 -10z"/>
<path d="M10560 4176 c0 -3 9 -10 20 -16 11 -6 20 -8 20 -6 0 3 -9 10 -20 16
-11 6 -20 8 -20 6z"/>
<path d="M10628 4168 c5 -7 12 -24 15 -38 4 -22 4 -21 6 6 1 21 -5 34 -15 38
-13 5 -14 3 -6 -6z"/>
<path d="M11021 4170 c9 -5 16 -23 17 -41 1 -47 12 -49 12 -2 0 28 -5 43 -16
47 -23 9 -31 7 -13 -4z"/>
<path d="M11095 4164 c-19 -20 -16 -66 5 -72 12 -4 13 -2 3 9 -18 18 -16 39 4
61 20 22 10 24 -12 2z"/>
<path d="M11208 4169 c-18 -10 -25 -63 -10 -73 4 -2 6 10 4 28 -4 38 19 55 47
34 14 -12 14 -11 2 5 -15 20 -19 20 -43 6z"/>
<path d="M11337 4170 c6 -8 13 -31 16 -50 l4 -35 1 36 c1 24 -4 41 -15 50 -16
12 -16 12 -6 -1z"/>
<path d="M2408 4163 c6 -2 18 -2 25 0 6 3 1 5 -13 5 -14 0 -19 -2 -12 -5z"/>
<path d="M5371 4154 c0 -11 3 -14 6 -6 3 7 2 16 -1 19 -3 4 -6 -2 -5 -13z"/>
<path d="M5590 4161 l-25 -7 26 -5 c17 -4 26 -1 26 8 0 7 -1 13 -1 12 -1 -1
-12 -4 -26 -8z"/>
<path d="M6012 4150 c0 -14 2 -19 5 -12 2 6 2 18 0 25 -3 6 -5 1 -5 -13z"/>
<path d="M10190 4142 c0 -15 -5 -33 -12 -40 -9 -9 -8 -12 5 -12 13 0 17 9 17
40 0 22 -2 40 -5 40 -3 0 -5 -13 -5 -28z"/>
<path d="M10233 4130 c0 -25 2 -35 4 -22 2 12 2 32 0 45 -2 12 -4 2 -4 -23z"/>
<path d="M10436 4156 c4 -10 1 -16 -7 -16 -12 0 -12 -2 0 -9 8 -5 11 -16 8
-25 -3 -8 -2 -18 3 -21 6 -4 10 11 10 34 0 22 -4 43 -10 46 -6 3 -7 -1 -4 -9z"/>
<path d="M10530 4130 c0 -22 2 -40 4 -40 2 0 6 18 8 40 2 22 0 40 -4 40 -5 0
-8 -18 -8 -40z"/>
<path d="M10790 4130 c0 -22 2 -40 4 -40 2 0 6 18 8 40 2 22 0 40 -4 40 -5 0
-8 -18 -8 -40z"/>
<path d="M10850 4127 c4 -41 5 -41 8 -8 2 18 0 37 -5 42 -5 5 -6 -11 -3 -34z"/>
<path d="M10895 4160 c-8 -13 3 -30 18 -30 8 0 7 3 -2 9 -7 5 -10 14 -7 20 4
6 5 11 2 11 -3 0 -8 -4 -11 -10z"/>
<path d="M11143 4148 c9 -14 9 -23 -1 -39 -10 -15 -10 -19 -1 -14 9 6 11 1 7
-18 -3 -15 -1 -24 3 -21 5 3 9 29 9 58 0 39 -4 53 -14 53 -11 0 -12 -4 -3 -19z"/>
<path d="M11295 4160 c-3 -5 -2 -10 4 -10 5 0 13 5 16 10 3 6 2 10 -4 10 -5 0
-13 -4 -16 -10z"/>
<path d="M11505 4159 c-4 -6 -5 -12 -2 -15 2 -3 7 2 10 11 7 17 1 20 -8 4z"/>
<path d="M11555 4160 c3 -5 8 -10 11 -10 2 0 4 5 4 10 0 6 -5 10 -11 10 -5 0
-7 -4 -4 -10z"/>
<path d="M11617 4163 c-9 -9 -9 -61 1 -66 4 -3 7 12 7 34 0 21 0 39 -1 39 0 0
-4 -3 -7 -7z"/>
<path d="M6133 4153 c9 -2 23 -2 30 0 6 3 -1 5 -18 5 -16 0 -22 -2 -12 -5z"/>
<path d="M6832 4135 c0 -16 2 -22 5 -12 2 9 2 23 0 30 -3 6 -5 -1 -5 -18z"/>
<path d="M6664 4139 c-3 -6 -2 -15 3 -20 5 -5 9 -1 9 11 0 23 -2 24 -12 9z"/>
<path d="M10745 4140 c-3 -5 -1 -10 4 -10 6 0 11 5 11 10 0 6 -2 10 -4 10 -3
0 -8 -4 -11 -10z"/>
<path d="M5331 4113 c-1 -26 -6 -32 -28 -36 l-28 -4 28 -2 c30 -1 41 14 34 51
-3 18 -5 16 -6 -9z"/>
<path d="M6157 4133 c-4 -3 -7 -11 -7 -17 0 -6 5 -5 12 2 6 6 9 14 7 17 -3 3
-9 2 -12 -2z"/>
<path d="M10680 4125 c0 -8 2 -15 4 -15 2 0 6 7 10 15 3 8 1 15 -4 15 -6 0
-10 -7 -10 -15z"/>
<path d="M5278 4118 c6 -6 18 -8 28 -6 14 3 12 5 -9 10 -19 3 -25 2 -19 -4z"/>
<path d="M5595 4120 c-3 -5 -2 -10 4 -10 5 0 13 5 16 10 3 6 2 10 -4 10 -5 0
-13 -4 -16 -10z"/>
<path d="M10380 4110 c0 -11 2 -20 4 -20 2 0 6 9 9 20 3 11 1 20 -4 20 -5 0
-9 -9 -9 -20z"/>
<path d="M10940 4120 c13 -9 12 -12 -4 -25 -11 -8 -15 -15 -9 -15 16 0 36 28
28 40 -3 5 -12 10 -18 10 -7 0 -6 -4 3 -10z"/>
<path d="M10983 4114 c-3 -9 0 -20 8 -25 22 -14 35 -10 14 4 -10 8 -15 19 -11
25 4 7 5 12 1 12 -3 0 -8 -7 -12 -16z"/>
<path d="M10130 4102 c0 -12 19 -26 26 -19 2 2 -2 10 -11 17 -9 8 -15 8 -15 2z"/>
<path d="M11512 4094 c10 -10 20 -16 22 -13 3 3 -5 11 -17 18 -21 13 -21 12
-5 -5z"/>
<path d="M10730 4090 c-9 -6 -10 -10 -3 -10 6 0 15 5 18 10 8 12 4 12 -15 0z"/>
<path d="M2793 4030 c0 -25 2 -35 4 -22 2 12 2 32 0 45 -2 12 -4 2 -4 -23z"/>
<path d="M2350 4011 c0 -25 6 -43 18 -52 15 -13 16 -12 3 4 -9 11 -12 30 -8
52 3 19 2 35 -4 35 -5 0 -9 -17 -9 -39z"/>
<path d="M2620 4040 c0 -5 5 -10 10 -10 6 0 10 5 10 10 0 6 -4 10 -10 10 -5 0
-10 -4 -10 -10z"/>
<path d="M1453 3995 c0 -27 2 -38 4 -22 2 15 2 37 0 50 -2 12 -4 0 -4 -28z"/>
<path d="M1497 4029 c6 -8 13 -27 16 -44 4 -23 4 -20 3 9 -1 25 -6 41 -16 44
-12 4 -13 2 -3 -9z"/>
<path d="M1560 3992 l5 -47 3 39 c2 21 0 42 -5 47 -4 4 -6 -13 -3 -39z"/>
<path d="M1840 4036 c0 -2 7 -9 15 -16 9 -7 15 -8 15 -2 0 5 -7 12 -15 16 -8
3 -15 4 -15 2z"/>
<path d="M1906 4027 c3 -10 9 -15 12 -12 3 3 0 11 -7 18 -10 9 -11 8 -5 -6z"/>
<path d="M2113 3995 c0 -27 2 -38 4 -22 2 15 2 37 0 50 -2 12 -4 0 -4 -28z"/>
<path d="M2150 3995 c0 -27 2 -46 4 -44 8 8 10 78 3 85 -4 4 -7 -14 -7 -41z"/>
<path d="M2210 3992 l5 -47 3 39 c2 21 0 42 -5 47 -4 4 -6 -13 -3 -39z"/>
<path d="M2257 4025 c-4 -8 -3 -16 1 -19 4 -3 9 4 9 15 2 23 -3 25 -10 4z"/>
<path d="M2566 4027 c3 -10 9 -15 12 -12 3 3 0 11 -7 18 -10 9 -11 8 -5 -6z"/>
<path d="M2741 4014 c0 -11 3 -14 6 -6 3 7 2 16 -1 19 -3 4 -6 -2 -5 -13z"/>
<path d="M1600 3996 c0 -14 4 -27 8 -30 5 -3 6 8 4 25 -5 35 -12 38 -12 5z"/>
<path d="M2019 3992 c-3 -20 -2 -29 4 -23 5 5 7 19 5 32 -3 20 -5 19 -9 -9z"/>
<path d="M2682 3995 c0 -16 2 -22 5 -12 2 9 2 23 0 30 -3 6 -5 -1 -5 -18z"/>
<path d="M1951 3994 c0 -11 3 -14 6 -6 3 7 2 16 -1 19 -3 4 -6 -2 -5 -13z"/>
<path d="M2465 4000 c3 -5 8 -10 11 -10 2 0 4 5 4 10 0 6 -5 10 -11 10 -5 0
-7 -4 -4 -10z"/>
<path d="M5709 3993 c-4 -60 -3 -85 4 -90 4 -2 7 21 7 51 0 31 -2 56 -5 56 -3
0 -6 -8 -6 -17z"/>
<path d="M2301 3983 c7 -10 15 -20 16 -22 2 -2 3 3 3 11 0 9 -7 19 -16 22 -15
6 -15 4 -3 -11z"/>
<path d="M6587 3993 c-3 -5 -1 -28 3 -53 l7 -45 2 53 c1 49 -2 62 -12 45z"/>
<path d="M1761 3974 c0 -11 3 -14 6 -6 3 7 2 16 -1 19 -3 4 -6 -2 -5 -13z"/>
<path d="M2411 3974 c0 -11 3 -14 6 -6 3 7 2 16 -1 19 -3 4 -6 -2 -5 -13z"/>
<path d="M6122 3970 c0 -14 2 -19 5 -12 2 6 2 18 0 25 -3 6 -5 1 -5 -13z"/>
<path d="M10727 3968 c-3 -12 -2 -29 3 -37 7 -12 9 -6 10 22 0 42 -5 48 -13
15z"/>
<path d="M5753 3940 c0 -25 2 -35 4 -22 2 12 2 32 0 45 -2 12 -4 2 -4 -23z"/>
<path d="M5794 3954 c-5 -18 -1 -31 12 -42 17 -16 17 -16 5 0 -8 11 -11 28 -7
43 4 14 4 25 1 25 -2 0 -8 -12 -11 -26z"/>
<path d="M5861 3955 c-6 -70 -6 -94 2 -86 5 5 6 32 4 62 -2 30 -4 41 -6 24z"/>
<path d="M5907 3973 c-9 -9 -9 -61 1 -66 4 -3 7 12 7 34 0 21 0 39 -1 39 0 0
-4 -3 -7 -7z"/>
<path d="M5965 3940 c0 -34 1 -38 9 -21 5 13 5 29 0 42 -8 17 -9 13 -9 -21z"/>
<path d="M6320 3940 c0 -22 2 -40 4 -40 2 0 6 18 8 40 2 22 0 40 -4 40 -5 0
-8 -18 -8 -40z"/>
<path d="M6490 3966 c0 -8 4 -17 9 -20 5 -4 7 3 4 14 -6 23 -13 26 -13 6z"/>
<path d="M6640 3938 c0 -49 5 -47 13 5 3 20 2 37 -4 37 -5 0 -9 -19 -9 -42z"/>
<path d="M6767 3959 c4 -13 8 -18 11 -10 2 7 -1 18 -6 23 -8 8 -9 4 -5 -13z"/>
<path d="M6813 3940 c0 -25 2 -35 4 -22 2 12 2 32 0 45 -2 12 -4 2 -4 -23z"/>
<path d="M6854 3966 c-3 -8 -4 -23 -2 -33 3 -11 6 -6 9 15 6 34 2 42 -7 18z"/>
<path d="M2630 3960 c0 -5 5 -10 11 -10 5 0 7 5 4 10 -3 6 -8 10 -11 10 -2 0
-4 -4 -4 -10z"/>
<path d="M6231 3954 c0 -11 3 -14 6 -6 3 7 2 16 -1 19 -3 4 -6 -2 -5 -13z"/>
<path d="M6707 3963 c-9 -9 -9 -41 1 -46 4 -3 7 8 7 24 1 32 1 32 -8 22z"/>
<path d="M11380 3960 c0 -5 5 -10 10 -10 6 0 10 5 10 10 0 6 -4 10 -10 10 -5
0 -10 -4 -10 -10z"/>
<path d="M5642 3940 c0 -14 2 -19 5 -12 2 6 2 18 0 25 -3 6 -5 1 -5 -13z"/>
<path d="M6443 3930 c0 -16 4 -30 9 -30 4 0 8 14 8 30 0 17 -4 30 -8 30 -5 0
-9 -13 -9 -30z"/>
<path d="M6921 3944 c0 -11 3 -14 6 -6 3 7 2 16 -1 19 -3 4 -6 -2 -5 -13z"/>
<path d="M10346 3919 c1 -53 14 -63 14 -11 0 22 -3 43 -8 46 -4 2 -7 -13 -6
-35z"/>
<path d="M10395 3949 c-4 -6 -5 -12 -2 -15 2 -3 7 2 10 11 7 17 1 20 -8 4z"/>
<path d="M10453 3905 c0 -33 2 -45 4 -27 2 18 2 45 0 60 -2 15 -4 0 -4 -33z"/>
<path d="M10501 3944 c0 -11 3 -14 6 -6 3 7 2 16 -1 19 -3 4 -6 -2 -5 -13z"/>
<path d="M10617 3923 c5 -50 13 -55 13 -10 0 20 -4 38 -9 41 -4 3 -6 -11 -4
-31z"/>
<path d="M11023 3920 c0 -25 2 -35 4 -22 2 12 2 32 0 45 -2 12 -4 2 -4 -23z"/>
<path d="M11070 3921 c0 -23 2 -41 4 -41 8 0 12 71 4 76 -4 3 -8 -13 -8 -35z"/>
<path d="M11130 3917 c4 -41 5 -41 8 -8 2 18 0 37 -5 42 -5 5 -6 -11 -3 -34z"/>
<path d="M11270 3921 c0 -23 2 -41 4 -41 8 0 12 71 4 76 -4 3 -8 -13 -8 -35z"/>
<path d="M11325 3950 c3 -5 8 -10 11 -10 2 0 4 5 4 10 0 6 -5 10 -11 10 -5 0
-7 -4 -4 -10z"/>
<path d="M11170 3921 c0 -17 4 -32 8 -35 4 -2 6 11 4 30 -5 42 -12 45 -12 5z"/>
<path d="M6537 3919 c4 -13 8 -18 11 -10 2 7 -1 18 -6 23 -8 8 -9 4 -5 -13z"/>
<path d="M6121 3914 c0 -11 3 -14 6 -6 3 7 2 16 -1 19 -3 4 -6 -2 -5 -13z"/>
<path d="M10293 3905 c-3 -9 -3 -18 -1 -21 3 -3 8 4 11 16 6 23 -1 27 -10 5z"/>
<path d="M10390 3906 c0 -8 4 -17 9 -20 5 -4 7 3 4 14 -6 23 -13 26 -13 6z"/>
<path d="M10561 3894 c0 -11 3 -14 6 -6 3 7 2 16 -1 19 -3 4 -6 -2 -5 -13z"/>
<path d="M10660 3901 c0 -6 4 -13 10 -16 6 -3 7 1 4 9 -7 18 -14 21 -14 7z"/>
<path d="M10726 3895 c-3 -8 -1 -15 4 -15 6 0 10 7 10 15 0 8 -2 15 -4 15 -2
0 -6 -7 -10 -15z"/>
<path d="M10959 3763 c0 -10 -1 -35 -3 -55 -2 -21 1 -38 6 -38 4 0 8 25 8 55
0 30 -2 55 -5 55 -3 0 -5 -8 -6 -17z"/>
<path d="M11268 3728 c-3 -50 -4 -53 -30 -53 -17 1 -24 -3 -19 -8 5 -5 21 -7
35 -3 24 6 26 11 26 61 0 70 -8 72 -12 3z"/>
<path d="M10311 3686 c1 -45 3 -54 9 -36 4 14 5 35 3 48 -3 12 0 28 6 35 8 10
7 14 -4 14 -12 0 -15 -14 -14 -61z"/>
<path d="M10368 3738 c20 -20 14 -58 -10 -68 -18 -8 -19 -9 -4 -7 10 1 23 9
29 18 12 19 1 69 -15 69 -9 0 -9 -3 0 -12z"/>
<path d="M10465 3740 c3 -5 8 -10 11 -10 2 0 4 5 4 10 0 6 -5 10 -11 10 -5 0
-7 -4 -4 -10z"/>
<path d="M10523 3710 c0 -25 2 -35 4 -22 2 12 2 32 0 45 -2 12 -4 2 -4 -23z"/>
<path d="M10640 3707 c4 -41 5 -41 8 -8 2 18 0 37 -5 42 -5 5 -6 -11 -3 -34z"/>
<path d="M10897 3743 c-11 -11 -8 -58 5 -71 7 -7 19 -12 28 -11 9 0 6 4 -7 9
-17 7 -23 18 -23 39 0 16 6 32 13 34 6 3 7 6 1 6 -6 1 -14 -2 -17 -6z"/>
<path d="M11059 3738 c8 -11 11 -28 7 -44 -10 -37 -48 -30 -58 11 l-7 30 2
-29 c2 -36 29 -56 55 -40 24 15 27 58 5 75 -16 13 -17 12 -4 -3z"/>
<path d="M11110 3739 c0 -5 5 -7 10 -4 6 3 10 8 10 11 0 2 -4 4 -10 4 -5 0
-10 -5 -10 -11z"/>
<path d="M11160 3702 l5 -47 3 39 c2 21 0 42 -5 47 -4 4 -6 -13 -3 -39z"/>
<path d="M11212 3738 c-7 -7 -11 -21 -11 -32 1 -21 1 -21 6 -1 3 11 10 26 15
33 13 15 6 16 -10 0z"/>
<path d="M11322 3738 c-7 -7 -11 -21 -11 -32 1 -21 1 -21 6 -1 3 11 10 26 15
33 13 15 6 16 -10 0z"/>
<path d="M11420 3708 c0 -49 5 -47 13 5 3 20 2 37 -4 37 -5 0 -9 -19 -9 -42z"/>
<path d="M10475 3710 c3 -5 8 -10 11 -10 2 0 4 5 4 10 0 6 -5 10 -11 10 -5 0
-7 -4 -4 -10z"/>
<path d="M10425 3700 c-3 -6 1 -7 9 -4 18 7 21 14 7 14 -6 0 -13 -4 -16 -10z"/>
<path d="M10583 3694 c-8 -20 10 -37 33 -31 16 4 15 5 -3 6 -27 1 -31 27 -5
34 16 4 16 5 -1 6 -10 0 -20 -6 -24 -15z"/>
<path d="M11104 3695 c-8 -21 4 -35 29 -34 21 0 21 1 -3 10 -24 10 -24 11 -6
25 18 12 18 14 3 14 -10 0 -20 -7 -23 -15z"/>
<path d="M11376 3684 c-4 -11 -14 -15 -31 -12 -13 3 -22 1 -19 -3 8 -14 40
-10 54 6 7 9 11 18 8 21 -3 3 -8 -3 -12 -12z"/>
<path d="M10475 3680 c-3 -5 -1 -10 4 -10 6 0 11 5 11 10 0 6 -2 10 -4 10 -3
0 -8 -4 -11 -10z"/>
<path d="M10428 3668 c5 -5 16 -8 23 -6 8 3 3 7 -10 11 -17 4 -21 3 -13 -5z"/>
<path d="M10748 3668 c6 -6 18 -8 28 -6 14 3 12 5 -9 10 -19 3 -25 2 -19 -4z"/>
<path d="M9736 3512 c-3 -6 -1 -14 5 -17 15 -10 25 3 12 16 -7 7 -13 7 -17 1z"/>
<path d="M5957 3503 c-16 -15 -6 -33 18 -33 18 0 25 5 25 20 0 20 -28 28 -43
13z"/>
<path d="M5823 3475 c-3 -9 -3 -18 0 -21 10 -10 47 7 47 22 0 19 -39 18 -47
-1z"/>
<path d="M5713 3450 c-14 -6 -21 -15 -17 -24 8 -20 44 -8 44 15 0 11 -1 19 -2
18 -2 0 -13 -4 -25 -9z"/>
<path d="M6462 3422 c2 -9 14 -19 27 -20 30 -5 24 18 -8 29 -18 7 -22 6 -19
-9z"/>
<path d="M9670 3409 c-11 -19 -6 -39 9 -39 4 0 13 11 19 24 9 19 8 25 -3 30
-9 3 -19 -3 -25 -15z"/>
<path d="M5585 3397 c-11 -9 -14 -16 -7 -21 15 -9 42 4 42 20 0 18 -11 18 -35
1z"/>
<path d="M6577 3376 c-4 -9 3 -16 20 -21 33 -8 43 3 19 21 -25 18 -32 18 -39
0z"/>
<path d="M5470 3335 c-7 -9 -10 -18 -7 -21 9 -9 48 16 42 27 -9 13 -21 11 -35
-6z"/>
<path d="M6697 3316 c-3 -8 5 -18 19 -25 19 -8 24 -8 24 4 0 21 -36 39 -43 21z"/>
<path d="M9596 3296 c-14 -22 -14 -25 1 -30 16 -7 33 9 33 31 0 23 -18 23 -34
-1z"/>
<path d="M5363 3273 c-13 -5 -19 -33 -7 -33 15 0 44 22 39 31 -7 10 -13 10
-32 2z"/>
<path d="M6806 3245 c-4 -13 20 -35 38 -35 14 0 4 26 -13 37 -15 10 -20 9 -25
-2z"/>
<path d="M2280 3242 c0 -5 8 -17 19 -26 15 -14 19 -14 24 -3 3 8 0 20 -6 26
-13 13 -37 15 -37 3z"/>
<path d="M5256 3191 c-12 -14 -14 -21 -6 -26 17 -10 47 22 34 35 -7 7 -16 4
-28 -9z"/>
<path d="M9520 3181 c-7 -14 -7 -22 1 -27 13 -8 41 24 33 37 -9 15 -23 10 -34
-10z"/>
<path d="M6926 3171 c-7 -11 28 -43 37 -34 12 11 8 22 -12 33 -11 5 -22 6 -25
1z"/>
<path d="M2387 3163 c-12 -11 -8 -22 12 -33 11 -5 22 -6 25 -1 7 11 -28 43
-37 34z"/>
<path d="M5160 3105 c-19 -23 -1 -39 21 -19 10 9 16 21 13 25 -8 13 -20 11
-34 -6z"/>
<path d="M7030 3080 c0 -12 40 -34 47 -26 9 8 -17 36 -33 36 -8 0 -14 -4 -14
-10z"/>
<path d="M9443 3070 c-9 -13 -9 -21 -2 -26 11 -7 40 26 33 38 -8 13 -19 9 -31
-12z"/>
<path d="M2490 3065 c0 -16 27 -32 37 -21 7 7 -16 36 -28 36 -5 0 -9 -7 -9
-15z"/>
<path d="M5072 3018 c-14 -14 -16 -38 -4 -38 12 0 32 23 32 37 0 16 -12 17
-28 1z"/>
<path d="M2596 2991 c-7 -11 28 -43 37 -34 12 11 8 22 -12 33 -11 5 -22 6 -25
1z"/>
<path d="M7140 2992 c0 -5 9 -17 19 -26 22 -20 40 -4 21 19 -13 16 -40 20 -40
7z"/>
<path d="M9361 2968 c-17 -28 0 -44 22 -20 14 16 15 21 4 30 -10 8 -16 6 -26
-10z"/>
<path d="M4980 2915 c-19 -23 -1 -39 21 -19 10 9 16 21 13 25 -8 13 -20 11
-34 -6z"/>
<path d="M2705 2909 c-4 -6 1 -17 11 -24 24 -18 34 -19 34 0 0 19 -36 39 -45
24z"/>
<path d="M7244 2899 c-7 -12 25 -51 37 -43 15 9 10 29 -11 41 -13 9 -21 9 -26
2z"/>
<path d="M9273 2860 c-9 -13 -9 -21 -2 -26 11 -7 40 26 33 38 -8 13 -19 9 -31
-12z"/>
<path d="M2816 2835 c-6 -18 34 -49 47 -36 11 11 2 28 -23 41 -13 7 -19 6 -24
-5z"/>
<path d="M4897 2815 c-11 -16 -14 -26 -6 -31 17 -10 43 21 33 39 -8 13 -12 11
-27 -8z"/>
<path d="M7344 2796 c-9 -24 21 -55 38 -38 10 10 8 17 -9 34 -21 20 -23 20
-29 4z"/>
<path d="M9180 2765 c-10 -12 -10 -19 -2 -27 9 -9 15 -7 26 7 23 32 0 49 -24
20z"/>
<path d="M2930 2755 c0 -8 9 -19 20 -25 16 -9 22 -8 27 6 3 9 0 20 -8 25 -21
13 -39 11 -39 -6z"/>
<path d="M4813 2715 c-17 -19 -16 -35 1 -35 18 0 39 27 31 40 -8 13 -17 12
-32 -5z"/>
<path d="M3050 2687 c0 -7 9 -18 19 -24 15 -10 20 -9 25 2 3 8 -3 19 -14 25
-24 13 -30 13 -30 -3z"/>
<path d="M7435 2689 c-4 -5 1 -19 11 -30 22 -25 41 -10 25 20 -13 23 -26 27
-36 10z"/>
<path d="M9085 2667 c-13 -10 -15 -16 -6 -21 12 -8 41 10 41 25 0 13 -13 11
-35 -4z"/>
<path d="M3166 2625 c-3 -10 3 -17 20 -21 33 -8 44 4 20 22 -25 18 -32 18 -40
-1z"/>
<path d="M4710 2615 c-7 -8 -10 -19 -6 -22 9 -9 38 8 38 22 -1 16 -18 16 -32
0z"/>
<path d="M7535 2590 c-10 -17 22 -47 35 -34 7 7 4 16 -9 28 -14 12 -21 14 -26
6z"/>
<path d="M8986 2581 c-12 -14 -14 -21 -6 -26 17 -10 47 22 34 35 -7 7 -16 4
-28 -9z"/>
<path d="M3294 2569 c-7 -12 12 -29 34 -29 19 0 14 18 -7 30 -14 7 -22 7 -27
-1z"/>
<path d="M4600 2535 c-7 -9 -10 -19 -6 -22 8 -9 38 9 44 25 5 17 -23 15 -38
-3z"/>
<path d="M3416 2515 c-2 -7 2 -16 10 -19 24 -9 34 -7 34 8 0 18 -37 27 -44 11z"/>
<path d="M8877 2498 c-10 -8 -13 -18 -9 -25 6 -10 13 -9 30 3 12 8 20 20 17
25 -8 12 -18 11 -38 -3z"/>
<path d="M7630 2491 c0 -15 29 -33 41 -25 9 5 7 11 -6 21 -22 15 -35 17 -35 4z"/>
<path d="M4484 2476 c-10 -8 -16 -17 -12 -21 11 -11 48 5 48 21 0 18 -11 18
-36 0z"/>
<path d="M3540 2471 c0 -16 43 -31 54 -20 12 11 7 16 -27 24 -17 5 -27 3 -27
-4z"/>
<path d="M3672 2428 c5 -15 48 -18 48 -3 0 6 -11 11 -26 13 -18 3 -25 0 -22
-10z"/>
<path d="M4358 2433 c-10 -2 -18 -11 -18 -19 0 -11 7 -13 28 -8 34 8 36 10 27
23 -6 11 -9 12 -37 4z"/>
<path d="M8766 2424 c-13 -9 -17 -17 -10 -24 7 -7 17 -5 30 4 13 10 16 18 9
25 -7 6 -16 5 -29 -5z"/>
<path d="M7735 2411 c-5 -9 24 -31 39 -31 13 0 5 28 -10 34 -20 8 -22 8 -29
-3z"/>
<path d="M4223 2403 c-22 -8 -14 -23 12 -23 16 0 25 6 25 15 0 15 -14 18 -37
8z"/>
<path d="M8644 2356 c-10 -8 -16 -17 -12 -21 11 -11 48 5 48 21 0 18 -11 18
-36 0z"/>
<path d="M7850 2342 c0 -5 12 -14 26 -21 22 -10 25 -9 22 6 -3 18 -48 32 -48
15z"/>
<path d="M8528 2313 c-10 -3 -18 -11 -18 -19 0 -11 6 -13 23 -8 12 3 24 8 26
10 9 8 -15 20 -31 17z"/>
<path d="M7975 2290 c-3 -5 6 -12 20 -16 29 -7 41 -1 30 15 -8 14 -42 14 -50
1z"/>
<path d="M4190 1385 c0 -8 5 -15 10 -15 6 0 10 7 10 15 0 8 -4 15 -10 15 -5 0
-10 -7 -10 -15z"/>
<path d="M4377 1394 c-8 -8 1 -24 14 -24 5 0 9 7 9 15 0 15 -12 20 -23 9z"/>
<path d="M3516 1319 c-30 -82 -30 -79 -12 -79 7 0 16 9 19 20 7 28 51 26 71
-2 27 -38 29 -12 5 61 -31 95 -48 95 -83 0z m59 -1 c6 -24 4 -28 -14 -28 -22
0 -25 10 -15 48 8 27 20 19 29 -20z"/>
<path d="M3650 1294 c0 -40 4 -54 14 -54 10 0 16 14 18 43 2 34 7 42 23 42 16
0 21 -8 23 -42 2 -24 8 -43 13 -43 6 0 9 22 7 53 l-3 52 -47 2 -48 2 0 -55z"/>
<path d="M3790 1300 c0 -52 21 -78 49 -61 7 5 22 6 32 4 17 -5 19 1 19 51 0
31 -4 56 -10 56 -5 0 -10 -18 -10 -40 0 -28 -5 -42 -18 -49 -27 -14 -42 5 -42
51 0 21 -4 38 -10 38 -5 0 -10 -22 -10 -50z"/>
<path d="M3930 1293 c0 -29 5 -53 10 -53 6 0 10 21 10 46 0 41 2 45 23 42 18
-2 23 -10 25 -45 2 -24 8 -43 13 -43 6 0 9 22 7 53 l-3 52 -42 0 -43 1 0 -53z"/>
<path d="M4072 1338 c-13 -13 -16 -66 -4 -84 19 -27 82 -22 82 8 0 7 -5 6 -15
-2 -24 -20 -55 -3 -55 31 0 35 23 48 52 30 17 -11 19 -10 16 6 -4 22 -57 30
-76 11z"/>
<path d="M4190 1295 c0 -30 5 -55 10 -55 6 0 10 25 10 55 0 30 -4 55 -10 55
-5 0 -10 -25 -10 -55z"/>
<path d="M4256 1334 c-22 -21 -20 -60 4 -84 24 -24 40 -25 66 -4 18 15 18 15
-9 9 -30 -6 -61 10 -51 26 3 5 23 9 45 9 43 0 46 5 23 38 -18 26 -56 29 -78 6z
m64 -19 c0 -16 -45 -21 -54 -6 -8 12 4 21 31 21 14 0 23 -6 23 -15z"/>
<path d="M4380 1295 c0 -30 5 -55 10 -55 6 0 10 25 10 55 0 30 -4 55 -10 55
-5 0 -10 -25 -10 -55z"/>
<path d="M7930 1169 c0 -51 4 -78 10 -74 6 3 10 17 10 31 0 36 34 32 50 -6 7
-16 19 -30 26 -30 12 0 12 5 -1 30 -14 28 -14 32 0 46 8 8 15 22 15 30 0 26
-39 54 -75 54 l-35 0 0 -81z m75 31 c0 -20 -6 -26 -27 -28 -25 -3 -28 0 -28
28 0 28 3 31 28 28 21 -2 27 -8 27 -28z"/>
<path d="M8460 1172 l0 -78 39 -1 c46 -2 62 12 63 58 1 38 -24 61 -59 53 -20
-5 -23 -2 -23 20 0 14 -4 26 -10 26 -6 0 -10 -33 -10 -78z m78 1 c14 -26 -3
-63 -28 -63 -25 0 -34 21 -26 55 7 29 41 34 54 8z"/>
<path d="M8600 1240 c0 -5 5 -10 10 -10 6 0 10 5 10 10 0 6 -4 10 -10 10 -5 0
-10 -4 -10 -10z"/>
<path d="M8080 1190 c-50 -50 10 -128 70 -90 8 5 11 12 7 16 -3 4 -13 2 -20
-5 -18 -15 -47 -4 -47 18 0 13 8 16 40 13 32 -3 40 -1 40 12 0 20 -35 56 -55
56 -8 0 -24 -9 -35 -20z m58 -17 c2 -8 -6 -13 -22 -13 -25 0 -33 10 -19 24 10
10 36 3 41 -11z"/>
<path d="M8210 1190 c-11 -11 -20 -29 -20 -40 0 -42 54 -73 90 -50 21 13 5 24
-18 11 -25 -13 -42 3 -42 41 0 33 23 46 45 28 20 -17 32 -5 15 15 -17 21 -46
19 -70 -5z"/>
<path d="M8340 1190 c-50 -50 10 -128 70 -90 8 5 11 12 7 16 -3 4 -13 1 -21
-5 -11 -9 -20 -10 -35 -1 -26 13 -27 30 -3 31 67 4 67 4 64 24 -4 22 -29 45
-49 45 -7 0 -22 -9 -33 -20z m64 -15 c4 -12 -3 -15 -31 -15 -30 0 -34 2 -23
15 7 8 20 15 30 15 10 0 20 -7 24 -15z"/>
<path d="M8600 1150 c0 -38 4 -59 10 -55 6 3 10 28 10 55 0 27 -4 52 -10 55
-6 4 -10 -17 -10 -55z"/>
<path d="M3321 1004 c0 -11 3 -14 6 -6 3 7 2 16 -1 19 -3 4 -6 -2 -5 -13z"/>
<path d="M3487 999 c4 -13 8 -18 11 -10 2 7 -1 18 -6 23 -8 8 -9 4 -5 -13z"/>
<path d="M3580 1006 c0 -8 4 -17 9 -20 5 -4 7 3 4 14 -6 23 -13 26 -13 6z"/>
<path d="M3677 1013 c-9 -9 -9 -61 1 -66 4 -3 7 12 7 34 0 21 0 39 -1 39 0 0
-4 -3 -7 -7z"/>
<path d="M3732 1000 c0 -14 2 -19 5 -12 2 6 2 18 0 25 -3 6 -5 1 -5 -13z"/>
<path d="M3771 998 c-1 -32 8 -58 21 -58 7 0 7 4 0 13 -6 6 -12 26 -15 42 -4
29 -4 29 -6 3z"/>
<path d="M4090 977 c4 -41 5 -41 8 -8 2 18 0 37 -5 42 -5 5 -6 -11 -3 -34z"/>
<path d="M4130 986 c0 -19 3 -37 8 -40 4 -2 6 13 4 35 -5 48 -12 51 -12 5z"/>
<path d="M4193 980 c0 -25 2 -35 4 -22 2 12 2 32 0 45 -2 12 -4 2 -4 -23z"/>
<path d="M4231 993 c0 -25 1 -26 9 -8 12 27 12 35 0 35 -5 0 -10 -12 -9 -27z"/>
<path d="M4297 985 c7 -49 13 -58 13 -19 0 16 -5 36 -10 44 -6 10 -7 2 -3 -25z"/>
<path d="M4340 1000 c-10 -19 1 -60 16 -60 2 0 0 9 -6 20 -8 14 -8 26 0 40 6
11 8 20 6 20 -3 0 -10 -9 -16 -20z"/>
<path d="M4442 1000 c0 -14 2 -19 5 -12 2 6 2 18 0 25 -3 6 -5 1 -5 -13z"/>
<path d="M4536 1007 c3 -10 9 -15 12 -12 3 3 0 11 -7 18 -10 9 -11 8 -5 -6z"/>
<path d="M3981 984 c0 -11 3 -14 6 -6 3 7 2 16 -1 19 -3 4 -6 -2 -5 -13z"/>
<path d="M4630 981 c0 -25 6 -27 13 -6 4 8 2 17 -3 20 -6 4 -10 -3 -10 -14z"/>
<path d="M3420 979 c0 -5 5 -7 10 -4 6 3 10 8 10 11 0 2 -4 4 -10 4 -5 0 -10
-5 -10 -11z"/>
<path d="M3190 973 c0 -6 8 -17 18 -24 16 -13 16 -13 2 6 -8 11 -16 22 -17 24
-2 2 -3 0 -3 -6z"/>
<path d="M3627 960 c3 -11 7 -20 9 -20 2 0 4 9 4 20 0 11 -4 20 -9 20 -5 0 -7
-9 -4 -20z"/>
<path d="M3831 954 c0 -11 3 -14 6 -6 3 7 2 16 -1 19 -3 4 -6 -2 -5 -13z"/>
<path d="M4536 953 c-6 -14 -5 -15 5 -6 7 7 10 15 7 18 -3 3 -9 -2 -12 -12z"/>
<path d="M7087 953 c-4 -3 -7 -31 -7 -61 0 -31 2 -53 5 -50 5 5 15 118 10 118
-1 0 -5 -3 -8 -7z"/>
<path d="M7500 895 c0 -32 2 -56 5 -53 7 7 9 97 2 105 -4 3 -7 -20 -7 -52z"/>
<path d="M9033 895 c0 -33 2 -45 4 -27 2 18 2 45 0 60 -2 15 -4 0 -4 -33z"/>
<path d="M8170 898 c0 -31 5 -50 18 -59 15 -13 16 -12 4 3 -8 9 -12 33 -11 52
2 19 0 38 -4 42 -4 4 -7 -13 -7 -38z"/>
<path d="M7294 895 c-6 -26 17 -65 40 -65 6 0 0 7 -12 16 -24 17 -29 43 -10
62 9 9 9 12 0 12 -6 0 -14 -11 -18 -25z"/>
<path d="M7457 899 c4 -13 8 -18 11 -10 2 7 -1 18 -6 23 -8 8 -9 4 -5 -13z"/>
<path d="M7968 880 c2 -22 6 -40 8 -40 2 0 4 18 4 40 0 22 -3 40 -8 40 -4 0
-6 -18 -4 -40z"/>
<path d="M8120 882 c0 -24 5 -42 11 -42 6 0 9 14 6 36 -7 51 -17 54 -17 6z"/>
<path d="M8237 913 c-9 -9 -9 -61 1 -66 4 -3 7 12 7 34 0 21 0 39 -1 39 0 0
-4 -3 -7 -7z"/>
<path d="M8330 898 c0 -19 2 -20 10 -8 13 19 13 30 0 30 -5 0 -10 -10 -10 -22z"/>
<path d="M8403 885 c0 -22 2 -30 4 -17 2 12 2 30 0 40 -3 9 -5 -1 -4 -23z"/>
<path d="M8740 906 c0 -8 4 -17 9 -20 5 -4 7 3 4 14 -6 23 -13 26 -13 6z"/>
<path d="M8835 909 c-4 -6 -5 -12 -2 -15 2 -3 7 2 10 11 7 17 1 20 -8 4z"/>
<path d="M9128 903 c-2 -10 -1 -29 3 -43 6 -20 7 -17 8 18 1 44 -4 54 -11 25z"/>
<path d="M9295 909 c-4 -6 -5 -12 -2 -15 2 -3 7 2 10 11 7 17 1 20 -8 4z"/>
<path d="M9448 903 c-2 -10 -1 -29 3 -43 6 -20 7 -17 8 18 1 44 -4 54 -11 25z"/>
<path d="M7134 895 c-10 -8 -14 -15 -7 -15 6 0 15 -9 18 -21 4 -11 9 -18 12
-16 2 3 0 14 -6 25 -7 13 -7 22 1 30 17 17 6 15 -18 -3z"/>
<path d="M8291 894 c0 -11 3 -14 6 -6 3 7 2 16 -1 19 -3 4 -6 -2 -5 -13z"/>
<path d="M7192 880 c0 -14 2 -19 5 -12 2 6 2 18 0 25 -3 6 -5 1 -5 -13z"/>
<path d="M7390 884 c0 -10 5 -26 10 -34 7 -11 8 -8 6 13 -3 32 -16 49 -16 21z"/>
<path d="M7571 888 c0 -9 -4 -25 -7 -35 -5 -17 -5 -17 6 0 6 10 9 25 7 35 -4
15 -5 15 -6 0z"/>
<path d="M8032 870 c0 -19 2 -27 5 -17 2 9 2 25 0 35 -3 9 -5 1 -5 -18z"/>
<path d="M8630 881 c0 -25 6 -27 13 -6 4 8 2 17 -3 20 -6 4 -10 -3 -10 -14z"/>
<path d="M8920 884 c0 -6 7 -19 16 -30 14 -18 14 -18 3 6 -14 31 -19 36 -19
24z"/>
<path d="M8065 870 c-8 -13 12 -40 29 -40 6 0 3 5 -6 11 -10 5 -15 16 -12 24
7 17 -2 20 -11 5z"/>
<path d="M8443 865 c-3 -9 -3 -18 -1 -21 3 -3 8 4 11 16 6 23 -1 27 -10 5z"/>
<path d="M8787 859 c4 -13 8 -18 11 -10 2 7 -1 18 -6 23 -8 8 -9 4 -5 -13z"/>
<path d="M8830 866 c0 -8 4 -17 9 -20 5 -4 7 3 4 14 -6 23 -13 26 -13 6z"/>
<path d="M9075 870 c-8 -12 12 -40 28 -40 6 0 3 6 -8 13 -10 8 -15 19 -11 25
4 7 5 12 2 12 -3 0 -8 -5 -11 -10z"/>
<path d="M9395 870 c-8 -12 12 -40 28 -40 6 0 3 6 -8 13 -10 8 -15 19 -11 25
4 7 5 12 2 12 -3 0 -8 -5 -11 -10z"/>
<path d="M8986 853 c-6 -14 -5 -15 5 -6 7 7 10 15 7 18 -3 3 -9 -2 -12 -12z"/>
<path d="M8495 850 c-3 -5 -1 -10 4 -10 6 0 11 5 11 10 0 6 -2 10 -4 10 -3 0
-8 -4 -11 -10z"/>
<path d="M8876 845 c-11 -8 -15 -15 -9 -15 6 0 16 7 23 15 16 19 11 19 -14 0z"/>
<path d="M7617 839 c7 -7 15 -10 18 -7 3 3 -2 9 -12 12 -14 6 -15 5 -6 -5z"/>
<path d="M4510 793 c0 -36 5 -54 18 -64 15 -13 16 -12 4 3 -7 9 -12 34 -11 57
2 22 0 44 -4 47 -4 4 -7 -15 -7 -43z"/>
<path d="M4250 775 c0 -27 2 -46 4 -44 8 8 10 78 3 85 -4 4 -7 -14 -7 -41z"/>
<path d="M4360 772 l5 -47 3 39 c2 21 0 42 -5 47 -4 4 -6 -13 -3 -39z"/>
<path d="M2912 793 c2 -9 10 -18 18 -20 12 -4 13 -3 1 5 -7 5 -10 15 -7 21 4
6 2 11 -4 11 -6 0 -10 -8 -8 -17z"/>
<path d="M3007 803 c-9 -9 -9 -61 1 -66 4 -3 7 12 7 34 0 21 0 39 -1 39 0 0
-4 -3 -7 -7z"/>
<path d="M3455 770 c0 -21 3 -36 8 -33 4 2 7 17 7 33 0 16 -3 31 -7 33 -5 3
-8 -12 -8 -33z"/>
<path d="M3503 770 c0 -25 2 -35 4 -22 2 12 2 32 0 45 -2 12 -4 2 -4 -23z"/>
<path d="M3558 773 c5 -59 10 -63 11 -10 1 26 -3 47 -7 47 -4 0 -6 -17 -4 -37z"/>
<path d="M3607 803 c-11 -11 -8 -58 5 -71 14 -14 44 -16 52 -4 2 4 -8 8 -22 7
-25 0 -27 3 -26 38 1 39 1 41 -9 30z"/>
<path d="M3663 798 c3 -9 1 -19 -6 -22 -7 -2 -4 -5 6 -5 20 -1 21 7 6 29 -9
13 -10 13 -6 -2z"/>
<path d="M3756 794 c-3 -9 -6 -22 -6 -29 0 -17 27 -45 43 -45 6 0 1 7 -11 16
-24 17 -29 43 -10 62 8 8 8 12 1 12 -6 0 -14 -7 -17 -16z"/>
<path d="M3823 750 c0 -36 2 -50 4 -32 2 17 2 47 0 65 -2 17 -4 3 -4 -33z"/>
<path d="M4310 767 c4 -41 5 -41 8 -8 2 18 0 37 -5 42 -5 5 -6 -11 -3 -34z"/>
<path d="M4458 793 c-2 -10 -1 -29 3 -43 6 -20 7 -17 8 18 1 44 -4 54 -11 25z"/>
<path d="M4624 789 c0 -10 4 -19 8 -19 4 0 8 6 8 14 0 8 -4 17 -8 20 -4 2 -8
-4 -8 -15z"/>
<path d="M4670 770 c0 -22 2 -40 4 -40 2 0 6 18 8 40 2 22 0 40 -4 40 -5 0 -8
-18 -8 -40z"/>
<path d="M4883 770 c0 -25 2 -35 4 -22 2 12 2 32 0 45 -2 12 -4 2 -4 -23z"/>
<path d="M4925 800 c-8 -13 3 -30 18 -30 8 0 7 3 -2 9 -7 5 -10 14 -7 20 4 6
5 11 2 11 -3 0 -8 -4 -11 -10z"/>
<path d="M4110 792 c0 -7 11 -17 25 -24 13 -6 26 -18 28 -27 4 -14 5 -14 6 1
0 10 -9 23 -21 29 -13 7 -26 17 -30 23 -5 8 -8 7 -8 -2z"/>
<path d="M3065 780 c-3 -5 -1 -10 4 -10 6 0 11 5 11 10 0 6 -2 10 -4 10 -3 0
-8 -4 -11 -10z"/>
<path d="M3392 770 c0 -14 2 -19 5 -12 2 6 2 18 0 25 -3 6 -5 1 -5 -13z"/>
<path d="M4830 780 c-12 -8 -12 -10 -1 -10 8 0 11 -7 8 -20 -3 -11 -1 -20 4
-20 5 0 9 14 9 30 0 34 0 33 -20 20z"/>
<path d="M3150 769 c0 -5 5 -7 10 -4 6 3 10 8 10 11 0 2 -4 4 -10 4 -5 0 -10
-5 -10 -11z"/>
<path d="M4560 770 c0 -5 4 -10 9 -10 6 0 13 5 16 10 3 6 -1 10 -9 10 -9 0
-16 -4 -16 -10z"/>
<path d="M2955 760 c3 -5 8 -10 11 -10 2 0 4 5 4 10 0 6 -5 10 -11 10 -5 0 -7
-4 -4 -10z"/>
<path d="M3351 754 c0 -11 3 -14 6 -6 3 7 2 16 -1 19 -3 4 -6 -2 -5 -13z"/>
<path d="M4403 754 c-3 -9 0 -20 8 -25 22 -14 35 -10 14 4 -10 8 -15 19 -11
25 4 7 5 12 1 12 -3 0 -8 -7 -12 -16z"/>
<path d="M4969 761 c22 -14 2 -33 -28 -27 -25 5 -25 5 -3 -6 18 -9 26 -8 39 4
16 17 11 38 -10 38 -8 0 -7 -3 2 -9z"/>
<path d="M3870 740 c6 -11 16 -20 22 -20 6 0 3 9 -7 20 -10 11 -20 20 -22 20
-2 0 1 -9 7 -20z"/>
<path d="M3159 738 c15 -20 36 -23 46 -8 3 6 -1 7 -10 4 -8 -4 -23 0 -33 7
-15 13 -16 12 -3 -3z"/>
<path d="M4579 738 c15 -20 36 -23 46 -8 3 6 -1 7 -10 4 -8 -4 -23 0 -33 7
-15 13 -16 12 -3 -3z"/>
<path d="M7563 690 c0 -36 2 -50 4 -32 2 17 2 47 0 65 -2 17 -4 3 -4 -33z"/>
<path d="M2945 730 c-16 -7 -17 -9 -3 -9 9 -1 20 4 23 9 7 11 7 11 -20 0z"/>
<path d="M3045 730 c-16 -7 -17 -9 -3 -9 9 -1 20 4 23 9 7 11 7 11 -20 0z"/>
<path d="M3978 728 c5 -5 16 -8 23 -6 8 3 3 7 -10 11 -17 4 -21 3 -13 -5z"/>
<path d="M4118 728 c5 -5 16 -8 23 -6 8 3 3 7 -10 11 -17 4 -21 3 -13 -5z"/>
<path d="M4788 728 c5 -5 16 -8 23 -6 8 3 3 7 -10 11 -17 4 -21 3 -13 -5z"/>
<path d="M8218 730 c-9 -28 5 -99 20 -105 14 -5 15 -4 5 6 -15 15 -17 76 -4
81 5 2 3 8 -4 15 -8 8 -15 8 -17 3z"/>
<path d="M8698 730 c-5 -16 3 -100 11 -100 3 0 5 23 4 51 -1 50 -7 71 -15 49z"/>
<path d="M7170 705 c-21 -26 -8 -41 30 -34 l35 6 -32 2 c-18 0 -33 6 -33 11 0
18 29 23 48 9 15 -13 16 -12 3 4 -16 21 -35 22 -51 2z"/>
<path d="M7270 705 c-13 -15 -6 -35 13 -35 8 0 7 3 -2 9 -19 12 -3 34 20 28
11 -3 17 -1 13 4 -8 14 -30 11 -44 -6z"/>
<path d="M7368 709 c-22 -13 -23 -52 -2 -73 18 -18 17 -18 38 -10 9 3 16 11
16 16 0 6 -6 5 -15 -2 -18 -15 -45 2 -45 30 0 29 27 45 47 29 14 -12 16 -12
11 1 -6 19 -28 23 -50 9z"/>
<path d="M7497 705 c12 -8 24 -25 26 -38 4 -19 4 -18 6 5 1 18 -6 31 -18 38
-29 15 -38 12 -14 -5z"/>
<path d="M7617 713 c-3 -5 5 -8 18 -8 13 0 21 3 18 8 -2 4 -10 7 -18 7 -8 0
-16 -3 -18 -7z"/>
<path d="M7760 705 c-7 -9 -10 -18 -6 -22 3 -3 6 -1 6 6 0 6 10 16 23 21 15 6
17 9 6 9 -9 1 -22 -6 -29 -14z"/>
<path d="M7872 708 c-7 -7 -12 -16 -12 -22 0 -5 6 -1 14 10 12 15 18 17 33 8
23 -14 28 -41 13 -59 -16 -19 -25 -19 -44 1 -9 8 -16 11 -16 5 0 -9 31 -31 44
-31 12 0 36 33 36 50 0 21 -25 50 -44 50 -6 0 -17 -5 -24 -12z"/>
<path d="M8026 704 c-9 -8 -16 -24 -16 -34 0 -21 25 -50 43 -50 6 0 1 7 -11
16 -32 22 -27 34 13 34 36 0 46 15 23 38 -16 16 -33 15 -52 -4z m52 -11 c2 -9
-7 -13 -28 -13 -28 0 -31 2 -20 15 15 18 41 16 48 -2z"/>
<path d="M8127 713 c-15 -14 -6 -34 19 -43 31 -12 26 -36 -7 -33 -20 2 -21 1
-7 -7 22 -13 48 -2 48 21 0 12 -10 21 -25 25 -30 7 -28 29 3 28 12 0 19 3 16
8 -6 10 -38 11 -47 1z"/>
<path d="M8389 703 c-12 -16 -12 -17 1 -7 8 6 22 14 30 17 13 5 12 6 -1 6 -9
1 -23 -7 -30 -16z"/>
<path d="M8507 713 c-3 -5 5 -8 18 -8 13 0 21 3 18 8 -2 4 -10 7 -18 7 -8 0
-16 -3 -18 -7z"/>
<path d="M8633 709 c11 -6 18 -24 19 -47 l1 -37 4 33 c4 34 -10 62 -31 62 -6
0 -3 -5 7 -11z"/>
<path d="M8766 704 c-28 -27 -19 -40 24 -36 40 4 50 18 28 40 -16 16 -33 15
-52 -4z m52 -11 c2 -9 -7 -13 -28 -13 -28 0 -31 2 -20 15 15 18 41 16 48 -2z"/>
<path d="M8915 696 c-13 -19 -14 -29 -5 -45 6 -12 13 -21 16 -21 2 0 0 9 -6
20 -8 14 -8 26 0 40 12 23 30 26 50 8 12 -11 12 -10 1 5 -19 24 -38 21 -56 -7z"/>
<path d="M9019 703 c-13 -15 -12 -15 8 -3 18 12 24 12 40 -1 16 -13 17 -13 4
4 -17 21 -35 22 -52 0z"/>
<path d="M9155 706 c11 -8 24 -12 29 -8 5 3 1 9 -10 13 -31 12 -39 10 -19 -5z"/>
<path d="M9200 716 c0 -2 7 -7 16 -10 8 -3 12 -2 9 4 -6 10 -25 14 -25 6z"/>
<path d="M9332 711 c-9 -5 -4 -8 16 -7 17 1 28 4 25 9 -6 9 -25 9 -41 -2z"/>
<path d="M7457 703 c-4 -3 -7 -19 -7 -34 0 -35 31 -56 58 -39 15 10 15 10 -3
6 -32 -9 -48 8 -43 43 5 33 5 34 -5 24z"/>
<path d="M8590 670 c0 -22 2 -40 4 -40 2 0 6 18 8 40 2 22 0 40 -4 40 -5 0 -8
-18 -8 -40z"/>
<path d="M9113 688 c-2 -18 0 -20 7 -8 12 18 13 30 2 30 -4 0 -9 -10 -9 -22z"/>
<path d="M7631 679 c-18 -6 -32 -12 -30 -13 8 -7 69 7 69 15 0 5 -1 9 -2 8 -2
0 -18 -5 -37 -10z"/>
<path d="M8523 679 c-42 -12 -42 -16 0 -15 20 1 34 6 34 14 0 6 -1 12 -1 11
-1 0 -16 -5 -33 -10z"/>
<path d="M9353 679 c-41 -12 -43 -21 -3 -12 31 6 39 -4 18 -25 -9 -9 -9 -12 3
-12 10 0 15 10 15 30 0 17 0 30 0 29 -1 0 -16 -5 -33 -10z"/>
<path d="M7309 657 c6 -8 9 -17 6 -21 -3 -3 0 -2 6 3 12 10 4 31 -13 31 -7 0
-7 -4 1 -13z"/>
<path d="M7660 651 c0 -15 -32 -22 -46 -10 -9 7 -14 8 -14 1 0 -14 24 -22 49
-15 18 4 31 33 16 33 -3 0 -5 -4 -5 -9z"/>
<path d="M7750 651 c0 -6 4 -13 10 -16 6 -3 7 1 4 9 -7 18 -14 21 -14 7z"/>
<path d="M9066 643 c-6 -14 -5 -15 5 -6 7 7 10 15 7 18 -3 3 -9 -2 -12 -12z"/>
<path d="M7172 635 c14 -15 21 -17 40 -7 l23 12 -23 -6 c-13 -3 -31 0 -40 7
-16 12 -16 12 0 -6z"/>
<path d="M8280 641 c0 -5 7 -12 16 -15 14 -5 15 -4 4 9 -14 17 -20 19 -20 6z"/>
<path d="M8325 640 c-3 -5 -1 -10 4 -10 6 0 11 5 11 10 0 6 -2 10 -4 10 -3 0
-8 -4 -11 -10z"/>
<path d="M8540 640 c-9 -6 -10 -10 -3 -10 6 0 15 5 18 10 8 12 4 12 -15 0z"/>
<path d="M8760 641 c0 -9 30 -24 36 -18 2 1 -6 8 -16 15 -11 7 -20 8 -20 3z"/>
<path d="M8956 635 c-11 -8 -15 -15 -9 -15 6 0 16 7 23 15 16 19 11 19 -14 0z"/>
<path d="M9022 634 c10 -10 20 -16 22 -13 3 3 -5 11 -17 18 -21 13 -21 12 -5
-5z"/>
<path d="M3690 619 c0 -11 -5 -17 -10 -14 -16 10 -50 -5 -50 -23 0 -13 2 -13
14 3 22 30 49 12 44 -30 -2 -19 0 -35 4 -35 4 0 8 27 8 60 0 33 -2 60 -5 60
-3 0 -5 -9 -5 -21z"/>
<path d="M7270 630 c8 -5 20 -10 25 -10 6 0 3 5 -5 10 -8 5 -19 10 -25 10 -5
0 -3 -5 5 -10z"/>
<path d="M9327 629 c7 -7 15 -10 18 -7 3 3 -2 9 -12 12 -14 6 -15 5 -6 -5z"/>
<path d="M3469 618 c-3 -7 -2 -33 1 -58 l6 -45 5 48 c4 47 -4 83 -12 55z"/>
<path d="M3947 613 c-2 -5 -1 -17 3 -27 6 -19 7 -19 12 2 6 21 -6 40 -15 25z"/>
<path d="M3122 598 c-7 -7 -12 -16 -12 -22 0 -5 6 -1 14 10 13 17 17 18 38 5
21 -13 22 -13 9 2 -16 20 -32 22 -49 5z"/>
<path d="M3286 602 c-3 -5 4 -8 16 -8 12 1 23 -5 25 -11 3 -9 -7 -13 -31 -13
-20 0 -36 -3 -36 -8 0 -4 18 -6 40 -4 40 4 50 18 28 40 -14 14 -35 16 -42 4z"/>
<path d="M3590 577 c0 -18 -5 -38 -10 -43 -7 -7 -6 -11 5 -11 11 0 15 11 15
44 0 24 -2 43 -5 43 -3 0 -5 -15 -5 -33z"/>
<path d="M3752 601 c-9 -5 -4 -8 16 -7 17 1 28 4 25 9 -6 9 -25 9 -41 -2z"/>
<path d="M3888 592 c9 -10 19 -17 21 -16 6 5 -20 34 -30 34 -5 0 -1 -8 9 -18z"/>
<path d="M4019 593 c-13 -16 -12 -17 3 -4 10 7 25 11 33 7 9 -3 13 -2 10 4
-10 15 -31 12 -46 -7z"/>
<path d="M4342 598 c-14 -14 -16 -64 -3 -72 5 -4 7 3 4 14 -5 17 0 20 31 20
29 0 34 3 29 18 -12 32 -40 41 -61 20z m46 -15 c2 -8 -6 -13 -22 -13 -25 0
-33 10 -19 24 10 10 36 3 41 -11z"/>
<path d="M4442 598 c-13 -13 -16 -64 -4 -71 4 -3 7 11 7 31 0 35 2 37 30 35
22 -2 26 0 15 7 -20 13 -34 12 -48 -2z"/>
<path d="M4580 595 c-15 -18 -6 -30 30 -39 24 -6 24 -6 -3 9 -30 17 -27 40 4
32 11 -3 17 -1 13 4 -8 14 -30 11 -44 -6z"/>
<path d="M4690 606 c0 -2 9 -6 20 -9 11 -3 18 -1 14 4 -5 9 -34 13 -34 5z"/>
<path d="M3373 586 c1 -11 9 -21 17 -23 10 -3 11 -2 4 4 -6 4 -14 15 -17 23
-5 11 -6 9 -4 -4z"/>
<path d="M3530 560 c0 -22 3 -40 8 -40 4 0 6 18 4 40 -2 22 -6 40 -8 40 -2 0
-4 -18 -4 -40z"/>
<path d="M3840 560 c0 -22 2 -40 4 -40 2 0 6 18 8 40 2 22 0 40 -4 40 -5 0 -8
-18 -8 -40z"/>
<path d="M4161 538 c1 -68 6 -61 11 15 2 26 0 47 -4 47 -5 0 -7 -28 -7 -62z"/>
<path d="M4226 577 c4 -16 1 -33 -6 -42 -8 -10 -9 -15 -1 -15 16 0 24 46 12
67 -9 15 -10 14 -5 -10z"/>
<path d="M4273 560 c0 -25 2 -35 4 -22 2 12 2 32 0 45 -2 12 -4 2 -4 -23z"/>
<path d="M4533 560 c0 -25 2 -35 4 -22 2 12 2 32 0 45 -2 12 -4 2 -4 -23z"/>
<path d="M3786 571 c-19 -7 -19 -8 2 -13 15 -4 22 -2 22 8 0 8 -1 14 -2 13 -2
0 -12 -4 -22 -8z"/>
<path d="M4038 573 c-21 -2 -38 -7 -38 -11 0 -4 18 -6 40 -4 22 2 40 8 40 13
0 5 -1 8 -2 7 -2 -1 -20 -3 -40 -5z"/>
<path d="M4705 570 c-19 -8 -19 -9 3 -9 12 -1 22 4 22 9 0 6 -1 10 -2 9 -2 0
-12 -4 -23 -9z"/>
<path d="M3630 540 c6 -11 13 -20 16 -20 2 0 0 9 -6 20 -6 11 -13 20 -16 20
-2 0 0 -9 6 -20z"/>
<path d="M3950 540 c0 -11 4 -20 9 -20 5 0 7 9 4 20 -3 11 -7 20 -9 20 -2 0
-4 -9 -4 -20z"/>
<path d="M3110 541 c0 -6 4 -13 10 -16 6 -3 7 1 4 9 -7 18 -14 21 -14 7z"/>
<path d="M3790 530 c0 -5 5 -10 10 -10 6 0 10 5 10 10 0 6 -4 10 -10 10 -5 0
-10 -4 -10 -10z"/>
<path d="M8930 514 c0 -11 -6 -14 -20 -9 -12 4 -27 1 -35 -5 -16 -13 -21 -65
-7 -74 4 -2 6 11 4 30 -5 45 22 58 49 23 l19 -24 0 38 c0 20 -2 37 -5 37 -3 0
-5 -7 -5 -16z"/>
<path d="M7346 496 c10 -8 21 -12 24 -10 5 6 -21 24 -34 24 -6 0 -1 -6 10 -14z"/>
<path d="M7412 498 c-13 -13 -16 -64 -4 -72 4 -2 6 11 4 30 -5 39 17 55 46 33
15 -13 16 -12 3 4 -16 20 -32 22 -49 5z"/>
<path d="M7552 496 c7 -8 15 -12 17 -11 5 6 -10 25 -20 25 -5 0 -4 -6 3 -14z"/>
<path d="M7610 500 c0 -5 4 -10 9 -10 6 0 13 5 16 10 3 6 -1 10 -9 10 -9 0
-16 -4 -16 -10z"/>
<path d="M7823 499 c11 -6 18 -24 19 -47 l1 -37 4 33 c4 34 -10 62 -31 62 -6
0 -3 -5 7 -11z"/>
<path d="M7870 503 c8 -3 19 -11 23 -17 6 -7 7 -6 4 4 -2 8 -12 16 -23 17 -13
2 -15 1 -4 -4z"/>
<path d="M7946 502 c-3 -5 6 -7 19 -4 18 3 25 0 25 -12 0 -9 -6 -16 -12 -16
-9 0 -9 -3 1 -9 8 -5 11 -16 8 -25 -4 -9 -2 -16 4 -16 6 0 9 18 7 43 -2 34 -7
43 -25 45 -11 2 -24 -1 -27 -6z"/>
<path d="M8046 494 c-23 -22 -20 -47 9 -74 13 -12 22 -27 18 -33 -3 -6 -1 -7
6 -3 13 8 5 25 -21 44 -34 24 -10 83 27 68 9 -3 13 -2 10 4 -9 15 -31 12 -49
-6z"/>
<path d="M8146 501 c-4 -5 2 -7 13 -4 23 6 39 -16 20 -28 -9 -6 -10 -9 -2 -9
6 0 14 -10 16 -22 2 -13 5 -4 6 18 1 30 -4 44 -15 48 -22 8 -32 8 -38 -3z"/>
<path d="M8399 493 c-12 -16 -12 -17 1 -7 8 6 22 14 30 17 13 5 12 6 -1 6 -9
1 -23 -7 -30 -16z"/>
<path d="M8509 493 c-12 -16 -12 -17 1 -7 8 6 22 14 30 17 13 5 12 6 -1 6 -9
1 -23 -7 -30 -16z"/>
<path d="M8799 499 c19 -8 23 -15 19 -43 -2 -19 0 -32 4 -30 12 8 9 59 -4 72
-7 7 -19 12 -27 11 -10 0 -6 -4 8 -10z"/>
<path d="M9020 496 c-6 -8 -10 -25 -7 -38 4 -20 4 -20 6 5 1 19 8 31 24 37 15
6 17 9 6 9 -9 1 -22 -6 -29 -13z"/>
<path d="M7307 493 c-9 -9 -9 -61 1 -66 4 -3 7 12 7 34 0 21 0 39 -1 39 0 0
-4 -3 -7 -7z"/>
<path d="M8234 486 c-3 -8 -4 -23 -2 -33 3 -11 6 -6 9 15 6 34 2 42 -7 18z"/>
<path d="M8754 474 c-5 -18 -1 -31 12 -42 17 -16 17 -16 5 0 -8 11 -11 28 -7
43 4 14 4 25 1 25 -2 0 -8 -12 -11 -26z"/>
<path d="M8973 460 c0 -25 2 -35 4 -22 2 12 2 32 0 45 -2 12 -4 2 -4 -23z"/>
<path d="M9076 453 c1 -27 -3 -55 -10 -63 -10 -13 -9 -13 7 -1 12 9 17 28 17
62 0 27 -4 49 -8 49 -5 0 -8 -21 -6 -47z"/>
<path d="M8299 452 c-3 -20 -2 -29 4 -23 5 5 7 19 5 32 -3 20 -5 19 -9 -9z"/>
<path d="M7462 442 c-11 -25 -11 -25 4 -10 9 9 15 21 13 27 -2 6 -10 -2 -17
-17z"/>
<path d="M7934 449 c-3 -6 -2 -15 3 -20 5 -5 9 -1 9 11 0 23 -2 24 -12 9z"/>
<path d="M8134 449 c-3 -6 -2 -15 3 -20 5 -5 9 -1 9 11 0 23 -2 24 -12 9z"/>
<path d="M7571 434 c0 -11 3 -14 6 -6 3 7 2 16 -1 19 -3 4 -6 -2 -5 -13z"/>
<path d="M8920 441 c0 -6 5 -13 10 -16 6 -3 10 1 10 9 0 9 -4 16 -10 16 -5 0
-10 -4 -10 -9z"/>
<path d="M7355 430 c-3 -5 -1 -10 4 -10 6 0 11 5 11 10 0 6 -2 10 -4 10 -3 0
-8 -4 -11 -10z"/>
</g>
</svg>
