<?xml version="1.0" standalone="no"?>
<!DOCTYPE svg PUBLIC "-//W3C//DTD SVG 20010904//EN"
 "http://www.w3.org/TR/2001/REC-SVG-20010904/DTD/svg10.dtd">
<svg version="1.0" xmlns="http://www.w3.org/2000/svg"
 width="1255.000000pt" height="655.000000pt" viewBox="0 0 1255.000000 655.000000"
 preserveAspectRatio="xMidYMid meet">

<g transform="translate(0.000000,655.000000) scale(0.100000,-0.100000)"
fill="#000000" stroke="none">
<path d="M4839 6234 c-17 -18 -23 -36 -23 -65 1 -31 -2 -39 -16 -39 -9 0 -24
-8 -33 -18 -23 -25 -24 -134 -2 -152 11 -9 15 -35 15 -104 0 -138 -13 -131
235 -131 248 0 235 -7 235 129 1 64 5 97 15 110 22 30 20 128 -3 149 -10 10
-26 17 -35 17 -13 0 -17 10 -17 44 0 88 -87 115 -159 50 l-40 -35 -16 24 c-34
52 -116 63 -156 21z m115 -30 c14 -15 26 -30 26 -35 0 -4 3 -14 6 -23 5 -13
-3 -16 -48 -16 -60 0 -78 11 -78 50 0 54 50 67 94 24z m208 9 c21 -18 24 -53
6 -71 -7 -7 -38 -12 -69 -12 l-58 0 11 30 c11 33 52 70 76 70 9 0 24 -7 34
-17z m-172 -133 c6 -4 10 -24 8 -46 l-3 -39 -104 0 -105 0 0 31 c0 62 5 65
103 63 49 -1 94 -5 101 -9z m243 4 c24 -9 24 -91 1 -96 -9 -2 -56 -2 -105 0
l-89 3 0 48 0 49 88 1 c49 1 96 -1 105 -5z m-238 -229 l0 -90 -87 -3 -88 -3 0
96 0 96 88 -3 87 -3 0 -90z m217 23 c5 -124 10 -118 -88 -118 l-84 0 0 95 0
95 84 0 84 0 4 -72z"/>
<path d="M9375 5833 c-55 -50 -133 -98 -178 -110 -30 -7 -105 -13 -177 -13
-161 0 -163 -1 -165 -105 -2 -70 0 -81 21 -102 14 -13 35 -23 52 -23 28 0 29
-2 35 -55 3 -30 11 -67 19 -82 11 -24 20 -28 64 -31 70 -4 81 10 53 72 -12 29
-18 57 -15 72 6 21 12 24 49 24 65 0 125 -25 197 -80 35 -28 71 -49 80 -48 12
3 16 23 18 101 1 53 6 97 11 97 4 0 13 11 19 25 12 27 1 75 -17 75 -6 0 -12
42 -13 97 -3 106 -13 122 -53 86z m5 -233 c0 -88 -2 -160 -5 -160 -3 0 -25 16
-50 35 -47 35 -127 65 -177 65 -28 0 -28 1 -28 59 l0 59 48 7 c57 8 122 35
165 70 18 13 35 25 40 25 4 0 7 -72 7 -160z"/>
<path d="M5186 5531 c-4 -5 -2 -12 3 -15 5 -4 12 -2 15 3 4 5 2 12 -3 15 -5 4
-12 2 -15 -3z"/>
<path d="M4760 5450 c0 -89 1 -89 72 -70 26 8 39 18 46 39 22 64 -12 111 -80
111 l-38 0 0 -80z m84 44 c25 -24 20 -71 -9 -90 -40 -26 -55 -13 -55 51 0 52
1 55 24 55 14 0 32 -7 40 -16z"/>
<path d="M5250 5474 c0 -34 4 -53 10 -49 6 3 10 28 10 56 0 27 -4 49 -10 49
-5 0 -10 -25 -10 -56z"/>
<path d="M4924 5464 c-23 -34 -9 -75 28 -88 35 -12 68 15 68 55 0 58 -65 81
-96 33z m72 -20 c8 -30 -16 -60 -40 -51 -16 6 -23 57 -9 70 16 16 43 6 49 -19z"/>
<path d="M5062 5478 c-13 -13 -16 -66 -4 -85 13 -20 55 -25 77 -9 19 14 18 15
-20 13 -30 -2 -40 2 -43 16 -3 14 4 17 37 17 33 0 41 4 41 18 0 25 -20 42 -50
42 -14 0 -31 -5 -38 -12z m66 -25 c2 -9 -7 -13 -27 -13 -30 0 -39 9 -24 24 11
10 46 3 51 -11z"/>
<path d="M5180 5436 c0 -30 5 -58 10 -61 6 -4 10 17 10 54 0 34 -4 61 -10 61
-5 0 -10 -24 -10 -54z"/>
<path d="M5250 5384 c0 -8 5 -12 10 -9 6 3 10 10 10 16 0 5 -4 9 -10 9 -5 0
-10 -7 -10 -16z"/>
<path d="M3830 5088 c0 -34 2 -59 5 -56 8 8 11 118 3 118 -5 0 -8 -28 -8 -62z"/>
<path d="M4143 5090 c0 -36 2 -50 4 -32 2 17 2 47 0 65 -2 17 -4 3 -4 -33z"/>
<path d="M3901 5122 c0 -12 -8 -25 -16 -28 -13 -5 -13 -10 1 -36 9 -16 18 -28
21 -25 2 3 0 14 -6 25 -7 13 -7 22 0 29 6 6 9 21 6 34 l-4 24 -2 -23z"/>
<path d="M5820 5125 c-8 -10 -9 -15 -1 -15 6 0 11 -17 11 -40 0 -22 3 -40 8
-40 7 0 7 98 -1 106 -2 2 -10 -2 -17 -11z"/>
<path d="M6193 5090 c0 -30 2 -43 4 -27 2 15 2 39 0 55 -2 15 -4 2 -4 -28z"/>
<path d="M3968 5113 c7 -3 16 -2 19 1 4 3 -2 6 -13 5 -11 0 -14 -3 -6 -6z"/>
<path d="M4078 5113 c26 -5 29 -30 5 -36 -16 -4 -16 -5 -1 -6 9 0 19 -11 21
-23 3 -13 4 -3 3 22 -1 40 -4 45 -26 47 -22 1 -22 1 -2 -4z"/>
<path d="M4230 5116 c0 -2 14 -6 30 -8 17 -3 30 -1 30 4 0 4 -13 8 -30 8 -16
0 -30 -2 -30 -4z"/>
<path d="M4348 5113 c7 -3 16 -2 19 1 4 3 -2 6 -13 5 -11 0 -14 -3 -6 -6z"/>
<path d="M4498 5113 c7 -3 16 -2 19 1 4 3 -2 6 -13 5 -11 0 -14 -3 -6 -6z"/>
<path d="M4632 5108 c-20 -20 -12 -78 11 -78 7 0 7 4 -1 12 -20 20 -14 58 11
68 13 5 16 9 7 9 -9 1 -21 -4 -28 -11z"/>
<path d="M4731 5106 c-16 -19 -10 -68 9 -73 12 -4 12 -3 2 5 -22 15 -11 66 15
70 28 4 42 -39 22 -66 -12 -16 -12 -16 6 0 15 14 17 23 9 45 -11 32 -44 42
-63 19z"/>
<path d="M4831 5104 c0 -11 3 -14 6 -6 3 7 2 16 -1 19 -3 4 -6 -2 -5 -13z"/>
<path d="M4868 5113 c6 -2 13 -23 13 -46 l2 -42 6 40 c6 38 -2 55 -24 54 -5 0
-4 -3 3 -6z"/>
<path d="M4923 5109 c11 -6 17 -23 18 -47 1 -25 3 -29 6 -13 7 36 -5 71 -25
71 -16 -1 -16 -1 1 -11z"/>
<path d="M4980 5055 c0 -38 2 -66 5 -63 8 8 10 116 2 124 -4 4 -7 -23 -7 -61z"/>
<path d="M5020 5116 c0 -2 7 -7 16 -10 8 -3 12 -2 9 4 -6 10 -25 14 -25 6z"/>
<path d="M5091 5104 c0 -11 3 -14 6 -6 3 7 2 16 -1 19 -3 4 -6 -2 -5 -13z"/>
<path d="M5178 5113 c7 -3 16 -2 19 1 4 3 -2 6 -13 5 -11 0 -14 -3 -6 -6z"/>
<path d="M5310 5105 c-19 -22 -8 -25 13 -3 9 10 13 18 8 18 -5 0 -14 -7 -21
-15z"/>
<path d="M5422 5108 c-7 -7 -11 -23 -11 -37 l2 -26 4 25 c3 14 10 31 15 38 13
15 6 16 -10 0z"/>
<path d="M5573 5080 c0 -25 2 -35 4 -22 2 12 2 32 0 45 -2 12 -4 2 -4 -23z"/>
<path d="M5608 5113 c6 -2 13 -23 13 -46 l2 -42 6 40 c6 38 -2 55 -24 54 -5 0
-4 -3 3 -6z"/>
<path d="M5662 5114 c11 -4 18 -19 21 -45 l4 -39 -1 42 c-1 35 -5 43 -21 45
-15 1 -15 0 -3 -3z"/>
<path d="M5768 5109 c18 -19 15 -27 -10 -32 l-23 -4 23 -2 c24 -1 28 -11 12
-27 -7 -7 -6 -11 5 -11 23 0 21 73 -2 82 -15 5 -16 4 -5 -6z"/>
<path d="M5892 5108 c-18 -18 -15 -54 6 -69 14 -11 15 -11 5 1 -20 22 -15 30
16 30 17 0 32 4 35 8 2 4 -11 6 -31 4 -27 -3 -34 -1 -31 9 3 8 17 14 31 14 14
-1 23 3 21 7 -8 12 -38 10 -52 -4z"/>
<path d="M6053 5075 c0 -27 2 -38 4 -22 2 15 2 37 0 50 -2 12 -4 0 -4 -28z"/>
<path d="M6118 5113 c7 -3 16 -2 19 1 4 3 -2 6 -13 5 -11 0 -14 -3 -6 -6z"/>
<path d="M4000 5095 c0 -18 -46 -21 -53 -2 -3 6 -6 -2 -6 -20 -1 -17 3 -34 8
-37 5 -4 7 3 4 14 -5 17 0 20 26 20 24 0 31 4 31 20 0 11 -2 20 -5 20 -3 0 -5
-7 -5 -15z"/>
<path d="M4532 5098 c-1 -9 -10 -19 -19 -21 -16 -4 -16 -5 1 -6 14 -1 17 -6
13 -22 -4 -15 -3 -19 4 -12 6 6 9 26 6 44 -2 19 -5 26 -5 17z"/>
<path d="M8519 5091 c-50 -41 -20 -141 43 -141 31 0 81 41 58 48 -7 3 -17 -3
-22 -12 -11 -19 -49 -21 -66 -4 -7 7 -12 29 -12 50 0 31 5 41 25 50 20 9 28 8
43 -5 22 -20 43 -22 36 -3 -5 14 -46 36 -68 36 -8 0 -24 -9 -37 -19z"/>
<path d="M9435 5100 c4 -6 11 -8 16 -5 14 9 11 15 -7 15 -8 0 -12 -5 -9 -10z"/>
<path d="M9497 5103 c-11 -11 -8 -153 3 -153 6 0 10 33 10 80 0 80 -1 86 -13
73z"/>
<path d="M9550 5031 c0 -47 4 -81 10 -81 6 0 10 15 10 34 0 47 9 66 30 66 21
0 30 -19 30 -66 0 -19 5 -34 10 -34 6 0 10 22 10 49 0 59 -18 80 -55 63 -23
-11 -25 -9 -25 13 0 13 -4 27 -10 30 -6 4 -10 -23 -10 -74z"/>
<path d="M9815 5100 c3 -5 10 -10 16 -10 5 0 9 5 9 10 0 6 -7 10 -16 10 -8 0
-12 -4 -9 -10z"/>
<path d="M9887 5103 c-11 -10 -8 -103 3 -103 6 0 10 25 10 55 0 56 -1 60 -13
48z"/>
<path d="M4320 5085 c0 -18 5 -20 38 -16 36 5 36 6 7 9 -16 2 -33 9 -37 15 -5
8 -8 4 -8 -8z"/>
<path d="M5210 5091 c0 -5 -8 -12 -17 -14 -16 -4 -16 -5 -1 -6 9 0 19 -11 21
-23 3 -14 5 -9 6 15 0 20 -1 37 -4 37 -3 0 -5 -4 -5 -9z"/>
<path d="M6150 5091 c0 -5 -8 -12 -17 -14 -16 -4 -16 -5 1 -6 13 -1 17 -6 13
-21 -3 -11 -1 -20 4 -20 5 0 9 16 9 35 0 19 -2 35 -5 35 -3 0 -5 -4 -5 -9z"/>
<path d="M5051 5074 c0 -11 3 -14 6 -6 3 7 2 16 -1 19 -3 4 -6 -2 -5 -13z"/>
<path d="M5481 5074 c0 -11 3 -14 6 -6 3 7 2 16 -1 19 -3 4 -6 -2 -5 -13z"/>
<path d="M9352 5070 c-7 -12 -8 -20 -2 -20 5 0 10 -20 10 -45 0 -32 5 -47 15
-52 9 -3 19 -2 23 2 4 4 1 10 -5 12 -15 6 -18 83 -3 83 6 0 5 8 -2 20 -7 11
-15 20 -18 20 -3 0 -11 -9 -18 -20z"/>
<path d="M4040 5056 c0 -8 4 -17 8 -20 4 -2 8 4 8 15 0 10 -4 19 -8 19 -4 0
-8 -6 -8 -14z"/>
<path d="M4242 5058 c-15 -15 -15 -28 0 -28 6 0 8 3 5 7 -4 3 -2 12 4 20 14
16 7 17 -9 1z"/>
<path d="M4470 5056 c0 -8 4 -17 9 -20 5 -4 7 3 4 14 -6 23 -13 26 -13 6z"/>
<path d="M5150 5056 c0 -8 4 -17 9 -20 5 -4 7 3 4 14 -6 23 -13 26 -13 6z"/>
<path d="M5720 5050 c0 -11 4 -20 9 -20 5 0 7 9 4 20 -3 11 -7 20 -9 20 -2 0
-4 -9 -4 -20z"/>
<path d="M6090 5056 c0 -8 4 -17 9 -20 5 -4 7 3 4 14 -6 23 -13 26 -13 6z"/>
<path d="M8670 5050 c-24 -24 -25 -48 -4 -78 17 -24 62 -30 82 -10 21 21 15
75 -10 92 -30 21 -44 20 -68 -4z m66 -25 c9 -36 -2 -57 -28 -53 -39 5 -38 78
1 78 14 0 23 -9 27 -25z"/>
<path d="M8831 5061 c-8 -5 -20 -7 -28 -4 -10 4 -13 -8 -13 -52 0 -69 22 -72
30 -4 3 30 10 44 20 44 11 0 16 -13 18 -47 2 -33 8 -48 17 -48 9 0 15 15 17
48 2 34 7 47 18 47 11 0 16 -13 18 -47 2 -34 7 -48 18 -48 9 0 14 11 14 33 0
70 -22 97 -60 77 -13 -7 -21 -7 -25 0 -8 12 -25 13 -44 1z"/>
<path d="M9031 5061 c-8 -5 -20 -7 -28 -4 -10 4 -13 -11 -13 -70 0 -42 5 -79
10 -82 6 -4 10 6 10 24 0 28 2 29 33 24 31 -5 35 -2 47 27 12 28 11 37 -1 59
-16 28 -36 36 -58 22z m39 -31 c16 -30 3 -60 -25 -60 -18 0 -26 7 -31 25 -12
46 35 75 56 35z"/>
<path d="M9144 5056 c-18 -13 -17 -14 15 -13 45 3 52 -19 9 -28 -39 -9 -50
-22 -37 -46 7 -13 20 -17 49 -16 l40 1 0 48 c0 37 -4 50 -19 58 -26 13 -33 13
-57 -4z m56 -65 c0 -5 -7 -14 -15 -21 -12 -10 -18 -10 -30 0 -8 7 -12 16 -9
21 7 12 54 12 54 0z"/>
<path d="M9283 5063 c-21 -4 -23 -10 -23 -59 0 -30 5 -54 10 -54 6 0 10 21 10
46 0 37 4 47 20 51 18 5 30 25 13 22 -5 -1 -18 -4 -30 -6z"/>
<path d="M9702 5054 c-39 -27 -23 -104 23 -104 30 0 55 10 55 21 0 5 -14 6
-31 2 -21 -4 -34 -1 -40 8 -7 11 1 15 34 19 35 4 41 8 39 25 -4 21 -28 45 -47
45 -6 0 -21 -7 -33 -16z m56 -21 c2 -9 -7 -13 -28 -13 -28 0 -31 2 -20 15 15
18 41 16 48 -2z"/>
<path d="M9439 5045 c-5 -52 0 -95 11 -95 6 0 10 25 10 55 0 30 -4 55 -10 55
-5 0 -11 -7 -11 -15z"/>
<path d="M9810 5005 c0 -42 3 -55 15 -55 12 0 15 13 15 55 0 42 -3 55 -15 55
-12 0 -15 -13 -15 -55z"/>
<path d="M5935 5040 c-3 -5 -1 -10 4 -10 6 0 11 5 11 10 0 6 -2 10 -4 10 -3 0
-8 -4 -11 -10z"/>
<path d="M9880 4965 c0 -8 5 -15 10 -15 6 0 10 7 10 15 0 8 -4 15 -10 15 -5 0
-10 -7 -10 -15z"/>
<path d="M4829 4920 c-1 -11 -2 -34 -3 -50 0 -17 -8 -35 -16 -40 -11 -7 -10
-9 8 -7 20 1 22 6 22 59 0 32 -2 58 -5 58 -3 0 -6 -9 -6 -20z"/>
<path d="M3537 4903 c-3 -5 8 -8 23 -8 15 0 26 3 23 8 -2 4 -13 7 -23 7 -10 0
-21 -3 -23 -7z"/>
<path d="M3628 4903 c6 -2 18 -2 25 0 6 3 1 5 -13 5 -14 0 -19 -2 -12 -5z"/>
<path d="M3691 4860 l2 -45 6 39 c4 26 13 42 26 47 17 6 15 7 -7 6 -26 -1 -28
-4 -27 -47z"/>
<path d="M3766 4902 c-3 -5 6 -7 19 -4 18 3 25 0 25 -12 0 -9 -8 -16 -19 -16
-25 0 -48 -27 -34 -41 8 -8 11 -6 10 7 -1 13 6 20 22 22 20 3 23 0 18 -17 -3
-12 -1 -21 5 -21 5 0 8 19 6 43 -2 34 -7 43 -25 45 -11 2 -24 -1 -27 -6z"/>
<path d="M3851 4904 c-2 -21 30 -85 39 -79 12 7 33 75 26 82 -3 4 -6 1 -6 -5
0 -6 -5 -23 -11 -39 l-11 -28 -18 40 c-10 22 -19 35 -19 29z"/>
<path d="M3957 4903 c-4 -3 -7 -11 -7 -17 0 -6 4 -5 9 2 10 16 43 12 49 -5 2
-9 -8 -13 -32 -13 -20 0 -36 -3 -36 -8 0 -4 18 -6 40 -4 40 4 50 18 28 40 -13
13 -41 16 -51 5z"/>
<path d="M4054 4895 c-8 -19 4 -35 24 -34 15 1 15 2 0 6 -29 7 -22 36 7 31 13
-3 22 -1 19 3 -9 14 -44 10 -50 -6z"/>
<path d="M4200 4896 c-6 -8 -10 -25 -7 -38 4 -20 4 -20 6 5 1 19 8 31 24 37
15 6 17 9 6 9 -9 1 -22 -6 -29 -13z"/>
<path d="M4317 4903 c-3 -5 8 -8 23 -8 15 0 26 3 23 8 -2 4 -13 7 -23 7 -10 0
-21 -3 -23 -7z"/>
<path d="M4563 4865 c0 -27 2 -38 4 -22 2 15 2 37 0 50 -2 12 -4 0 -4 -28z"/>
<path d="M4593 4903 c9 -3 17 -10 17 -16 0 -8 4 -7 12 1 25 25 47 14 51 -25
l4 -38 -1 40 -1 40 -50 1 c-27 0 -42 -1 -32 -3z"/>
<path d="M4771 4896 c-16 -19 -10 -68 9 -74 12 -4 13 -2 3 9 -21 21 -16 59 10
69 15 6 17 9 6 9 -9 1 -22 -5 -28 -13z"/>
<path d="M4882 4902 c-17 -11 -12 -74 6 -78 7 -1 8 0 2 3 -24 12 -9 33 25 33
31 0 34 2 26 23 -9 23 -37 33 -59 19z m46 -19 c2 -8 -6 -13 -22 -13 -25 0 -33
10 -19 24 10 10 36 3 41 -11z"/>
<path d="M5021 4861 l2 -46 6 40 c5 31 11 41 28 43 19 3 22 -2 26 -40 l4 -43
-1 45 c-1 44 -2 45 -33 46 -33 1 -33 1 -32 -45z"/>
<path d="M5136 4901 c-4 -5 4 -7 15 -4 15 4 27 0 35 -12 8 -11 14 -14 14 -9 0
26 -51 46 -64 25z"/>
<path d="M5240 4906 c0 -2 11 -6 25 -8 13 -3 22 -1 19 3 -5 9 -44 13 -44 5z"/>
<path d="M5336 4901 c-3 -4 6 -6 19 -3 14 2 25 6 25 8 0 8 -39 4 -44 -5z"/>
<path d="M5425 4899 c-4 -6 -4 -13 -1 -16 3 -4 6 -1 6 5 0 16 32 15 50 0 12
-11 12 -10 1 5 -15 19 -46 23 -56 6z"/>
<path d="M5530 4906 c0 -2 11 -6 25 -8 13 -3 22 -1 19 3 -5 9 -44 13 -44 5z"/>
<path d="M5678 4903 c-13 -3 -18 -15 -18 -44 0 -21 5 -39 11 -39 6 0 8 11 4
28 -7 32 15 58 40 48 17 -6 21 -61 5 -69 -6 -3 -5 -4 2 -3 8 2 13 18 13 42 0
41 -13 49 -57 37z"/>
<path d="M5776 4901 c-4 -6 5 -9 20 -8 33 2 44 -20 12 -26 l-23 -4 23 -2 c24
-1 28 -11 12 -27 -7 -7 -6 -11 5 -11 13 0 15 9 13 41 -3 36 -6 41 -30 44 -14
2 -29 -1 -32 -7z"/>
<path d="M5872 4860 c1 -40 2 -41 5 -10 2 19 11 40 20 47 13 10 13 12 -6 10
-18 -1 -21 -7 -19 -47z"/>
<path d="M5942 4898 c-20 -20 -12 -78 10 -78 6 0 6 6 -2 14 -6 8 -10 25 -8 38
2 18 9 23 30 23 14 -1 24 3 22 7 -8 12 -38 10 -52 -4z"/>
<path d="M6042 4898 c-18 -18 -15 -65 6 -73 14 -5 15 -4 5 6 -21 21 -15 28 25
32 l37 4 -38 1 c-44 2 -48 27 -4 27 14 -1 23 3 21 7 -8 12 -38 10 -52 -4z"/>
<path d="M6250 4893 c-12 -15 -12 -16 0 -5 17 15 46 16 53 2 3 -6 4 -5 3 2 -4
20 -41 21 -56 1z"/>
<path d="M6356 4901 c-3 -4 6 -6 19 -3 14 2 25 6 25 8 0 8 -39 4 -44 -5z"/>
<path d="M4250 4890 c0 -5 5 -10 10 -10 6 0 10 5 10 10 0 6 -4 10 -10 10 -5 0
-10 -4 -10 -10z"/>
<path d="M5520 4880 c0 -6 7 -13 15 -17 24 -9 27 1 5 15 -13 8 -20 8 -20 2z"/>
<path d="M3565 4873 c-34 -8 -38 -20 -5 -15 16 2 30 8 30 13 0 5 -1 8 -2 8 -2
-1 -12 -3 -23 -6z"/>
<path d="M4300 4855 c0 -12 3 -16 8 -8 4 6 23 13 42 15 l35 3 -42 6 c-38 4
-43 2 -43 -16z"/>
<path d="M5121 4864 c0 -12 7 -28 17 -35 15 -12 16 -12 6 1 -7 8 -14 24 -17
35 -4 19 -5 19 -6 -1z"/>
<path d="M5336 4869 c3 -5 11 -9 19 -9 20 0 30 -21 14 -31 -9 -6 -10 -9 -2 -9
18 0 26 19 14 34 -13 16 -54 29 -45 15z"/>
<path d="M6356 4869 c3 -5 11 -9 19 -9 20 0 30 -21 14 -31 -9 -6 -10 -9 -2 -9
18 0 26 19 14 34 -13 16 -54 29 -45 15z"/>
<path d="M5250 4866 c0 -2 9 -6 20 -9 11 -3 18 -1 14 4 -5 9 -34 13 -34 5z"/>
<path d="M4097 4840 c-3 -11 -1 -20 4 -20 5 0 9 9 9 20 0 11 -2 20 -4 20 -2 0
-6 -9 -9 -20z"/>
<path d="M5575 4851 c4 -8 2 -17 -6 -22 -9 -6 -10 -9 -2 -9 19 0 27 21 13 33
-10 9 -11 9 -5 -2z"/>
<path d="M5770 4840 c0 -11 4 -20 9 -20 5 0 7 9 4 20 -3 11 -7 20 -9 20 -2 0
-4 -9 -4 -20z"/>
<path d="M4255 4840 c-3 -5 -1 -10 4 -10 6 0 11 5 11 10 0 6 -2 10 -4 10 -3 0
-8 -4 -11 -10z"/>
<path d="M5182 4834 c-7 -8 -8 -14 -3 -14 10 0 25 19 20 25 -2 1 -10 -3 -17
-11z"/>
<path d="M5472 4834 c-7 -8 -8 -14 -3 -14 10 0 25 19 20 25 -2 1 -10 -3 -17
-11z"/>
<path d="M6240 4841 c0 -10 19 -25 25 -20 1 2 -3 10 -11 17 -8 7 -14 8 -14 3z"/>
<path d="M4000 4830 c-9 -6 -10 -10 -3 -10 6 0 15 5 18 10 8 12 4 12 -15 0z"/>
<path d="M4460 4829 c0 -5 9 -9 20 -9 11 0 20 2 20 4 0 2 -9 6 -20 9 -11 3
-20 1 -20 -4z"/>
<path d="M6290 4830 c-9 -6 -10 -10 -3 -10 6 0 15 5 18 10 8 12 4 12 -15 0z"/>
<path d="M4883 4733 c-9 -3 -13 -26 -13 -65 0 -72 8 -74 11 -3 1 28 6 56 12
63 10 13 9 13 -10 5z"/>
<path d="M3620 4668 c0 -34 3 -59 6 -56 9 9 10 118 2 118 -5 0 -8 -28 -8 -62z"/>
<path d="M4658 4708 c-2 -7 -1 -33 3 -58 l6 -45 1 58 c2 55 -2 71 -10 45z"/>
<path d="M5263 4665 c0 -33 2 -45 4 -27 2 18 2 45 0 60 -2 15 -4 0 -4 -33z"/>
<path d="M3691 4693 c0 -13 -5 -23 -11 -23 -15 0 -12 -24 6 -46 14 -18 15 -18
4 4 -9 17 -8 27 0 37 6 8 10 22 7 32 -4 14 -5 13 -6 -4z"/>
<path d="M9768 4693 c-2 -10 -1 -38 3 -63 6 -43 6 -43 7 18 2 61 -2 79 -10 45z"/>
<path d="M10063 4645 c0 -33 2 -45 4 -27 2 18 2 45 0 60 -2 15 -4 0 -4 -33z"/>
<path d="M3737 4683 c-9 -9 -9 -61 1 -66 4 -3 7 12 7 34 0 21 0 39 -1 39 0 0
-4 -3 -7 -7z"/>
<path d="M3837 4683 c-9 -9 -8 -45 1 -60 5 -7 8 4 7 27 0 22 0 40 -1 40 0 0
-4 -3 -7 -7z"/>
<path d="M3937 4683 c-9 -9 -9 -61 1 -66 4 -3 7 12 7 34 0 21 0 39 -1 39 0 0
-4 -3 -7 -7z"/>
<path d="M3992 4670 c0 -14 2 -19 5 -12 2 6 2 18 0 25 -3 6 -5 1 -5 -13z"/>
<path d="M4041 4674 c0 -11 3 -14 6 -6 3 7 2 16 -1 19 -3 4 -6 -2 -5 -13z"/>
<path d="M4440 4675 c0 -8 2 -15 4 -15 2 0 6 7 10 15 3 8 1 15 -4 15 -6 0 -10
-7 -10 -15z"/>
<path d="M4606 4677 c3 -10 9 -15 12 -12 3 3 0 11 -7 18 -10 9 -11 8 -5 -6z"/>
<path d="M4773 4650 c0 -25 2 -35 4 -22 2 12 2 32 0 45 -2 12 -4 2 -4 -23z"/>
<path d="M4933 4650 c0 -25 2 -35 4 -22 2 12 2 32 0 45 -2 12 -4 2 -4 -23z"/>
<path d="M4971 4674 c0 -11 3 -14 6 -6 3 7 2 16 -1 19 -3 4 -6 -2 -5 -13z"/>
<path d="M5064 4676 c-3 -8 -4 -23 -2 -33 3 -11 6 -6 9 15 6 34 2 42 -7 18z"/>
<path d="M5513 4650 c0 -25 2 -35 4 -22 2 12 2 32 0 45 -2 12 -4 2 -4 -23z"/>
<path d="M5570 4647 c4 -41 5 -41 8 -8 2 18 0 37 -5 42 -5 5 -6 -11 -3 -34z"/>
<path d="M5660 4676 c0 -8 4 -17 9 -20 5 -4 7 3 4 14 -6 23 -13 26 -13 6z"/>
<path d="M5757 4683 c-9 -9 -9 -61 1 -66 4 -3 7 12 7 34 0 21 0 39 -1 39 0 0
-4 -3 -7 -7z"/>
<path d="M5810 4670 c0 -11 4 -20 9 -20 5 0 7 9 4 20 -3 11 -7 20 -9 20 -2 0
-4 -9 -4 -20z"/>
<path d="M5850 4664 c0 -16 5 -36 10 -44 6 -10 7 -2 3 25 -7 49 -13 58 -13 19z"/>
<path d="M5913 4650 c0 -25 2 -35 4 -22 2 12 2 32 0 45 -2 12 -4 2 -4 -23z"/>
<path d="M6110 4675 c0 -8 2 -15 4 -15 2 0 6 7 10 15 3 8 1 15 -4 15 -6 0 -10
-7 -10 -15z"/>
<path d="M6160 4680 c0 -5 5 -10 10 -10 6 0 10 5 10 10 0 6 -4 10 -10 10 -5 0
-10 -4 -10 -10z"/>
<path d="M6220 4647 c4 -41 5 -41 8 -8 2 18 0 37 -5 42 -5 5 -6 -11 -3 -34z"/>
<path d="M8990 4676 c0 -9 5 -16 10 -16 6 0 10 4 10 9 0 6 -4 13 -10 16 -5 3
-10 -1 -10 -9z"/>
<path d="M9548 4683 c-2 -5 -1 -28 2 -53 l6 -45 5 48 c4 43 -3 71 -13 50z"/>
<path d="M3791 4664 c0 -11 3 -14 6 -6 3 7 2 16 -1 19 -3 4 -6 -2 -5 -13z"/>
<path d="M4203 4645 c0 -22 2 -30 4 -17 2 12 2 30 0 40 -3 9 -5 -1 -4 -23z"/>
<path d="M4347 4663 c-2 -5 -1 -19 4 -33 7 -23 7 -23 8 8 1 31 -3 40 -12 25z"/>
<path d="M5219 4668 c-5 -16 -3 -58 3 -58 4 0 8 14 8 30 0 17 -2 30 -5 30 -3
0 -5 -1 -6 -2z"/>
<path d="M5352 4650 c0 -14 2 -19 5 -12 2 6 2 18 0 25 -3 6 -5 1 -5 -13z"/>
<path d="M6000 4652 c0 -11 8 -26 18 -33 15 -13 16 -12 4 3 -8 9 -11 22 -8 27
4 5 2 12 -4 16 -5 3 -10 -3 -10 -13z"/>
<path d="M6319 4668 c-5 -16 -3 -58 3 -58 4 0 8 14 8 30 0 17 -2 30 -5 30 -3
0 -5 -1 -6 -2z"/>
<path d="M8635 4630 c0 -21 3 -36 8 -33 4 2 7 17 7 33 0 16 -3 31 -7 33 -5 3
-8 -12 -8 -33z"/>
<path d="M8683 4630 c0 -25 2 -35 4 -22 2 12 2 32 0 45 -2 12 -4 2 -4 -23z"/>
<path d="M8730 4631 c0 -23 4 -41 9 -41 5 0 9 16 9 35 0 19 -4 38 -9 41 -5 3
-9 -13 -9 -35z"/>
<path d="M8788 4630 c2 -22 6 -40 8 -40 2 0 4 18 4 40 0 22 -3 40 -8 40 -4 0
-6 -18 -4 -40z"/>
<path d="M8837 4663 c-9 -9 -9 -61 1 -66 4 -3 7 12 7 34 0 21 0 39 -1 39 0 0
-4 -3 -7 -7z"/>
<path d="M8896 4645 c8 -37 14 -45 14 -19 0 10 -5 26 -10 34 -8 11 -9 7 -4
-15z"/>
<path d="M9298 4640 c2 -16 6 -30 8 -30 2 0 4 14 4 30 0 17 -4 30 -8 30 -5 0
-7 -13 -4 -30z"/>
<path d="M9400 4636 c0 -19 3 -37 8 -40 4 -2 6 13 4 35 -5 48 -12 51 -12 5z"/>
<path d="M9458 4630 c-2 -22 0 -40 4 -40 5 0 8 18 8 40 0 22 -2 40 -4 40 -2 0
-6 -18 -8 -40z"/>
<path d="M9503 4630 c0 -25 2 -35 4 -22 2 12 2 32 0 45 -2 12 -4 2 -4 -23z"/>
<path d="M9665 4630 c0 -21 3 -36 8 -33 4 2 7 17 7 33 0 16 -3 31 -7 33 -5 3
-8 -12 -8 -33z"/>
<path d="M9877 4633 c5 -50 13 -55 13 -10 0 20 -4 38 -9 41 -4 3 -6 -11 -4
-31z"/>
<path d="M9927 4663 c-9 -9 -9 -61 1 -66 4 -3 7 12 7 34 0 21 0 39 -1 39 0 0
-4 -3 -7 -7z"/>
<path d="M10022 4640 c0 -19 2 -27 5 -17 2 9 2 25 0 35 -3 9 -5 1 -5 -18z"/>
<path d="M10139 4653 c-13 -16 -12 -17 4 -4 9 7 17 15 17 17 0 8 -8 3 -21 -13z"/>
<path d="M8573 4644 c-3 -8 -1 -25 4 -37 8 -18 10 -16 9 16 -1 41 -4 45 -13
21z"/>
<path d="M9603 4644 c-3 -8 -1 -25 4 -37 8 -18 10 -16 9 16 -1 41 -4 45 -13
21z"/>
<path d="M4042 4630 c0 -14 2 -19 5 -12 2 6 2 18 0 25 -3 6 -5 1 -5 -13z"/>
<path d="M4714 4639 c-3 -6 -2 -15 3 -20 5 -5 9 -1 9 11 0 23 -2 24 -12 9z"/>
<path d="M5021 4634 c0 -11 3 -14 6 -6 3 7 2 16 -1 19 -3 4 -6 -2 -5 -13z"/>
<path d="M5706 4637 c3 -10 9 -15 12 -12 3 3 0 11 -7 18 -10 9 -11 8 -5 -6z"/>
<path d="M4096 4623 c-6 -14 -5 -15 5 -6 7 7 10 15 7 18 -3 3 -9 -2 -12 -12z"/>
<path d="M4606 4623 c-6 -14 -5 -15 5 -6 7 7 10 15 7 18 -3 3 -9 -2 -12 -12z"/>
<path d="M5161 4624 c0 -11 3 -14 6 -6 3 7 2 16 -1 19 -3 4 -6 -2 -5 -13z"/>
<path d="M9823 4615 c-3 -9 -3 -18 -1 -21 3 -3 8 4 11 16 6 23 -1 27 -10 5z"/>
<path d="M8381 4604 c0 -11 3 -14 6 -6 3 7 2 16 -1 19 -3 4 -6 -2 -5 -13z"/>
<path d="M8200 4599 c0 -5 5 -7 10 -4 6 3 10 8 10 11 0 2 -4 4 -10 4 -5 0 -10
-5 -10 -11z"/>
<path d="M4763 4455 c0 -38 2 -53 4 -32 2 20 2 52 0 70 -2 17 -4 1 -4 -38z"/>
<path d="M4860 4501 c-10 -25 4 -104 20 -108 10 -3 11 -2 3 4 -6 5 -13 33 -15
63 -2 30 -5 49 -8 41z"/>
<path d="M4600 4486 c0 -9 5 -16 10 -16 6 0 10 4 10 9 0 6 -4 13 -10 16 -5 3
-10 -1 -10 -9z"/>
<path d="M8051 4496 c2 -2 15 -9 29 -15 24 -11 24 -11 6 3 -16 13 -49 24 -35
12z"/>
<path d="M9880 4490 c-9 -6 -10 -10 -3 -10 6 0 15 5 18 10 8 12 4 12 -15 0z"/>
<path d="M4430 4480 c0 -5 5 -10 10 -10 6 0 10 5 10 10 0 6 -4 10 -10 10 -5 0
-10 -4 -10 -10z"/>
<path d="M8016 4474 c-9 -24 -2 -26 12 -4 7 11 8 20 3 20 -5 0 -12 -7 -15 -16z"/>
<path d="M8682 4436 c2 -42 7 -61 18 -64 12 -4 13 -3 3 10 -7 8 -12 34 -11 57
1 22 -2 44 -6 48 -4 4 -6 -19 -4 -51z"/>
<path d="M8783 4430 c0 -36 2 -50 4 -32 2 17 2 47 0 65 -2 17 -4 3 -4 -33z"/>
<path d="M8823 4430 c0 -36 2 -49 4 -30 3 19 10 41 16 49 9 11 9 13 0 8 -7 -5
-13 1 -16 15 -2 13 -4 -6 -4 -42z"/>
<path d="M9490 4469 c0 -13 -4 -18 -12 -13 -9 5 -9 3 1 -9 7 -9 11 -28 9 -42
-3 -14 -1 -28 3 -31 5 -3 9 22 9 55 0 34 -2 61 -5 61 -3 0 -5 -9 -5 -21z"/>
<path d="M4027 4473 c-12 -12 -7 -60 8 -73 16 -13 55 -5 55 12 0 6 -6 6 -15
-2 -26 -22 -48 -4 -43 35 4 38 4 38 -5 28z"/>
<path d="M4278 4440 c2 -22 6 -40 8 -40 2 0 4 18 4 40 0 22 -3 40 -8 40 -4 0
-6 -18 -4 -40z"/>
<path d="M4497 4473 c-11 -11 -8 -58 5 -71 7 -7 19 -12 28 -11 9 0 5 4 -9 10
-19 8 -23 15 -19 44 4 38 4 38 -5 28z"/>
<path d="M4546 4470 c7 -8 14 -24 17 -35 4 -19 5 -19 6 1 0 12 -7 28 -16 35
-16 12 -17 12 -7 -1z"/>
<path d="M4716 4466 c4 -10 1 -16 -7 -16 -12 0 -12 -2 0 -9 8 -5 11 -16 8 -25
-3 -8 -2 -18 3 -21 6 -4 10 11 10 34 0 22 -4 43 -10 46 -6 3 -7 -1 -4 -9z"/>
<path d="M4920 4465 c0 -8 2 -15 4 -15 2 0 6 7 10 15 3 8 1 15 -4 15 -6 0 -10
-7 -10 -15z"/>
<path d="M5036 4439 c1 -53 14 -63 14 -11 0 22 -3 43 -8 46 -4 2 -7 -13 -6
-35z"/>
<path d="M5080 4440 c0 -22 2 -40 4 -40 2 0 6 18 8 40 2 22 0 40 -4 40 -5 0
-8 -18 -8 -40z"/>
<path d="M5138 4440 c2 -22 6 -40 8 -40 2 0 4 18 4 40 0 22 -3 40 -8 40 -4 0
-6 -18 -4 -40z"/>
<path d="M5282 4460 c0 -14 2 -19 5 -12 2 6 2 18 0 25 -3 6 -5 1 -5 -13z"/>
<path d="M5490 4469 c0 -5 5 -7 10 -4 6 3 10 8 10 11 0 2 -4 4 -10 4 -5 0 -10
-5 -10 -11z"/>
<path d="M5607 4459 c4 -13 8 -18 11 -10 2 7 -1 18 -6 23 -8 8 -9 4 -5 -13z"/>
<path d="M5650 4440 c0 -22 2 -40 4 -40 2 0 6 18 8 40 2 22 0 40 -4 40 -5 0
-8 -18 -8 -40z"/>
<path d="M5708 4443 c5 -59 10 -63 11 -10 1 26 -3 47 -7 47 -4 0 -6 -17 -4
-37z"/>
<path d="M5754 4455 c-4 -14 -4 -29 0 -32 3 -4 6 3 6 13 0 11 5 25 12 32 9 9
9 12 0 12 -6 0 -14 -11 -18 -25z"/>
<path d="M5853 4435 c0 -27 2 -38 4 -22 2 15 2 37 0 50 -2 12 -4 0 -4 -28z"/>
<path d="M5945 4443 c0 -31 -3 -38 -20 -38 -13 0 -19 6 -18 19 1 12 -2 15 -9
8 -19 -19 -1 -43 32 -40 28 2 30 5 30 45 0 24 -4 43 -8 43 -4 0 -8 -17 -7 -37z"/>
<path d="M5437 4455 c-4 -8 -2 -17 3 -20 6 -4 10 3 10 14 0 25 -6 27 -13 6z"/>
<path d="M8145 4450 c-3 -6 1 -7 9 -4 18 7 21 14 7 14 -6 0 -13 -4 -16 -10z"/>
<path d="M8240 4413 c0 -25 2 -44 4 -42 8 10 13 89 5 89 -5 0 -9 -21 -9 -47z"/>
<path d="M8287 4453 c6 -4 13 -26 16 -48 4 -40 4 -40 3 4 -1 30 -6 46 -16 48
-10 3 -11 2 -3 -4z"/>
<path d="M8345 4450 c3 -5 8 -10 11 -10 2 0 4 5 4 10 0 6 -5 10 -11 10 -5 0
-7 -4 -4 -10z"/>
<path d="M8401 4444 c0 -11 3 -14 6 -6 3 7 2 16 -1 19 -3 4 -6 -2 -5 -13z"/>
<path d="M8440 4456 c0 -2 7 -7 16 -10 8 -3 12 -2 9 4 -6 10 -25 14 -25 6z"/>
<path d="M8555 4422 c0 -31 -4 -38 -22 -40 -24 -3 -33 21 -13 31 6 3 5 4 -2 3
-7 -2 -13 -11 -13 -22 0 -15 7 -19 33 -20 31 -1 32 1 32 37 0 21 -4 40 -8 43
-4 2 -8 -12 -7 -32z"/>
<path d="M8602 4411 c1 -41 2 -42 5 -11 3 19 9 40 14 46 5 7 3 11 -6 11 -11 0
-15 -12 -13 -46z"/>
<path d="M8743 4415 c0 -27 2 -38 4 -22 2 15 2 37 0 50 -2 12 -4 0 -4 -28z"/>
<path d="M8878 4423 c5 -59 10 -63 11 -10 1 26 -3 47 -7 47 -4 0 -6 -17 -4
-37z"/>
<path d="M9087 4453 c-15 -14 -5 -32 23 -42 37 -12 40 -4 4 9 -17 7 -24 15
-20 25 6 16 3 19 -7 8z"/>
<path d="M9432 4448 c-26 -26 -7 -79 28 -77 9 0 6 4 -7 9 -25 10 -31 48 -11
68 7 7 10 12 7 12 -3 0 -10 -5 -17 -12z"/>
<path d="M9534 4433 c-9 -33 7 -58 36 -58 13 0 27 7 33 16 12 19 1 69 -14 69
-8 0 -8 -4 1 -14 6 -8 10 -25 8 -38 -2 -17 -10 -23 -28 -23 -18 0 -26 6 -28
23 -2 13 2 30 8 38 9 10 9 14 1 14 -6 0 -14 -12 -17 -27z"/>
<path d="M9687 4448 c5 -7 8 -25 7 -40 -2 -15 1 -30 7 -33 10 -7 12 44 3 69
-3 9 -11 16 -16 16 -7 0 -7 -4 -1 -12z"/>
<path d="M9740 4441 c-15 -29 -13 -37 22 -73 18 -18 29 -25 25 -15 -3 9 -2 17
3 17 6 0 10 4 10 10 0 5 -7 7 -15 4 -18 -7 -45 12 -45 32 0 7 7 20 16 28 8 9
11 16 5 16 -6 0 -15 -9 -21 -19z"/>
<path d="M9780 4456 c0 -2 7 -7 16 -10 8 -3 12 -2 9 4 -6 10 -25 14 -25 6z"/>
<path d="M9885 4423 c0 -31 -4 -38 -19 -38 -23 0 -33 21 -14 28 8 2 8 4 -2 3
-8 -1 -15 -10 -15 -21 0 -16 7 -20 33 -21 31 -1 32 0 32 43 0 23 -3 43 -7 43
-5 0 -8 -17 -8 -37z"/>
<path d="M9940 4445 c-6 -8 -10 -22 -7 -32 4 -14 5 -14 6 4 0 12 9 27 19 32 9
6 12 11 6 11 -6 0 -17 -7 -24 -15z"/>
<path d="M9986 4453 c6 -4 14 -15 17 -23 5 -11 6 -9 4 4 -1 11 -9 21 -17 23
-10 3 -11 2 -4 -4z"/>
<path d="M10237 4453 c6 -4 13 -26 16 -48 4 -40 4 -40 3 4 -1 30 -6 46 -16 48
-10 3 -11 2 -3 -4z"/>
<path d="M4662 4418 c2 -14 11 -24 23 -25 17 -2 17 -1 2 3 -13 4 -17 12 -14
25 3 10 1 19 -5 19 -5 0 -8 -10 -6 -22z"/>
<path d="M4982 4418 c2 -14 11 -24 23 -25 17 -2 17 -1 2 3 -13 4 -17 12 -14
25 3 10 1 19 -5 19 -5 0 -8 -10 -6 -22z"/>
<path d="M5229 4432 c19 -14 3 -35 -22 -28 -15 4 -17 2 -8 -7 8 -8 16 -9 29
-1 21 14 22 36 2 41 -12 4 -13 3 -1 -5z"/>
<path d="M5280 4415 c0 -8 4 -15 10 -15 5 0 7 7 4 15 -4 8 -8 15 -10 15 -2 0
-4 -7 -4 -15z"/>
<path d="M8131 4414 c0 -11 3 -14 6 -6 3 7 2 16 -1 19 -3 4 -6 -2 -5 -13z"/>
<path d="M8920 4414 c0 -11 5 -25 12 -32 14 -14 58 -16 58 -3 0 4 -11 6 -25 3
-14 -2 -26 0 -26 7 -3 26 -4 30 -11 37 -5 4 -8 -2 -8 -12z"/>
<path d="M4129 4407 c17 -22 35 -21 52 1 13 16 12 16 -4 3 -16 -13 -22 -13
-40 -1 -20 12 -21 12 -8 -3z"/>
<path d="M5326 4405 c-11 -8 -15 -15 -9 -15 6 0 16 7 23 15 16 19 11 19 -14 0z"/>
<path d="M5435 4410 c-3 -5 -1 -10 4 -10 6 0 11 5 11 10 0 6 -2 10 -4 10 -3 0
-8 -4 -11 -10z"/>
<path d="M5562 4405 c14 -15 21 -17 40 -7 l23 12 -23 -6 c-13 -3 -31 0 -40 7
-16 12 -16 12 0 -6z"/>
<path d="M5810 4411 c0 -9 -9 -12 -25 -9 -13 3 -22 1 -19 -3 7 -13 42 -11 49
2 4 6 4 13 1 16 -3 4 -6 1 -6 -6z"/>
<path d="M9275 4409 c-11 -16 -1 -19 13 -3 7 8 8 14 3 14 -5 0 -13 -5 -16 -11z"/>
<path d="M9637 4406 c-7 -17 11 -36 33 -35 8 0 4 5 -10 10 -24 10 -24 11 -6
25 16 11 17 14 4 14 -9 0 -18 -6 -21 -14z"/>
<path d="M5397 4399 c7 -7 15 -10 18 -7 3 3 -2 9 -12 12 -14 6 -15 5 -6 -5z"/>
<path d="M5995 4400 c3 -5 8 -10 11 -10 2 0 4 5 4 10 0 6 -5 10 -11 10 -5 0
-7 -4 -4 -10z"/>
<path d="M9996 4394 c-4 -11 -14 -15 -31 -12 -13 3 -22 1 -19 -3 8 -14 40 -10
54 6 7 9 11 18 8 21 -3 3 -8 -3 -12 -12z"/>
<path d="M8084 4389 c-4 -6 -19 -9 -38 -5 -22 4 -27 3 -16 -4 22 -14 46 -12
60 5 7 8 10 15 7 15 -3 0 -9 -5 -13 -11z"/>
<path d="M8194 4389 c-3 -6 -17 -9 -30 -6 -13 2 -21 0 -18 -4 8 -14 40 -10 54
6 7 8 10 15 7 15 -3 0 -9 -5 -13 -11z"/>
<path d="M8400 4387 c0 -20 62 -16 68 3 5 13 3 13 -12 1 -14 -12 -22 -12 -37
-3 -15 10 -19 9 -19 -1z"/>
<path d="M9225 4390 c-3 -5 -1 -10 4 -10 6 0 11 5 11 10 0 6 -2 10 -4 10 -3 0
-8 -4 -11 -10z"/>
<path d="M9324 4391 c-5 -5 -18 -11 -29 -14 l-20 -5 20 -1 c22 -1 52 15 44 23
-3 3 -10 2 -15 -3z"/>
<path d="M10099 4388 c14 -19 46 -24 55 -9 4 5 -3 7 -14 4 -11 -3 -28 1 -38 8
-15 13 -16 12 -3 -3z"/>
<path d="M9087 4378 c2 -5 13 -8 23 -8 10 0 21 3 23 8 3 4 -8 7 -23 7 -15 0
-26 -3 -23 -7z"/>
<path d="M9180 4380 c0 -6 7 -10 15 -10 8 0 15 2 15 4 0 2 -7 6 -15 10 -8 3
-15 1 -15 -4z"/>
<path d="M8743 4225 c0 -33 2 -45 4 -27 2 18 2 45 0 60 -2 15 -4 0 -4 -33z"/>
<path d="M9693 4223 c0 -53 8 -63 14 -19 2 13 -1 34 -6 47 -7 19 -9 14 -8 -28z"/>
<path d="M8522 4241 c-8 -5 -12 -16 -10 -25 2 -12 6 -10 15 9 6 14 10 25 10
25 -1 0 -8 -4 -15 -9z"/>
<path d="M8685 4239 c-4 -6 -5 -12 -2 -15 2 -3 7 2 10 11 7 17 1 20 -8 4z"/>
<path d="M8789 4226 c-8 -17 -8 -29 0 -42 7 -11 10 -13 8 -4 -2 8 0 27 4 43 9
33 2 35 -12 3z"/>
<path d="M8847 4229 c4 -13 8 -18 11 -10 2 7 -1 18 -6 23 -8 8 -9 4 -5 -13z"/>
<path d="M8897 4243 c-10 -9 -9 -33 1 -33 4 0 8 9 8 20 0 23 0 22 -9 13z"/>
<path d="M9391 4203 c1 -53 6 -49 11 10 2 20 0 37 -4 37 -4 0 -8 -21 -7 -47z"/>
<path d="M9450 4207 c4 -41 5 -41 8 -8 2 18 0 37 -5 42 -5 5 -6 -11 -3 -34z"/>
<path d="M9546 4235 c-9 -26 -7 -32 5 -12 6 10 9 21 6 23 -2 3 -7 -2 -11 -11z"/>
<path d="M9593 4205 c0 -27 2 -38 4 -22 2 15 2 37 0 50 -2 12 -4 0 -4 -28z"/>
<path d="M9637 4243 c-20 -20 0 -83 27 -83 5 0 2 6 -8 13 -14 10 -17 23 -14
45 5 34 5 35 -5 25z"/>
<path d="M9741 4228 c-7 -19 -4 -58 4 -58 2 0 5 18 7 40 4 45 1 50 -11 18z"/>
<path d="M9797 4229 c4 -13 8 -18 11 -10 2 7 -1 18 -6 23 -8 8 -9 4 -5 -13z"/>
<path d="M9893 4205 c0 -27 2 -38 4 -22 2 15 2 37 0 50 -2 12 -4 0 -4 -28z"/>
<path d="M9936 4239 c7 -8 14 -23 17 -34 4 -13 5 -9 4 9 -1 16 -9 32 -17 34
-12 4 -13 2 -4 -9z"/>
<path d="M10000 4207 c4 -41 5 -41 8 -8 2 18 0 37 -5 42 -5 5 -6 -11 -3 -34z"/>
<path d="M10097 4207 c6 -55 13 -61 13 -9 0 22 -4 43 -8 46 -5 3 -7 -14 -5
-37z"/>
<path d="M8325 4220 c-3 -5 -1 -10 4 -10 6 0 11 5 11 10 0 6 -2 10 -4 10 -3 0
-8 -4 -11 -10z"/>
<path d="M9032 4205 c0 -16 2 -22 5 -12 2 9 2 23 0 30 -3 6 -5 -1 -5 -18z"/>
<path d="M9282 4210 c0 -14 2 -19 5 -12 2 6 2 18 0 25 -3 6 -5 1 -5 -13z"/>
<path d="M10190 4220 c0 -5 5 -10 11 -10 5 0 7 5 4 10 -3 6 -8 10 -11 10 -2 0
-4 -4 -4 -10z"/>
<path d="M8570 4204 c0 -8 5 -12 10 -9 6 3 10 10 10 16 0 5 -4 9 -10 9 -5 0
-10 -7 -10 -16z"/>
<path d="M8116 4203 c6 -4 14 -15 17 -23 5 -11 6 -9 4 4 -1 11 -9 21 -17 23
-10 3 -11 2 -4 -4z"/>
<path d="M8400 4206 c0 -2 7 -7 16 -10 8 -3 12 -2 9 4 -6 10 -25 14 -25 6z"/>
<path d="M8677 4190 c3 -11 9 -22 13 -25 5 -3 6 4 3 15 -3 11 -9 22 -13 25 -5
3 -6 -4 -3 -15z"/>
<path d="M8935 4185 c0 -13 3 -21 8 -18 4 2 7 10 7 18 0 8 -3 16 -7 18 -5 3
-8 -5 -8 -18z"/>
<path d="M8326 4185 c-3 -8 -1 -15 4 -15 6 0 10 7 10 15 0 8 -2 15 -4 15 -2 0
-6 -7 -10 -15z"/>
<path d="M9346 4183 c-6 -14 -5 -15 5 -6 7 7 10 15 7 18 -3 3 -9 -2 -12 -12z"/>
<path d="M9530 4191 c0 -7 -4 -9 -10 -6 -5 3 -10 2 -10 -4 0 -5 4 -12 9 -15
10 -6 25 24 16 32 -3 3 -5 0 -5 -7z"/>
<path d="M8170 4181 c0 -5 7 -12 16 -15 14 -5 15 -4 4 9 -14 17 -20 19 -20 6z"/>
<path d="M8225 4180 c-3 -5 -1 -10 4 -10 6 0 11 5 11 10 0 6 -2 10 -4 10 -3 0
-8 -4 -11 -10z"/>
<path d="M9080 4170 c-9 -6 -10 -10 -3 -10 6 0 15 5 18 10 8 12 4 12 -15 0z"/>
<path d="M9225 4170 c-16 -7 -17 -9 -3 -9 9 -1 20 4 23 9 7 11 7 11 -20 0z"/>
<path d="M9790 4170 c-9 -6 -10 -10 -3 -10 6 0 15 5 18 10 8 12 4 12 -15 0z"/>
<path d="M8818 4163 c7 -3 16 -2 19 1 4 3 -2 6 -13 5 -11 0 -14 -3 -6 -6z"/>
<path d="M10208 4163 c7 -3 16 -2 19 1 4 3 -2 6 -13 5 -11 0 -14 -3 -6 -6z"/>
<path d="M9880 4010 c0 -35 3 -60 7 -56 8 8 7 106 -1 114 -4 3 -6 -23 -6 -58z"/>
<path d="M9569 4049 c-2 -32 3 -84 9 -91 4 -4 6 16 5 43 -1 46 -12 82 -14 48z"/>
<path d="M4993 4043 c-7 -2 -13 -10 -13 -16 0 -8 4 -7 12 1 18 18 56 14 68 -7
14 -28 15 -27 -37 -82 -52 -56 -49 -65 19 -62 59 2 61 5 9 12 l-44 6 37 43
c37 45 45 79 24 100 -12 12 -52 15 -75 5z"/>
<path d="M9199 4043 c-4 -45 -3 -83 4 -83 4 0 7 20 7 45 0 25 -2 45 -5 45 -3
0 -5 -3 -6 -7z"/>
<path d="M8200 4036 c0 -2 7 -9 15 -16 9 -7 15 -8 15 -2 0 5 -7 12 -15 16 -8
3 -15 4 -15 2z"/>
<path d="M8262 4026 c7 -8 15 -12 17 -11 5 6 -10 25 -20 25 -5 0 -4 -6 3 -14z"/>
<path d="M8472 4028 c-18 -18 -15 -54 6 -69 14 -11 15 -11 5 1 -16 18 -17 52
-1 68 7 7 10 12 7 12 -3 0 -10 -5 -17 -12z"/>
<path d="M8519 4028 c7 -10 11 -29 9 -43 -3 -13 -1 -22 3 -19 15 9 10 51 -8
65 -16 13 -17 12 -4 -3z"/>
<path d="M8573 4025 c-3 -9 -3 -18 -1 -21 3 -3 8 4 11 16 6 23 -1 27 -10 5z"/>
<path d="M8711 3973 c1 -37 4 -56 6 -40 3 18 9 25 16 20 7 -4 6 0 -2 10 -7 9
-11 28 -9 42 3 14 1 28 -3 31 -5 3 -8 -25 -8 -63z"/>
<path d="M8768 4030 c6 -8 12 -23 12 -35 0 -12 -6 -27 -12 -35 -11 -12 -10
-12 5 -1 9 7 17 24 17 36 0 12 -8 29 -17 36 -15 11 -16 11 -5 -1z"/>
<path d="M8868 4013 c5 -21 7 -23 10 -9 2 10 0 22 -6 28 -6 6 -7 0 -4 -19z"/>
<path d="M8923 3995 c0 -27 2 -38 4 -22 2 15 2 37 0 50 -2 12 -4 0 -4 -28z"/>
<path d="M9040 3992 l5 -47 3 39 c2 21 0 42 -5 47 -4 4 -6 -13 -3 -39z"/>
<path d="M9252 4028 c-7 -7 -11 -21 -11 -32 1 -21 1 -21 6 -1 3 11 10 26 15
33 13 15 6 16 -10 0z"/>
<path d="M9453 4000 c0 -25 2 -35 4 -22 2 12 2 32 0 45 -2 12 -4 2 -4 -23z"/>
<path d="M9679 3993 c2 -25 7 -40 11 -34 9 15 5 60 -7 72 -4 4 -6 -13 -4 -38z"/>
<path d="M9733 3995 c0 -27 2 -38 4 -22 2 15 2 37 0 50 -2 12 -4 0 -4 -28z"/>
<path d="M9778 4001 c5 -56 9 -60 13 -14 3 25 0 44 -6 47 -7 2 -9 -10 -7 -33z"/>
<path d="M9828 4028 c7 -7 13 -28 13 -47 1 -26 3 -29 6 -12 6 31 -5 71 -19 71
-9 0 -9 -3 0 -12z"/>
<path d="M9938 4030 c6 -8 12 -23 12 -35 0 -12 -6 -27 -12 -35 -11 -12 -10
-12 5 -1 9 7 17 24 17 36 0 12 -8 29 -17 36 -15 11 -16 11 -5 -1z"/>
<path d="M10090 4001 c0 -23 2 -41 4 -41 8 0 12 71 4 76 -4 3 -8 -13 -8 -35z"/>
<path d="M10140 4025 c7 -9 15 -13 17 -11 7 7 -7 26 -19 26 -6 0 -6 -6 2 -15z"/>
<path d="M8163 3995 c0 -22 2 -30 4 -17 2 12 2 30 0 40 -3 9 -5 -1 -4 -23z"/>
<path d="M8421 4014 c0 -11 3 -14 6 -6 3 7 2 16 -1 19 -3 4 -6 -2 -5 -13z"/>
<path d="M9993 3991 c1 -19 8 -36 15 -37 7 -1 8 0 2 3 -22 11 -9 33 20 33 22
0 30 5 29 18 0 10 -3 12 -6 5 -2 -7 -15 -13 -28 -13 -13 0 -26 6 -29 13 -3 6
-4 -3 -3 -22z"/>
<path d="M8110 3999 c0 -5 5 -7 10 -4 6 3 10 8 10 11 0 2 -4 4 -10 4 -5 0 -10
-5 -10 -11z"/>
<path d="M9390 4000 c-13 -8 -12 -10 3 -10 9 0 17 5 17 10 0 12 -1 12 -20 0z"/>
<path d="M8271 3984 c0 -11 3 -14 6 -6 3 7 2 16 -1 19 -3 4 -6 -2 -5 -13z"/>
<path d="M8421 3974 c0 -11 3 -14 6 -6 3 7 2 16 -1 19 -3 4 -6 -2 -5 -13z"/>
<path d="M8617 3971 c-4 -17 -3 -21 5 -13 5 5 8 16 6 23 -3 8 -7 3 -11 -10z"/>
<path d="M8980 3976 c0 -8 4 -17 9 -20 5 -4 7 3 4 14 -6 23 -13 26 -13 6z"/>
<path d="M9624 3979 c-3 -6 -2 -15 3 -20 5 -5 9 -1 9 11 0 23 -2 24 -12 9z"/>
<path d="M8871 3964 c0 -11 3 -14 6 -6 3 7 2 16 -1 19 -3 4 -6 -2 -5 -13z"/>
<path d="M8368 3958 c5 -5 16 -8 23 -6 8 3 3 7 -10 11 -17 4 -21 3 -13 -5z"/>
<path d="M8368 3918 c6 -6 18 -8 28 -6 14 3 12 5 -9 10 -19 3 -25 2 -19 -4z"/>
<path d="M8962 3389 c-41 -58 -50 -80 -34 -78 4 1 22 1 40 0 25 -1 32 -5 32
-21 0 -11 5 -20 10 -20 6 0 10 9 10 20 0 12 7 20 18 20 16 1 16 1 0 14 -14 10
-18 28 -18 70 0 31 -4 56 -8 56 -5 0 -27 -27 -50 -61z m38 -25 c0 -31 -2 -34
-31 -34 -17 0 -29 3 -27 8 16 32 44 70 50 66 5 -3 8 -21 8 -40z"/>
<path d="M3149 3040 l-24 -19 23 6 c21 5 22 3 22 -60 0 -60 -2 -66 -22 -70
-13 -2 2 -4 32 -4 30 0 45 2 33 4 -21 4 -23 10 -23 78 0 41 -4 76 -9 79 -5 3
-20 -3 -32 -14z"/>
<path d="M3070 2633 c-19 -10 -53 -37 -76 -60 -139 -142 -32 -376 171 -378
223 -1 303 297 114 422 -54 36 -155 43 -209 16z m153 -25 c102 -31 161 -147
125 -249 -33 -98 -129 -150 -231 -127 -90 20 -147 95 -147 194 0 80 32 133
102 168 58 29 91 32 151 14z"/>
<path d="M3206 2447 c-80 -84 -82 -85 -120 -48 -27 26 -35 29 -44 18 -9 -10
-2 -23 33 -57 l44 -43 53 48 c29 27 65 61 81 75 28 26 36 60 15 60 -7 0 -35
-24 -62 -53z"/>
<path d="M7326 2591 c-4 -6 6 -8 27 -4 59 9 76 -49 18 -64 l-26 -7 30 -6 c25
-4 30 -10 30 -35 0 -25 -4 -31 -27 -33 -15 -2 -37 2 -50 8 -22 11 -22 10 -4
-4 25 -20 70 -20 90 0 20 19 20 24 0 52 -12 18 -13 26 -4 37 6 8 10 24 8 37
-2 19 -10 24 -45 26 -22 2 -44 -1 -47 -7z"/>
<path d="M7310 2070 c-91 -55 -172 -104 -180 -109 -32 -18 -16 -45 43 -74 57
-28 57 -28 57 -72 0 -35 4 -47 22 -56 19 -10 25 -8 50 24 l29 36 50 -19 c71
-28 86 -26 93 13 22 128 48 329 43 341 -4 9 -14 16 -24 16 -10 -1 -92 -46
-183 -100z m190 66 c0 -14 -52 -331 -54 -334 -6 -6 -136 51 -136 60 0 5 22 41
48 81 83 123 82 124 -30 22 -46 -41 -87 -75 -93 -75 -23 0 -95 34 -92 44 3 11
334 206 350 206 4 0 7 -2 7 -4z m-200 -308 c-1 -18 -29 -53 -36 -45 -4 3 -8
18 -9 32 -3 21 1 25 21 25 13 0 24 -6 24 -12z"/>
<path d="M3510 1910 c0 -5 5 -10 11 -10 5 0 7 5 4 10 -3 6 -8 10 -11 10 -2 0
-4 -4 -4 -10z"/>
<path d="M2800 1835 l0 -75 48 1 c44 2 45 2 12 8 -29 5 -36 11 -38 33 -3 24 0
27 35 31 l38 4 -37 1 c-35 2 -38 4 -38 31 0 27 4 30 38 34 34 3 33 4 -10 5
l-48 2 0 -75z"/>
<path d="M3310 1835 c0 -43 4 -75 10 -75 6 0 10 32 10 75 0 43 -4 75 -10 75
-6 0 -10 -32 -10 -75z"/>
<path d="M3370 1835 c0 -83 16 -103 22 -27 4 57 -1 102 -13 102 -5 0 -9 -34
-9 -75z"/>
<path d="M2937 1863 c-16 -15 -5 -40 24 -54 38 -17 35 -35 -3 -33 -30 2 -30
-11 0 -18 28 -8 62 9 62 31 0 15 -9 23 -32 29 -41 10 -45 38 -5 35 15 -1 25 2
22 8 -7 10 -58 12 -68 2z"/>
<path d="M3053 1844 c-15 -24 -15 -29 -2 -53 16 -28 63 -41 82 -22 15 15 0 26
-16 12 -24 -19 -47 -2 -47 34 0 36 23 53 47 34 15 -13 28 -6 18 10 -13 22 -64
12 -82 -15z"/>
<path d="M3186 1848 c-23 -32 -20 -54 10 -77 48 -38 103 15 76 74 -15 33 -64
35 -86 3z m62 0 c25 -25 8 -78 -25 -78 -22 0 -37 44 -24 69 13 24 31 27 49 9z"/>
<path d="M3428 1854 c16 -11 22 -25 22 -55 0 -21 5 -39 10 -39 11 0 14 69 4
94 -3 9 -18 16 -32 16 l-26 0 22 -16z"/>
<path d="M3510 1814 c0 -34 4 -53 10 -49 6 3 10 28 10 56 0 27 -4 49 -10 49
-5 0 -10 -25 -10 -56z"/>
<path d="M2069 1513 c-12 -16 -12 -17 1 -6 8 6 26 13 40 16 l25 4 -26 2 c-15
0 -33 -7 -40 -16z"/>
<path d="M3133 1460 c0 -36 2 -50 4 -32 2 17 2 47 0 65 -2 17 -4 3 -4 -33z"/>
<path d="M2513 1455 c0 -27 2 -38 4 -22 2 15 2 37 0 50 -2 12 -4 0 -4 -28z"/>
<path d="M8006 1491 c-4 -5 -2 -12 3 -15 5 -4 12 -2 15 3 4 5 2 12 -3 15 -5 4
-12 2 -15 -3z"/>
<path d="M2174 1479 c-3 -6 -2 -15 3 -20 5 -5 9 -1 9 11 0 23 -2 24 -12 9z"/>
<path d="M2570 1442 l5 -47 3 39 c2 21 0 42 -5 47 -4 4 -6 -13 -3 -39z"/>
<path d="M2666 1449 c1 -53 14 -63 14 -11 0 22 -3 43 -8 46 -4 2 -7 -13 -6
-35z"/>
<path d="M2762 1460 c-2 -35 12 -60 32 -60 5 0 2 6 -7 13 -9 6 -18 28 -20 47
l-4 35 -1 -35z"/>
<path d="M2823 1445 c0 -27 2 -38 4 -22 2 15 2 37 0 50 -2 12 -4 0 -4 -28z"/>
<path d="M2861 1441 c1 -45 1 -46 8 -11 4 20 10 40 14 46 3 6 0 11 -8 11 -11
0 -15 -12 -14 -46z"/>
<path d="M2920 1442 l5 -47 3 39 c2 21 0 42 -5 47 -4 4 -6 -13 -3 -39z"/>
<path d="M2966 1475 c4 -8 8 -15 10 -15 2 0 4 7 4 15 0 8 -4 15 -10 15 -5 0
-7 -7 -4 -15z"/>
<path d="M3070 1474 c-16 -18 -3 -65 20 -72 11 -4 10 -1 -3 12 -20 20 -22 47
-5 64 7 7 9 12 6 12 -3 0 -11 -7 -18 -16z"/>
<path d="M3284 1479 c-3 -6 -2 -15 3 -20 5 -5 9 -1 9 11 0 23 -2 24 -12 9z"/>
<path d="M3475 1449 c0 -21 3 -39 8 -39 4 0 7 15 7 34 0 19 -3 37 -7 39 -5 3
-8 -12 -8 -34z"/>
<path d="M3634 1451 c1 -30 6 -46 16 -49 12 -4 13 -2 3 9 -6 8 -13 30 -16 49
-4 28 -4 26 -3 -9z"/>
<path d="M3687 1453 c-2 -21 0 -42 4 -47 5 -6 9 10 9 37 0 57 -6 61 -13 10z"/>
<path d="M3733 1445 c0 -27 2 -38 4 -22 2 15 2 37 0 50 -2 12 -4 0 -4 -28z"/>
<path d="M3790 1442 l5 -47 3 39 c2 21 0 42 -5 47 -4 4 -6 -13 -3 -39z"/>
<path d="M3834 1463 c-4 -14 -2 -33 3 -42 12 -19 41 -27 54 -14 5 5 -3 9 -19
8 -21 0 -28 5 -30 23 -2 13 2 30 8 38 9 10 9 14 1 14 -6 0 -14 -12 -17 -27z"/>
<path d="M3885 1480 c3 -5 8 -10 11 -10 2 0 4 5 4 10 0 6 -5 10 -11 10 -5 0
-7 -4 -4 -10z"/>
<path d="M3933 1445 c0 -27 2 -38 4 -22 2 15 2 37 0 50 -2 12 -4 0 -4 -28z"/>
<path d="M3982 1478 c-14 -14 -16 -54 -3 -62 4 -3 6 6 3 19 -2 14 1 32 8 40
15 18 9 20 -8 3z"/>
<path d="M4028 1478 c20 -20 14 -58 -10 -68 -18 -8 -19 -9 -4 -7 10 1 23 9 29
18 12 19 1 69 -15 69 -9 0 -9 -3 0 -12z"/>
<path d="M6762 1473 c-18 -35 -44 -124 -38 -131 4 -3 13 4 22 16 19 28 60 29
74 2 15 -28 33 -26 24 3 -36 117 -61 151 -82 110z m37 -65 c1 -12 -6 -18 -19
-18 -24 0 -23 -2 -8 40 10 30 12 32 19 14 4 -10 8 -27 8 -36z"/>
<path d="M7740 1415 c0 -80 17 -104 22 -32 2 35 7 43 26 45 20 3 22 -1 22 -42
0 -34 4 -46 15 -46 18 0 21 60 5 91 -12 21 -40 25 -58 7 -9 -9 -12 -5 -12 20
0 18 -4 32 -10 32 -6 0 -10 -32 -10 -75z"/>
<path d="M4080 1465 c0 -8 4 -15 10 -15 5 0 7 7 4 15 -4 8 -8 15 -10 15 -2 0
-4 -7 -4 -15z"/>
<path d="M2063 1449 c-2 -19 0 -19 10 -6 7 9 23 18 37 20 19 3 17 5 -10 6 -30
1 -36 -3 -37 -20z"/>
<path d="M3171 1444 c0 -11 3 -14 6 -6 3 7 2 16 -1 19 -3 4 -6 -2 -5 -13z"/>
<path d="M4222 1440 c0 -14 2 -19 5 -12 2 6 2 18 0 25 -3 6 -5 1 -5 -13z"/>
<path d="M2210 1443 c5 -2 10 -12 10 -20 0 -11 -7 -14 -26 -10 -16 3 -22 1
-16 -5 16 -16 47 -5 47 16 0 11 -6 20 -13 22 -7 1 -8 0 -2 -3z"/>
<path d="M2614 1435 c-7 -17 3 -35 19 -35 8 0 7 3 -2 9 -8 5 -11 16 -8 25 4 9
4 16 1 16 -2 0 -7 -7 -10 -15z"/>
<path d="M3425 1439 c-4 -6 -5 -12 -2 -15 2 -3 7 2 10 11 7 17 1 20 -8 4z"/>
<path d="M4120 1443 c15 -7 12 -31 -5 -36 -11 -4 -10 -4 2 -3 21 2 25 38 5 42
-7 1 -8 0 -2 -3z"/>
<path d="M6887 1432 c-23 -25 -21 -58 3 -82 24 -24 39 -25 66 -6 25 19 12 31
-16 14 -18 -11 -23 -10 -36 6 -25 35 3 84 37 65 26 -13 33 -11 19 6 -17 20
-53 19 -73 -3z"/>
<path d="M7017 1432 c-42 -46 0 -114 56 -93 34 13 45 53 23 86 -20 30 -56 33
-79 7z m68 -23 c7 -22 -11 -59 -28 -59 -35 0 -48 47 -22 74 19 18 42 11 50
-15z"/>
<path d="M7140 1393 c0 -29 5 -53 10 -53 6 0 10 21 10 46 0 41 2 45 23 42 18
-2 23 -10 25 -45 2 -24 7 -43 12 -43 5 0 10 19 12 43 2 35 7 43 26 45 20 3 22
-1 22 -42 0 -26 5 -46 11 -46 6 0 9 21 7 53 l-3 52 -77 1 -78 0 0 -53z"/>
<path d="M7340 1368 c0 -46 4 -78 10 -78 6 0 10 14 10 30 0 27 2 30 19 20 25
-13 27 -13 45 6 19 19 21 77 3 92 -7 6 -29 10 -50 9 l-37 -2 0 -77z m75 22 c0
-31 -3 -35 -25 -35 -19 0 -26 6 -28 23 -5 36 5 54 30 50 19 -2 23 -9 23 -38z"/>
<path d="M7490 1440 c-8 -5 -11 -12 -7 -16 3 -4 13 -1 21 5 17 15 36 7 36 -15
0 -8 -10 -14 -23 -14 -25 0 -47 -17 -47 -37 0 -19 31 -31 68 -26 30 5 32 8 32
47 0 23 -5 47 -12 54 -14 14 -47 15 -68 2z m50 -70 c0 -13 -7 -20 -19 -20 -25
0 -38 20 -20 31 23 15 39 10 39 -11z"/>
<path d="M7600 1393 c0 -40 4 -53 15 -53 11 0 15 12 15 46 0 41 2 45 23 42 18
-2 23 -10 25 -45 4 -56 22 -55 22 1 0 52 -12 65 -62 63 l-38 -1 0 -53z"/>
<path d="M7882 1438 c-7 -7 -12 -27 -12 -45 0 -43 35 -68 74 -54 36 14 33 21
-11 18 -29 -1 -38 2 -41 16 -3 14 4 17 37 17 42 0 48 8 31 41 -12 22 -59 26
-78 7z m56 -10 c19 -19 14 -28 -18 -28 -16 0 -30 4 -30 8 0 9 21 32 30 32 3 0
11 -5 18 -12z"/>
<path d="M8000 1395 c0 -30 5 -55 10 -55 6 0 10 25 10 55 0 30 -4 55 -10 55
-5 0 -10 -25 -10 -55z"/>
<path d="M2372 1414 c9 -9 21 -15 27 -13 6 2 -2 10 -17 17 -25 11 -25 11 -10
-4z"/>
<path d="M3220 1414 c-17 -9 -20 -14 -9 -14 9 0 22 7 29 15 15 18 13 18 -20
-1z"/>
<path d="M2070 1410 c0 -5 5 -10 11 -10 5 0 7 5 4 10 -3 6 -8 10 -11 10 -2 0
-4 -4 -4 -10z"/>
<path d="M3315 1410 c-16 -7 -17 -9 -3 -9 9 -1 20 4 23 9 7 11 7 11 -20 0z"/>
<path d="M2108 1403 c7 -3 16 -2 19 1 4 3 -2 6 -13 5 -11 0 -14 -3 -6 -6z"/>
<path d="M4248 1403 c7 -3 16 -2 19 1 4 3 -2 6 -13 5 -11 0 -14 -3 -6 -6z"/>
<path d="M2343 1255 c0 -33 2 -45 4 -27 2 18 2 45 0 60 -2 15 -4 0 -4 -33z"/>
<path d="M3740 1252 c0 -28 3 -53 8 -55 8 -6 7 92 -2 100 -3 4 -6 -17 -6 -45z"/>
<path d="M2730 1235 c0 -27 2 -46 4 -44 8 8 10 78 3 85 -4 4 -7 -14 -7 -41z"/>
<path d="M2790 1232 l5 -47 3 39 c2 21 0 42 -5 47 -4 4 -6 -13 -3 -39z"/>
<path d="M2842 1268 c-15 -15 -16 -54 -2 -63 6 -3 7 1 4 9 -5 13 1 16 30 16
40 0 48 18 19 41 -15 11 -16 11 -5 -1 19 -22 14 -30 -18 -30 -32 0 -37 9 -18
28 7 7 10 12 7 12 -3 0 -10 -5 -17 -12z"/>
<path d="M2990 1261 c-13 -26 -13 -34 5 -57 14 -18 15 -17 4 7 -8 20 -8 32 0
48 7 11 9 21 7 21 -3 0 -10 -9 -16 -19z"/>
<path d="M3053 1220 c0 -36 2 -50 4 -32 2 17 2 47 0 65 -2 17 -4 3 -4 -33z"/>
<path d="M3091 1254 c0 -16 6 -39 15 -50 8 -10 12 -12 8 -4 -4 8 -11 30 -15
50 -7 35 -7 35 -8 4z"/>
<path d="M3590 1237 c4 -41 5 -41 8 -8 2 18 0 37 -5 42 -5 5 -6 -11 -3 -34z"/>
<path d="M3690 1232 l5 -47 3 39 c2 21 0 42 -5 47 -4 4 -6 -13 -3 -39z"/>
<path d="M3900 1235 c0 -27 2 -46 4 -44 8 8 10 78 3 85 -4 4 -7 -14 -7 -41z"/>
<path d="M4060 1232 l5 -47 3 39 c2 21 0 42 -5 47 -4 4 -6 -13 -3 -39z"/>
<path d="M3483 1235 c0 -22 2 -30 4 -17 2 12 2 30 0 40 -3 9 -5 -1 -4 -23z"/>
<path d="M3542 1240 c0 -19 2 -27 5 -17 2 9 2 25 0 35 -3 9 -5 1 -5 -18z"/>
<path d="M3796 1253 c-6 -20 7 -63 20 -63 2 0 0 9 -6 20 -10 18 -8 20 25 20
34 0 49 20 25 35 -6 3 -7 -1 -4 -9 5 -12 0 -16 -19 -16 -16 0 -27 6 -29 18 -4
14 -5 13 -12 -5z"/>
<path d="M4151 1254 c0 -11 3 -14 6 -6 3 7 2 16 -1 19 -3 4 -6 -2 -5 -13z"/>
<path d="M2300 1251 c0 -6 -17 -12 -37 -14 l-38 -4 43 -1 c31 -2 42 2 42 13 0
8 -2 15 -5 15 -3 0 -5 -4 -5 -9z"/>
<path d="M2380 1235 c0 -7 14 -9 35 -7 19 2 35 5 35 7 0 2 -16 5 -35 7 -21 2
-35 0 -35 -7z"/>
<path d="M2621 1239 c-1 -8 6 -24 15 -35 15 -19 15 -19 6 1 -5 11 -12 27 -15
35 -5 13 -6 13 -6 -1z"/>
<path d="M3972 1225 c0 -16 2 -22 5 -12 2 9 2 23 0 30 -3 6 -5 -1 -5 -18z"/>
<path d="M2194 1210 c0 -13 4 -16 10 -10 7 7 7 13 0 20 -6 6 -10 3 -10 -10z"/>
<path d="M3152 1210 c0 -14 2 -19 5 -12 2 6 2 18 0 25 -3 6 -5 1 -5 -13z"/>
<path d="M3387 1211 c-4 -17 -3 -21 5 -13 5 5 8 16 6 23 -3 8 -7 3 -11 -10z"/>
<path d="M3630 1216 c0 -8 4 -17 8 -20 4 -2 8 4 8 15 0 10 -4 19 -8 19 -4 0
-8 -6 -8 -14z"/>
<path d="M4201 1214 c0 -11 3 -14 6 -6 3 7 2 16 -1 19 -3 4 -6 -2 -5 -13z"/>
<path d="M3251 1204 c0 -11 3 -14 6 -6 3 7 2 16 -1 19 -3 4 -6 -2 -5 -13z"/>
<path d="M6162 1068 l2 -63 3 54 4 53 21 -18 22 -19 -20 27 c-10 15 -22 28
-26 28 -5 0 -7 -28 -6 -62z"/>
<path d="M7923 1070 c0 -36 2 -50 4 -32 2 17 2 47 0 65 -2 17 -4 3 -4 -33z"/>
<path d="M6251 1104 c0 -11 3 -14 6 -6 3 7 2 16 -1 19 -3 4 -6 -2 -5 -13z"/>
<path d="M3280 1081 c0 -14 -6 -17 -24 -14 -13 3 -26 1 -29 -4 -3 -5 7 -9 21
-8 23 0 27 -4 27 -30 0 -26 -4 -30 -27 -30 -14 1 -24 -3 -22 -7 3 -5 19 -7 35
-6 28 2 29 3 29 60 0 32 -2 58 -5 58 -3 0 -5 -8 -5 -19z"/>
<path d="M6308 1093 c7 -3 16 -2 19 1 4 3 -2 6 -13 5 -11 0 -14 -3 -6 -6z"/>
<path d="M6407 1093 c-15 -14 -5 -32 23 -42 37 -12 40 -4 4 9 -17 7 -24 15
-20 25 6 16 3 19 -7 8z"/>
<path d="M6495 1090 c-9 -14 3 -30 32 -41 30 -11 20 -33 -13 -26 -13 2 -21 0
-18 -4 8 -13 38 -11 52 3 13 13 -2 38 -24 38 -20 0 -28 21 -13 31 9 6 10 9 2
9 -6 0 -15 -4 -18 -10z"/>
<path d="M6592 1088 c-7 -7 -12 -22 -12 -34 0 -42 51 -58 73 -23 12 19 1 69
-14 69 -8 0 -8 -4 1 -14 6 -8 10 -25 8 -38 -2 -17 -10 -23 -28 -23 -18 0 -26
6 -28 23 -2 13 2 30 8 38 15 17 9 19 -8 2z"/>
<path d="M6690 1080 c0 -13 9 -22 25 -26 35 -9 34 -38 -1 -31 -16 3 -22 1 -16
-5 15 -15 46 -5 50 15 2 11 -6 20 -23 27 -18 7 -25 15 -21 25 3 8 1 15 -4 15
-6 0 -10 -9 -10 -20z"/>
<path d="M6735 1090 c3 -5 8 -10 11 -10 2 0 4 5 4 10 0 6 -5 10 -11 10 -5 0
-7 -4 -4 -10z"/>
<path d="M6831 1036 c1 -34 4 -52 7 -41 5 13 16 20 31 20 13 0 28 7 34 16 12
19 1 69 -14 69 -8 0 -8 -4 1 -14 6 -8 10 -25 8 -38 -2 -17 -10 -23 -28 -23
-18 0 -26 6 -28 23 -2 13 1 29 7 36 8 9 7 13 -4 13 -12 0 -15 -14 -14 -61z"/>
<path d="M6948 1093 c7 -3 16 -2 19 1 4 3 -2 6 -13 5 -11 0 -14 -3 -6 -6z"/>
<path d="M6985 1090 c3 -5 8 -10 11 -10 2 0 4 5 4 10 0 6 -5 10 -11 10 -5 0
-7 -4 -4 -10z"/>
<path d="M7041 1073 c1 -23 2 -24 6 -6 2 12 12 24 21 26 12 3 10 5 -5 6 -19 1
-23 -4 -22 -26z"/>
<path d="M7105 1089 c-11 -16 -1 -19 13 -3 7 8 8 14 3 14 -5 0 -13 -5 -16 -11z"/>
<path d="M7140 1096 c0 -2 7 -7 16 -10 8 -3 12 -2 9 4 -6 10 -25 14 -25 6z"/>
<path d="M7205 1090 c-3 -6 1 -7 9 -4 18 7 21 14 7 14 -6 0 -13 -4 -16 -10z"/>
<path d="M7246 1093 c6 -4 14 -15 17 -23 5 -11 6 -9 4 4 -1 11 -9 21 -17 23
-10 3 -11 2 -4 -4z"/>
<path d="M7415 1090 c-3 -6 1 -7 9 -4 18 7 21 14 7 14 -6 0 -13 -4 -16 -10z"/>
<path d="M7462 1086 c7 -8 15 -12 17 -11 5 6 -10 25 -20 25 -5 0 -4 -6 3 -14z"/>
<path d="M7515 1090 c-9 -14 3 -30 32 -41 30 -11 20 -33 -13 -26 -13 2 -21 0
-18 -4 8 -14 40 -10 54 6 15 18 5 35 -20 35 -24 0 -36 20 -19 31 9 6 10 9 2 9
-6 0 -15 -4 -18 -10z"/>
<path d="M7650 1078 c0 -17 3 -19 9 -9 5 7 15 17 22 22 10 6 8 9 -8 9 -17 0
-23 -6 -23 -22z"/>
<path d="M7725 1090 c-3 -6 1 -7 9 -4 18 7 21 14 7 14 -6 0 -13 -4 -16 -10z"/>
<path d="M7772 1080 c14 -22 24 -19 15 5 -4 8 -11 15 -17 15 -6 0 -6 -7 2 -20z"/>
<path d="M7825 1090 c-3 -6 1 -7 9 -4 18 7 21 14 7 14 -6 0 -13 -4 -16 -10z"/>
<path d="M7868 1088 c5 -7 8 -25 7 -40 -2 -15 1 -30 6 -33 10 -7 12 44 3 69
-3 9 -11 16 -16 16 -7 0 -7 -4 0 -12z"/>
<path d="M7963 1055 c0 -27 2 -38 4 -22 2 15 2 37 0 50 -2 12 -4 0 -4 -28z"/>
<path d="M8028 1093 c14 -3 20 -9 15 -16 -4 -7 1 -6 10 2 24 19 22 21 -15 20
-24 -1 -27 -3 -10 -6z"/>
<path d="M8200 1083 c0 -10 4 -14 8 -8 4 6 11 13 16 18 5 4 2 7 -7 7 -10 0
-17 -8 -17 -17z"/>
<path d="M8372 1088 c-7 -7 -11 -21 -11 -32 1 -21 1 -21 6 -1 3 11 10 26 15
33 13 15 6 16 -10 0z"/>
<path d="M8421 1083 c7 -12 15 -20 18 -17 3 2 -3 12 -13 22 -17 16 -18 16 -5
-5z"/>
<path d="M2798 1078 c-8 -22 7 -91 20 -94 7 -1 8 0 2 3 -12 6 -13 70 -1 75 5
2 3 8 -4 15 -10 9 -15 9 -17 1z"/>
<path d="M6362 1060 c0 -14 2 -19 5 -12 2 6 2 18 0 25 -3 6 -5 1 -5 -13z"/>
<path d="M8579 1078 c-5 -16 -3 -61 3 -64 4 -3 8 11 8 30 0 20 -2 36 -5 36 -3
0 -5 -1 -6 -2z"/>
<path d="M2499 1053 c-12 -16 -12 -17 1 -7 8 6 22 14 30 17 13 5 12 6 -1 6 -9
1 -23 -7 -30 -16z"/>
<path d="M2607 1063 c-4 -3 -7 -11 -7 -17 0 -7 3 -7 8 0 4 7 16 14 27 17 19 5
19 5 -1 6 -11 0 -24 -2 -27 -6z"/>
<path d="M2707 1056 c-6 -15 11 -36 29 -36 20 0 28 -21 13 -32 -12 -8 -11 -9
1 -5 28 7 22 34 -10 46 -37 12 -31 36 7 26 16 -4 22 -2 18 5 -9 15 -52 12 -58
-4z"/>
<path d="M2867 1063 c-3 -5 4 -9 16 -8 30 0 34 -19 5 -25 -23 -6 -40 -50 -20
-50 6 0 8 9 5 20 -4 16 0 20 21 20 30 0 34 -14 9 -29 -16 -9 -15 -10 5 -8 20
1 23 6 20 42 -3 35 -6 40 -30 43 -14 2 -28 -1 -31 -5z"/>
<path d="M2962 1020 c1 -40 2 -41 5 -10 2 19 11 40 20 47 13 10 13 12 -6 10
-18 -1 -21 -7 -19 -47z"/>
<path d="M3023 1025 c0 -27 2 -38 4 -22 2 15 2 37 0 50 -2 12 -4 0 -4 -28z"/>
<path d="M3076 1062 c-3 -5 6 -7 19 -4 18 3 25 0 25 -12 0 -9 -8 -16 -19 -16
-10 0 -24 -7 -31 -15 -13 -15 -6 -35 13 -35 8 0 7 3 -2 9 -17 11 -5 31 19 31
11 0 20 -9 23 -22 3 -13 4 -3 3 22 -1 38 -4 45 -23 48 -11 2 -24 -1 -27 -6z"/>
<path d="M3359 1061 c40 -11 38 -31 -3 -31 -20 0 -36 -3 -36 -8 0 -4 18 -6 40
-4 22 2 40 9 40 16 0 19 -22 36 -44 35 -18 -1 -18 -2 3 -8z"/>
<path d="M3487 1063 c-4 -3 -7 -11 -7 -17 0 -7 3 -7 8 0 4 7 16 14 27 17 19 5
19 5 -1 6 -11 0 -24 -2 -27 -6z"/>
<path d="M3597 1064 c-14 -15 -7 -26 9 -13 13 10 19 10 36 0 16 -10 19 -10 16
1 -5 14 -50 23 -61 12z"/>
<path d="M3700 1062 c0 -5 11 -7 25 -4 18 3 25 0 25 -11 0 -10 -11 -17 -27
-19 -20 -2 -28 -9 -28 -22 0 -11 7 -21 15 -23 12 -4 13 -3 1 5 -17 12 -6 32
19 32 11 0 20 -9 23 -22 3 -13 4 -3 3 22 -1 41 -3 45 -28 48 -16 2 -28 -1 -28
-6z"/>
<path d="M3791 1020 l2 -45 6 39 c4 26 13 42 26 47 17 6 15 7 -7 6 -26 -1 -28
-4 -27 -47z"/>
<path d="M7200 1060 c0 -5 5 -10 11 -10 5 0 7 5 4 10 -3 6 -8 10 -11 10 -2 0
-4 -4 -4 -10z"/>
<path d="M7710 1061 c0 -40 57 -71 75 -41 4 6 -6 7 -25 4 -19 -4 -30 -2 -31 5
-3 26 -4 30 -11 37 -5 4 -8 2 -8 -5z"/>
<path d="M8315 1060 c3 -5 8 -10 11 -10 2 0 4 5 4 10 0 6 -5 10 -11 10 -5 0
-7 -4 -4 -10z"/>
<path d="M6936 1051 c-11 -17 6 -41 28 -40 19 0 19 1 -4 10 -24 10 -24 11 -6
25 17 12 17 14 4 14 -9 0 -19 -4 -22 -9z"/>
<path d="M7825 1050 c-3 -6 1 -7 9 -4 18 7 21 14 7 14 -6 0 -13 -4 -16 -10z"/>
<path d="M8017 1042 c-25 -27 -21 -32 21 -31 30 2 32 3 10 6 -31 5 -34 13 -16
31 7 7 10 12 7 12 -3 0 -13 -8 -22 -18z"/>
<path d="M8100 1050 c0 -5 7 -7 15 -4 8 4 15 8 15 10 0 2 -7 4 -15 4 -8 0 -15
-4 -15 -10z"/>
<path d="M8263 1044 c-8 -20 10 -37 33 -31 16 4 15 5 -3 6 -27 1 -31 27 -5 34
16 4 16 5 -1 6 -10 0 -20 -6 -24 -15z"/>
<path d="M8520 1051 c0 -5 9 -7 20 -4 11 3 20 7 20 9 0 2 -9 4 -20 4 -11 0
-20 -4 -20 -9z"/>
<path d="M6242 1041 c-10 -6 -10 -10 3 -21 13 -11 15 -9 15 9 0 24 0 24 -18
12z"/>
<path d="M8426 1034 c-4 -11 -14 -15 -31 -12 -13 3 -22 1 -19 -3 8 -14 40 -10
54 6 7 9 11 18 8 21 -3 3 -8 -3 -12 -12z"/>
<path d="M3211 1024 c0 -11 3 -14 6 -6 3 7 2 16 -1 19 -3 4 -6 -2 -5 -13z"/>
<path d="M6991 1024 c0 -11 3 -14 6 -6 3 7 2 16 -1 19 -3 4 -6 -2 -5 -13z"/>
<path d="M7041 1024 c0 -11 3 -14 6 -6 3 7 2 16 -1 19 -3 4 -6 -2 -5 -13z"/>
<path d="M7109 1028 c7 -10 23 -17 35 -17 20 1 20 2 1 6 -11 3 -27 10 -35 17
-13 10 -13 9 -1 -6z"/>
<path d="M7464 1029 c-3 -6 -17 -9 -30 -6 -13 2 -21 0 -18 -4 8 -14 40 -10 54
6 7 8 10 15 7 15 -3 0 -9 -5 -13 -11z"/>
<path d="M3660 1022 c0 -6 -7 -18 -16 -26 -8 -9 -11 -16 -5 -16 13 0 35 39 27
48 -3 3 -6 0 -6 -6z"/>
<path d="M6307 1018 c2 -5 13 -8 23 -8 10 0 21 3 23 8 3 4 -8 7 -23 7 -15 0
-26 -3 -23 -7z"/>
<path d="M6407 1018 c2 -5 13 -8 23 -8 10 0 21 3 23 8 3 4 -8 7 -23 7 -15 0
-26 -3 -23 -7z"/>
<path d="M7240 1020 c-23 -7 -23 -8 -3 -9 12 -1 25 4 28 9 3 6 5 10 3 9 -2 -1
-14 -5 -28 -9z"/>
<path d="M7820 1019 c0 -5 9 -9 20 -9 11 0 20 2 20 4 0 2 -9 6 -20 9 -11 3
-20 1 -20 -4z"/>
<path d="M8108 1018 c5 -5 16 -8 23 -6 8 3 3 7 -10 11 -17 4 -21 3 -13 -5z"/>
<path d="M8528 1018 c5 -5 16 -8 23 -6 8 3 3 7 -10 11 -17 4 -21 3 -13 -5z"/>
<path d="M2502 994 c9 -9 21 -15 27 -13 6 2 -2 10 -17 17 -25 11 -25 11 -10
-4z"/>
<path d="M2600 1001 c0 -10 19 -25 25 -20 1 2 -3 10 -11 17 -8 7 -14 8 -14 3z"/>
<path d="M3480 1001 c0 -10 19 -25 25 -20 1 2 -3 10 -11 17 -8 7 -14 8 -14 3z"/>
<path d="M3590 1001 c0 -10 19 -25 25 -20 1 2 -3 10 -11 17 -8 7 -14 8 -14 3z"/>
<path d="M2650 990 c-9 -6 -10 -10 -3 -10 6 0 15 5 18 10 8 12 4 12 -15 0z"/>
<path d="M2707 989 c7 -7 15 -10 18 -7 3 3 -2 9 -12 12 -14 6 -15 5 -6 -5z"/>
<path d="M3337 989 c7 -7 15 -10 18 -7 3 3 -2 9 -12 12 -14 6 -15 5 -6 -5z"/>
<path d="M2530 950 c-23 -7 -23 -8 -3 -9 12 -1 25 4 28 9 3 6 5 10 3 9 -2 -1
-14 -5 -28 -9z"/>
<path d="M7669 898 c-3 -13 -1 -41 2 -63 5 -35 6 -33 8 23 1 63 -4 81 -10 40z"/>
<path d="M6280 885 c1 -26 2 -28 11 -12 8 14 8 22 0 30 -8 8 -11 3 -11 -18z"/>
<path d="M8071 863 c0 -28 2 -54 7 -57 4 -2 6 14 4 37 -5 68 -10 76 -11 20z"/>
<path d="M8551 863 c0 -28 2 -54 7 -57 4 -2 6 14 4 37 -5 68 -10 76 -11 20z"/>
<path d="M6173 850 c0 -25 2 -35 4 -22 2 12 2 32 0 45 -2 12 -4 2 -4 -23z"/>
<path d="M6226 877 c3 -10 9 -15 12 -12 3 3 0 11 -7 18 -10 9 -11 8 -5 -6z"/>
<path d="M6340 850 c0 -22 2 -40 4 -40 2 0 6 18 8 40 2 22 0 40 -4 40 -5 0 -8
-18 -8 -40z"/>
<path d="M6571 890 c-7 -14 -5 -118 2 -111 5 5 6 32 4 62 -2 30 -4 52 -6 49z"/>
<path d="M6666 849 c1 -53 14 -63 14 -11 0 22 -3 43 -8 46 -4 2 -7 -13 -6 -35z"/>
<path d="M6760 845 c0 -27 2 -46 4 -44 8 8 10 78 3 85 -4 4 -7 -14 -7 -41z"/>
<path d="M6820 842 l5 -47 3 39 c2 21 0 42 -5 47 -4 4 -6 -13 -3 -39z"/>
<path d="M6920 842 l5 -47 3 39 c2 21 0 42 -5 47 -4 4 -6 -13 -3 -39z"/>
<path d="M7510 842 l5 -47 3 39 c2 21 0 42 -5 47 -4 4 -6 -13 -3 -39z"/>
<path d="M7612 878 c-24 -24 -8 -79 23 -78 5 0 2 5 -7 11 -21 12 -24 49 -6 67
7 7 10 12 7 12 -3 0 -10 -5 -17 -12z"/>
<path d="M7722 878 c-18 -18 -15 -54 6 -69 14 -11 15 -11 5 1 -16 18 -17 52
-1 68 7 7 10 12 7 12 -3 0 -10 -5 -17 -12z"/>
<path d="M7769 878 c7 -10 11 -29 9 -43 -3 -13 -1 -22 3 -19 15 9 10 51 -8 65
-16 13 -17 12 -4 -3z"/>
<path d="M7871 868 c-7 -19 -4 -58 4 -58 2 0 5 18 7 40 4 45 1 50 -11 18z"/>
<path d="M7927 869 c4 -13 8 -18 11 -10 2 7 -1 18 -6 23 -8 8 -9 4 -5 -13z"/>
<path d="M7974 879 c-3 -6 -2 -15 3 -20 5 -5 9 -1 9 11 0 23 -2 24 -12 9z"/>
<path d="M8235 879 c-4 -6 -5 -12 -2 -15 2 -3 7 2 10 11 7 17 1 20 -8 4z"/>
<path d="M8500 847 c4 -41 5 -41 8 -8 2 18 0 37 -5 42 -5 5 -6 -11 -3 -34z"/>
<path d="M8668 863 c5 -21 7 -23 10 -9 2 10 0 22 -6 28 -6 6 -7 0 -4 -19z"/>
<path d="M7121 864 c0 -11 3 -14 6 -6 3 7 2 16 -1 19 -3 4 -6 -2 -5 -13z"/>
<path d="M8188 845 c-2 -19 0 -35 4 -35 4 0 8 16 8 35 0 19 -2 35 -4 35 -2 0
-6 -16 -8 -35z"/>
<path d="M8443 845 c0 -22 2 -30 4 -17 2 12 2 30 0 40 -3 9 -5 -1 -4 -23z"/>
<path d="M7010 847 c0 -14 4 -28 9 -31 4 -3 7 6 5 20 -3 35 -14 43 -14 11z"/>
<path d="M8399 868 c-5 -16 -3 -58 3 -58 4 0 8 14 8 30 0 17 -2 30 -5 30 -3 0
-5 -1 -6 -2z"/>
<path d="M6064 849 c-3 -6 -2 -15 3 -20 5 -5 9 -1 10 11 2 22 -2 25 -13 9z"/>
<path d="M6400 841 c0 -11 4 -22 9 -25 4 -3 6 6 3 19 -5 30 -12 33 -12 6z"/>
<path d="M6501 844 c0 -11 3 -14 6 -6 3 7 2 16 -1 19 -3 4 -6 -2 -5 -13z"/>
<path d="M8600 848 c0 -7 4 -19 9 -27 6 -9 9 -5 9 13 0 14 -4 26 -9 26 -5 0
-9 -6 -9 -12z"/>
<path d="M6281 834 c0 -11 3 -14 6 -6 3 7 2 16 -1 19 -3 4 -6 -2 -5 -13z"/>
<path d="M6613 834 c-3 -8 -2 -19 3 -24 5 -5 9 1 9 16 0 28 -3 30 -12 8z"/>
<path d="M8000 846 c0 -2 7 -7 16 -10 8 -3 12 -2 9 4 -6 10 -25 14 -25 6z"/>
<path d="M6860 826 c0 -8 4 -17 9 -20 5 -4 7 3 4 14 -6 23 -13 26 -13 6z"/>
<path d="M7171 824 c0 -11 3 -14 6 -6 3 7 2 16 -1 19 -3 4 -6 -2 -5 -13z"/>
<path d="M8340 826 c0 -8 4 -17 9 -20 5 -4 7 3 4 14 -6 23 -13 26 -13 6z"/>
<path d="M8130 822 c0 -12 19 -26 26 -19 2 2 -2 10 -11 17 -9 8 -15 8 -15 2z"/>
<path d="M8242 814 c10 -10 20 -16 22 -13 3 3 -5 11 -17 18 -21 13 -21 12 -5
-5z"/>
<path d="M7009 690 c-3 -67 -2 -91 4 -97 4 -3 7 21 7 55 0 34 -2 62 -5 62 -3
0 -5 -9 -6 -20z"/>
<path d="M7970 650 c0 -35 2 -61 5 -58 8 7 9 108 1 115 -3 3 -6 -22 -6 -57z"/>
<path d="M6169 669 c15 -6 21 -15 17 -24 -3 -8 -1 -15 4 -15 14 0 12 24 -2 38
-7 7 -19 12 -27 11 -10 0 -6 -4 8 -10z"/>
<path d="M6508 673 c7 -3 16 -2 19 1 4 3 -2 6 -13 5 -11 0 -14 -3 -6 -6z"/>
<path d="M6608 673 c7 -3 16 -2 19 1 4 3 -2 6 -13 5 -11 0 -14 -3 -6 -6z"/>
<path d="M6731 613 c1 -37 4 -56 6 -40 3 18 9 25 16 20 7 -4 6 0 -2 10 -7 9
-11 28 -9 42 3 14 1 28 -3 31 -5 3 -8 -25 -8 -63z"/>
<path d="M6783 670 c20 -13 23 -50 5 -68 -9 -9 -9 -12 0 -12 16 0 27 50 15 68
-5 9 -16 17 -24 19 -8 3 -7 0 4 -7z"/>
<path d="M6868 673 c7 -3 16 -2 19 1 4 3 -2 6 -13 5 -11 0 -14 -3 -6 -6z"/>
<path d="M6952 668 c-18 -18 -15 -54 6 -69 14 -11 15 -11 5 1 -19 20 -16 57 5
69 9 6 12 11 7 11 -6 0 -16 -5 -23 -12z"/>
<path d="M7062 668 c-7 -7 -12 -23 -12 -37 0 -30 12 -20 14 11 1 18 7 23 28
23 15 -1 24 3 22 7 -8 12 -38 10 -52 -4z"/>
<path d="M7228 673 c7 -3 16 -2 19 1 4 3 -2 6 -13 5 -11 0 -14 -3 -6 -6z"/>
<path d="M7330 676 c0 -2 9 -6 20 -9 11 -3 18 -1 14 4 -5 9 -34 13 -34 5z"/>
<path d="M7513 635 c0 -27 2 -38 4 -22 2 15 2 37 0 50 -2 12 -4 0 -4 -28z"/>
<path d="M7552 668 c9 -7 19 -26 21 -43 4 -28 4 -27 6 6 1 25 -4 39 -15 43
-25 10 -29 7 -12 -6z"/>
<path d="M7607 673 c6 -4 13 -26 16 -48 4 -40 4 -40 3 4 -1 30 -6 46 -16 48
-10 3 -11 2 -3 -4z"/>
<path d="M7708 670 c16 -7 22 -18 22 -39 0 -16 -5 -32 -10 -34 -6 -3 -5 -4 2
-3 17 3 22 54 7 72 -6 8 -19 14 -28 13 -11 0 -9 -3 7 -9z"/>
<path d="M7788 673 c7 -3 16 -2 19 1 4 3 -2 6 -13 5 -11 0 -14 -3 -6 -6z"/>
<path d="M7825 663 c4 -15 1 -23 -12 -26 -17 -4 -17 -5 0 -6 19 -1 22 -12 7
-27 -7 -7 -6 -11 5 -11 18 0 21 53 4 77 -8 12 -9 10 -4 -7z"/>
<path d="M7870 635 c0 -27 2 -46 4 -44 8 8 10 78 3 85 -4 4 -7 -14 -7 -41z"/>
<path d="M7917 673 c6 -4 13 -26 16 -48 4 -40 4 -40 3 4 -1 30 -6 46 -16 48
-10 3 -11 2 -3 -4z"/>
<path d="M8331 677 c2 -1 13 -9 24 -17 19 -14 19 -14 6 3 -7 9 -18 17 -24 17
-6 0 -8 -1 -6 -3z"/>
<path d="M8588 670 c16 -7 22 -18 22 -39 0 -16 -5 -32 -10 -34 -6 -3 -5 -4 2
-3 17 3 22 54 7 72 -6 8 -19 14 -28 13 -11 0 -9 -3 7 -9z"/>
<path d="M6436 657 c3 -10 9 -15 12 -12 3 3 0 11 -7 18 -10 9 -11 8 -5 -6z"/>
<path d="M6642 650 c0 -14 2 -19 5 -12 2 6 2 18 0 25 -3 6 -5 1 -5 -13z"/>
<path d="M6835 650 c-6 -18 9 -60 21 -60 2 0 0 9 -6 20 -6 12 -8 30 -5 40 4
11 4 20 1 20 -2 0 -7 -9 -11 -20z"/>
<path d="M7260 656 c0 -8 -8 -17 -17 -19 -14 -4 -12 -5 5 -6 16 -1 22 5 22 19
0 11 -2 20 -5 20 -3 0 -5 -6 -5 -14z"/>
<path d="M7466 657 c3 -10 9 -15 12 -12 3 3 0 11 -7 18 -10 9 -11 8 -5 -6z"/>
<path d="M7660 654 c0 -8 5 -12 10 -9 6 3 10 10 10 16 0 5 -4 9 -10 9 -5 0
-10 -7 -10 -16z"/>
<path d="M8407 663 c-4 -3 -7 -18 -7 -31 0 -32 11 -23 14 12 3 28 3 30 -7 19z"/>
<path d="M8546 655 c-3 -9 -6 -22 -5 -28 0 -7 5 -1 10 12 5 13 8 26 5 28 -2 2
-6 -3 -10 -12z"/>
<path d="M6584 631 c0 -21 7 -36 16 -38 10 -3 11 -2 3 4 -6 4 -13 22 -16 38
-4 27 -5 27 -3 -4z"/>
<path d="M6120 640 c0 -5 5 -10 11 -10 5 0 7 5 4 10 -3 6 -8 10 -11 10 -2 0
-4 -4 -4 -10z"/>
<path d="M7401 634 c0 -11 3 -14 6 -6 3 7 2 16 -1 19 -3 4 -6 -2 -5 -13z"/>
<path d="M8455 640 c-16 -7 -17 -9 -3 -9 9 -1 20 4 23 9 7 11 7 11 -20 0z"/>
<path d="M7770 610 c0 -11 4 -20 9 -20 5 0 7 9 4 20 -3 11 -7 20 -9 20 -2 0
-4 -9 -4 -20z"/>
<path d="M6896 603 c-6 -14 -5 -15 5 -6 7 7 10 15 7 18 -3 3 -9 -2 -12 -12z"/>
<path d="M7261 604 c0 -11 3 -14 6 -6 3 7 2 16 -1 19 -3 4 -6 -2 -5 -13z"/>
<path d="M7660 604 c0 -8 5 -12 10 -9 6 3 10 10 10 16 0 5 -4 9 -10 9 -5 0
-10 -7 -10 -16z"/>
<path d="M6305 600 c3 -5 8 -10 11 -10 2 0 4 5 4 10 0 6 -5 10 -11 10 -5 0 -7
-4 -4 -10z"/>
<path d="M6880 480 c0 -16 -5 -19 -22 -15 -13 3 -29 1 -36 -3 -17 -11 -12 -74
6 -78 7 -1 8 0 2 3 -16 8 -12 63 5 69 18 7 45 -12 45 -32 0 -7 -7 -19 -15 -28
-14 -13 -13 -15 5 -13 18 1 20 8 20 59 0 32 -2 58 -5 58 -3 0 -5 -9 -5 -20z"/>
<path d="M7748 478 c-8 -22 7 -91 20 -94 7 -1 8 0 2 3 -12 6 -13 70 -1 75 5 2
3 8 -4 15 -10 9 -15 9 -17 1z"/>
<path d="M6609 448 c-12 -23 -12 -23 9 -5 14 13 28 17 43 12 14 -5 19 -4 15 4
-12 20 -55 12 -67 -11z"/>
<path d="M6710 451 c-15 -28 -12 -47 8 -62 15 -13 16 -12 3 3 -20 27 -6 70 22
66 26 -4 35 -41 15 -65 -11 -14 -11 -15 2 -11 19 6 25 55 9 74 -16 20 -46 17
-59 -5z"/>
<path d="M6923 425 c0 -27 2 -38 4 -22 2 15 2 37 0 50 -2 12 -4 0 -4 -28z"/>
<path d="M6972 458 c-26 -26 -7 -79 28 -77 9 0 6 4 -7 9 -16 6 -23 18 -23 35
0 17 7 29 23 35 13 5 16 9 7 9 -9 1 -21 -4 -28 -11z"/>
<path d="M7031 465 c-2 -5 -4 -32 -5 -60 -1 -43 -4 -50 -26 -56 -22 -6 -23 -7
-4 -8 34 -2 45 22 41 81 -2 29 -5 49 -6 43z"/>
<path d="M7079 453 c-13 -16 -12 -17 3 -4 10 7 27 11 38 8 11 -3 18 -1 14 4
-9 15 -41 10 -55 -8z"/>
<path d="M7236 461 c-4 -5 3 -7 14 -4 23 6 26 13 6 13 -8 0 -17 -4 -20 -9z"/>
<path d="M7286 462 c-2 -4 -1 -14 5 -22 7 -12 9 -10 9 8 0 23 -5 28 -14 14z"/>
<path d="M7346 462 c-2 -4 7 -8 21 -7 14 0 28 -6 31 -14 3 -10 -4 -12 -32 -9
-22 2 -36 0 -36 -7 0 -6 16 -9 40 -7 40 4 50 18 28 40 -14 14 -44 16 -52 4z"/>
<path d="M7492 420 c1 -40 2 -41 5 -10 2 19 11 40 20 47 13 10 13 12 -6 10
-18 -1 -21 -7 -19 -47z"/>
<path d="M7566 462 c-3 -5 6 -7 19 -4 18 3 25 0 25 -11 0 -8 -13 -17 -30 -20
-29 -6 -41 -29 -21 -41 5 -3 8 2 7 12 0 10 7 18 21 20 16 2 23 -3 26 -20 3
-13 4 -3 3 22 -1 38 -4 45 -23 48 -11 2 -24 -1 -27 -6z"/>
<path d="M7656 453 c-7 -16 8 -33 31 -33 19 0 27 -21 12 -32 -12 -8 -11 -9 1
-5 24 6 17 31 -13 45 -30 14 -27 37 4 29 11 -3 19 -1 19 4 0 16 -48 9 -54 -8z"/>
<path d="M7812 420 c1 -40 2 -41 5 -10 2 19 11 40 20 47 13 10 13 12 -6 10
-18 -1 -21 -7 -19 -47z"/>
<path d="M7881 456 c-15 -18 -10 -69 7 -72 7 -1 8 0 2 3 -25 12 -9 33 25 33
38 0 40 2 25 31 -13 22 -43 25 -59 5z m53 -11 c4 -11 -2 -15 -24 -15 -29 0
-38 9 -23 23 12 12 41 7 47 -8z"/>
<path d="M7973 425 c0 -27 2 -38 4 -22 2 15 2 37 0 50 -2 12 -4 0 -4 -28z"/>
<path d="M8026 461 c-4 -5 4 -7 15 -4 15 4 27 0 35 -12 8 -11 14 -14 14 -9 0
26 -51 46 -64 25z"/>
<path d="M7221 424 c0 -12 7 -28 17 -35 15 -12 16 -12 6 1 -7 8 -14 24 -17 35
-4 19 -5 19 -6 -1z"/>
<path d="M8011 424 c0 -11 3 -14 6 -6 3 7 2 16 -1 19 -3 4 -6 -2 -5 -13z"/>
<path d="M7292 400 c0 -14 2 -19 5 -12 2 6 2 18 0 25 -3 6 -5 1 -5 -13z"/>
<path d="M6610 401 c0 -6 4 -13 10 -16 6 -3 7 1 4 9 -7 18 -14 21 -14 7z"/>
<path d="M7070 401 c0 -10 19 -25 25 -20 1 2 -3 10 -11 17 -8 7 -14 8 -14 3z"/>
<path d="M7120 390 c-9 -6 -10 -10 -3 -10 6 0 15 5 18 10 8 12 4 12 -15 0z"/>
<path d="M7925 390 c-3 -5 -1 -10 4 -10 6 0 11 5 11 10 0 6 -2 10 -4 10 -3 0
-8 -4 -11 -10z"/>
</g>
</svg>
