<svg width="819" height="44" viewBox="0 0 819 44" fill="none" xmlns="http://www.w3.org/2000/svg">
<path d="M25.9251 0.919998C26.5011 0.919998 26.9491 1.112 27.2691 1.496C27.5891 1.848 27.7491 2.328 27.7491 2.936V33.224C27.7491 33.832 27.5731 34.328 27.2211 34.712C26.9011 35.064 26.4371 35.24 25.8291 35.24C25.2211 35.24 24.6931 34.968 24.2451 34.424L4.32513 7.784V33.224C4.32513 33.832 4.14913 34.328 3.79713 34.712C3.47713 35.064 3.02913 35.24 2.45312 35.24C1.87713 35.24 1.42913 35.064 1.10913 34.712C0.789125 34.328 0.629125 33.832 0.629125 33.224V2.936C0.629125 2.328 0.789125 1.848 1.10913 1.496C1.46113 1.112 1.94113 0.919998 2.54913 0.919998C3.18913 0.919998 3.73313 1.192 4.18113 1.736L24.0531 28.376V2.936C24.0531 2.328 24.2131 1.848 24.5331 1.496C24.8851 1.112 25.3491 0.919998 25.9251 0.919998ZM45.2335 35.336C43.0255 35.336 41.0735 34.84 39.3775 33.848C37.7135 32.856 36.4175 31.448 35.4895 29.624C34.5935 27.768 34.1455 25.624 34.1455 23.192C34.1455 20.76 34.5935 18.632 35.4895 16.808C36.4175 14.952 37.7135 13.528 39.3775 12.536C41.0735 11.544 43.0255 11.048 45.2335 11.048C47.4415 11.048 49.3935 11.544 51.0895 12.536C52.7855 13.528 54.0815 14.952 54.9775 16.808C55.9055 18.632 56.3695 20.76 56.3695 23.192C56.3695 25.624 55.9055 27.768 54.9775 29.624C54.0815 31.448 52.7855 32.856 51.0895 33.848C49.3935 34.84 47.4415 35.336 45.2335 35.336ZM45.2335 32.12C47.5375 32.12 49.2975 31.368 50.5135 29.864C51.7615 28.328 52.3855 26.104 52.3855 23.192C52.3855 20.344 51.7615 18.152 50.5135 16.616C49.2655 15.048 47.5055 14.264 45.2335 14.264C42.9615 14.264 41.2015 15.048 39.9535 16.616C38.7055 18.152 38.0815 20.344 38.0815 23.192C38.0815 26.072 38.6895 28.28 39.9055 29.816C41.1535 31.352 42.9295 32.12 45.2335 32.12ZM70.0345 35.336C68.5625 35.336 67.1545 35.16 65.8105 34.808C64.4985 34.456 63.3305 33.96 62.3065 33.32C61.7305 32.936 61.3145 32.584 61.0585 32.264C60.8345 31.912 60.7225 31.496 60.7225 31.016C60.7225 30.6 60.8345 30.264 61.0585 30.008C61.3145 29.72 61.6345 29.576 62.0185 29.576C62.4025 29.576 62.9625 29.816 63.6985 30.296C64.6585 30.872 65.6025 31.336 66.5305 31.688C67.4905 32.008 68.6745 32.168 70.0825 32.168C71.8105 32.168 73.1545 31.864 74.1145 31.256C75.0745 30.648 75.5545 29.768 75.5545 28.616C75.5545 27.912 75.3785 27.352 75.0265 26.936C74.6745 26.488 74.0665 26.104 73.2025 25.784C72.3385 25.432 71.0745 25.08 69.4105 24.728C66.5945 24.12 64.5785 23.304 63.3625 22.28C62.1465 21.256 61.5385 19.864 61.5385 18.104C61.5385 16.728 61.9225 15.512 62.6905 14.456C63.4585 13.4 64.5145 12.568 65.8585 11.96C67.2345 11.352 68.7865 11.048 70.5145 11.048C71.7625 11.048 72.9625 11.224 74.1145 11.576C75.2985 11.896 76.3385 12.36 77.2345 12.968C78.3225 13.736 78.8665 14.536 78.8665 15.368C78.8665 15.784 78.7385 16.136 78.4825 16.424C78.2265 16.712 77.9225 16.856 77.5705 16.856C77.1865 16.856 76.6105 16.584 75.8425 16.04C74.9465 15.464 74.0985 15.016 73.2985 14.696C72.4985 14.376 71.5065 14.216 70.3225 14.216C68.8185 14.216 67.6025 14.552 66.6745 15.224C65.7785 15.896 65.3305 16.792 65.3305 17.912C65.3305 18.616 65.4905 19.192 65.8105 19.64C66.1625 20.056 66.7225 20.44 67.4905 20.792C68.2905 21.112 69.4265 21.432 70.8985 21.752C73.0745 22.232 74.7545 22.76 75.9385 23.336C77.1545 23.912 78.0185 24.616 78.5305 25.448C79.0425 26.28 79.2985 27.336 79.2985 28.616C79.2985 30.632 78.4505 32.264 76.7545 33.512C75.0585 34.728 72.8185 35.336 70.0345 35.336ZM93.097 35.336C91.625 35.336 90.217 35.16 88.873 34.808C87.561 34.456 86.393 33.96 85.369 33.32C84.793 32.936 84.377 32.584 84.121 32.264C83.897 31.912 83.785 31.496 83.785 31.016C83.785 30.6 83.897 30.264 84.121 30.008C84.377 29.72 84.697 29.576 85.081 29.576C85.465 29.576 86.025 29.816 86.761 30.296C87.721 30.872 88.665 31.336 89.593 31.688C90.553 32.008 91.737 32.168 93.145 32.168C94.873 32.168 96.217 31.864 97.177 31.256C98.137 30.648 98.617 29.768 98.617 28.616C98.617 27.912 98.441 27.352 98.089 26.936C97.737 26.488 97.129 26.104 96.265 25.784C95.401 25.432 94.137 25.08 92.473 24.728C89.657 24.12 87.641 23.304 86.425 22.28C85.209 21.256 84.601 19.864 84.601 18.104C84.601 16.728 84.985 15.512 85.753 14.456C86.521 13.4 87.577 12.568 88.921 11.96C90.297 11.352 91.849 11.048 93.577 11.048C94.825 11.048 96.025 11.224 97.177 11.576C98.361 11.896 99.401 12.36 100.297 12.968C101.385 13.736 101.929 14.536 101.929 15.368C101.929 15.784 101.801 16.136 101.545 16.424C101.289 16.712 100.985 16.856 100.633 16.856C100.249 16.856 99.673 16.584 98.905 16.04C98.009 15.464 97.161 15.016 96.361 14.696C95.561 14.376 94.569 14.216 93.385 14.216C91.881 14.216 90.665 14.552 89.737 15.224C88.841 15.896 88.393 16.792 88.393 17.912C88.393 18.616 88.553 19.192 88.873 19.64C89.225 20.056 89.785 20.44 90.553 20.792C91.353 21.112 92.489 21.432 93.961 21.752C96.137 22.232 97.817 22.76 99.001 23.336C100.217 23.912 101.081 24.616 101.593 25.448C102.105 26.28 102.361 27.336 102.361 28.616C102.361 30.632 101.513 32.264 99.817 33.512C98.121 34.728 95.881 35.336 93.097 35.336ZM117.984 35.336C115.776 35.336 113.824 34.84 112.128 33.848C110.464 32.856 109.168 31.448 108.24 29.624C107.344 27.768 106.896 25.624 106.896 23.192C106.896 20.76 107.344 18.632 108.24 16.808C109.168 14.952 110.464 13.528 112.128 12.536C113.824 11.544 115.776 11.048 117.984 11.048C120.192 11.048 122.144 11.544 123.84 12.536C125.536 13.528 126.832 14.952 127.728 16.808C128.656 18.632 129.12 20.76 129.12 23.192C129.12 25.624 128.656 27.768 127.728 29.624C126.832 31.448 125.536 32.856 123.84 33.848C122.144 34.84 120.192 35.336 117.984 35.336ZM117.984 32.12C120.288 32.12 122.048 31.368 123.264 29.864C124.512 28.328 125.136 26.104 125.136 23.192C125.136 20.344 124.512 18.152 123.264 16.616C122.016 15.048 120.256 14.264 117.984 14.264C115.712 14.264 113.952 15.048 112.704 16.616C111.456 18.152 110.832 20.344 110.832 23.192C110.832 26.072 111.44 28.28 112.656 29.816C113.904 31.352 115.68 32.12 117.984 32.12ZM142.785 35.336C141.313 35.336 139.905 35.16 138.561 34.808C137.249 34.456 136.081 33.96 135.057 33.32C134.481 32.936 134.065 32.584 133.809 32.264C133.585 31.912 133.473 31.496 133.473 31.016C133.473 30.6 133.585 30.264 133.809 30.008C134.065 29.72 134.385 29.576 134.769 29.576C135.153 29.576 135.713 29.816 136.449 30.296C137.409 30.872 138.353 31.336 139.281 31.688C140.241 32.008 141.425 32.168 142.833 32.168C144.561 32.168 145.905 31.864 146.865 31.256C147.825 30.648 148.305 29.768 148.305 28.616C148.305 27.912 148.129 27.352 147.777 26.936C147.425 26.488 146.817 26.104 145.953 25.784C145.089 25.432 143.825 25.08 142.161 24.728C139.345 24.12 137.329 23.304 136.113 22.28C134.897 21.256 134.289 19.864 134.289 18.104C134.289 16.728 134.673 15.512 135.441 14.456C136.209 13.4 137.265 12.568 138.609 11.96C139.985 11.352 141.537 11.048 143.265 11.048C144.513 11.048 145.713 11.224 146.865 11.576C148.049 11.896 149.089 12.36 149.985 12.968C151.073 13.736 151.617 14.536 151.617 15.368C151.617 15.784 151.489 16.136 151.233 16.424C150.977 16.712 150.673 16.856 150.321 16.856C149.937 16.856 149.361 16.584 148.593 16.04C147.697 15.464 146.849 15.016 146.049 14.696C145.249 14.376 144.257 14.216 143.073 14.216C141.569 14.216 140.353 14.552 139.425 15.224C138.529 15.896 138.081 16.792 138.081 17.912C138.081 18.616 138.241 19.192 138.561 19.64C138.913 20.056 139.473 20.44 140.241 20.792C141.041 21.112 142.177 21.432 143.648 21.752C145.825 22.232 147.505 22.76 148.689 23.336C149.905 23.912 150.769 24.616 151.281 25.448C151.793 26.28 152.049 27.336 152.049 28.616C152.049 30.632 151.201 32.264 149.505 33.512C147.809 34.728 145.569 35.336 142.785 35.336ZM196.366 11.048C201.55 11.048 204.142 14.136 204.142 20.312V33.32C204.142 33.928 203.966 34.408 203.614 34.76C203.262 35.08 202.798 35.24 202.222 35.24C201.646 35.24 201.166 35.08 200.782 34.76C200.43 34.408 200.254 33.928 200.254 33.32V20.408C200.254 18.264 199.87 16.712 199.102 15.752C198.334 14.792 197.134 14.312 195.502 14.312C193.55 14.312 192.014 14.968 190.894 16.28C189.774 17.592 189.214 19.368 189.214 21.608V33.32C189.214 33.928 189.022 34.408 188.638 34.76C188.286 35.08 187.822 35.24 187.246 35.24C186.67 35.24 186.206 35.08 185.854 34.76C185.502 34.408 185.326 33.928 185.326 33.32V20.408C185.326 18.264 184.942 16.712 184.174 15.752C183.406 14.792 182.19 14.312 180.526 14.312C178.606 14.312 177.07 14.968 175.918 16.28C174.798 17.592 174.238 19.368 174.238 21.608V33.32C174.238 33.928 174.062 34.408 173.71 34.76C173.358 35.08 172.894 35.24 172.318 35.24C171.742 35.24 171.262 35.08 170.878 34.76C170.526 34.408 170.35 33.928 170.35 33.32V13.064C170.35 12.488 170.526 12.024 170.878 11.672C171.262 11.32 171.742 11.144 172.318 11.144C172.862 11.144 173.31 11.32 173.662 11.672C174.014 11.992 174.19 12.44 174.19 13.016V15.32C174.894 13.944 175.87 12.888 177.118 12.152C178.366 11.416 179.806 11.048 181.438 11.048C185.086 11.048 187.47 12.584 188.59 15.656C189.262 14.248 190.286 13.128 191.662 12.296C193.038 11.464 194.606 11.048 196.366 11.048ZM220.777 11.048C226.633 11.048 229.561 14.12 229.561 20.264V33.32C229.561 33.896 229.385 34.36 229.033 34.712C228.713 35.064 228.265 35.24 227.689 35.24C227.113 35.24 226.649 35.064 226.297 34.712C225.945 34.36 225.769 33.896 225.769 33.32V31.016C225.161 32.392 224.233 33.464 222.985 34.232C221.737 34.968 220.297 35.336 218.665 35.336C217.161 35.336 215.769 35.032 214.489 34.424C213.241 33.816 212.249 32.968 211.513 31.88C210.777 30.792 210.409 29.592 210.409 28.28C210.409 26.52 210.857 25.16 211.753 24.2C212.649 23.208 214.121 22.504 216.169 22.088C218.217 21.64 221.065 21.416 224.713 21.416H225.769V19.832C225.769 17.912 225.369 16.504 224.569 15.608C223.801 14.712 222.537 14.264 220.777 14.264C218.601 14.264 216.393 14.856 214.153 16.04C213.289 16.584 212.681 16.856 212.329 16.856C211.945 16.856 211.625 16.712 211.369 16.424C211.113 16.136 210.985 15.768 210.985 15.32C210.985 14.872 211.113 14.488 211.369 14.168C211.657 13.816 212.105 13.464 212.713 13.112C213.833 12.472 215.097 11.976 216.505 11.624C217.945 11.24 219.369 11.048 220.777 11.048ZM219.193 32.264C221.113 32.264 222.681 31.624 223.897 30.344C225.145 29.032 225.769 27.352 225.769 25.304V23.912H224.905C222.089 23.912 219.945 24.04 218.473 24.296C217.001 24.52 215.945 24.92 215.305 25.496C214.697 26.04 214.393 26.856 214.393 27.944C214.393 29.192 214.841 30.232 215.737 31.064C216.665 31.864 217.817 32.264 219.193 32.264ZM238.646 35.24C238.07 35.24 237.59 35.08 237.206 34.76C236.854 34.408 236.678 33.928 236.678 33.32V13.064C236.678 12.456 236.854 11.992 237.206 11.672C237.59 11.32 238.07 11.144 238.646 11.144C239.222 11.144 239.686 11.32 240.038 11.672C240.39 11.992 240.566 12.456 240.566 13.064V33.32C240.566 33.96 240.39 34.44 240.038 34.76C239.686 35.08 239.222 35.24 238.646 35.24ZM238.646 6.104C237.878 6.104 237.254 5.88 236.774 5.432C236.294 4.984 236.054 4.392 236.054 3.656C236.054 2.952 236.294 2.376 236.774 1.928C237.254 1.48 237.878 1.256 238.646 1.256C239.414 1.256 240.038 1.48 240.518 1.928C240.998 2.376 241.238 2.952 241.238 3.656C241.238 4.392 240.998 4.984 240.518 5.432C240.038 5.88 239.414 6.104 238.646 6.104ZM255.706 35.336C254.234 35.336 252.826 35.16 251.482 34.808C250.17 34.456 249.002 33.96 247.978 33.32C247.402 32.936 246.986 32.584 246.73 32.264C246.506 31.912 246.394 31.496 246.394 31.016C246.394 30.6 246.506 30.264 246.73 30.008C246.986 29.72 247.306 29.576 247.69 29.576C248.074 29.576 248.634 29.816 249.37 30.296C250.33 30.872 251.274 31.336 252.202 31.688C253.162 32.008 254.346 32.168 255.754 32.168C257.482 32.168 258.826 31.864 259.786 31.256C260.746 30.648 261.226 29.768 261.226 28.616C261.226 27.912 261.05 27.352 260.698 26.936C260.346 26.488 259.738 26.104 258.874 25.784C258.01 25.432 256.746 25.08 255.082 24.728C252.266 24.12 250.25 23.304 249.034 22.28C247.818 21.256 247.21 19.864 247.21 18.104C247.21 16.728 247.594 15.512 248.362 14.456C249.13 13.4 250.186 12.568 251.53 11.96C252.906 11.352 254.458 11.048 256.186 11.048C257.434 11.048 258.634 11.224 259.786 11.576C260.97 11.896 262.01 12.36 262.906 12.968C263.994 13.736 264.538 14.536 264.538 15.368C264.538 15.784 264.41 16.136 264.154 16.424C263.898 16.712 263.594 16.856 263.242 16.856C262.858 16.856 262.282 16.584 261.514 16.04C260.618 15.464 259.77 15.016 258.97 14.696C258.17 14.376 257.178 14.216 255.994 14.216C254.49 14.216 253.274 14.552 252.346 15.224C251.45 15.896 251.002 16.792 251.002 17.912C251.002 18.616 251.162 19.192 251.482 19.64C251.834 20.056 252.394 20.44 253.162 20.792C253.962 21.112 255.098 21.432 256.57 21.752C258.746 22.232 260.426 22.76 261.61 23.336C262.826 23.912 263.69 24.616 264.202 25.448C264.714 26.28 264.97 27.336 264.97 28.616C264.97 30.632 264.122 32.264 262.426 33.512C260.73 34.728 258.49 35.336 255.706 35.336ZM291.144 35.336C289.672 35.336 288.264 35.16 286.92 34.808C285.608 34.456 284.44 33.96 283.416 33.32C282.84 32.936 282.424 32.584 282.168 32.264C281.944 31.912 281.832 31.496 281.832 31.016C281.832 30.6 281.944 30.264 282.168 30.008C282.424 29.72 282.744 29.576 283.128 29.576C283.512 29.576 284.072 29.816 284.808 30.296C285.768 30.872 286.712 31.336 287.64 31.688C288.6 32.008 289.784 32.168 291.192 32.168C292.92 32.168 294.264 31.864 295.224 31.256C296.184 30.648 296.664 29.768 296.664 28.616C296.664 27.912 296.488 27.352 296.136 26.936C295.784 26.488 295.176 26.104 294.312 25.784C293.448 25.432 292.184 25.08 290.52 24.728C287.704 24.12 285.688 23.304 284.472 22.28C283.256 21.256 282.648 19.864 282.648 18.104C282.648 16.728 283.032 15.512 283.8 14.456C284.568 13.4 285.624 12.568 286.968 11.96C288.344 11.352 289.896 11.048 291.624 11.048C292.872 11.048 294.072 11.224 295.224 11.576C296.408 11.896 297.448 12.36 298.344 12.968C299.432 13.736 299.976 14.536 299.976 15.368C299.976 15.784 299.848 16.136 299.592 16.424C299.336 16.712 299.032 16.856 298.68 16.856C298.296 16.856 297.72 16.584 296.952 16.04C296.056 15.464 295.208 15.016 294.408 14.696C293.608 14.376 292.616 14.216 291.432 14.216C289.928 14.216 288.712 14.552 287.784 15.224C286.888 15.896 286.44 16.792 286.44 17.912C286.44 18.616 286.6 19.192 286.92 19.64C287.272 20.056 287.832 20.44 288.6 20.792C289.4 21.112 290.536 21.432 292.008 21.752C294.184 22.232 295.864 22.76 297.048 23.336C298.264 23.912 299.128 24.616 299.64 25.448C300.152 26.28 300.408 27.336 300.408 28.616C300.408 30.632 299.56 32.264 297.864 33.512C296.168 34.728 293.928 35.336 291.144 35.336ZM308.302 35.24C307.726 35.24 307.246 35.08 306.862 34.76C306.51 34.408 306.334 33.928 306.334 33.32V13.064C306.334 12.456 306.51 11.992 306.862 11.672C307.246 11.32 307.726 11.144 308.302 11.144C308.878 11.144 309.342 11.32 309.694 11.672C310.046 11.992 310.222 12.456 310.222 13.064V33.32C310.222 33.96 310.046 34.44 309.694 34.76C309.342 35.08 308.878 35.24 308.302 35.24ZM308.302 6.104C307.534 6.104 306.91 5.88 306.43 5.432C305.95 4.984 305.71 4.392 305.71 3.656C305.71 2.952 305.95 2.376 306.43 1.928C306.91 1.48 307.534 1.256 308.302 1.256C309.07 1.256 309.694 1.48 310.174 1.928C310.654 2.376 310.894 2.952 310.894 3.656C310.894 4.392 310.654 4.984 310.174 5.432C309.694 5.88 309.07 6.104 308.302 6.104ZM329.251 11.048C334.851 11.048 337.651 14.136 337.651 20.312V33.32C337.651 33.928 337.475 34.408 337.123 34.76C336.803 35.08 336.339 35.24 335.731 35.24C335.123 35.24 334.643 35.08 334.291 34.76C333.939 34.408 333.763 33.928 333.763 33.32V20.552C333.763 18.376 333.331 16.792 332.467 15.8C331.635 14.808 330.291 14.312 328.435 14.312C326.291 14.312 324.579 14.968 323.299 16.28C322.019 17.592 321.379 19.368 321.379 21.608V33.32C321.379 33.928 321.203 34.408 320.851 34.76C320.531 35.08 320.067 35.24 319.459 35.24C318.851 35.24 318.371 35.08 318.019 34.76C317.667 34.408 317.491 33.928 317.491 33.32V13.064C317.491 12.488 317.667 12.024 318.019 11.672C318.371 11.32 318.851 11.144 319.459 11.144C320.035 11.144 320.483 11.32 320.803 11.672C321.155 12.024 321.331 12.472 321.331 13.016V15.464C322.099 14.024 323.171 12.936 324.547 12.2C325.923 11.432 327.491 11.048 329.251 11.048ZM354.42 35.336C352.244 35.336 350.308 34.84 348.612 33.848C346.948 32.856 345.652 31.448 344.724 29.624C343.828 27.8 343.38 25.688 343.38 23.288C343.38 20.888 343.844 18.76 344.772 16.904C345.732 15.048 347.06 13.608 348.756 12.584C350.452 11.56 352.404 11.048 354.612 11.048C355.828 11.048 357.028 11.224 358.212 11.576C359.428 11.896 360.484 12.376 361.38 13.016C361.956 13.4 362.356 13.784 362.58 14.168C362.836 14.52 362.964 14.92 362.964 15.368C362.964 15.816 362.836 16.184 362.58 16.472C362.356 16.76 362.052 16.904 361.668 16.904C361.444 16.904 361.204 16.84 360.948 16.712C360.692 16.584 360.468 16.456 360.276 16.328C360.116 16.2 360.004 16.12 359.94 16.088C359.108 15.544 358.308 15.112 357.54 14.792C356.804 14.472 355.892 14.312 354.804 14.312C352.468 14.312 350.644 15.112 349.332 16.712C348.052 18.28 347.412 20.472 347.412 23.288C347.412 26.104 348.052 28.28 349.332 29.816C350.644 31.352 352.468 32.12 354.804 32.12C355.892 32.12 356.82 31.96 357.588 31.64C358.388 31.32 359.188 30.888 359.988 30.344C360.34 30.12 360.676 29.928 360.996 29.768C361.316 29.608 361.588 29.528 361.812 29.528C362.164 29.528 362.452 29.672 362.676 29.96C362.932 30.248 363.06 30.616 363.06 31.064C363.06 31.48 362.948 31.864 362.724 32.216C362.5 32.536 362.084 32.904 361.476 33.32C360.58 33.928 359.492 34.424 358.212 34.808C356.964 35.16 355.7 35.336 354.42 35.336ZM385.837 29.576C386.189 29.576 386.493 29.72 386.749 30.008C387.005 30.296 387.133 30.664 387.133 31.112C387.133 31.912 386.573 32.648 385.453 33.32C384.301 33.992 383.085 34.504 381.805 34.856C380.525 35.176 379.277 35.336 378.061 35.336C374.445 35.336 371.581 34.264 369.469 32.12C367.389 29.976 366.349 27.016 366.349 23.24C366.349 20.84 366.813 18.728 367.741 16.904C368.669 15.048 369.965 13.608 371.629 12.584C373.325 11.56 375.245 11.048 377.389 11.048C380.429 11.048 382.845 12.04 384.637 14.024C386.429 16.008 387.325 18.696 387.325 22.088C387.325 22.728 387.197 23.192 386.941 23.48C386.685 23.768 386.269 23.912 385.693 23.912H370.237C370.525 29.416 373.133 32.168 378.061 32.168C379.309 32.168 380.381 32.008 381.277 31.688C382.173 31.336 383.133 30.872 384.157 30.296C384.989 29.816 385.549 29.576 385.837 29.576ZM377.437 14.072C375.389 14.072 373.741 14.712 372.493 15.992C371.277 17.272 370.557 19.08 370.333 21.416H383.917C383.853 19.048 383.261 17.24 382.141 15.992C381.021 14.712 379.453 14.072 377.437 14.072ZM404.621 11.144C405.965 11.048 406.637 11.592 406.637 12.776C406.637 13.288 406.493 13.704 406.205 14.024C405.917 14.312 405.421 14.488 404.717 14.552L403.277 14.696C401.133 14.888 399.533 15.656 398.477 17C397.453 18.312 396.941 19.864 396.941 21.656V33.32C396.941 33.96 396.765 34.44 396.413 34.76C396.061 35.08 395.597 35.24 395.021 35.24C394.445 35.24 393.965 35.08 393.581 34.76C393.229 34.408 393.053 33.928 393.053 33.32V13.064C393.053 12.456 393.245 11.992 393.629 11.672C394.013 11.32 394.477 11.144 395.021 11.144C395.533 11.144 395.965 11.32 396.317 11.672C396.669 11.992 396.845 12.44 396.845 13.016V15.704C397.517 14.296 398.461 13.224 399.677 12.488C400.925 11.752 402.349 11.32 403.949 11.192L404.621 11.144ZM419.202 35.336C416.994 35.336 415.042 34.84 413.346 33.848C411.682 32.856 410.386 31.448 409.458 29.624C408.562 27.768 408.114 25.624 408.114 23.192C408.114 20.76 408.562 18.632 409.458 16.808C410.386 14.952 411.682 13.528 413.346 12.536C415.042 11.544 416.994 11.048 419.202 11.048C421.41 11.048 423.362 11.544 425.058 12.536C426.754 13.528 428.05 14.952 428.946 16.808C429.874 18.632 430.338 20.76 430.338 23.192C430.338 25.624 429.874 27.768 428.946 29.624C428.05 31.448 426.754 32.856 425.058 33.848C423.362 34.84 421.41 35.336 419.202 35.336ZM419.202 32.12C421.506 32.12 423.266 31.368 424.482 29.864C425.73 28.328 426.354 26.104 426.354 23.192C426.354 20.344 425.73 18.152 424.482 16.616C423.234 15.048 421.474 14.264 419.202 14.264C416.93 14.264 415.17 15.048 413.922 16.616C412.674 18.152 412.05 20.344 412.05 23.192C412.05 26.072 412.658 28.28 413.874 29.816C415.122 31.352 416.898 32.12 419.202 32.12ZM444.003 35.336C442.531 35.336 441.123 35.16 439.779 34.808C438.467 34.456 437.299 33.96 436.275 33.32C435.699 32.936 435.283 32.584 435.027 32.264C434.803 31.912 434.691 31.496 434.691 31.016C434.691 30.6 434.803 30.264 435.027 30.008C435.283 29.72 435.603 29.576 435.987 29.576C436.371 29.576 436.931 29.816 437.667 30.296C438.627 30.872 439.571 31.336 440.499 31.688C441.459 32.008 442.643 32.168 444.051 32.168C445.779 32.168 447.123 31.864 448.083 31.256C449.043 30.648 449.523 29.768 449.523 28.616C449.523 27.912 449.347 27.352 448.995 26.936C448.643 26.488 448.035 26.104 447.171 25.784C446.307 25.432 445.043 25.08 443.379 24.728C440.563 24.12 438.547 23.304 437.331 22.28C436.115 21.256 435.507 19.864 435.507 18.104C435.507 16.728 435.891 15.512 436.659 14.456C437.427 13.4 438.483 12.568 439.827 11.96C441.203 11.352 442.755 11.048 444.483 11.048C445.731 11.048 446.931 11.224 448.083 11.576C449.267 11.896 450.307 12.36 451.203 12.968C452.291 13.736 452.835 14.536 452.835 15.368C452.835 15.784 452.707 16.136 452.451 16.424C452.195 16.712 451.891 16.856 451.539 16.856C451.155 16.856 450.579 16.584 449.811 16.04C448.915 15.464 448.067 15.016 447.267 14.696C446.467 14.376 445.475 14.216 444.291 14.216C442.787 14.216 441.571 14.552 440.643 15.224C439.747 15.896 439.299 16.792 439.299 17.912C439.299 18.616 439.459 19.192 439.779 19.64C440.131 20.056 440.691 20.44 441.459 20.792C442.259 21.112 443.395 21.432 444.867 21.752C447.043 22.232 448.723 22.76 449.907 23.336C451.123 23.912 451.987 24.616 452.499 25.448C453.011 26.28 453.267 27.336 453.267 28.616C453.267 30.632 452.419 32.264 450.723 33.512C449.027 34.728 446.787 35.336 444.003 35.336ZM481.121 11.048C486.977 11.048 489.905 14.12 489.905 20.264V33.32C489.905 33.896 489.729 34.36 489.377 34.712C489.057 35.064 488.609 35.24 488.033 35.24C487.457 35.24 486.993 35.064 486.641 34.712C486.289 34.36 486.113 33.896 486.113 33.32V31.016C485.505 32.392 484.577 33.464 483.329 34.232C482.081 34.968 480.641 35.336 479.009 35.336C477.505 35.336 476.113 35.032 474.833 34.424C473.585 33.816 472.593 32.968 471.857 31.88C471.121 30.792 470.753 29.592 470.753 28.28C470.753 26.52 471.201 25.16 472.097 24.2C472.993 23.208 474.465 22.504 476.513 22.088C478.561 21.64 481.409 21.416 485.057 21.416H486.113V19.832C486.113 17.912 485.713 16.504 484.913 15.608C484.145 14.712 482.881 14.264 481.121 14.264C478.945 14.264 476.737 14.856 474.497 16.04C473.633 16.584 473.025 16.856 472.673 16.856C472.289 16.856 471.969 16.712 471.713 16.424C471.457 16.136 471.329 15.768 471.329 15.32C471.329 14.872 471.457 14.488 471.713 14.168C472.001 13.816 472.449 13.464 473.057 13.112C474.177 12.472 475.441 11.976 476.849 11.624C478.289 11.24 479.713 11.048 481.121 11.048ZM479.537 32.264C481.457 32.264 483.025 31.624 484.241 30.344C485.489 29.032 486.113 27.352 486.113 25.304V23.912H485.249C482.433 23.912 480.289 24.04 478.817 24.296C477.345 24.52 476.289 24.92 475.649 25.496C475.041 26.04 474.737 26.856 474.737 27.944C474.737 29.192 475.185 30.232 476.081 31.064C477.009 31.864 478.161 32.264 479.537 32.264ZM515.982 11.144C516.59 11.144 517.07 11.32 517.422 11.672C517.774 12.024 517.95 12.488 517.95 13.064V33.416C517.95 36.904 517.054 39.528 515.262 41.288C513.47 43.08 510.814 43.976 507.294 43.976C503.87 43.976 501.022 43.304 498.75 41.96C497.598 41.32 497.022 40.584 497.022 39.752C497.022 39.304 497.134 38.936 497.358 38.648C497.614 38.36 497.934 38.216 498.318 38.216C498.638 38.216 499.214 38.44 500.046 38.888C501.166 39.464 502.27 39.928 503.358 40.28C504.446 40.632 505.742 40.808 507.246 40.808C509.518 40.808 511.23 40.2 512.382 38.984C513.534 37.8 514.11 36.056 514.11 33.752V29.624C513.438 31.128 512.398 32.28 510.99 33.08C509.614 33.88 507.982 34.28 506.094 34.28C504.046 34.28 502.222 33.8 500.622 32.84C499.054 31.88 497.822 30.52 496.926 28.76C496.062 27 495.63 24.968 495.63 22.664C495.63 20.36 496.062 18.328 496.926 16.568C497.822 14.808 499.054 13.448 500.622 12.488C502.222 11.528 504.046 11.048 506.094 11.048C507.95 11.048 509.566 11.448 510.942 12.248C512.318 13.048 513.358 14.184 514.062 15.656V13.064C514.062 12.488 514.222 12.024 514.542 11.672C514.894 11.32 515.374 11.144 515.982 11.144ZM506.862 31.064C509.102 31.064 510.862 30.328 512.142 28.856C513.422 27.352 514.062 25.288 514.062 22.664C514.062 20.072 513.422 18.04 512.142 16.568C510.894 15.064 509.134 14.312 506.862 14.312C504.59 14.312 502.798 15.064 501.486 16.568C500.206 18.04 499.566 20.072 499.566 22.664C499.566 25.288 500.206 27.352 501.486 28.856C502.798 30.328 504.59 31.064 506.862 31.064ZM536.715 11.144C538.059 11.048 538.731 11.592 538.731 12.776C538.731 13.288 538.587 13.704 538.299 14.024C538.011 14.312 537.515 14.488 536.811 14.552L535.371 14.696C533.227 14.888 531.627 15.656 530.571 17C529.547 18.312 529.035 19.864 529.035 21.656V33.32C529.035 33.96 528.859 34.44 528.507 34.76C528.155 35.08 527.691 35.24 527.115 35.24C526.539 35.24 526.059 35.08 525.675 34.76C525.323 34.408 525.147 33.928 525.147 33.32V13.064C525.147 12.456 525.339 11.992 525.723 11.672C526.107 11.32 526.571 11.144 527.115 11.144C527.627 11.144 528.059 11.32 528.411 11.672C528.763 11.992 528.939 12.44 528.939 13.016V15.704C529.611 14.296 530.555 13.224 531.771 12.488C533.019 11.752 534.443 11.32 536.043 11.192L536.715 11.144ZM551.433 11.048C557.289 11.048 560.217 14.12 560.217 20.264V33.32C560.217 33.896 560.041 34.36 559.689 34.712C559.369 35.064 558.921 35.24 558.345 35.24C557.769 35.24 557.305 35.064 556.953 34.712C556.601 34.36 556.425 33.896 556.425 33.32V31.016C555.817 32.392 554.889 33.464 553.641 34.232C552.393 34.968 550.953 35.336 549.321 35.336C547.817 35.336 546.425 35.032 545.145 34.424C543.897 33.816 542.905 32.968 542.169 31.88C541.433 30.792 541.065 29.592 541.065 28.28C541.065 26.52 541.513 25.16 542.409 24.2C543.305 23.208 544.777 22.504 546.825 22.088C548.873 21.64 551.721 21.416 555.369 21.416H556.425V19.832C556.425 17.912 556.025 16.504 555.225 15.608C554.457 14.712 553.193 14.264 551.433 14.264C549.257 14.264 547.049 14.856 544.809 16.04C543.945 16.584 543.337 16.856 542.985 16.856C542.601 16.856 542.281 16.712 542.025 16.424C541.769 16.136 541.641 15.768 541.641 15.32C541.641 14.872 541.769 14.488 542.025 14.168C542.313 13.816 542.761 13.464 543.369 13.112C544.489 12.472 545.753 11.976 547.161 11.624C548.601 11.24 550.025 11.048 551.433 11.048ZM549.849 32.264C551.769 32.264 553.337 31.624 554.553 30.344C555.801 29.032 556.425 27.352 556.425 25.304V23.912H555.561C552.745 23.912 550.601 24.04 549.129 24.296C547.657 24.52 546.601 24.92 545.961 25.496C545.353 26.04 545.049 26.856 545.049 27.944C545.049 29.192 545.497 30.232 546.393 31.064C547.321 31.864 548.473 32.264 549.849 32.264ZM586.102 0.919998C586.71 0.919998 587.19 1.096 587.542 1.448C587.894 1.8 588.07 2.248 588.07 2.792V33.32C588.07 33.896 587.894 34.36 587.542 34.712C587.19 35.064 586.71 35.24 586.102 35.24C585.494 35.24 585.014 35.064 584.662 34.712C584.342 34.36 584.182 33.896 584.182 33.32V30.728C583.478 32.2 582.438 33.336 581.062 34.136C579.718 34.936 578.134 35.336 576.31 35.336C574.262 35.336 572.454 34.824 570.886 33.8C569.318 32.776 568.102 31.352 567.238 29.528C566.374 27.672 565.942 25.528 565.942 23.096C565.942 20.696 566.374 18.584 567.238 16.76C568.102 14.936 569.318 13.528 570.886 12.536C572.454 11.544 574.262 11.048 576.31 11.048C578.134 11.048 579.718 11.448 581.062 12.248C582.438 13.048 583.478 14.184 584.182 15.656V2.792C584.182 2.216 584.342 1.768 584.662 1.448C585.014 1.096 585.494 0.919998 586.102 0.919998ZM577.078 32.12C579.35 32.12 581.094 31.352 582.31 29.816C583.558 28.248 584.182 26.04 584.182 23.192C584.182 20.344 583.558 18.152 582.31 16.616C581.094 15.08 579.35 14.312 577.078 14.312C574.806 14.312 573.03 15.08 571.75 16.616C570.502 18.152 569.878 20.312 569.878 23.096C569.878 25.944 570.502 28.168 571.75 29.768C573.03 31.336 574.806 32.12 577.078 32.12ZM613.368 29.576C613.72 29.576 614.024 29.72 614.28 30.008C614.536 30.296 614.664 30.664 614.664 31.112C614.664 31.912 614.104 32.648 612.984 33.32C611.832 33.992 610.616 34.504 609.336 34.856C608.056 35.176 606.808 35.336 605.592 35.336C601.976 35.336 599.112 34.264 597 32.12C594.92 29.976 593.88 27.016 593.88 23.24C593.88 20.84 594.344 18.728 595.272 16.904C596.2 15.048 597.496 13.608 599.16 12.584C600.856 11.56 602.776 11.048 604.92 11.048C607.96 11.048 610.376 12.04 612.168 14.024C613.96 16.008 614.856 18.696 614.856 22.088C614.856 22.728 614.728 23.192 614.472 23.48C614.216 23.768 613.8 23.912 613.224 23.912H597.768C598.056 29.416 600.664 32.168 605.592 32.168C606.84 32.168 607.912 32.008 608.808 31.688C609.704 31.336 610.664 30.872 611.688 30.296C612.52 29.816 613.08 29.576 613.368 29.576ZM604.968 14.072C602.92 14.072 601.272 14.712 600.024 15.992C598.808 17.272 598.088 19.08 597.864 21.416H611.448C611.384 19.048 610.792 17.24 609.672 15.992C608.552 14.712 606.984 14.072 604.968 14.072ZM630.232 35.336C628.056 35.336 626.12 34.84 624.424 33.848C622.76 32.856 621.464 31.448 620.536 29.624C619.64 27.8 619.192 25.688 619.192 23.288C619.192 20.888 619.656 18.76 620.584 16.904C621.544 15.048 622.872 13.608 624.568 12.584C626.264 11.56 628.216 11.048 630.424 11.048C631.64 11.048 632.84 11.224 634.024 11.576C635.24 11.896 636.296 12.376 637.192 13.016C637.768 13.4 638.168 13.784 638.392 14.168C638.648 14.52 638.776 14.92 638.776 15.368C638.776 15.816 638.648 16.184 638.392 16.472C638.168 16.76 637.864 16.904 637.48 16.904C637.256 16.904 637.016 16.84 636.76 16.712C636.504 16.584 636.28 16.456 636.088 16.328C635.928 16.2 635.816 16.12 635.752 16.088C634.92 15.544 634.12 15.112 633.352 14.792C632.616 14.472 631.704 14.312 630.616 14.312C628.28 14.312 626.456 15.112 625.144 16.712C623.864 18.28 623.224 20.472 623.224 23.288C623.224 26.104 623.864 28.28 625.144 29.816C626.456 31.352 628.28 32.12 630.616 32.12C631.704 32.12 632.632 31.96 633.4 31.64C634.2 31.32 635 30.888 635.8 30.344C636.152 30.12 636.488 29.928 636.808 29.768C637.128 29.608 637.4 29.528 637.624 29.528C637.976 29.528 638.264 29.672 638.488 29.96C638.744 30.248 638.872 30.616 638.872 31.064C638.872 31.48 638.76 31.864 638.536 32.216C638.312 32.536 637.896 32.904 637.288 33.32C636.392 33.928 635.304 34.424 634.024 34.808C632.776 35.16 631.512 35.336 630.232 35.336ZM645.521 35.24C644.945 35.24 644.465 35.08 644.081 34.76C643.729 34.408 643.553 33.928 643.553 33.32V13.064C643.553 12.456 643.729 11.992 644.081 11.672C644.465 11.32 644.945 11.144 645.521 11.144C646.097 11.144 646.561 11.32 646.913 11.672C647.265 11.992 647.441 12.456 647.441 13.064V33.32C647.441 33.96 647.265 34.44 646.913 34.76C646.561 35.08 646.097 35.24 645.521 35.24ZM645.521 6.104C644.753 6.104 644.129 5.88 643.649 5.432C643.169 4.984 642.929 4.392 642.929 3.656C642.929 2.952 643.169 2.376 643.649 1.928C644.129 1.48 644.753 1.256 645.521 1.256C646.289 1.256 646.913 1.48 647.393 1.928C647.873 2.376 648.113 2.952 648.113 3.656C648.113 4.392 647.873 4.984 647.393 5.432C646.913 5.88 646.289 6.104 645.521 6.104ZM680.725 11.048C685.909 11.048 688.501 14.136 688.501 20.312V33.32C688.501 33.928 688.325 34.408 687.973 34.76C687.621 35.08 687.157 35.24 686.581 35.24C686.005 35.24 685.525 35.08 685.141 34.76C684.789 34.408 684.613 33.928 684.613 33.32V20.408C684.613 18.264 684.229 16.712 683.461 15.752C682.693 14.792 681.493 14.312 679.861 14.312C677.909 14.312 676.373 14.968 675.253 16.28C674.133 17.592 673.573 19.368 673.573 21.608V33.32C673.573 33.928 673.381 34.408 672.997 34.76C672.645 35.08 672.181 35.24 671.605 35.24C671.029 35.24 670.565 35.08 670.213 34.76C669.861 34.408 669.685 33.928 669.685 33.32V20.408C669.685 18.264 669.301 16.712 668.533 15.752C667.765 14.792 666.549 14.312 664.885 14.312C662.965 14.312 661.429 14.968 660.277 16.28C659.157 17.592 658.597 19.368 658.597 21.608V33.32C658.597 33.928 658.421 34.408 658.069 34.76C657.717 35.08 657.253 35.24 656.677 35.24C656.101 35.24 655.621 35.08 655.237 34.76C654.885 34.408 654.709 33.928 654.709 33.32V13.064C654.709 12.488 654.885 12.024 655.237 11.672C655.621 11.32 656.101 11.144 656.677 11.144C657.221 11.144 657.669 11.32 658.021 11.672C658.373 11.992 658.549 12.44 658.549 13.016V15.32C659.253 13.944 660.229 12.888 661.477 12.152C662.725 11.416 664.165 11.048 665.797 11.048C669.445 11.048 671.829 12.584 672.949 15.656C673.621 14.248 674.645 13.128 676.021 12.296C677.397 11.464 678.965 11.048 680.725 11.048ZM713.68 29.576C714.032 29.576 714.336 29.72 714.592 30.008C714.848 30.296 714.976 30.664 714.976 31.112C714.976 31.912 714.416 32.648 713.296 33.32C712.144 33.992 710.928 34.504 709.648 34.856C708.368 35.176 707.12 35.336 705.904 35.336C702.288 35.336 699.424 34.264 697.312 32.12C695.232 29.976 694.192 27.016 694.192 23.24C694.192 20.84 694.656 18.728 695.584 16.904C696.512 15.048 697.808 13.608 699.472 12.584C701.168 11.56 703.088 11.048 705.232 11.048C708.272 11.048 710.688 12.04 712.48 14.024C714.272 16.008 715.168 18.696 715.168 22.088C715.168 22.728 715.04 23.192 714.784 23.48C714.528 23.768 714.112 23.912 713.536 23.912H698.08C698.368 29.416 700.976 32.168 705.904 32.168C707.152 32.168 708.224 32.008 709.12 31.688C710.016 31.336 710.976 30.872 712 30.296C712.832 29.816 713.392 29.576 713.68 29.576ZM705.28 14.072C703.232 14.072 701.584 14.712 700.336 15.992C699.12 17.272 698.4 19.08 698.176 21.416H711.76C711.696 19.048 711.104 17.24 709.984 15.992C708.864 14.712 707.296 14.072 705.28 14.072ZM732.657 11.048C738.257 11.048 741.057 14.136 741.057 20.312V33.32C741.057 33.928 740.881 34.408 740.529 34.76C740.209 35.08 739.745 35.24 739.137 35.24C738.529 35.24 738.049 35.08 737.697 34.76C737.345 34.408 737.169 33.928 737.169 33.32V20.552C737.169 18.376 736.737 16.792 735.873 15.8C735.041 14.808 733.697 14.312 731.841 14.312C729.697 14.312 727.985 14.968 726.705 16.28C725.425 17.592 724.785 19.368 724.785 21.608V33.32C724.785 33.928 724.609 34.408 724.257 34.76C723.937 35.08 723.473 35.24 722.865 35.24C722.257 35.24 721.777 35.08 721.425 34.76C721.073 34.408 720.897 33.928 720.897 33.32V13.064C720.897 12.488 721.073 12.024 721.425 11.672C721.777 11.32 722.257 11.144 722.865 11.144C723.441 11.144 723.889 11.32 724.209 11.672C724.561 12.024 724.737 12.472 724.737 13.016V15.464C725.505 14.024 726.577 12.936 727.953 12.2C729.329 11.432 730.897 11.048 732.657 11.048ZM758.978 32.168C760.098 32.264 760.658 32.776 760.658 33.704C760.658 34.248 760.45 34.664 760.034 34.952C759.65 35.208 759.058 35.304 758.258 35.24L756.962 35.144C754.402 34.952 752.514 34.184 751.298 32.84C750.082 31.496 749.474 29.464 749.474 26.744V14.696H746.258C745.714 14.696 745.282 14.568 744.962 14.312C744.674 14.024 744.53 13.656 744.53 13.208C744.53 12.728 744.674 12.344 744.962 12.056C745.282 11.768 745.714 11.624 746.258 11.624H749.474V6.2C749.474 5.592 749.65 5.128 750.002 4.808C750.354 4.456 750.834 4.28 751.442 4.28C752.018 4.28 752.482 4.456 752.834 4.808C753.186 5.128 753.362 5.592 753.362 6.2V11.624H758.69C759.202 11.624 759.602 11.768 759.89 12.056C760.21 12.344 760.37 12.728 760.37 13.208C760.37 13.656 760.21 14.024 759.89 14.312C759.602 14.568 759.202 14.696 758.69 14.696H753.362V26.936C753.362 28.696 753.714 29.976 754.418 30.776C755.154 31.544 756.242 31.976 757.682 32.072L758.978 32.168ZM774.187 35.336C771.979 35.336 770.027 34.84 768.331 33.848C766.667 32.856 765.371 31.448 764.443 29.624C763.547 27.768 763.099 25.624 763.099 23.192C763.099 20.76 763.547 18.632 764.443 16.808C765.371 14.952 766.667 13.528 768.331 12.536C770.027 11.544 771.979 11.048 774.187 11.048C776.395 11.048 778.347 11.544 780.043 12.536C781.739 13.528 783.035 14.952 783.931 16.808C784.859 18.632 785.323 20.76 785.323 23.192C785.323 25.624 784.859 27.768 783.931 29.624C783.035 31.448 781.739 32.856 780.043 33.848C778.347 34.84 776.395 35.336 774.187 35.336ZM774.187 32.12C776.491 32.12 778.251 31.368 779.467 29.864C780.715 28.328 781.339 26.104 781.339 23.192C781.339 20.344 780.715 18.152 779.467 16.616C778.219 15.048 776.459 14.264 774.187 14.264C771.915 14.264 770.155 15.048 768.907 16.616C767.659 18.152 767.035 20.344 767.035 23.192C767.035 26.072 767.643 28.28 768.859 29.816C770.107 31.352 771.883 32.12 774.187 32.12ZM798.988 35.336C797.516 35.336 796.108 35.16 794.764 34.808C793.452 34.456 792.284 33.96 791.26 33.32C790.684 32.936 790.268 32.584 790.012 32.264C789.788 31.912 789.676 31.496 789.676 31.016C789.676 30.6 789.788 30.264 790.012 30.008C790.268 29.72 790.588 29.576 790.972 29.576C791.356 29.576 791.916 29.816 792.652 30.296C793.612 30.872 794.556 31.336 795.484 31.688C796.444 32.008 797.628 32.168 799.036 32.168C800.764 32.168 802.108 31.864 803.068 31.256C804.028 30.648 804.508 29.768 804.508 28.616C804.508 27.912 804.332 27.352 803.98 26.936C803.628 26.488 803.02 26.104 802.156 25.784C801.292 25.432 800.028 25.08 798.364 24.728C795.548 24.12 793.532 23.304 792.316 22.28C791.1 21.256 790.492 19.864 790.492 18.104C790.492 16.728 790.876 15.512 791.644 14.456C792.412 13.4 793.468 12.568 794.812 11.96C796.188 11.352 797.74 11.048 799.468 11.048C800.716 11.048 801.916 11.224 803.068 11.576C804.252 11.896 805.292 12.36 806.188 12.968C807.276 13.736 807.82 14.536 807.82 15.368C807.82 15.784 807.692 16.136 807.436 16.424C807.18 16.712 806.876 16.856 806.524 16.856C806.14 16.856 805.564 16.584 804.796 16.04C803.9 15.464 803.052 15.016 802.252 14.696C801.452 14.376 800.46 14.216 799.276 14.216C797.772 14.216 796.556 14.552 795.628 15.224C794.732 15.896 794.284 16.792 794.284 17.912C794.284 18.616 794.444 19.192 794.764 19.64C795.116 20.056 795.676 20.44 796.444 20.792C797.244 21.112 798.38 21.432 799.852 21.752C802.028 22.232 803.708 22.76 804.892 23.336C806.108 23.912 806.972 24.616 807.484 25.448C807.996 26.28 808.252 27.336 808.252 28.616C808.252 30.632 807.404 32.264 805.708 33.512C804.012 34.728 801.772 35.336 798.988 35.336ZM816.05 26.408C815.73 26.408 815.458 26.296 815.234 26.072C815.01 25.816 814.882 25.48 814.85 25.064L813.698 3.32C813.634 2.584 813.826 2.008 814.274 1.592C814.722 1.144 815.314 0.919998 816.05 0.919998C816.786 0.919998 817.378 1.144 817.826 1.592C818.274 2.008 818.466 2.584 818.402 3.32L817.25 25.064C817.218 25.512 817.09 25.848 816.866 26.072C816.642 26.296 816.37 26.408 816.05 26.408ZM816.098 35.24C815.33 35.24 814.69 35 814.178 34.52C813.666 34.008 813.41 33.352 813.41 32.552C813.41 31.752 813.666 31.096 814.178 30.584C814.69 30.072 815.33 29.816 816.098 29.816C816.834 29.816 817.442 30.072 817.922 30.584C818.434 31.096 818.69 31.752 818.69 32.552C818.69 33.352 818.434 34.008 817.922 34.52C817.442 35 816.834 35.24 816.098 35.24Z" fill="#51535F"/>
</svg>
