<svg width="652" height="103" viewBox="0 0 652 103" fill="none" xmlns="http://www.w3.org/2000/svg">
<path d="M33.32 31.304C33.512 31.72 33.608 32.136 33.608 32.552C33.608 33.288 33.304 33.912 32.696 34.424C32.12 34.936 31.448 35.192 30.68 35.192C30.168 35.192 29.688 35.064 29.24 34.808C28.792 34.52 28.44 34.088 28.184 33.512L25.304 27.08H8.408L5.528 33.512C5.272 34.088 4.92 34.52 4.472 34.808C4.024 35.064 3.528 35.192 2.984 35.192C2.248 35.192 1.576 34.936 0.968 34.424C0.36 33.912 0.0560001 33.288 0.0560001 32.552C0.0560001 32.136 0.152 31.72 0.344 31.304L13.592 2.84C13.88 2.2 14.312 1.72 14.888 1.4C15.496 1.048 16.136 0.871999 16.808 0.871999C17.48 0.871999 18.104 1.048 18.68 1.4C19.288 1.72 19.736 2.2 20.024 2.84L33.32 31.304ZM10.52 22.28H23.192L16.856 8.024L10.52 22.28ZM51.233 10.952C53.249 10.952 55.041 11.464 56.609 12.488C58.209 13.512 59.441 14.968 60.305 16.856C61.201 18.712 61.649 20.856 61.649 23.288C61.649 25.72 61.201 27.848 60.305 29.672C59.441 31.496 58.225 32.904 56.657 33.896C55.089 34.888 53.281 35.384 51.233 35.384C49.569 35.384 48.081 35.032 46.769 34.328C45.457 33.624 44.449 32.648 43.745 31.4V41.192C43.745 42.024 43.473 42.68 42.929 43.16C42.385 43.64 41.665 43.88 40.769 43.88C39.873 43.88 39.137 43.624 38.561 43.112C38.017 42.6 37.745 41.928 37.745 41.096V13.88C37.745 13.016 38.001 12.328 38.513 11.816C39.057 11.304 39.777 11.048 40.673 11.048C41.569 11.048 42.289 11.304 42.833 11.816C43.377 12.328 43.649 13.016 43.649 13.88V15.08C44.353 13.768 45.361 12.76 46.673 12.056C48.017 11.32 49.537 10.952 51.233 10.952ZM49.649 30.728C51.537 30.728 53.009 30.088 54.065 28.808C55.121 27.496 55.649 25.656 55.649 23.288C55.649 20.856 55.121 18.968 54.065 17.624C53.009 16.28 51.537 15.608 49.649 15.608C47.729 15.608 46.241 16.264 45.185 17.576C44.161 18.888 43.649 20.76 43.649 23.192C43.649 25.592 44.161 27.448 45.185 28.76C46.241 30.072 47.729 30.728 49.649 30.728ZM77.2771 35.384C74.8771 35.384 72.7651 34.888 70.9411 33.896C69.1491 32.904 67.7571 31.48 66.7651 29.624C65.7731 27.768 65.2771 25.608 65.2771 23.144C65.2771 20.68 65.7731 18.536 66.7651 16.712C67.7571 14.856 69.1491 13.432 70.9411 12.44C72.7651 11.448 74.8771 10.952 77.2771 10.952C79.6771 10.952 81.7731 11.448 83.5651 12.44C85.3891 13.432 86.7811 14.856 87.7411 16.712C88.7331 18.536 89.2291 20.68 89.2291 23.144C89.2291 25.608 88.7331 27.768 87.7411 29.624C86.7811 31.48 85.3891 32.904 83.5651 33.896C81.7731 34.888 79.6771 35.384 77.2771 35.384ZM77.2291 30.728C79.1811 30.728 80.6691 30.088 81.6931 28.808C82.7171 27.528 83.2291 25.64 83.2291 23.144C83.2291 20.68 82.7171 18.808 81.6931 17.528C80.6691 16.216 79.1971 15.56 77.2771 15.56C75.3571 15.56 73.8691 16.216 72.8131 17.528C71.7891 18.808 71.2771 20.68 71.2771 23.144C71.2771 25.64 71.7891 27.528 72.8131 28.808C73.8371 30.088 75.3091 30.728 77.2291 30.728ZM97.1585 35.288C96.2945 35.288 95.5745 35.048 94.9985 34.568C94.4545 34.056 94.1825 33.336 94.1825 32.408V13.88C94.1825 12.952 94.4545 12.248 94.9985 11.768C95.5745 11.288 96.2945 11.048 97.1585 11.048C98.0225 11.048 98.7425 11.288 99.3185 11.768C99.8945 12.248 100.183 12.952 100.183 13.88V32.408C100.183 33.336 99.8945 34.056 99.3185 34.568C98.7425 35.048 98.0225 35.288 97.1585 35.288ZM97.1585 6.776C96.0705 6.776 95.2065 6.488 94.5665 5.912C93.9265 5.304 93.6065 4.52 93.6065 3.56C93.6065 2.6 93.9265 1.832 94.5665 1.256C95.2065 0.679999 96.0705 0.391999 97.1585 0.391999C98.2145 0.391999 99.0625 0.679999 99.7025 1.256C100.375 1.832 100.711 2.6 100.711 3.56C100.711 4.52 100.391 5.304 99.7505 5.912C99.1105 6.488 98.2465 6.776 97.1585 6.776ZM124.946 28.568C125.49 28.568 125.922 28.776 126.242 29.192C126.594 29.608 126.77 30.168 126.77 30.872C126.77 31.864 126.178 32.696 124.994 33.368C123.906 33.976 122.674 34.472 121.298 34.856C119.922 35.208 118.61 35.384 117.362 35.384C113.586 35.384 110.594 34.296 108.386 32.12C106.178 29.944 105.074 26.968 105.074 23.192C105.074 20.792 105.554 18.664 106.514 16.808C107.474 14.952 108.818 13.512 110.546 12.488C112.306 11.464 114.29 10.952 116.498 10.952C118.61 10.952 120.45 11.416 122.018 12.344C123.586 13.272 124.802 14.584 125.666 16.28C126.53 17.976 126.962 19.976 126.962 22.28C126.962 23.656 126.354 24.344 125.138 24.344H110.978C111.17 26.552 111.794 28.184 112.85 29.24C113.906 30.264 115.442 30.776 117.458 30.776C118.482 30.776 119.378 30.648 120.146 30.392C120.946 30.136 121.842 29.784 122.834 29.336C123.794 28.824 124.498 28.568 124.946 28.568ZM116.642 15.176C115.01 15.176 113.698 15.688 112.706 16.712C111.746 17.736 111.17 19.208 110.978 21.128H121.826C121.762 19.176 121.282 17.704 120.386 16.712C119.49 15.688 118.242 15.176 116.642 15.176ZM163.477 28.568C164.021 28.568 164.453 28.776 164.773 29.192C165.125 29.608 165.301 30.168 165.301 30.872C165.301 31.864 164.709 32.696 163.525 33.368C162.437 33.976 161.205 34.472 159.829 34.856C158.453 35.208 157.141 35.384 155.893 35.384C152.117 35.384 149.125 34.296 146.917 32.12C144.709 29.944 143.605 26.968 143.605 23.192C143.605 20.792 144.085 18.664 145.045 16.808C146.005 14.952 147.349 13.512 149.077 12.488C150.837 11.464 152.821 10.952 155.029 10.952C157.141 10.952 158.981 11.416 160.549 12.344C162.117 13.272 163.333 14.584 164.197 16.28C165.061 17.976 165.493 19.976 165.493 22.28C165.493 23.656 164.885 24.344 163.669 24.344H149.509C149.701 26.552 150.325 28.184 151.381 29.24C152.437 30.264 153.973 30.776 155.989 30.776C157.013 30.776 157.909 30.648 158.677 30.392C159.477 30.136 160.373 29.784 161.365 29.336C162.325 28.824 163.029 28.568 163.477 28.568ZM155.173 15.176C153.541 15.176 152.229 15.688 151.237 16.712C150.277 17.736 149.701 19.208 149.509 21.128H160.357C160.293 19.176 159.813 17.704 158.917 16.712C158.021 15.688 156.773 15.176 155.173 15.176ZM178.897 35.384C175.409 35.384 172.593 34.696 170.449 33.32C169.425 32.712 168.913 31.848 168.913 30.728C168.913 30.088 169.089 29.576 169.441 29.192C169.793 28.776 170.225 28.568 170.737 28.568C171.281 28.568 172.033 28.824 172.993 29.336C174.017 29.816 174.945 30.184 175.777 30.44C176.641 30.696 177.729 30.824 179.041 30.824C180.385 30.824 181.425 30.6 182.161 30.152C182.929 29.704 183.313 29.08 183.313 28.28C183.313 27.736 183.153 27.304 182.833 26.984C182.545 26.664 182.001 26.376 181.201 26.12C180.433 25.832 179.249 25.512 177.649 25.16C174.801 24.584 172.753 23.768 171.505 22.712C170.289 21.656 169.681 20.2 169.681 18.344C169.681 16.936 170.097 15.672 170.929 14.552C171.761 13.4 172.897 12.52 174.337 11.912C175.809 11.272 177.473 10.952 179.329 10.952C180.673 10.952 181.969 11.128 183.217 11.48C184.465 11.8 185.585 12.28 186.577 12.92C187.601 13.56 188.113 14.408 188.113 15.464C188.113 16.104 187.937 16.648 187.585 17.096C187.233 17.512 186.801 17.72 186.289 17.72C185.937 17.72 185.585 17.656 185.233 17.528C184.913 17.368 184.497 17.144 183.985 16.856C183.057 16.376 182.257 16.024 181.585 15.8C180.913 15.544 180.081 15.416 179.089 15.416C177.905 15.416 176.961 15.656 176.257 16.136C175.585 16.616 175.249 17.272 175.249 18.104C175.249 18.904 175.601 19.512 176.305 19.928C177.009 20.344 178.369 20.76 180.385 21.176C182.529 21.624 184.209 22.136 185.425 22.712C186.641 23.288 187.505 24.008 188.017 24.872C188.561 25.736 188.833 26.84 188.833 28.184C188.833 30.36 187.921 32.104 186.097 33.416C184.305 34.728 181.905 35.384 178.897 35.384ZM205.656 30.824C207.256 30.92 208.056 31.64 208.056 32.984C208.056 33.752 207.736 34.344 207.096 34.76C206.488 35.144 205.608 35.304 204.456 35.24L203.16 35.144C197.784 34.76 195.096 31.88 195.096 26.504V16.04H192.696C191.832 16.04 191.16 15.848 190.68 15.464C190.232 15.08 190.008 14.52 190.008 13.784C190.008 13.048 190.232 12.488 190.68 12.104C191.16 11.72 191.832 11.528 192.696 11.528H195.096V7.112C195.096 6.248 195.368 5.56 195.912 5.048C196.456 4.536 197.192 4.28 198.12 4.28C199.016 4.28 199.736 4.536 200.28 5.048C200.824 5.56 201.096 6.248 201.096 7.112V11.528H205.176C206.04 11.528 206.696 11.72 207.144 12.104C207.624 12.488 207.864 13.048 207.864 13.784C207.864 14.52 207.624 15.08 207.144 15.464C206.696 15.848 206.04 16.04 205.176 16.04H201.096V26.936C201.096 29.304 202.184 30.568 204.36 30.728L205.656 30.824ZM229.711 11.048C230.639 11.048 231.375 11.304 231.919 11.816C232.463 12.328 232.734 13.016 232.734 13.88V32.504C232.734 33.336 232.447 34.008 231.871 34.52C231.327 35.032 230.607 35.288 229.711 35.288C228.847 35.288 228.159 35.048 227.647 34.568C227.135 34.088 226.879 33.432 226.879 32.6V31.4C226.143 32.68 225.151 33.672 223.903 34.376C222.655 35.048 221.247 35.384 219.679 35.384C213.919 35.384 211.039 32.152 211.039 25.688V13.88C211.039 13.016 211.311 12.328 211.855 11.816C212.399 11.304 213.119 11.048 214.015 11.048C214.943 11.048 215.679 11.304 216.223 11.816C216.767 12.328 217.039 13.016 217.039 13.88V25.736C217.039 27.4 217.375 28.632 218.047 29.432C218.719 30.232 219.775 30.632 221.215 30.632C222.879 30.632 224.207 30.088 225.199 29C226.223 27.88 226.735 26.408 226.735 24.584V13.88C226.735 13.016 227.007 12.328 227.551 11.816C228.095 11.304 228.815 11.048 229.711 11.048ZM258.563 0.919998C259.459 0.919998 260.195 1.176 260.771 1.688C261.347 2.2 261.635 2.872 261.635 3.704V32.408C261.635 33.272 261.363 33.96 260.819 34.472C260.275 34.984 259.555 35.24 258.659 35.24C257.763 35.24 257.043 34.984 256.499 34.472C255.955 33.96 255.683 33.272 255.683 32.408V31.208C254.979 32.52 253.955 33.544 252.611 34.28C251.299 35.016 249.795 35.384 248.099 35.384C246.083 35.384 244.275 34.872 242.675 33.848C241.107 32.824 239.875 31.384 238.979 29.528C238.115 27.64 237.683 25.48 237.683 23.048C237.683 20.616 238.115 18.488 238.979 16.664C239.875 14.84 241.107 13.432 242.675 12.44C244.243 11.448 246.051 10.952 248.099 10.952C249.795 10.952 251.299 11.304 252.611 12.008C253.923 12.712 254.931 13.704 255.635 14.984V3.608C255.635 2.808 255.891 2.168 256.403 1.688C256.947 1.176 257.667 0.919998 258.563 0.919998ZM249.683 30.728C251.603 30.728 253.075 30.072 254.099 28.76C255.155 27.448 255.683 25.576 255.683 23.144C255.683 20.712 255.155 18.856 254.099 17.576C253.075 16.264 251.619 15.608 249.731 15.608C247.811 15.608 246.323 16.248 245.267 17.528C244.211 18.808 243.683 20.648 243.683 23.048C243.683 25.48 244.211 27.368 245.267 28.712C246.323 30.056 247.795 30.728 249.683 30.728ZM277.984 10.952C281.248 10.952 283.664 11.768 285.232 13.4C286.832 15 287.632 17.448 287.632 20.744V32.456C287.632 33.32 287.376 34.008 286.864 34.52C286.352 35 285.648 35.24 284.752 35.24C283.92 35.24 283.232 34.984 282.688 34.472C282.176 33.96 281.92 33.288 281.92 32.456V31.4C281.376 32.648 280.512 33.624 279.328 34.328C278.176 35.032 276.832 35.384 275.296 35.384C273.728 35.384 272.304 35.064 271.023 34.424C269.744 33.784 268.736 32.904 268 31.784C267.264 30.664 266.896 29.416 266.896 28.04C266.896 26.312 267.328 24.952 268.192 23.96C269.088 22.968 270.528 22.248 272.512 21.8C274.496 21.352 277.232 21.128 280.72 21.128H281.92V20.024C281.92 18.456 281.584 17.32 280.912 16.616C280.24 15.88 279.152 15.512 277.648 15.512C276.72 15.512 275.776 15.656 274.816 15.944C273.856 16.2 272.72 16.584 271.408 17.096C270.576 17.512 269.968 17.72 269.584 17.72C269.008 17.72 268.528 17.512 268.144 17.096C267.792 16.68 267.616 16.136 267.616 15.464C267.616 14.92 267.744 14.456 268 14.072C268.288 13.656 268.752 13.272 269.392 12.92C270.512 12.312 271.84 11.832 273.376 11.48C274.944 11.128 276.48 10.952 277.984 10.952ZM276.496 31.064C278.096 31.064 279.392 30.536 280.384 29.48C281.408 28.392 281.92 27 281.92 25.304V24.296H281.056C278.912 24.296 277.248 24.392 276.064 24.584C274.88 24.776 274.032 25.112 273.52 25.592C273.008 26.072 272.752 26.728 272.752 27.56C272.752 28.584 273.104 29.432 273.808 30.104C274.544 30.744 275.44 31.064 276.496 31.064ZM307.361 10.952C310.177 10.952 312.273 11.752 313.649 13.352C315.025 14.952 315.713 17.368 315.713 20.6V32.408C315.713 33.304 315.441 34.008 314.897 34.52C314.385 35.032 313.665 35.288 312.737 35.288C311.809 35.288 311.073 35.032 310.529 34.52C309.985 34.008 309.713 33.304 309.713 32.408V20.936C309.713 19.112 309.361 17.784 308.657 16.952C307.985 16.12 306.913 15.704 305.441 15.704C303.713 15.704 302.321 16.248 301.265 17.336C300.241 18.424 299.729 19.88 299.729 21.704V32.408C299.729 33.304 299.457 34.008 298.913 34.52C298.369 35.032 297.633 35.288 296.705 35.288C295.777 35.288 295.041 35.032 294.497 34.52C293.985 34.008 293.729 33.304 293.729 32.408V13.832C293.729 13 294.001 12.328 294.545 11.816C295.089 11.304 295.825 11.048 296.753 11.048C297.585 11.048 298.257 11.304 298.769 11.816C299.313 12.296 299.585 12.936 299.585 13.736V15.032C300.385 13.72 301.457 12.712 302.801 12.008C304.145 11.304 305.665 10.952 307.361 10.952ZM334 30.824C335.6 30.92 336.4 31.64 336.4 32.984C336.4 33.752 336.08 34.344 335.44 34.76C334.832 35.144 333.952 35.304 332.799 35.24L331.504 35.144C326.128 34.76 323.44 31.88 323.44 26.504V16.04H321.04C320.176 16.04 319.504 15.848 319.024 15.464C318.575 15.08 318.351 14.52 318.351 13.784C318.351 13.048 318.575 12.488 319.024 12.104C319.504 11.72 320.176 11.528 321.04 11.528H323.44V7.112C323.44 6.248 323.712 5.56 324.256 5.048C324.8 4.536 325.536 4.28 326.464 4.28C327.36 4.28 328.08 4.536 328.624 5.048C329.168 5.56 329.44 6.248 329.44 7.112V11.528H333.52C334.384 11.528 335.04 11.72 335.488 12.104C335.968 12.488 336.208 13.048 336.208 13.784C336.208 14.52 335.968 15.08 335.488 15.464C335.04 15.848 334.384 16.04 333.52 16.04H329.44V26.936C329.44 29.304 330.528 30.568 332.704 30.728L334 30.824ZM358.102 28.568C358.646 28.568 359.078 28.776 359.398 29.192C359.75 29.608 359.926 30.168 359.926 30.872C359.926 31.864 359.334 32.696 358.15 33.368C357.062 33.976 355.83 34.472 354.454 34.856C353.078 35.208 351.766 35.384 350.518 35.384C346.742 35.384 343.75 34.296 341.542 32.12C339.334 29.944 338.23 26.968 338.23 23.192C338.23 20.792 338.71 18.664 339.67 16.808C340.63 14.952 341.974 13.512 343.702 12.488C345.462 11.464 347.446 10.952 349.654 10.952C351.766 10.952 353.606 11.416 355.174 12.344C356.742 13.272 357.958 14.584 358.822 16.28C359.686 17.976 360.118 19.976 360.118 22.28C360.118 23.656 359.51 24.344 358.294 24.344H344.134C344.326 26.552 344.95 28.184 346.006 29.24C347.062 30.264 348.598 30.776 350.614 30.776C351.638 30.776 352.534 30.648 353.302 30.392C354.102 30.136 354.998 29.784 355.99 29.336C356.95 28.824 357.654 28.568 358.102 28.568ZM349.798 15.176C348.166 15.176 346.854 15.688 345.862 16.712C344.902 17.736 344.326 19.208 344.134 21.128H354.982C354.918 19.176 354.438 17.704 353.542 16.712C352.646 15.688 351.398 15.176 349.798 15.176ZM373.522 35.384C370.034 35.384 367.218 34.696 365.074 33.32C364.05 32.712 363.538 31.848 363.538 30.728C363.538 30.088 363.714 29.576 364.066 29.192C364.418 28.776 364.85 28.568 365.362 28.568C365.906 28.568 366.658 28.824 367.618 29.336C368.642 29.816 369.57 30.184 370.402 30.44C371.266 30.696 372.354 30.824 373.666 30.824C375.01 30.824 376.05 30.6 376.786 30.152C377.554 29.704 377.938 29.08 377.938 28.28C377.938 27.736 377.778 27.304 377.458 26.984C377.17 26.664 376.626 26.376 375.826 26.12C375.058 25.832 373.874 25.512 372.274 25.16C369.426 24.584 367.378 23.768 366.13 22.712C364.914 21.656 364.306 20.2 364.306 18.344C364.306 16.936 364.722 15.672 365.554 14.552C366.386 13.4 367.522 12.52 368.962 11.912C370.434 11.272 372.098 10.952 373.954 10.952C375.298 10.952 376.594 11.128 377.842 11.48C379.09 11.8 380.21 12.28 381.202 12.92C382.226 13.56 382.738 14.408 382.738 15.464C382.738 16.104 382.562 16.648 382.21 17.096C381.858 17.512 381.426 17.72 380.914 17.72C380.562 17.72 380.21 17.656 379.858 17.528C379.538 17.368 379.122 17.144 378.61 16.856C377.682 16.376 376.882 16.024 376.21 15.8C375.538 15.544 374.706 15.416 373.714 15.416C372.53 15.416 371.586 15.656 370.882 16.136C370.21 16.616 369.874 17.272 369.874 18.104C369.874 18.904 370.226 19.512 370.93 19.928C371.634 20.344 372.994 20.76 375.01 21.176C377.154 21.624 378.834 22.136 380.05 22.712C381.266 23.288 382.13 24.008 382.642 24.872C383.186 25.736 383.458 26.84 383.458 28.184C383.458 30.36 382.546 32.104 380.722 33.416C378.93 34.728 376.53 35.384 373.522 35.384ZM411.53 10.952C414.794 10.952 417.21 11.768 418.778 13.4C420.378 15 421.178 17.448 421.178 20.744V32.456C421.178 33.32 420.922 34.008 420.41 34.52C419.898 35 419.194 35.24 418.298 35.24C417.466 35.24 416.778 34.984 416.234 34.472C415.722 33.96 415.466 33.288 415.466 32.456V31.4C414.922 32.648 414.058 33.624 412.874 34.328C411.722 35.032 410.378 35.384 408.842 35.384C407.274 35.384 405.85 35.064 404.57 34.424C403.29 33.784 402.282 32.904 401.546 31.784C400.81 30.664 400.442 29.416 400.442 28.04C400.442 26.312 400.874 24.952 401.738 23.96C402.634 22.968 404.074 22.248 406.058 21.8C408.042 21.352 410.778 21.128 414.266 21.128H415.466V20.024C415.466 18.456 415.13 17.32 414.458 16.616C413.786 15.88 412.698 15.512 411.194 15.512C410.266 15.512 409.322 15.656 408.362 15.944C407.402 16.2 406.266 16.584 404.954 17.096C404.122 17.512 403.514 17.72 403.13 17.72C402.554 17.72 402.074 17.512 401.69 17.096C401.338 16.68 401.162 16.136 401.162 15.464C401.162 14.92 401.29 14.456 401.546 14.072C401.834 13.656 402.298 13.272 402.938 12.92C404.058 12.312 405.386 11.832 406.922 11.48C408.49 11.128 410.026 10.952 411.53 10.952ZM410.042 31.064C411.642 31.064 412.938 30.536 413.93 29.48C414.954 28.392 415.466 27 415.466 25.304V24.296H414.602C412.458 24.296 410.794 24.392 409.61 24.584C408.426 24.776 407.578 25.112 407.066 25.592C406.554 26.072 406.298 26.728 406.298 27.56C406.298 28.584 406.65 29.432 407.354 30.104C408.09 30.744 408.986 31.064 410.042 31.064ZM450.724 35.384C448.388 35.384 446.324 34.888 444.532 33.896C442.772 32.904 441.412 31.496 440.452 29.672C439.492 27.848 439.012 25.72 439.012 23.288C439.012 20.856 439.508 18.712 440.5 16.856C441.524 14.968 442.948 13.512 444.772 12.488C446.596 11.464 448.692 10.952 451.06 10.952C452.308 10.952 453.556 11.128 454.804 11.48C456.084 11.832 457.204 12.312 458.164 12.92C459.188 13.592 459.7 14.44 459.7 15.464C459.7 16.168 459.524 16.744 459.172 17.192C458.852 17.608 458.42 17.816 457.876 17.816C457.524 17.816 457.156 17.736 456.772 17.576C456.388 17.416 456.004 17.224 455.62 17C454.916 16.584 454.244 16.264 453.604 16.04C452.964 15.784 452.228 15.656 451.396 15.656C449.412 15.656 447.876 16.312 446.788 17.624C445.732 18.904 445.204 20.76 445.204 23.192C445.204 25.592 445.732 27.448 446.788 28.76C447.876 30.04 449.412 30.68 451.396 30.68C452.196 30.68 452.9 30.568 453.508 30.344C454.148 30.088 454.852 29.752 455.62 29.336C456.1 29.048 456.516 28.84 456.868 28.712C457.22 28.552 457.572 28.472 457.924 28.472C458.436 28.472 458.868 28.696 459.22 29.144C459.572 29.592 459.748 30.152 459.748 30.824C459.748 31.368 459.62 31.848 459.364 32.264C459.14 32.648 458.756 33 458.212 33.32C457.22 33.96 456.068 34.472 454.756 34.856C453.444 35.208 452.1 35.384 450.724 35.384ZM477.473 10.952C482.977 10.952 485.729 14.168 485.729 20.6V32.408C485.729 33.304 485.457 34.008 484.913 34.52C484.401 35.032 483.681 35.288 482.753 35.288C481.825 35.288 481.089 35.032 480.545 34.52C480.001 34.008 479.729 33.304 479.729 32.408V20.6C479.729 18.904 479.377 17.672 478.673 16.904C478.001 16.104 476.929 15.704 475.457 15.704C473.729 15.704 472.337 16.248 471.281 17.336C470.257 18.424 469.745 19.88 469.745 21.704V32.408C469.745 33.304 469.473 34.008 468.929 34.52C468.385 35.032 467.649 35.288 466.721 35.288C465.793 35.288 465.057 35.032 464.513 34.52C464.001 34.008 463.745 33.304 463.745 32.408V3.704C463.745 2.872 464.017 2.2 464.561 1.688C465.137 1.176 465.873 0.919998 466.769 0.919998C467.665 0.919998 468.385 1.16 468.929 1.64C469.473 2.12 469.745 2.776 469.745 3.608V14.792C470.545 13.544 471.601 12.6 472.913 11.96C474.257 11.288 475.777 10.952 477.473 10.952ZM510.399 28.568C510.943 28.568 511.375 28.776 511.695 29.192C512.047 29.608 512.223 30.168 512.223 30.872C512.223 31.864 511.631 32.696 510.447 33.368C509.359 33.976 508.127 34.472 506.751 34.856C505.375 35.208 504.063 35.384 502.815 35.384C499.039 35.384 496.047 34.296 493.839 32.12C491.631 29.944 490.527 26.968 490.527 23.192C490.527 20.792 491.007 18.664 491.967 16.808C492.927 14.952 494.271 13.512 495.999 12.488C497.759 11.464 499.743 10.952 501.951 10.952C504.063 10.952 505.903 11.416 507.471 12.344C509.039 13.272 510.255 14.584 511.119 16.28C511.983 17.976 512.415 19.976 512.415 22.28C512.415 23.656 511.807 24.344 510.591 24.344H496.431C496.623 26.552 497.247 28.184 498.303 29.24C499.359 30.264 500.895 30.776 502.911 30.776C503.935 30.776 504.831 30.648 505.599 30.392C506.399 30.136 507.295 29.784 508.287 29.336C509.247 28.824 509.951 28.568 510.399 28.568ZM502.095 15.176C500.463 15.176 499.151 15.688 498.159 16.712C497.199 17.736 496.623 19.208 496.431 21.128H507.279C507.215 19.176 506.735 17.704 505.839 16.712C504.943 15.688 503.695 15.176 502.095 15.176ZM537.195 11.048C538.091 11.048 538.811 11.304 539.355 11.816C539.899 12.328 540.171 13.016 540.171 13.88V32.84C540.171 36.52 539.147 39.304 537.099 41.192C535.051 43.08 532.027 44.024 528.027 44.024C524.539 44.024 521.627 43.368 519.291 42.056C518.107 41.352 517.515 40.504 517.515 39.512C517.515 38.808 517.675 38.248 517.995 37.832C518.347 37.416 518.795 37.208 519.339 37.208C519.627 37.208 519.979 37.272 520.395 37.4C520.811 37.56 521.243 37.736 521.691 37.928C522.843 38.408 523.867 38.776 524.763 39.032C525.691 39.288 526.747 39.416 527.931 39.416C532.123 39.416 534.219 37.368 534.219 33.272V30.2C533.515 31.512 532.491 32.536 531.147 33.272C529.803 33.976 528.267 34.328 526.539 34.328C524.491 34.328 522.667 33.848 521.067 32.888C519.499 31.896 518.267 30.52 517.371 28.76C516.475 27 516.027 24.968 516.027 22.664C516.027 20.36 516.459 18.328 517.323 16.568C518.219 14.776 519.467 13.4 521.067 12.44C522.667 11.448 524.491 10.952 526.539 10.952C528.267 10.952 529.803 11.32 531.147 12.056C532.491 12.76 533.515 13.768 534.219 15.08V13.832C534.219 13 534.491 12.328 535.035 11.816C535.579 11.304 536.299 11.048 537.195 11.048ZM528.123 29.672C530.043 29.672 531.531 29.048 532.587 27.8C533.675 26.552 534.219 24.84 534.219 22.664C534.219 20.456 533.675 18.728 532.587 17.48C531.531 16.232 530.043 15.608 528.123 15.608C526.235 15.608 524.747 16.232 523.659 17.48C522.571 18.728 522.027 20.456 522.027 22.664C522.027 24.84 522.571 26.552 523.659 27.8C524.747 29.048 526.235 29.672 528.123 29.672ZM556.562 10.952C559.826 10.952 562.242 11.768 563.81 13.4C565.41 15 566.21 17.448 566.21 20.744V32.456C566.21 33.32 565.954 34.008 565.442 34.52C564.93 35 564.226 35.24 563.33 35.24C562.498 35.24 561.81 34.984 561.266 34.472C560.754 33.96 560.498 33.288 560.498 32.456V31.4C559.954 32.648 559.09 33.624 557.906 34.328C556.754 35.032 555.41 35.384 553.874 35.384C552.306 35.384 550.882 35.064 549.602 34.424C548.322 33.784 547.314 32.904 546.578 31.784C545.842 30.664 545.474 29.416 545.474 28.04C545.474 26.312 545.906 24.952 546.77 23.96C547.666 22.968 549.106 22.248 551.09 21.8C553.074 21.352 555.81 21.128 559.298 21.128H560.498V20.024C560.498 18.456 560.162 17.32 559.49 16.616C558.818 15.88 557.73 15.512 556.226 15.512C555.298 15.512 554.354 15.656 553.394 15.944C552.434 16.2 551.298 16.584 549.986 17.096C549.154 17.512 548.546 17.72 548.162 17.72C547.586 17.72 547.106 17.512 546.722 17.096C546.37 16.68 546.194 16.136 546.194 15.464C546.194 14.92 546.322 14.456 546.578 14.072C546.866 13.656 547.33 13.272 547.97 12.92C549.09 12.312 550.418 11.832 551.954 11.48C553.522 11.128 555.058 10.952 556.562 10.952ZM555.074 31.064C556.674 31.064 557.97 30.536 558.962 29.48C559.986 28.392 560.498 27 560.498 25.304V24.296H559.634C557.49 24.296 555.826 24.392 554.642 24.584C553.458 24.776 552.61 25.112 552.098 25.592C551.586 26.072 551.33 26.728 551.33 27.56C551.33 28.584 551.682 29.432 552.386 30.104C553.122 30.744 554.018 31.064 555.074 31.064ZM585.412 11.048C586.244 10.984 586.9 11.16 587.38 11.576C587.86 11.992 588.1 12.616 588.1 13.448C588.1 14.312 587.892 14.952 587.476 15.368C587.06 15.784 586.308 16.056 585.22 16.184L583.78 16.328C581.892 16.52 580.5 17.16 579.604 18.248C578.74 19.336 578.308 20.696 578.308 22.328V32.408C578.308 33.336 578.02 34.056 577.444 34.568C576.868 35.048 576.148 35.288 575.284 35.288C574.42 35.288 573.7 35.048 573.124 34.568C572.58 34.056 572.308 33.336 572.308 32.408V13.832C572.308 12.936 572.58 12.248 573.124 11.768C573.7 11.288 574.404 11.048 575.236 11.048C576.068 11.048 576.74 11.288 577.252 11.768C577.764 12.216 578.02 12.872 578.02 13.736V15.656C578.628 14.248 579.524 13.16 580.708 12.392C581.924 11.624 583.268 11.192 584.74 11.096L585.412 11.048ZM608.79 28.568C609.334 28.568 609.766 28.776 610.086 29.192C610.438 29.608 610.614 30.168 610.614 30.872C610.614 31.864 610.022 32.696 608.838 33.368C607.75 33.976 606.518 34.472 605.142 34.856C603.766 35.208 602.454 35.384 601.206 35.384C597.43 35.384 594.438 34.296 592.23 32.12C590.022 29.944 588.918 26.968 588.918 23.192C588.918 20.792 589.398 18.664 590.358 16.808C591.318 14.952 592.662 13.512 594.39 12.488C596.15 11.464 598.134 10.952 600.342 10.952C602.454 10.952 604.294 11.416 605.862 12.344C607.43 13.272 608.646 14.584 609.51 16.28C610.374 17.976 610.806 19.976 610.806 22.28C610.806 23.656 610.198 24.344 608.982 24.344H594.822C595.014 26.552 595.638 28.184 596.694 29.24C597.75 30.264 599.286 30.776 601.302 30.776C602.326 30.776 603.222 30.648 603.99 30.392C604.79 30.136 605.686 29.784 606.678 29.336C607.638 28.824 608.342 28.568 608.79 28.568ZM600.486 15.176C598.854 15.176 597.542 15.688 596.55 16.712C595.59 17.736 595.014 19.208 594.822 21.128H605.67C605.606 19.176 605.126 17.704 604.23 16.712C603.334 15.688 602.086 15.176 600.486 15.176ZM643.602 10.952C646.162 10.952 648.114 11.72 649.458 13.256C650.834 14.76 651.522 17.208 651.522 20.6V32.408C651.522 33.336 651.234 34.056 650.658 34.568C650.114 35.048 649.394 35.288 648.498 35.288C647.634 35.288 646.914 35.048 646.338 34.568C645.794 34.056 645.522 33.336 645.522 32.408V20.6C645.522 18.84 645.202 17.592 644.562 16.856C643.954 16.088 643.01 15.704 641.73 15.704C640.162 15.704 638.914 16.248 637.986 17.336C637.058 18.392 636.594 19.848 636.594 21.704V32.408C636.594 33.336 636.306 34.056 635.73 34.568C635.186 35.048 634.482 35.288 633.618 35.288C632.754 35.288 632.034 35.048 631.458 34.568C630.882 34.056 630.594 33.336 630.594 32.408V20.6C630.594 18.84 630.274 17.592 629.634 16.856C629.026 16.088 628.082 15.704 626.802 15.704C625.234 15.704 623.986 16.248 623.058 17.336C622.162 18.392 621.714 19.848 621.714 21.704V32.408C621.714 33.336 621.426 34.056 620.85 34.568C620.274 35.048 619.554 35.288 618.69 35.288C617.826 35.288 617.106 35.048 616.53 34.568C615.986 34.056 615.714 33.336 615.714 32.408V13.832C615.714 12.936 616.002 12.248 616.578 11.768C617.154 11.288 617.874 11.048 618.738 11.048C619.57 11.048 620.242 11.288 620.754 11.768C621.298 12.216 621.57 12.872 621.57 13.736V14.888C622.306 13.608 623.282 12.632 624.498 11.96C625.746 11.288 627.17 10.952 628.77 10.952C632.29 10.952 634.642 12.424 635.826 15.368C636.53 14.024 637.57 12.952 638.946 12.152C640.322 11.352 641.874 10.952 643.602 10.952ZM12.536 93.384C10.2 93.384 8.136 92.888 6.344 91.896C4.584 90.904 3.224 89.496 2.264 87.672C1.304 85.848 0.824 83.72 0.824 81.288C0.824 78.856 1.32 76.712 2.312 74.856C3.336 72.968 4.76 71.512 6.584 70.488C8.408 69.464 10.504 68.952 12.872 68.952C14.12 68.952 15.368 69.128 16.616 69.48C17.896 69.832 19.016 70.312 19.976 70.92C21 71.592 21.512 72.44 21.512 73.464C21.512 74.168 21.336 74.744 20.984 75.192C20.664 75.608 20.232 75.816 19.688 75.816C19.336 75.816 18.968 75.736 18.584 75.576C18.2 75.416 17.816 75.224 17.432 75C16.728 74.584 16.056 74.264 15.416 74.04C14.776 73.784 14.04 73.656 13.208 73.656C11.224 73.656 9.688 74.312 8.6 75.624C7.544 76.904 7.016 78.76 7.016 81.192C7.016 83.592 7.544 85.448 8.6 86.76C9.688 88.04 11.224 88.68 13.208 88.68C14.008 88.68 14.712 88.568 15.32 88.344C15.96 88.088 16.664 87.752 17.432 87.336C17.912 87.048 18.328 86.84 18.68 86.712C19.032 86.552 19.384 86.472 19.736 86.472C20.248 86.472 20.68 86.696 21.032 87.144C21.384 87.592 21.56 88.152 21.56 88.824C21.56 89.368 21.432 89.848 21.176 90.264C20.952 90.648 20.568 91 20.024 91.32C19.032 91.96 17.88 92.472 16.568 92.856C15.256 93.208 13.912 93.384 12.536 93.384ZM35.7335 68.952C38.9975 68.952 41.4135 69.768 42.9815 71.4C44.5815 73 45.3815 75.448 45.3815 78.744V90.456C45.3815 91.32 45.1255 92.008 44.6135 92.52C44.1015 93 43.3975 93.24 42.5015 93.24C41.6695 93.24 40.9815 92.984 40.4375 92.472C39.9255 91.96 39.6695 91.288 39.6695 90.456V89.4C39.1255 90.648 38.2615 91.624 37.0775 92.328C35.9255 93.032 34.5815 93.384 33.0455 93.384C31.4775 93.384 30.0535 93.064 28.7735 92.424C27.4935 91.784 26.4855 90.904 25.7495 89.784C25.0135 88.664 24.6455 87.416 24.6455 86.04C24.6455 84.312 25.0775 82.952 25.9415 81.96C26.8375 80.968 28.2775 80.248 30.2615 79.8C32.2455 79.352 34.9815 79.128 38.4695 79.128H39.6695V78.024C39.6695 76.456 39.3335 75.32 38.6615 74.616C37.9895 73.88 36.9015 73.512 35.3975 73.512C34.4695 73.512 33.5255 73.656 32.5655 73.944C31.6055 74.2 30.4695 74.584 29.1575 75.096C28.3255 75.512 27.7175 75.72 27.3335 75.72C26.7575 75.72 26.2775 75.512 25.8935 75.096C25.5415 74.68 25.3655 74.136 25.3655 73.464C25.3655 72.92 25.4935 72.456 25.7495 72.072C26.0375 71.656 26.5015 71.272 27.1415 70.92C28.2615 70.312 29.5895 69.832 31.1255 69.48C32.6935 69.128 34.2295 68.952 35.7335 68.952ZM34.2455 89.064C35.8455 89.064 37.1415 88.536 38.1335 87.48C39.1575 86.392 39.6695 85 39.6695 83.304V82.296H38.8055C36.6615 82.296 34.9975 82.392 33.8135 82.584C32.6295 82.776 31.7815 83.112 31.2695 83.592C30.7575 84.072 30.5015 84.728 30.5015 85.56C30.5015 86.584 30.8535 87.432 31.5575 88.104C32.2935 88.744 33.1895 89.064 34.2455 89.064ZM71.0634 58.92C71.9594 58.92 72.6954 59.176 73.2714 59.688C73.8474 60.2 74.1354 60.872 74.1354 61.704V90.408C74.1354 91.272 73.8634 91.96 73.3194 92.472C72.7754 92.984 72.0554 93.24 71.1594 93.24C70.2634 93.24 69.5434 92.984 68.9994 92.472C68.4554 91.96 68.1834 91.272 68.1834 90.408V89.208C67.4794 90.52 66.4554 91.544 65.1114 92.28C63.7994 93.016 62.2954 93.384 60.5994 93.384C58.5834 93.384 56.7754 92.872 55.1754 91.848C53.6074 90.824 52.3754 89.384 51.4794 87.528C50.6154 85.64 50.1834 83.48 50.1834 81.048C50.1834 78.616 50.6154 76.488 51.4794 74.664C52.3754 72.84 53.6074 71.432 55.1754 70.44C56.7434 69.448 58.5514 68.952 60.5994 68.952C62.2954 68.952 63.7994 69.304 65.1114 70.008C66.4234 70.712 67.4314 71.704 68.1354 72.984V61.608C68.1354 60.808 68.3914 60.168 68.9034 59.688C69.4474 59.176 70.1674 58.92 71.0634 58.92ZM62.1834 88.728C64.1034 88.728 65.5754 88.072 66.5994 86.76C67.6554 85.448 68.1834 83.576 68.1834 81.144C68.1834 78.712 67.6554 76.856 66.5994 75.576C65.5754 74.264 64.1194 73.608 62.2314 73.608C60.3114 73.608 58.8234 74.248 57.7674 75.528C56.7114 76.808 56.1834 78.648 56.1834 81.048C56.1834 83.48 56.7114 85.368 57.7674 86.712C58.8234 88.056 60.2954 88.728 62.1834 88.728ZM90.4835 68.952C93.7475 68.952 96.1635 69.768 97.7315 71.4C99.3315 73 100.132 75.448 100.132 78.744V90.456C100.132 91.32 99.8755 92.008 99.3635 92.52C98.8515 93 98.1475 93.24 97.2515 93.24C96.4195 93.24 95.7315 92.984 95.1875 92.472C94.6755 91.96 94.4195 91.288 94.4195 90.456V89.4C93.8755 90.648 93.0115 91.624 91.8275 92.328C90.6755 93.032 89.3315 93.384 87.7955 93.384C86.2275 93.384 84.8035 93.064 83.5235 92.424C82.2435 91.784 81.2355 90.904 80.4995 89.784C79.7635 88.664 79.3955 87.416 79.3955 86.04C79.3955 84.312 79.8275 82.952 80.6915 81.96C81.5875 80.968 83.0275 80.248 85.0115 79.8C86.9955 79.352 89.7315 79.128 93.2195 79.128H94.4195V78.024C94.4195 76.456 94.0835 75.32 93.4115 74.616C92.7395 73.88 91.6515 73.512 90.1475 73.512C89.2195 73.512 88.2755 73.656 87.3155 73.944C86.3555 74.2 85.2195 74.584 83.9075 75.096C83.0755 75.512 82.4675 75.72 82.0835 75.72C81.5075 75.72 81.0275 75.512 80.6435 75.096C80.2915 74.68 80.1155 74.136 80.1155 73.464C80.1155 72.92 80.2435 72.456 80.4995 72.072C80.7875 71.656 81.2515 71.272 81.8915 70.92C83.0115 70.312 84.3395 69.832 85.8755 69.48C87.4435 69.128 88.9795 68.952 90.4835 68.952ZM88.9955 89.064C90.5955 89.064 91.8915 88.536 92.8835 87.48C93.9075 86.392 94.4195 85 94.4195 83.304V82.296H93.5555C91.4115 82.296 89.7475 82.392 88.5635 82.584C87.3795 82.776 86.5315 83.112 86.0195 83.592C85.5075 84.072 85.2515 84.728 85.2515 85.56C85.2515 86.584 85.6035 87.432 86.3075 88.104C87.0435 88.744 87.9395 89.064 88.9955 89.064ZM135.629 70.776C135.885 70.2 136.221 69.768 136.637 69.48C137.085 69.192 137.565 69.048 138.077 69.048C138.813 69.048 139.469 69.304 140.045 69.816C140.653 70.296 140.957 70.904 140.957 71.64C140.957 72.024 140.861 72.408 140.669 72.792L131.789 91.368C131.501 91.976 131.085 92.44 130.541 92.76C130.029 93.08 129.453 93.24 128.813 93.24C128.205 93.24 127.613 93.08 127.037 92.76C126.493 92.44 126.077 91.976 125.789 91.368L116.861 72.792C116.701 72.472 116.621 72.104 116.621 71.688C116.621 70.952 116.925 70.328 117.533 69.816C118.173 69.304 118.893 69.048 119.693 69.048C120.845 69.048 121.693 69.608 122.237 70.728L128.957 85.56L135.629 70.776ZM162.727 86.568C163.271 86.568 163.703 86.776 164.023 87.192C164.375 87.608 164.551 88.168 164.551 88.872C164.551 89.864 163.959 90.696 162.775 91.368C161.687 91.976 160.455 92.472 159.079 92.856C157.703 93.208 156.391 93.384 155.143 93.384C151.367 93.384 148.375 92.296 146.167 90.12C143.959 87.944 142.855 84.968 142.855 81.192C142.855 78.792 143.335 76.664 144.295 74.808C145.255 72.952 146.599 71.512 148.327 70.488C150.087 69.464 152.071 68.952 154.279 68.952C156.391 68.952 158.231 69.416 159.799 70.344C161.367 71.272 162.583 72.584 163.447 74.28C164.311 75.976 164.743 77.976 164.743 80.28C164.743 81.656 164.135 82.344 162.919 82.344H148.759C148.951 84.552 149.575 86.184 150.631 87.24C151.687 88.264 153.223 88.776 155.239 88.776C156.263 88.776 157.159 88.648 157.927 88.392C158.727 88.136 159.623 87.784 160.615 87.336C161.575 86.824 162.279 86.568 162.727 86.568ZM154.423 73.176C152.791 73.176 151.479 73.688 150.487 74.712C149.527 75.736 148.951 77.208 148.759 79.128H159.607C159.543 77.176 159.063 75.704 158.167 74.712C157.271 73.688 156.023 73.176 154.423 73.176ZM186.655 88.488C188.447 88.488 189.343 89.24 189.343 90.744C189.343 91.448 189.119 92.008 188.671 92.424C188.223 92.808 187.551 93 186.655 93H170.623C169.823 93 169.167 92.744 168.655 92.232C168.143 91.72 167.887 91.112 167.887 90.408C167.887 89.672 168.175 88.968 168.751 88.296L181.087 74.04H170.383C169.487 74.04 168.815 73.848 168.367 73.464C167.919 73.08 167.695 72.52 167.695 71.784C167.695 71.048 167.919 70.488 168.367 70.104C168.815 69.72 169.487 69.528 170.383 69.528H185.887C186.719 69.528 187.375 69.784 187.855 70.296C188.367 70.776 188.623 71.384 188.623 72.12C188.623 72.888 188.351 73.592 187.807 74.232L175.423 88.488H186.655ZM234.571 68.952C237.131 68.952 239.083 69.72 240.427 71.256C241.803 72.76 242.491 75.208 242.491 78.6V90.408C242.491 91.336 242.203 92.056 241.627 92.568C241.083 93.048 240.363 93.288 239.467 93.288C238.603 93.288 237.883 93.048 237.307 92.568C236.763 92.056 236.491 91.336 236.491 90.408V78.6C236.491 76.84 236.171 75.592 235.531 74.856C234.923 74.088 233.979 73.704 232.699 73.704C231.131 73.704 229.883 74.248 228.955 75.336C228.027 76.392 227.562 77.848 227.562 79.704V90.408C227.562 91.336 227.275 92.056 226.699 92.568C226.155 93.048 225.451 93.288 224.587 93.288C223.723 93.288 223.003 93.048 222.427 92.568C221.851 92.056 221.563 91.336 221.563 90.408V78.6C221.563 76.84 221.243 75.592 220.603 74.856C219.995 74.088 219.051 73.704 217.771 73.704C216.203 73.704 214.955 74.248 214.027 75.336C213.131 76.392 212.683 77.848 212.683 79.704V90.408C212.683 91.336 212.395 92.056 211.819 92.568C211.243 93.048 210.523 93.288 209.659 93.288C208.795 93.288 208.075 93.048 207.499 92.568C206.955 92.056 206.683 91.336 206.683 90.408V71.832C206.683 70.936 206.971 70.248 207.547 69.768C208.123 69.288 208.843 69.048 209.707 69.048C210.539 69.048 211.211 69.288 211.723 69.768C212.267 70.216 212.539 70.872 212.539 71.736V72.888C213.275 71.608 214.251 70.632 215.467 69.96C216.715 69.288 218.139 68.952 219.739 68.952C223.259 68.952 225.611 70.424 226.795 73.368C227.499 72.024 228.539 70.952 229.915 70.152C231.291 69.352 232.843 68.952 234.571 68.952ZM258.765 68.952C262.029 68.952 264.445 69.768 266.013 71.4C267.613 73 268.413 75.448 268.413 78.744V90.456C268.413 91.32 268.157 92.008 267.645 92.52C267.133 93 266.429 93.24 265.533 93.24C264.701 93.24 264.013 92.984 263.469 92.472C262.957 91.96 262.701 91.288 262.701 90.456V89.4C262.157 90.648 261.293 91.624 260.109 92.328C258.957 93.032 257.613 93.384 256.077 93.384C254.509 93.384 253.085 93.064 251.805 92.424C250.525 91.784 249.517 90.904 248.781 89.784C248.045 88.664 247.677 87.416 247.677 86.04C247.677 84.312 248.109 82.952 248.973 81.96C249.869 80.968 251.309 80.248 253.293 79.8C255.277 79.352 258.013 79.128 261.501 79.128H262.701V78.024C262.701 76.456 262.365 75.32 261.693 74.616C261.021 73.88 259.933 73.512 258.429 73.512C257.501 73.512 256.557 73.656 255.597 73.944C254.637 74.2 253.501 74.584 252.189 75.096C251.357 75.512 250.749 75.72 250.365 75.72C249.789 75.72 249.309 75.512 248.925 75.096C248.573 74.68 248.397 74.136 248.397 73.464C248.397 72.92 248.525 72.456 248.781 72.072C249.069 71.656 249.533 71.272 250.173 70.92C251.293 70.312 252.621 69.832 254.157 69.48C255.725 69.128 257.261 68.952 258.765 68.952ZM257.277 89.064C258.877 89.064 260.173 88.536 261.165 87.48C262.189 86.392 262.701 85 262.701 83.304V82.296H261.837C259.693 82.296 258.029 82.392 256.845 82.584C255.661 82.776 254.813 83.112 254.301 83.592C253.789 84.072 253.533 84.728 253.533 85.56C253.533 86.584 253.885 87.432 254.589 88.104C255.325 88.744 256.221 89.064 257.277 89.064ZM277.487 93.288C276.623 93.288 275.903 93.048 275.327 92.568C274.783 92.056 274.511 91.336 274.511 90.408V71.88C274.511 70.952 274.783 70.248 275.327 69.768C275.903 69.288 276.623 69.048 277.487 69.048C278.351 69.048 279.071 69.288 279.647 69.768C280.223 70.248 280.511 70.952 280.511 71.88V90.408C280.511 91.336 280.223 92.056 279.647 92.568C279.071 93.048 278.351 93.288 277.487 93.288ZM277.487 64.776C276.399 64.776 275.535 64.488 274.895 63.912C274.255 63.304 273.935 62.52 273.935 61.56C273.935 60.6 274.255 59.832 274.895 59.256C275.535 58.68 276.399 58.392 277.487 58.392C278.543 58.392 279.391 58.68 280.031 59.256C280.703 59.832 281.039 60.6 281.039 61.56C281.039 62.52 280.719 63.304 280.079 63.912C279.439 64.488 278.575 64.776 277.487 64.776ZM295.194 93.384C291.706 93.384 288.89 92.696 286.746 91.32C285.722 90.712 285.21 89.848 285.21 88.728C285.21 88.088 285.386 87.576 285.738 87.192C286.09 86.776 286.522 86.568 287.034 86.568C287.578 86.568 288.33 86.824 289.29 87.336C290.314 87.816 291.242 88.184 292.074 88.44C292.938 88.696 294.026 88.824 295.338 88.824C296.682 88.824 297.722 88.6 298.458 88.152C299.226 87.704 299.61 87.08 299.61 86.28C299.61 85.736 299.45 85.304 299.13 84.984C298.842 84.664 298.298 84.376 297.498 84.12C296.73 83.832 295.546 83.512 293.946 83.16C291.098 82.584 289.05 81.768 287.802 80.712C286.586 79.656 285.978 78.2 285.978 76.344C285.978 74.936 286.394 73.672 287.226 72.552C288.058 71.4 289.194 70.52 290.634 69.912C292.106 69.272 293.77 68.952 295.626 68.952C296.97 68.952 298.266 69.128 299.514 69.48C300.762 69.8 301.882 70.28 302.874 70.92C303.898 71.56 304.41 72.408 304.41 73.464C304.41 74.104 304.234 74.648 303.882 75.096C303.53 75.512 303.098 75.72 302.586 75.72C302.234 75.72 301.882 75.656 301.53 75.528C301.21 75.368 300.794 75.144 300.282 74.856C299.354 74.376 298.554 74.024 297.882 73.8C297.21 73.544 296.378 73.416 295.386 73.416C294.202 73.416 293.258 73.656 292.554 74.136C291.882 74.616 291.546 75.272 291.546 76.104C291.546 76.904 291.898 77.512 292.602 77.928C293.306 78.344 294.666 78.76 296.682 79.176C298.826 79.624 300.506 80.136 301.722 80.712C302.938 81.288 303.802 82.008 304.314 82.872C304.858 83.736 305.13 84.84 305.13 86.184C305.13 88.36 304.218 90.104 302.394 91.416C300.602 92.728 298.202 93.384 295.194 93.384ZM326.002 93.288C325.138 93.288 324.418 93.048 323.842 92.568C323.298 92.056 323.026 91.336 323.026 90.408V61.752C323.026 60.824 323.298 60.12 323.842 59.64C324.418 59.16 325.138 58.92 326.002 58.92C326.866 58.92 327.586 59.16 328.162 59.64C328.738 60.12 329.026 60.824 329.026 61.752V90.408C329.026 91.336 328.738 92.056 328.162 92.568C327.586 93.048 326.866 93.288 326.002 93.288ZM345.918 93.384C343.518 93.384 341.406 92.888 339.582 91.896C337.79 90.904 336.398 89.48 335.406 87.624C334.414 85.768 333.918 83.608 333.918 81.144C333.918 78.68 334.414 76.536 335.406 74.712C336.398 72.856 337.79 71.432 339.582 70.44C341.406 69.448 343.518 68.952 345.918 68.952C348.318 68.952 350.414 69.448 352.206 70.44C354.03 71.432 355.422 72.856 356.382 74.712C357.374 76.536 357.87 78.68 357.87 81.144C357.87 83.608 357.374 85.768 356.382 87.624C355.422 89.48 354.03 90.904 352.206 91.896C350.414 92.888 348.318 93.384 345.918 93.384ZM345.87 88.728C347.822 88.728 349.31 88.088 350.334 86.808C351.358 85.528 351.87 83.64 351.87 81.144C351.87 78.68 351.358 76.808 350.334 75.528C349.31 74.216 347.838 73.56 345.918 73.56C343.998 73.56 342.51 74.216 341.454 75.528C340.43 76.808 339.918 78.68 339.918 81.144C339.918 83.64 340.43 85.528 341.454 86.808C342.478 88.088 343.95 88.728 345.87 88.728ZM376.455 68.952C379.271 68.952 381.367 69.752 382.743 71.352C384.119 72.952 384.807 75.368 384.807 78.6V90.408C384.807 91.304 384.535 92.008 383.991 92.52C383.479 93.032 382.759 93.288 381.831 93.288C380.903 93.288 380.167 93.032 379.623 92.52C379.079 92.008 378.807 91.304 378.807 90.408V78.936C378.807 77.112 378.455 75.784 377.751 74.952C377.079 74.12 376.007 73.704 374.535 73.704C372.807 73.704 371.415 74.248 370.359 75.336C369.335 76.424 368.823 77.88 368.823 79.704V90.408C368.823 91.304 368.551 92.008 368.007 92.52C367.463 93.032 366.727 93.288 365.799 93.288C364.871 93.288 364.135 93.032 363.591 92.52C363.079 92.008 362.823 91.304 362.823 90.408V71.832C362.823 71 363.095 70.328 363.639 69.816C364.183 69.304 364.919 69.048 365.847 69.048C366.679 69.048 367.351 69.304 367.863 69.816C368.407 70.296 368.679 70.936 368.679 71.736V73.032C369.479 71.72 370.551 70.712 371.895 70.008C373.239 69.304 374.759 68.952 376.455 68.952ZM410.773 69.048C411.669 69.048 412.389 69.304 412.933 69.816C413.477 70.328 413.749 71.016 413.749 71.88V90.84C413.749 94.52 412.725 97.304 410.677 99.192C408.629 101.08 405.605 102.024 401.605 102.024C398.117 102.024 395.205 101.368 392.869 100.056C391.685 99.352 391.093 98.504 391.093 97.512C391.093 96.808 391.253 96.248 391.573 95.832C391.925 95.416 392.373 95.208 392.917 95.208C393.205 95.208 393.557 95.272 393.973 95.4C394.389 95.56 394.821 95.736 395.269 95.928C396.421 96.408 397.445 96.776 398.341 97.032C399.269 97.288 400.325 97.416 401.509 97.416C405.701 97.416 407.797 95.368 407.797 91.272V88.2C407.093 89.512 406.069 90.536 404.725 91.272C403.381 91.976 401.845 92.328 400.117 92.328C398.069 92.328 396.245 91.848 394.645 90.888C393.077 89.896 391.845 88.52 390.949 86.76C390.053 85 389.605 82.968 389.605 80.664C389.605 78.36 390.037 76.328 390.901 74.568C391.797 72.776 393.045 71.4 394.645 70.44C396.245 69.448 398.069 68.952 400.117 68.952C401.845 68.952 403.381 69.32 404.725 70.056C406.069 70.76 407.093 71.768 407.797 73.08V71.832C407.797 71 408.069 70.328 408.613 69.816C409.157 69.304 409.877 69.048 410.773 69.048ZM401.701 87.672C403.621 87.672 405.109 87.048 406.165 85.8C407.253 84.552 407.797 82.84 407.797 80.664C407.797 78.456 407.253 76.728 406.165 75.48C405.109 74.232 403.621 73.608 401.701 73.608C399.813 73.608 398.325 74.232 397.237 75.48C396.149 76.728 395.605 78.456 395.605 80.664C395.605 82.84 396.149 84.552 397.237 85.8C398.325 87.048 399.813 87.672 401.701 87.672ZM438.54 86.568C439.084 86.568 439.516 86.776 439.836 87.192C440.188 87.608 440.364 88.168 440.364 88.872C440.364 89.864 439.772 90.696 438.588 91.368C437.5 91.976 436.268 92.472 434.892 92.856C433.516 93.208 432.204 93.384 430.956 93.384C427.18 93.384 424.188 92.296 421.98 90.12C419.772 87.944 418.668 84.968 418.668 81.192C418.668 78.792 419.148 76.664 420.108 74.808C421.068 72.952 422.412 71.512 424.14 70.488C425.9 69.464 427.884 68.952 430.092 68.952C432.204 68.952 434.044 69.416 435.612 70.344C437.18 71.272 438.396 72.584 439.26 74.28C440.124 75.976 440.556 77.976 440.556 80.28C440.556 81.656 439.948 82.344 438.732 82.344H424.572C424.764 84.552 425.388 86.184 426.444 87.24C427.5 88.264 429.036 88.776 431.052 88.776C432.076 88.776 432.972 88.648 433.74 88.392C434.54 88.136 435.436 87.784 436.428 87.336C437.388 86.824 438.092 86.568 438.54 86.568ZM430.236 73.176C428.604 73.176 427.292 73.688 426.3 74.712C425.34 75.736 424.764 77.208 424.572 79.128H435.42C435.356 77.176 434.876 75.704 433.98 74.712C433.084 73.688 431.836 73.176 430.236 73.176Z" fill="#45464E"/>
</svg>
