<svg width="131" height="400" viewBox="0 0 131 400" fill="none" xmlns="http://www.w3.org/2000/svg">
<path d="M16 0L16 400" stroke="#397EF3" stroke-width="5"/>
<circle cx="16" cy="16" r="16" transform="rotate(90 16 16)" fill="#397EF3"/>
<circle cx="16" cy="16" r="8" transform="rotate(90 16 16)" fill="white"/>
<circle cx="16" cy="198" r="14" fill="white"/>
<circle cx="16" cy="384" r="16" transform="rotate(90 16 384)" fill="#397EF3"/>
<path d="M40.9588 14H46.4815V12.8665H42.2756V10.1946H46.1449V9.06534H42.2756V6.40625H46.4304V5.27273H40.9588V14ZM51.1424 7.45455H49.8001V5.88636H48.5259V7.45455H47.5671V8.47727H48.5259V12.3423C48.5217 13.5312 49.4293 14.1065 50.435 14.0852C50.8398 14.081 51.1126 14.0043 51.2617 13.9489L51.0316 12.8963C50.9464 12.9134 50.7887 12.9517 50.5842 12.9517C50.1708 12.9517 49.8001 12.8153 49.8001 12.0781V8.47727H51.1424V7.45455ZM54.4567 14.1449C55.5391 14.1449 56.1484 13.5952 56.3913 13.1051H56.4425V14H57.6868V9.65341C57.6868 7.74858 56.1868 7.36932 55.147 7.36932C53.9624 7.36932 52.8714 7.84659 52.4453 9.03977L53.6428 9.3125C53.8303 8.84801 54.3075 8.40057 55.1641 8.40057C55.9865 8.40057 56.4084 8.83097 56.4084 9.57244V9.60227C56.4084 10.0668 55.9311 10.0582 54.755 10.1946C53.5149 10.3395 52.245 10.6634 52.245 12.1506C52.245 13.4375 53.2124 14.1449 54.4567 14.1449ZM54.7337 13.1222C54.0135 13.1222 53.4936 12.7983 53.4936 12.1676C53.4936 11.4858 54.0987 11.2429 54.8359 11.1449C55.2493 11.0895 56.2294 10.9787 56.4126 10.7955V11.6392C56.4126 12.4148 55.7947 13.1222 54.7337 13.1222ZM59.3839 16.4545H60.658V12.9815H60.7347C60.9648 13.3991 61.4336 14.1278 62.6268 14.1278C64.212 14.1278 65.3626 12.858 65.3626 10.7401C65.3626 8.6179 64.195 7.36932 62.614 7.36932C61.3995 7.36932 60.9606 8.1108 60.7347 8.51562H60.6282V7.45455H59.3839V16.4545ZM60.6325 10.7273C60.6325 9.35938 61.229 8.4517 62.3413 8.4517C63.4961 8.4517 64.0756 9.42756 64.0756 10.7273C64.0756 12.0398 63.479 13.0412 62.3413 13.0412C61.2461 13.0412 60.6325 12.1037 60.6325 10.7273ZM68.695 14.1449C69.7773 14.1449 70.3867 13.5952 70.6296 13.1051H70.6808V14H71.9251V9.65341C71.9251 7.74858 70.4251 7.36932 69.3853 7.36932C68.2006 7.36932 67.1097 7.84659 66.6836 9.03977L67.881 9.3125C68.0685 8.84801 68.5458 8.40057 69.4023 8.40057C70.2248 8.40057 70.6467 8.83097 70.6467 9.57244V9.60227C70.6467 10.0668 70.1694 10.0582 68.9933 10.1946C67.7532 10.3395 66.4833 10.6634 66.4833 12.1506C66.4833 13.4375 67.4506 14.1449 68.695 14.1449ZM68.9719 13.1222C68.2518 13.1222 67.7319 12.7983 67.7319 12.1676C67.7319 11.4858 68.337 11.2429 69.0742 11.1449C69.4876 11.0895 70.4677 10.9787 70.6509 10.7955V11.6392C70.6509 12.4148 70.033 13.1222 68.9719 13.1222ZM80.092 5.27273H78.8093L76.6317 6.69602V7.95739L78.7198 6.59375H78.771V14H80.092V5.27273ZM41.0568 20.2727V29H42.0455V22.3693H42.1307L44.858 29H45.8125L48.5398 22.3693H48.625V29H49.6136V20.2727H48.3523L45.3864 27.517H45.2841L42.3182 20.2727H41.0568ZM53.5224 29.1534C54.6644 29.1534 55.261 28.5398 55.4656 28.1136H55.5167V29H56.5224V24.6875C56.5224 22.608 54.9371 22.3693 54.1019 22.3693C53.1133 22.3693 51.9883 22.7102 51.4769 23.9034L52.4315 24.2443C52.6531 23.767 53.1772 23.2557 54.136 23.2557C55.0607 23.2557 55.5167 23.7457 55.5167 24.5852V24.6193C55.5167 25.1051 55.0224 25.0625 53.8292 25.2159C52.6147 25.3736 51.2894 25.642 51.2894 27.142C51.2894 28.4205 52.2781 29.1534 53.5224 29.1534ZM53.6758 28.25C52.8746 28.25 52.2951 27.892 52.2951 27.1932C52.2951 26.4261 52.994 26.1875 53.7781 26.0852C54.2042 26.0341 55.3462 25.9148 55.5167 25.7102V26.6307C55.5167 27.4489 54.869 28.25 53.6758 28.25ZM61.2045 22.4545H59.8068V20.8864H58.8011V22.4545H57.8125V23.3068H58.8011V27.3977C58.8011 28.5398 59.7216 29.0852 60.5739 29.0852C60.9489 29.0852 61.1875 29.017 61.3239 28.9659L61.1193 28.0625C61.0341 28.0795 60.8977 28.1136 60.6761 28.1136C60.233 28.1136 59.8068 27.9773 59.8068 27.125V23.3068H61.2045V22.4545ZM62.7173 29H63.723V24.858C63.723 23.9716 64.4219 23.3239 65.3764 23.3239C65.6449 23.3239 65.9219 23.375 65.9901 23.392V22.3693C65.875 22.3608 65.6108 22.3523 65.4616 22.3523C64.6776 22.3523 63.9957 22.7955 63.7571 23.4432H63.6889V22.4545H62.7173V29ZM67.1822 29H68.1879V22.4545H67.1822V29ZM67.2333 21.5682H68.1197L69.4492 19.5909H68.2731L67.2333 21.5682ZM72.6889 29.1364C74.1378 29.1364 75.0923 28.25 75.2628 27.0909H74.2571C74.0696 27.8068 73.473 28.233 72.6889 28.233C71.4957 28.233 70.7287 27.2443 70.7287 25.7273C70.7287 24.2443 71.5128 23.2727 72.6889 23.2727C73.5753 23.2727 74.1037 23.8182 74.2571 24.4148H75.2628C75.0923 23.1875 74.0526 22.3693 72.6719 22.3693C70.8991 22.3693 69.723 23.767 69.723 25.7614C69.723 27.7216 70.848 29.1364 72.6889 29.1364ZM80.858 26.3239C80.858 27.5511 79.9205 28.1136 79.1705 28.1136C78.3352 28.1136 77.7386 27.5 77.7386 26.5455V22.4545H76.733V26.6136C76.733 28.2841 77.6193 29.0852 78.8466 29.0852C79.8352 29.0852 80.483 28.5568 80.7898 27.892H80.858V29H81.8636V22.4545H80.858V26.3239ZM84.7113 20.2727H83.7056V29H84.7113V20.2727ZM88.4794 29.1534C89.6214 29.1534 90.218 28.5398 90.4226 28.1136H90.4737V29H91.4794V24.6875C91.4794 22.608 89.8942 22.3693 89.0589 22.3693C88.0703 22.3693 86.9453 22.7102 86.4339 23.9034L87.3885 24.2443C87.6101 23.767 88.1342 23.2557 89.093 23.2557C90.0178 23.2557 90.4737 23.7457 90.4737 24.5852V24.6193C90.4737 25.1051 89.9794 25.0625 88.7862 25.2159C87.5717 25.3736 86.2464 25.642 86.2464 27.142C86.2464 28.4205 87.2351 29.1534 88.4794 29.1534ZM88.6328 28.25C87.8317 28.25 87.2521 27.892 87.2521 27.1932C87.2521 26.4261 87.951 26.1875 88.7351 26.0852C89.1612 26.0341 90.3033 25.9148 90.4737 25.7102V26.6307C90.4737 27.4489 89.826 28.25 88.6328 28.25Z" fill="#343A3F"/>
<path d="M39.9588 198H45.4815V196.866H41.2756V194.195H45.1449V193.065H41.2756V190.406H45.4304V189.273H39.9588V198ZM50.1424 191.455H48.8001V189.886H47.5259V191.455H46.5671V192.477H47.5259V196.342C47.5217 197.531 48.4293 198.107 49.435 198.085C49.8398 198.081 50.1126 198.004 50.2617 197.949L50.0316 196.896C49.9464 196.913 49.7887 196.952 49.5842 196.952C49.1708 196.952 48.8001 196.815 48.8001 196.078V192.477H50.1424V191.455ZM53.4567 198.145C54.5391 198.145 55.1484 197.595 55.3913 197.105H55.4425V198H56.6868V193.653C56.6868 191.749 55.1868 191.369 54.147 191.369C52.9624 191.369 51.8714 191.847 51.4453 193.04L52.6428 193.312C52.8303 192.848 53.3075 192.401 54.1641 192.401C54.9865 192.401 55.4084 192.831 55.4084 193.572V193.602C55.4084 194.067 54.9311 194.058 53.755 194.195C52.5149 194.339 51.245 194.663 51.245 196.151C51.245 197.438 52.2124 198.145 53.4567 198.145ZM53.7337 197.122C53.0135 197.122 52.4936 196.798 52.4936 196.168C52.4936 195.486 53.0987 195.243 53.8359 195.145C54.2493 195.089 55.2294 194.979 55.4126 194.795V195.639C55.4126 196.415 54.7947 197.122 53.7337 197.122ZM58.3839 200.455H59.658V196.982H59.7347C59.9648 197.399 60.4336 198.128 61.6268 198.128C63.212 198.128 64.3626 196.858 64.3626 194.74C64.3626 192.618 63.195 191.369 61.614 191.369C60.3995 191.369 59.9606 192.111 59.7347 192.516H59.6282V191.455H58.3839V200.455ZM59.6325 194.727C59.6325 193.359 60.229 192.452 61.3413 192.452C62.4961 192.452 63.0756 193.428 63.0756 194.727C63.0756 196.04 62.479 197.041 61.3413 197.041C60.2461 197.041 59.6325 196.104 59.6325 194.727ZM67.695 198.145C68.7773 198.145 69.3867 197.595 69.6296 197.105H69.6808V198H70.9251V193.653C70.9251 191.749 69.4251 191.369 68.3853 191.369C67.2006 191.369 66.1097 191.847 65.6836 193.04L66.881 193.312C67.0685 192.848 67.5458 192.401 68.4023 192.401C69.2248 192.401 69.6467 192.831 69.6467 193.572V193.602C69.6467 194.067 69.1694 194.058 67.9933 194.195C66.7532 194.339 65.4833 194.663 65.4833 196.151C65.4833 197.438 66.4506 198.145 67.695 198.145ZM67.9719 197.122C67.2518 197.122 66.7319 196.798 66.7319 196.168C66.7319 195.486 67.337 195.243 68.0742 195.145C68.4876 195.089 69.4677 194.979 69.6509 194.795V195.639C69.6509 196.415 69.033 197.122 67.9719 197.122ZM75.7809 198H81.5252V196.871H77.5962V196.807L79.3306 194.991C80.9286 193.376 81.3846 192.605 81.3846 191.629C81.3846 190.227 80.2425 189.153 78.5977 189.153C76.9656 189.153 75.7724 190.21 75.7724 191.804H77.0295C77.0252 190.866 77.6303 190.253 78.5721 190.253C79.4585 190.253 80.1317 190.798 80.1317 191.668C80.1317 192.439 79.6715 192.993 78.734 193.986L75.7809 197.045V198ZM44.8295 206.455H45.8523C45.8054 205.138 44.5909 204.153 42.9034 204.153C41.233 204.153 39.9205 205.125 39.9205 206.591C39.9205 207.767 40.7727 208.466 42.1364 208.858L43.2102 209.165C44.1307 209.42 44.9489 209.744 44.9489 210.614C44.9489 211.568 44.0284 212.199 42.8182 212.199C41.7784 212.199 40.858 211.739 40.7727 210.75H39.6818C39.7841 212.182 40.9432 213.153 42.8182 213.153C44.8295 213.153 45.9716 212.045 45.9716 210.631C45.9716 208.994 44.4205 208.466 43.517 208.227L42.6307 207.989C41.983 207.818 40.9432 207.477 40.9432 206.54C40.9432 205.705 41.7102 205.091 42.8693 205.091C43.9261 205.091 44.7273 205.594 44.8295 206.455ZM50.2319 213.136C52.0046 213.136 53.1978 211.79 53.1978 209.761C53.1978 207.716 52.0046 206.369 50.2319 206.369C48.4592 206.369 47.266 207.716 47.266 209.761C47.266 211.79 48.4592 213.136 50.2319 213.136ZM50.2319 212.233C48.8853 212.233 48.2717 211.074 48.2717 209.761C48.2717 208.449 48.8853 207.273 50.2319 207.273C51.5785 207.273 52.1921 208.449 52.1921 209.761C52.1921 211.074 51.5785 212.233 50.2319 212.233ZM54.8693 213H55.8409V211.994H55.9602C56.1818 212.352 56.608 213.136 57.8693 213.136C59.5057 213.136 60.6477 211.824 60.6477 209.744C60.6477 207.682 59.5057 206.369 57.8523 206.369C56.5739 206.369 56.1818 207.153 55.9602 207.494H55.875V204.273H54.8693V213ZM55.858 209.727C55.858 208.261 56.5057 207.273 57.733 207.273C59.0114 207.273 59.642 208.347 59.642 209.727C59.642 211.125 58.9943 212.233 57.733 212.233C56.5227 212.233 55.858 211.21 55.858 209.727ZM62.1861 213H63.1918V208.858C63.1918 207.972 63.8906 207.324 64.8452 207.324C65.1136 207.324 65.3906 207.375 65.4588 207.392V206.369C65.3438 206.361 65.0795 206.352 64.9304 206.352C64.1463 206.352 63.4645 206.795 63.2259 207.443H63.1577V206.455H62.1861V213ZM69.196 213.136C70.5256 213.136 71.4972 212.472 71.804 211.483L70.8324 211.21C70.5767 211.892 69.9844 212.233 69.196 212.233C68.0156 212.233 67.2017 211.47 67.1548 210.068H71.9062V209.642C71.9062 207.205 70.4574 206.369 69.0938 206.369C67.321 206.369 66.1449 207.767 66.1449 209.778C66.1449 211.79 67.304 213.136 69.196 213.136ZM67.1548 209.199C67.223 208.18 67.9432 207.273 69.0938 207.273C70.1847 207.273 70.8835 208.091 70.8835 209.199H67.1548ZM79.4702 213.136C81.2429 213.136 82.4361 211.79 82.4361 209.761C82.4361 207.716 81.2429 206.369 79.4702 206.369C77.6974 206.369 76.5043 207.716 76.5043 209.761C76.5043 211.79 77.6974 213.136 79.4702 213.136ZM79.4702 212.233C78.1236 212.233 77.5099 211.074 77.5099 209.761C77.5099 208.449 78.1236 207.273 79.4702 207.273C80.8168 207.273 81.4304 208.449 81.4304 209.761C81.4304 211.074 80.8168 212.233 79.4702 212.233ZM89.2724 213.153C90.4144 213.153 91.011 212.54 91.2156 212.114H91.2667V213H92.2724V208.688C92.2724 206.608 90.6871 206.369 89.8519 206.369C88.8633 206.369 87.7383 206.71 87.2269 207.903L88.1815 208.244C88.4031 207.767 88.9272 207.256 89.886 207.256C90.8107 207.256 91.2667 207.746 91.2667 208.585V208.619C91.2667 209.105 90.7724 209.062 89.5792 209.216C88.3647 209.374 87.0394 209.642 87.0394 211.142C87.0394 212.42 88.0281 213.153 89.2724 213.153ZM89.4258 212.25C88.6246 212.25 88.0451 211.892 88.0451 211.193C88.0451 210.426 88.744 210.188 89.5281 210.085C89.9542 210.034 91.0962 209.915 91.2667 209.71V210.631C91.2667 211.449 90.619 212.25 89.4258 212.25ZM95.1136 209.062C95.1136 207.92 95.821 207.273 96.7841 207.273C97.7173 207.273 98.2841 207.882 98.2841 208.909V213H99.2898V208.841C99.2898 207.17 98.3991 206.369 97.0739 206.369C96.0852 206.369 95.4716 206.812 95.1648 207.477H95.0795V206.455H94.108V213H95.1136V209.062ZM105.252 210.324C105.252 211.551 104.315 212.114 103.565 212.114C102.73 212.114 102.133 211.5 102.133 210.545V206.455H101.127V210.614C101.127 212.284 102.014 213.085 103.241 213.085C104.23 213.085 104.877 212.557 105.184 211.892H105.252V213H106.258V206.455H105.252V210.324ZM103.241 205.568H104.127L105.457 203.591H104.281L103.241 205.568ZM109.106 209.062C109.106 207.92 109.813 207.273 110.776 207.273C111.71 207.273 112.276 207.882 112.276 208.909V213H113.282V208.841C113.282 207.17 112.391 206.369 111.066 206.369C110.077 206.369 109.464 206.812 109.157 207.477H109.072V206.455H108.1V213H109.106V209.062ZM117.779 213.136C119.228 213.136 120.182 212.25 120.353 211.091H119.347C119.159 211.807 118.563 212.233 117.779 212.233C116.586 212.233 115.819 211.244 115.819 209.727C115.819 208.244 116.603 207.273 117.779 207.273C118.665 207.273 119.194 207.818 119.347 208.415H120.353C120.182 207.188 119.142 206.369 117.762 206.369C115.989 206.369 114.813 207.767 114.813 209.761C114.813 211.722 115.938 213.136 117.779 213.136ZM121.823 213H122.828V206.455H121.823V213ZM122.334 205.364C122.726 205.364 123.05 205.057 123.05 204.682C123.05 204.307 122.726 204 122.334 204C121.942 204 121.618 204.307 121.618 204.682C121.618 205.057 121.942 205.364 122.334 205.364ZM127.33 213.136C129.102 213.136 130.295 211.79 130.295 209.761C130.295 207.716 129.102 206.369 127.33 206.369C125.557 206.369 124.364 207.716 124.364 209.761C124.364 211.79 125.557 213.136 127.33 213.136ZM127.33 212.233C125.983 212.233 125.369 211.074 125.369 209.761C125.369 208.449 125.983 207.273 127.33 207.273C128.676 207.273 129.29 208.449 129.29 209.761C129.29 211.074 128.676 212.233 127.33 212.233Z" fill="#343A3F"/>
<path d="M37.9588 382H43.4815V380.866H39.2756V378.195H43.1449V377.065H39.2756V374.406H43.4304V373.273H37.9588V382ZM48.1424 375.455H46.8001V373.886H45.5259V375.455H44.5671V376.477H45.5259V380.342C45.5217 381.531 46.4293 382.107 47.435 382.085C47.8398 382.081 48.1126 382.004 48.2617 381.949L48.0316 380.896C47.9464 380.913 47.7887 380.952 47.5842 380.952C47.1708 380.952 46.8001 380.815 46.8001 380.078V376.477H48.1424V375.455ZM51.4567 382.145C52.5391 382.145 53.1484 381.595 53.3913 381.105H53.4425V382H54.6868V377.653C54.6868 375.749 53.1868 375.369 52.147 375.369C50.9624 375.369 49.8714 375.847 49.4453 377.04L50.6428 377.312C50.8303 376.848 51.3075 376.401 52.1641 376.401C52.9865 376.401 53.4084 376.831 53.4084 377.572V377.602C53.4084 378.067 52.9311 378.058 51.755 378.195C50.5149 378.339 49.245 378.663 49.245 380.151C49.245 381.438 50.2124 382.145 51.4567 382.145ZM51.7337 381.122C51.0135 381.122 50.4936 380.798 50.4936 380.168C50.4936 379.486 51.0987 379.243 51.8359 379.145C52.2493 379.089 53.2294 378.979 53.4126 378.795V379.639C53.4126 380.415 52.7947 381.122 51.7337 381.122ZM56.3839 384.455H57.658V380.982H57.7347C57.9648 381.399 58.4336 382.128 59.6268 382.128C61.212 382.128 62.3626 380.858 62.3626 378.74C62.3626 376.618 61.195 375.369 59.614 375.369C58.3995 375.369 57.9606 376.111 57.7347 376.516H57.6282V375.455H56.3839V384.455ZM57.6325 378.727C57.6325 377.359 58.229 376.452 59.3413 376.452C60.4961 376.452 61.0756 377.428 61.0756 378.727C61.0756 380.04 60.479 381.041 59.3413 381.041C58.2461 381.041 57.6325 380.104 57.6325 378.727ZM65.695 382.145C66.7773 382.145 67.3867 381.595 67.6296 381.105H67.6808V382H68.9251V377.653C68.9251 375.749 67.4251 375.369 66.3853 375.369C65.2006 375.369 64.1097 375.847 63.6836 377.04L64.881 377.312C65.0685 376.848 65.5458 376.401 66.4023 376.401C67.2248 376.401 67.6467 376.831 67.6467 377.572V377.602C67.6467 378.067 67.1694 378.058 65.9933 378.195C64.7532 378.339 63.4833 378.663 63.4833 380.151C63.4833 381.438 64.4506 382.145 65.695 382.145ZM65.9719 381.122C65.2518 381.122 64.7319 380.798 64.7319 380.168C64.7319 379.486 65.337 379.243 66.0742 379.145C66.4876 379.089 67.4677 378.979 67.6509 378.795V379.639C67.6509 380.415 67.033 381.122 65.9719 381.122ZM76.8192 382.119C78.6005 382.119 79.9087 381.054 79.9045 379.605C79.9087 378.501 79.2397 377.709 78.0806 377.53V377.462C78.9925 377.227 79.5849 376.511 79.5806 375.531C79.5849 374.249 78.5323 373.153 76.8533 373.153C75.2511 373.153 73.9641 374.121 73.9215 375.54H75.1957C75.2255 374.739 75.9798 374.253 76.8363 374.253C77.7269 374.253 78.3107 374.794 78.3065 375.599C78.3107 376.443 77.6332 376.997 76.6658 376.997H75.9286V378.071H76.6658C77.8761 378.071 78.5749 378.685 78.5749 379.562C78.5749 380.411 77.8377 380.986 76.8107 380.986C75.8647 380.986 75.1275 380.5 75.0763 379.724H73.7383C73.7937 381.148 75.055 382.119 76.8192 382.119ZM38.0568 397H39.1136V393.812H41.0227C43.0554 393.812 43.9716 392.577 43.9716 391.034C43.9716 389.491 43.0554 388.273 41.0057 388.273H38.0568V397ZM39.1136 392.875V389.21H40.9716C42.3906 389.21 42.9318 389.986 42.9318 391.034C42.9318 392.082 42.3906 392.875 40.9886 392.875H39.1136ZM45.5376 397H46.5433V392.858C46.5433 391.972 47.2422 391.324 48.1967 391.324C48.4652 391.324 48.7422 391.375 48.8104 391.392V390.369C48.6953 390.361 48.4311 390.352 48.282 390.352C47.4979 390.352 46.8161 390.795 46.5774 391.443H46.5092V390.455H45.5376V397ZM52.4624 397.136C54.2351 397.136 55.4283 395.79 55.4283 393.761C55.4283 391.716 54.2351 390.369 52.4624 390.369C50.6896 390.369 49.4964 391.716 49.4964 393.761C49.4964 395.79 50.6896 397.136 52.4624 397.136ZM52.4624 396.233C51.1158 396.233 50.5021 395.074 50.5021 393.761C50.5021 392.449 51.1158 391.273 52.4624 391.273C53.8089 391.273 54.4226 392.449 54.4226 393.761C54.4226 395.074 53.8089 396.233 52.4624 396.233ZM59.435 397.136C60.6964 397.136 61.1225 396.352 61.3441 395.994H61.4634V397H62.435V388.273H61.4293V391.494H61.3441C61.1225 391.153 60.7305 390.369 59.4521 390.369C57.7987 390.369 56.6566 391.682 56.6566 393.744C56.6566 395.824 57.7987 397.136 59.435 397.136ZM59.5714 396.233C58.31 396.233 57.6623 395.125 57.6623 393.727C57.6623 392.347 58.293 391.273 59.5714 391.273C60.7987 391.273 61.4464 392.261 61.4464 393.727C61.4464 395.21 60.7816 396.233 59.5714 396.233ZM68.5415 394.324C68.5415 395.551 67.604 396.114 66.854 396.114C66.0188 396.114 65.4222 395.5 65.4222 394.545V390.455H64.4165V394.614C64.4165 396.284 65.3029 397.085 66.5302 397.085C67.5188 397.085 68.1665 396.557 68.4734 395.892H68.5415V397H69.5472V390.455H68.5415V394.324ZM74.2358 390.455H72.8381V388.886H71.8324V390.455H70.8438V391.307H71.8324V395.398C71.8324 396.54 72.7528 397.085 73.6051 397.085C73.9801 397.085 74.2188 397.017 74.3551 396.966L74.1506 396.062C74.0653 396.08 73.929 396.114 73.7074 396.114C73.2642 396.114 72.8381 395.977 72.8381 395.125V391.307H74.2358V390.455ZM78.3374 397.136C80.1101 397.136 81.3033 395.79 81.3033 393.761C81.3033 391.716 80.1101 390.369 78.3374 390.369C76.5646 390.369 75.3714 391.716 75.3714 393.761C75.3714 395.79 76.5646 397.136 78.3374 397.136ZM78.3374 396.233C76.9908 396.233 76.3771 395.074 76.3771 393.761C76.3771 392.449 76.9908 391.273 78.3374 391.273C79.6839 391.273 80.2976 392.449 80.2976 393.761C80.2976 395.074 79.6839 396.233 78.3374 396.233ZM87.4748 391.92C87.1594 390.991 86.4521 390.369 85.1566 390.369C83.7759 390.369 82.7532 391.153 82.7532 392.261C82.7532 393.165 83.2901 393.77 84.4918 394.051L85.5827 394.307C86.2433 394.46 86.5543 394.776 86.5543 395.227C86.5543 395.79 85.9577 396.25 85.0202 396.25C84.1978 396.25 83.6822 395.896 83.5032 395.193L82.5487 395.432C82.783 396.544 83.6992 397.136 85.0373 397.136C86.5586 397.136 87.5941 396.305 87.5941 395.176C87.5941 394.264 87.0231 393.689 85.8555 393.403L84.8839 393.165C84.1083 392.973 83.7589 392.713 83.7589 392.21C83.7589 391.648 84.3555 391.239 85.1566 391.239C86.0344 391.239 86.3967 391.724 86.5714 392.176L87.4748 391.92Z" fill="#343A3F"/>
<path d="M16 185.984V29.9812" stroke="#397EF3" stroke-width="5"/>
<path d="M16.5 0C7.9404 0 1 6.9404 1 15.5C1 24.0596 7.9404 31 16.5 31C25.0596 31 32 24.0596 32 15.5C32 6.9404 25.0596 0 16.5 0ZM23.1948 10.4383L15.9084 20.541C15.8065 20.6831 15.6723 20.7989 15.5167 20.8788C15.3612 20.9587 15.1889 21.0004 15.014 21.0004C14.8391 21.0004 14.6668 20.9587 14.5113 20.8788C14.3557 20.7989 14.2215 20.6831 14.1196 20.541L9.80525 14.5624C9.67377 14.379 9.80525 14.123 10.0301 14.123H11.6528C12.0057 14.123 12.3413 14.2925 12.5489 14.5831L15.0123 18.0015L20.4511 10.459C20.6587 10.1719 20.9908 9.99888 21.3472 9.99888H22.9699C23.1948 9.99888 23.3262 10.2549 23.1948 10.4383Z" fill="#397EF3"/>
<path d="M17.5 183C8.9404 183 2 189.94 2 198.5C2 207.06 8.9404 214 17.5 214C26.0596 214 33 207.06 33 198.5C33 189.94 26.0596 183 17.5 183ZM24.1948 193.438L16.9084 203.541C16.8065 203.683 16.6723 203.799 16.5167 203.879C16.3612 203.959 16.1889 204 16.014 204C15.8391 204 15.6668 203.959 15.5113 203.879C15.3557 203.799 15.2215 203.683 15.1196 203.541L10.8052 197.562C10.6738 197.379 10.8052 197.123 11.0301 197.123H12.6528C13.0057 197.123 13.3413 197.293 13.5489 197.583L16.0123 201.001L21.4511 193.459C21.6587 193.172 21.9908 192.999 22.3472 192.999H23.9699C24.1948 192.999 24.3262 193.255 24.1948 193.438Z" fill="#397EF3"/>
</svg>
