<svg width="308" height="245" viewBox="0 0 308 245" fill="none" xmlns="http://www.w3.org/2000/svg">
<g clip-path="url(#clip0)">
<path opacity="0.1" d="M180.631 41.4036C161.143 40.7257 142.578 34.4316 124.854 27.5441C107.13 20.6565 89.5749 13.0247 70.553 9.37606C58.3184 7.02898 44.3252 6.69756 34.4695 13.2597C24.9811 19.5869 21.9157 30.4787 20.2686 40.5961C19.0279 48.2068 18.2992 56.2152 21.6989 63.3408C24.0567 68.288 28.2453 72.4459 31.1391 77.2003C41.2176 93.6871 34.0961 114.018 23.1744 130.116C18.0553 137.67 12.1081 144.88 8.15742 152.912C4.2067 160.945 2.37587 170.161 5.83276 178.363C9.26254 186.498 17.432 192.596 26.279 196.889C44.253 205.612 65.4249 208.106 86.0849 209.519C131.804 212.65 177.765 211.294 223.604 209.938C240.57 209.435 257.607 208.926 274.295 206.302C283.564 204.843 293.131 202.532 299.861 196.946C308.4 189.857 310.517 177.85 304.796 168.962C295.193 154.051 268.661 150.348 261.94 134.344C258.249 125.537 262.043 115.727 267.409 107.556C278.924 90.0324 298.223 74.6574 299.24 54.6274C299.939 40.8673 290.658 27.0921 276.313 20.5812C261.278 13.7328 240.422 14.6005 229.335 25.896C217.91 37.535 197.837 42.0001 180.631 41.4036Z" fill="#397EF3"/>
<path d="M131.124 208.043L28.0556 207.54L17.8144 183.506L54.0274 180.876L47.7158 154.524L119.341 145.236L50.7542 121.379L56.8127 119.939L167.099 137.941L161.025 179.065L152.344 201.665L131.124 208.043Z" fill="#397EF3"/>
<path d="M29.6364 197.474C29.6364 197.474 35.96 196.461 39.7542 200.933C39.7542 200.933 36.9718 203.126 30.9855 200.089L29.6364 197.474Z" fill="#397EF3"/>
<path d="M28.974 197.375C28.974 197.375 24.939 202.343 26.9264 207.875C26.9264 207.875 30.2146 206.558 30.573 199.851L28.974 197.375Z" fill="#397EF3"/>
<path d="M25.3485 189.206C25.3485 189.206 27.8779 184.563 37.9957 191.062C37.9957 191.062 36.6466 194.184 32.178 193.931C27.7093 193.678 26.5289 191.653 25.3485 189.206Z" fill="#397EF3"/>
<path d="M24.6951 188.872C24.6951 188.872 19.4465 188.269 18.9376 200.291C18.9376 200.291 22.265 200.981 24.6288 197.178C26.9926 193.376 26.023 191.243 24.6951 188.872Z" fill="#397EF3"/>
<path d="M21.6387 179.282C21.6387 179.282 24.5897 171.099 35.2976 176.92C35.2976 176.92 32.8525 184.428 22.7348 182.066L21.6387 179.282Z" fill="#397EF3"/>
<path d="M18.3504 167.05C18.3504 167.05 23.9151 158.782 33.7799 166.447C33.7799 166.447 30.323 174.208 19.1935 169.99L18.3504 167.05Z" fill="#397EF3"/>
<path d="M17.17 155.408C17.17 155.408 23.6622 147.812 33.4306 155.408C33.4306 155.408 27.2757 162.072 17.17 157.348V155.408Z" fill="#397EF3"/>
<path d="M16.1582 144.1C16.1582 144.1 22.7347 136.17 32.0936 143.678C32.0936 143.678 24.6739 150.68 16.1582 145.956V144.1Z" fill="#397EF3"/>
<path d="M16.7484 134.06C16.7484 134.06 23.6742 123.853 32.4309 130.77C32.4309 130.77 25.0112 139.544 16.7484 136.001V134.06Z" fill="#397EF3"/>
<path d="M18.3504 122.334C18.3504 122.334 25.6857 112.211 34.2015 119.972C34.2015 119.972 25.5171 128.746 18.3504 124.19V122.334Z" fill="#397EF3"/>
<path d="M20.7955 111.852C20.7955 111.852 29.4799 102.338 37.0561 106.128C37.0561 106.128 28.0074 116.233 20.4161 114.377L20.7955 111.852Z" fill="#397EF3"/>
<path d="M23.8308 101.915C23.8308 101.915 33.8521 90.2615 39.6819 94.1542C39.6819 94.1542 32.2984 103.193 23.1201 104.097L23.8308 101.915Z" fill="#397EF3"/>
<path d="M28.2121 90.3909C28.2121 90.3909 36.9838 80.876 43.3917 83.2382C43.3917 83.2382 35.8878 93.1086 27.0348 93.3617L28.2121 90.3909Z" fill="#397EF3"/>
<path d="M32.178 79.611C32.178 79.611 41.8741 70.4998 46.0898 72.1027C46.0898 72.1027 39.0917 82.2262 31.7564 81.6357L32.178 79.611Z" fill="#397EF3"/>
<path d="M36.0564 69.6561C36.0564 69.6561 44.4035 58.7704 48.9595 59.614C48.9595 59.614 43.8976 69.3187 36.0564 70.7619V69.6561Z" fill="#397EF3"/>
<path d="M40.2661 56.2335C40.2661 56.2335 47.6436 47.8906 51.6305 47.9087C51.6305 47.9087 45.8068 59.0566 39.962 58.9542L40.2661 56.2335Z" fill="#397EF3"/>
<path d="M42.7593 47.2971L49.8869 29.9185C49.8869 29.9185 50.2422 45.6279 41.853 50.5209L42.7593 47.2971Z" fill="#397EF3"/>
<path d="M45.6532 28.1319C45.6532 28.1319 46.8336 13.6186 46.0748 12.4375C46.0748 12.4375 51.1698 24.5043 45.605 34.5434L45.6532 28.1319Z" fill="#397EF3"/>
<path d="M21.3616 179.089C21.3616 179.089 13.9721 174.506 9.18723 185.717C9.18723 185.717 15.7637 190.086 22.2318 181.948L21.3616 179.089Z" fill="#397EF3"/>
<path d="M18.1125 166.582C18.1125 166.582 9.04875 162.446 4.65236 174.151C4.65236 174.151 11.6535 178.972 18.9376 169.541L18.1125 166.582Z" fill="#397EF3"/>
<path d="M16.7485 156.103C16.7485 156.103 10.2563 148.508 0.487854 156.103C0.487854 156.103 6.64279 162.768 16.7485 158.044V156.103Z" fill="#397EF3"/>
<path d="M15.9354 144.1C15.9354 144.1 9.35888 136.17 0 143.678C0 143.678 7.41965 150.68 15.9354 145.956V144.1Z" fill="#397EF3"/>
<path d="M16.7484 134.35C16.7484 134.35 12.1353 122.916 2.10788 127.833C2.10788 127.833 7.52808 137.971 16.3389 136.248L16.7484 134.35Z" fill="#397EF3"/>
<path d="M18.9316 122.277C18.9316 122.277 14.3455 110.644 4.17657 116.037C4.17657 116.037 10.4038 126.7 18.4799 124.073L18.9316 122.277Z" fill="#397EF3"/>
<path d="M21.7741 111.909C21.7741 111.909 19.9673 99.1556 11.5359 98.0137C11.5359 98.0137 13.3246 111.463 20.6388 114.208L21.7741 111.909Z" fill="#397EF3"/>
<path d="M24.0447 101.94C24.0447 101.94 23.34 86.5739 16.3691 86.0376C16.3691 86.0376 16.6039 97.7007 23.2587 104.115L24.0447 101.94Z" fill="#397EF3"/>
<path d="M28.9349 89.9601C28.9349 89.9601 26.8572 77.1823 20.2024 75.6216C20.2024 75.6216 21.0275 87.9957 28.2755 93.0966L28.9349 89.9601Z" fill="#397EF3"/>
<path d="M32.9669 79.7163C32.9669 79.7163 32.8976 66.4051 28.8325 64.4497C28.8325 64.4497 26.3121 76.5015 31.7895 81.4156L32.9669 79.7163Z" fill="#397EF3"/>
<path d="M36.3665 69.5053C36.3665 69.5053 35.7974 55.7995 31.5877 53.8682C31.5877 53.8682 30.1483 64.7147 35.7372 70.4032L36.3665 69.5053Z" fill="#397EF3"/>
<path d="M40.8532 57.3271C40.8532 57.3271 40.8291 46.1792 37.8239 43.564C37.8239 43.564 34.8368 55.7754 39.2844 59.5687L40.8532 57.3271Z" fill="#397EF3"/>
<path d="M42.407 46.749L39.4832 28.1953C39.4832 28.1953 35.5114 43.3986 42.5456 50.0994L42.407 46.749Z" fill="#397EF3"/>
<path d="M42.9763 28.3068C42.9763 28.3068 35.4723 15.8332 35.6259 14.4473C35.6259 14.4473 36.4238 27.5204 45.864 34.0314L42.9763 28.3068Z" fill="#397EF3"/>
<path d="M43.8555 24.6219C43.8555 24.6219 36.7731 6.90584 33.5692 5.47168C33.5692 5.47168 43.6869 10.6178 44.4457 24.1157L43.8555 24.6219Z" fill="#397EF3"/>
<path d="M39.9258 59.0595L39.441 58.9119C45.4183 39.4091 46.9088 26.9747 43.6417 23.8563L43.988 23.4888C47.4539 26.7789 46.0476 39.0777 39.9258 59.0595Z" fill="#444053"/>
<path d="M23.4665 104.723L22.7498 104.467C23.3852 102.681 24.0687 100.867 24.7854 99.0802C31.0246 83.5214 36.3364 69.0473 39.7421 57.9356L40.3654 57.6343C36.9537 68.7671 31.7353 83.7956 25.49 99.3755C24.7763 101.129 24.0958 102.934 23.4665 104.723Z" fill="#444053"/>
<path d="M38.5467 212.069C38.4503 211.963 28.7632 201.047 22.009 182.412C18.0515 171.502 15.849 160.033 15.4837 148.432C15.02 133.931 18.0613 117.739 23.2707 103.03L23.8368 103.693C12.1413 136.706 16.7876 164.994 22.9515 182.03C29.6334 200.496 39.2121 211.291 39.3055 211.4L38.5467 212.069Z" fill="#444053"/>
<path d="M189.927 188.893C189.927 188.893 183.101 197.23 188.521 209.833L134.018 233.484L128.787 234.581L126.378 224.036L127.989 210.728V203.455L189.927 188.893Z" fill="#D5D6DB"/>
<path d="M17.8144 183.506L93.2516 169.746L193.209 185.678L131.124 208.043L17.8144 183.506Z" fill="#397EF3"/>
<path d="M17.8144 183.506L93.2516 169.746L193.209 185.678L131.124 208.043L17.8144 183.506Z" fill="#397EF3"/>
<path d="M17.8143 183.503C17.8143 183.503 10.759 196.877 18.8894 209.23L130.756 233.485C130.756 233.485 123.812 222.831 131.115 208.043L17.8143 183.503Z" fill="#397EF3"/>
<path opacity="0.1" d="M17.8143 183.503C17.8143 183.503 10.759 196.877 18.8894 209.23L130.756 233.485C130.756 233.485 123.812 222.831 131.115 208.043L17.8143 183.503Z" fill="black"/>
<path opacity="0.1" d="M21.1477 188.14C21.1477 188.14 17.1157 197.926 21.1477 204.259V188.14Z" fill="black"/>
<path d="M130.756 233.484L193.209 206.82C193.209 206.82 196.702 207.573 194.444 210.134C192.185 212.695 131.961 236.045 131.961 236.045L18.8894 209.23L130.756 233.484Z" fill="#397EF3"/>
<path opacity="0.1" d="M130.756 233.484L193.209 206.82C193.209 206.82 196.702 207.573 194.444 210.134C192.185 212.695 131.961 236.045 131.961 236.045L18.8894 209.23L130.756 233.484Z" fill="black"/>
<path opacity="0.1" d="M125.637 210.737C125.637 210.737 119.615 217.968 125.637 228.814V210.737Z" fill="black"/>
<path opacity="0.1" d="M154.794 210.614L127.781 219.632L127.876 219.918L154.889 210.9L154.794 210.614Z" fill="black"/>
<path opacity="0.1" d="M160.205 209.717L127.772 222.057L127.879 222.339L160.312 209.999L160.205 209.717Z" fill="black"/>
<path opacity="0.1" d="M165.174 209.674L127.953 224.917L128.067 225.196L165.288 209.953L165.174 209.674Z" fill="black"/>
<path opacity="0.1" d="M170.577 208.368L128.388 227.438L128.512 227.712L170.701 208.643L170.577 208.368Z" fill="black"/>
<path opacity="0.1" d="M175.117 208.375L128.722 228.666L128.842 228.942L175.238 208.651L175.117 208.375Z" fill="black"/>
<path opacity="0.1" d="M185.046 206.688L129.421 230.727L129.541 231.003L185.166 206.964L185.046 206.688Z" fill="black"/>
<path opacity="0.3" d="M45.8399 184.976L98.8374 173.829L131.124 180.005L87.6959 194.015L45.8399 184.976Z" fill="white"/>
<path d="M193.209 185.678C193.209 185.678 195.949 186.784 194.341 188.492C192.733 190.201 131.115 208.043 131.115 208.043L193.209 185.678Z" fill="#397EF3"/>
<path d="M219.825 159.915C219.825 159.915 213.002 168.248 218.422 180.854L163.919 204.506L158.688 205.609L156.279 195.063L157.915 181.758V174.476L219.825 159.915Z" fill="#D5D6DB"/>
<path d="M47.7159 154.525L123.15 140.768L223.111 156.7L161.025 179.065L47.7159 154.525Z" fill="#FF9292"/>
<path d="M47.7038 154.524C47.7038 154.524 40.6455 167.899 48.7758 180.252L160.643 204.506C160.643 204.506 153.702 193.843 161.013 179.062L47.7038 154.524Z" fill="#FF9292"/>
<path opacity="0.1" d="M51.0462 159.162C51.0462 159.162 47.0173 168.945 51.0462 175.281V159.162Z" fill="black"/>
<path d="M160.655 204.506L223.111 177.842C223.111 177.842 226.601 178.595 224.342 181.156C222.084 183.717 161.859 207.067 161.859 207.067L48.7878 180.252L160.655 204.506Z" fill="#FF9292"/>
<path opacity="0.1" d="M160.655 204.506L223.111 177.842C223.111 177.842 226.601 178.595 224.342 181.156C222.084 183.717 161.859 207.067 161.859 207.067L48.7878 180.252L160.655 204.506Z" fill="#FF9292"/>
<path opacity="0.1" d="M155.536 181.758C155.536 181.758 149.513 188.989 155.536 199.836V181.758Z" fill="black"/>
<path opacity="0.1" d="M184.695 181.639L157.681 190.657L157.777 190.943L184.79 181.925L184.695 181.639Z" fill="black"/>
<path opacity="0.1" d="M190.109 180.741L157.677 193.081L157.784 193.362L190.216 181.022L190.109 180.741Z" fill="black"/>
<path opacity="0.1" d="M195.074 180.693L157.853 195.937L157.967 196.216L195.188 180.972L195.074 180.693Z" fill="black"/>
<path opacity="0.1" d="M200.481 179.388L158.291 198.458L158.415 198.732L200.605 179.663L200.481 179.388Z" fill="black"/>
<path opacity="0.1" d="M205.016 179.391L158.621 199.682L158.742 199.958L205.137 179.667L205.016 179.391Z" fill="black"/>
<path opacity="0.1" d="M214.948 177.703L159.323 201.742L159.442 202.019L215.067 177.98L214.948 177.703Z" fill="black"/>
<path opacity="0.45" d="M75.7413 155.998L128.739 144.85L161.025 151.027L117.597 165.037L75.7413 155.998Z" fill="white"/>
<path d="M223.111 156.7C223.111 156.7 225.848 157.805 224.243 159.511C222.638 161.216 161.025 179.062 161.025 179.062L223.111 156.7Z" fill="#FF9292"/>
<path d="M222.656 126.763C222.656 126.763 215.83 141.728 221.25 154.332L166.747 171.355L161.528 172.46L159.119 161.915L160.73 148.607V141.325L222.656 126.763Z" fill="#D5D6DB"/>
<path d="M50.5554 121.376L125.993 107.616L225.953 123.549L163.865 145.914L50.5554 121.376Z" fill="#397EF3"/>
<path d="M50.5554 121.373C50.5554 121.373 43.4881 134.747 51.6184 147.101L163.485 171.355C163.485 171.355 156.541 160.692 163.853 145.913L50.5554 121.373Z" fill="#397EF3"/>
<path opacity="0.1" d="M50.5554 121.373C50.5554 121.373 43.4881 134.747 51.6184 147.101L163.485 171.355C163.485 171.355 156.541 160.692 163.853 145.913L50.5554 121.373Z" fill="black"/>
<path opacity="0.1" d="M53.8889 126.01C53.8889 126.01 49.8568 135.796 53.8889 142.13V126.01Z" fill="black"/>
<path d="M163.497 171.355L225.95 151.319C225.95 151.319 229.443 152.072 227.185 154.633C224.926 157.194 164.702 173.916 164.702 173.916L51.6305 147.101L163.497 171.355Z" fill="#397EF3"/>
<path opacity="0.1" d="M163.497 171.355L225.95 151.319C225.95 151.319 229.443 152.072 227.185 154.633C224.926 157.194 164.702 173.916 164.702 173.916L51.6305 147.101L163.497 171.355Z" fill="#FF9292"/>
<path opacity="0.1" d="M158.378 148.607C158.378 148.607 152.356 155.838 158.378 166.685V148.607Z" fill="black"/>
<path opacity="0.1" d="M187.538 148.487L160.525 157.505L160.62 157.791L187.634 148.773L187.538 148.487Z" fill="black"/>
<path opacity="0.1" d="M192.951 147.59L160.518 159.93L160.625 160.212L193.058 147.872L192.951 147.59Z" fill="black"/>
<path opacity="0.1" d="M197.913 147.544L160.692 162.788L160.806 163.067L198.027 147.823L197.913 147.544Z" fill="black"/>
<path opacity="0.1" d="M203.324 146.237L161.134 165.306L161.258 165.581L203.448 146.512L203.324 146.237Z" fill="black"/>
<path opacity="0.1" d="M207.861 146.242L161.465 166.533L161.586 166.809L207.981 146.518L207.861 146.242Z" fill="black"/>
<path opacity="0.1" d="M217.791 144.557L162.166 168.596L162.286 168.872L217.911 144.834L217.791 144.557Z" fill="black"/>
<path opacity="0.3" d="M78.5809 122.847L131.578 111.699L163.865 117.875L120.437 131.885L78.5809 122.847Z" fill="white"/>
<path d="M225.95 123.548C225.95 123.548 228.69 124.654 227.082 126.362C225.474 128.071 163.865 145.913 163.865 145.913L225.95 123.548Z" fill="#397EF3"/>
<path d="M93.4745 32.0876C93.4745 32.0876 82.0318 31.3976 83.3688 39.4301C83.3688 39.4301 83.1008 40.8492 84.3866 41.494C84.3866 41.494 84.4076 40.8914 85.5609 41.0993C85.9725 41.17 86.3911 41.1903 86.8076 41.1595C87.369 41.1211 87.9027 40.9011 88.3283 40.5328C88.3283 40.5328 91.5473 39.2011 92.8 33.9345C92.8 33.9345 93.7274 32.7866 93.7033 32.4913L91.7641 33.3169C91.7641 33.3169 92.4236 34.7119 91.9056 35.8718C91.9056 35.8718 91.8424 33.3681 91.469 33.4253C91.3937 33.4253 90.4663 33.9104 90.4663 33.9104C90.4663 33.9104 91.6015 36.3418 90.7433 38.1074C90.7433 38.1074 91.0685 35.1126 90.1109 34.0852L88.7498 34.8806C88.7498 34.8806 90.0778 37.3904 89.1774 39.4392C89.1774 39.4392 89.4093 36.2967 88.4638 35.0734L87.2292 36.0375C87.2292 36.0375 88.4788 38.5112 87.717 40.2105C87.717 40.2105 87.6176 36.5528 86.9642 36.2756C86.9642 36.2756 85.8831 37.2277 85.7205 37.6193C85.7205 37.6193 86.5757 39.4271 86.0427 40.3641C86.0427 40.3641 85.7205 37.9267 85.4405 37.9146C85.4405 37.9146 84.3655 39.5295 84.2541 40.6262C84.3061 39.6038 84.6249 38.6128 85.1785 37.7519C84.5589 37.8692 83.9873 38.1656 83.5344 38.6046C83.5344 38.6046 83.7 37.4627 85.4465 37.3632C85.4465 37.3632 86.3348 36.137 86.5727 36.0647C86.5727 36.0647 84.8352 35.917 83.7843 36.384C83.7843 36.384 84.7118 35.3084 86.8889 35.7814L88.0934 34.7872C88.0934 34.7872 85.8109 34.4859 84.8413 34.8203C84.8413 34.8203 85.9584 33.8682 88.4216 34.5612L89.7496 33.7688C89.7496 33.7688 87.8013 33.35 86.642 33.5007C86.642 33.5007 87.8645 32.8408 90.138 33.5549L91.0836 33.1301C91.0836 33.1301 89.6592 32.8499 89.2407 32.8047C88.8221 32.7595 88.801 32.645 88.801 32.645C89.7051 32.4964 90.6325 32.6007 91.481 32.9463C91.481 32.9463 93.5136 32.2141 93.4745 32.0876Z" fill="#397EF3"/>
<path opacity="0.1" d="M254.454 65.1037C254.454 65.1037 243.012 64.4137 244.349 72.4462C244.349 72.4462 244.081 73.8653 245.367 74.5101C245.367 74.5101 245.388 73.9075 246.541 74.1154C246.953 74.1845 247.371 74.2047 247.788 74.1757C248.344 74.1347 248.872 73.9148 249.293 73.549C249.293 73.549 252.515 72.2173 253.765 66.9506C253.765 66.9506 254.692 65.8027 254.668 65.5074L252.735 66.333C252.735 66.333 253.394 67.728 252.877 68.888C252.877 68.888 252.813 66.3842 252.443 66.4414C252.368 66.4414 251.437 66.9265 251.437 66.9265C251.437 66.9265 252.572 69.358 251.717 71.1236C251.717 71.1236 252.042 68.1287 251.082 67.1013L249.721 67.8967C249.721 67.8967 251.049 70.4065 250.148 72.4553C250.148 72.4553 250.38 69.3128 249.435 68.0895L248.203 69.0537C248.203 69.0537 249.45 71.5273 248.688 73.2266C248.688 73.2266 248.589 69.5689 247.935 69.2917C247.935 69.2917 246.857 70.2438 246.692 70.6355C246.692 70.6355 247.547 72.4432 247.017 73.3802C247.017 73.3802 246.692 70.9428 246.414 70.9307C246.414 70.9307 245.339 72.5457 245.228 73.6424C245.28 72.6195 245.6 71.6283 246.156 70.768C245.535 70.8856 244.963 71.182 244.508 71.6207C244.508 71.6207 244.677 70.4788 246.42 70.3794C246.42 70.3794 247.309 69.1531 247.547 69.0778C247.547 69.0778 245.812 68.9331 244.758 69.4002C244.758 69.4002 245.686 68.3245 247.863 68.7976L249.067 67.8033C249.067 67.8033 246.782 67.502 245.815 67.8364C245.815 67.8364 246.929 66.8843 249.396 67.5773L250.721 66.7849C250.721 66.7849 248.772 66.3661 247.613 66.5168C247.613 66.5168 248.835 65.8569 251.109 66.571L252.058 66.1462C252.058 66.1462 250.63 65.866 250.212 65.8208C249.793 65.7756 249.772 65.6611 249.772 65.6611C250.676 65.5106 251.604 65.615 252.452 65.9624C252.452 65.9624 254.491 65.2302 254.454 65.1037Z" fill="#397EF3"/>
<path opacity="0.1" d="M112.746 81.711C112.746 81.711 107.76 71.3675 101.412 76.4654C101.412 76.4654 100.042 76.9234 100.108 78.3606C100.108 78.3606 100.635 78.0864 101.012 79.1952C101.152 79.5871 101.338 79.9613 101.566 80.31C101.874 80.7826 102.327 81.1422 102.857 81.3344C102.857 81.3344 105.589 83.4977 110.795 82.0213C110.795 82.0213 112.249 82.2714 112.487 82.0966L110.825 80.8101C110.825 80.8101 109.922 82.0665 108.663 82.178C108.663 82.178 110.819 80.9035 110.587 80.6082C110.539 80.548 109.684 79.9665 109.684 79.9665C109.684 79.9665 108.115 82.1448 106.158 82.2563C106.158 82.2563 108.928 81.0813 109.356 79.7405L108.001 78.9391C108.001 78.9391 106.456 81.3253 104.231 81.5362C104.231 81.5362 107.085 80.2075 107.69 78.7854L106.251 78.1828C106.251 78.1828 104.7 80.4787 102.845 80.6444C102.845 80.6444 105.989 78.7734 105.911 78.0653C105.911 78.0653 104.553 77.5893 104.131 77.6345C104.131 77.6345 102.981 79.2584 101.897 79.2584C101.897 79.2584 103.863 77.7851 103.743 77.5471C103.743 77.5471 101.81 77.3964 100.792 77.8484C101.709 77.3923 102.729 77.1845 103.752 77.2458C103.346 76.7619 102.808 76.4069 102.204 76.2244C102.204 76.2244 103.282 75.8147 104.219 77.288C104.219 77.288 105.724 77.4657 105.902 77.6375C105.902 77.6375 105.182 76.0527 104.264 75.3627C104.264 75.3627 105.655 75.6429 106.29 77.7731L107.751 78.3515C107.751 78.3515 106.911 76.2063 106.137 75.5284C106.137 75.5284 107.51 76.0376 108.109 78.5414L109.446 79.3127C109.446 79.3127 108.865 77.4055 108.166 76.4685C108.166 76.4685 109.338 77.2157 109.822 79.5477L110.656 80.1684C110.656 80.1684 110.205 78.7854 110.054 78.3998C109.904 78.0141 109.979 77.9358 109.979 77.9358C110.552 78.6511 110.915 79.5117 111.027 80.4214C111.027 80.4214 112.638 81.8014 112.746 81.711Z" fill="#397EF3"/>
<path opacity="0.1" d="M228.311 50.4908C228.311 50.4908 223.327 40.1473 216.977 45.2452C216.977 45.2452 215.61 45.7032 215.673 47.1404C215.673 47.1404 216.203 46.8692 216.576 47.975C216.717 48.3685 216.904 48.7438 217.133 49.0928C217.44 49.5646 217.893 49.9232 218.422 50.1141C218.422 50.1141 221.156 52.2774 226.36 50.8041C226.36 50.8041 227.814 51.0512 228.055 50.8764L226.402 49.5869C226.402 49.5869 225.498 50.8463 224.243 50.9578C224.243 50.9578 226.396 49.6803 226.164 49.385C226.116 49.3248 225.261 48.7433 225.261 48.7433C225.261 48.7433 223.695 50.9216 221.734 51.0331C221.734 51.0331 224.508 49.858 224.935 48.5203L223.559 47.7249C223.559 47.7249 222.017 50.1081 219.789 50.322C219.789 50.322 222.644 48.9903 223.252 47.5682L221.81 46.9656C221.81 46.9656 220.259 49.2645 218.407 49.4272C218.407 49.4272 221.548 47.5562 221.469 46.8511C221.469 46.8511 220.114 46.3721 219.693 46.4203C219.693 46.4203 218.543 48.0412 217.455 48.0412C217.455 48.0412 219.425 46.5679 219.304 46.3299C219.304 46.3299 217.371 46.1792 216.35 46.6312C217.267 46.1749 218.288 45.9672 219.31 46.0286C218.906 45.5444 218.369 45.1893 217.766 45.0072C217.766 45.0072 218.844 44.5974 219.78 46.0708C219.78 46.0708 221.286 46.2516 221.463 46.4233C221.463 46.4233 220.744 44.8355 219.822 44.1455C219.822 44.1455 221.213 44.4287 221.849 46.5709L223.312 47.1494C223.312 47.1494 222.472 45.0012 221.698 44.3233C221.698 44.3233 223.071 44.8325 223.668 47.3362L225.008 48.1075C225.008 48.1075 224.423 46.2033 223.725 45.2633C223.725 45.2633 224.899 46.0105 225.381 48.3425L226.215 48.9632C226.215 48.9632 225.766 47.5803 225.613 47.1946C225.459 46.8089 225.538 46.7336 225.538 46.7336C226.109 47.4496 226.47 48.31 226.583 49.2193C226.583 49.2193 228.218 50.5872 228.311 50.4908Z" fill="#397EF3"/>
<path opacity="0.1" d="M244.237 101.654C244.237 101.654 239.254 91.3072 232.894 96.4051C232.894 96.4051 231.527 96.863 231.59 98.3002C231.59 98.3002 232.12 98.029 232.494 99.1348C232.633 99.5282 232.819 99.9035 233.048 100.253C233.355 100.724 233.807 101.083 234.336 101.274C234.336 101.274 237.071 103.44 242.277 101.964C242.277 101.964 243.728 102.214 243.969 102.036L242.307 100.75C242.307 100.75 241.404 102.009 240.145 102.121C240.145 102.121 242.298 100.843 242.066 100.548C242.018 100.488 241.163 99.9061 241.163 99.9061C241.163 99.9061 239.597 102.084 237.637 102.199C237.637 102.199 240.41 101.021 240.838 99.6831L239.48 98.8817C239.48 98.8817 237.938 101.268 235.71 101.479C235.71 101.479 238.564 100.147 239.172 98.725L237.73 98.1224C237.73 98.1224 236.179 100.418 234.327 100.584C234.327 100.584 237.471 98.713 237.393 98.0049C237.393 98.0049 236.035 97.5259 235.613 97.5741C235.613 97.5741 234.463 99.195 233.376 99.195C233.376 99.195 235.345 97.7217 235.225 97.4837C235.225 97.4837 233.292 97.3331 232.271 97.785C233.189 97.329 234.211 97.1213 235.234 97.1824C234.829 96.6974 234.291 96.3422 233.686 96.161C233.686 96.161 234.764 95.7482 235.701 97.2246C235.701 97.2246 237.206 97.4023 237.384 97.5741C237.384 97.5741 236.664 95.9893 235.746 95.2963C235.746 95.2963 237.137 95.5795 237.772 97.7217L239.233 98.3002C239.233 98.3002 238.393 96.152 237.619 95.4771C237.619 95.4771 238.992 95.9833 239.588 98.49L240.928 99.2583C240.928 99.2583 240.344 97.3541 239.645 96.4141C239.645 96.4141 240.82 97.1613 241.304 99.4963L242.139 100.099C242.139 100.099 241.687 98.716 241.536 98.3303C241.386 97.9447 241.461 97.8694 241.461 97.8694C242.034 98.5845 242.395 99.4453 242.506 100.355C242.506 100.355 244.144 101.744 244.237 101.654Z" fill="#397EF3"/>
<path opacity="0.1" d="M60.8117 236.262C64.6351 236.262 67.7346 235.916 67.7346 235.488C67.7346 235.061 64.6351 234.714 60.8117 234.714C56.9884 234.714 53.8889 235.061 53.8889 235.488C53.8889 235.916 56.9884 236.262 60.8117 236.262Z" fill="#397EF3"/>
<path opacity="0.1" d="M15.4295 223.102C19.2528 223.102 22.3523 222.755 22.3523 222.328C22.3523 221.9 19.2528 221.553 15.4295 221.553C11.6061 221.553 8.50668 221.9 8.50668 222.328C8.50668 222.755 11.6061 223.102 15.4295 223.102Z" fill="#397EF3"/>
<path opacity="0.1" d="M272.675 225.964C276.499 225.964 279.598 225.617 279.598 225.19C279.598 224.762 276.499 224.416 272.675 224.416C268.852 224.416 265.753 224.762 265.753 225.19C265.753 225.617 268.852 225.964 272.675 225.964Z" fill="#397EF3"/>
<path opacity="0.1" d="M215.068 222.207C218.891 222.207 221.99 221.86 221.99 221.433C221.99 221.005 218.891 220.658 215.068 220.658C211.244 220.658 208.145 221.005 208.145 221.433C208.145 221.86 211.244 222.207 215.068 222.207Z" fill="#397EF3"/>
<path opacity="0.1" d="M177.801 240.532C182.323 240.532 185.988 239.902 185.988 239.125C185.988 238.348 182.323 237.718 177.801 237.718C173.279 237.718 169.613 238.348 169.613 239.125C169.613 239.902 173.279 240.532 177.801 240.532Z" fill="#397EF3"/>
<path d="M181.453 224.982C181.453 224.982 170.053 230.875 175.943 237.817C175.943 237.817 176.497 239.324 178.099 239.218C178.099 239.218 177.78 238.634 179.002 238.167C179.437 237.998 179.851 237.779 180.234 237.513C180.751 237.155 181.138 236.637 181.336 236.039C181.336 236.039 183.667 232.918 181.86 227.142C181.86 227.142 182.095 225.509 181.89 225.244L180.505 227.145C180.505 227.145 181.935 228.106 182.101 229.519C182.101 229.519 180.595 227.148 180.294 227.41C180.228 227.465 179.607 228.45 179.607 228.45C179.607 228.45 182.089 230.134 182.272 232.321C182.272 232.321 180.875 229.257 179.367 228.82L178.502 230.363C178.502 230.363 181.212 232.014 181.514 234.497C181.514 234.497 179.939 231.348 178.331 230.713L177.695 232.343C177.695 232.343 180.309 234.006 180.55 236.073C180.55 236.073 178.364 232.617 177.578 232.725C177.578 232.725 177.084 234.256 177.15 234.729C177.15 234.729 178.996 235.964 179.029 237.178C179.029 237.178 177.325 235.024 177.063 235.166C177.063 235.166 176.955 237.332 177.478 238.459C177.478 238.459 176.575 236.85 176.723 235.166C176.195 235.633 175.815 236.245 175.63 236.925C175.63 236.925 175.139 235.735 176.756 234.638C176.756 234.638 176.909 232.954 177.096 232.746C177.096 232.746 175.347 233.602 174.603 234.65C174.603 234.65 174.877 233.087 177.25 232.309L177.852 230.658C177.852 230.658 175.479 231.665 174.747 232.55C174.747 232.55 175.274 230.999 178.039 230.255L178.858 228.748C178.858 228.748 176.75 229.459 175.72 230.255C175.72 230.255 176.518 228.92 179.111 228.305L179.776 227.356C179.776 227.356 178.246 227.901 177.819 228.097C177.391 228.293 177.307 228.197 177.307 228.197C178.088 227.535 179.038 227.103 180.05 226.949C180.05 226.949 181.559 225.084 181.453 224.982Z" fill="#397EF3"/>
<path d="M215.291 113.675C213.321 108.321 202.481 107.818 197.777 109.183C194.435 110.156 187.389 111.253 183.625 111.804L183.381 111.572C183.868 111.428 183.881 111.072 183.82 110.545C183.785 109.85 183.795 109.153 183.85 108.46C186.157 109.177 188.211 107.481 188.211 107.481C190.921 106.276 190.192 101.117 190.71 99.7073C191.098 98.6528 191.517 92.4401 191.704 89.3428H191.743L191.764 88.3033C191.791 87.8544 191.803 87.5923 191.803 87.5923C191.803 87.5923 192.068 80.0178 192.586 78.4842C193.068 77.0741 193.459 69.9696 193.519 68.8428C193.519 68.7464 193.519 68.6952 193.519 68.6952L193.48 68.0383C193.507 67.5593 193.519 67.026 193.516 66.4656C193.516 63.8895 193.248 60.6446 193.215 60.1203C193.215 60.045 193.215 59.9546 193.215 59.8462C193.236 58.7464 193.098 53.2388 188.415 51.1568C186.69 50.3855 184.615 49.4666 182.607 48.5717C182.089 44.0975 180.905 39.6474 181.008 35.1401C181.008 34.4622 181.068 33.7842 181.134 33.1093C181.134 33.3052 181.113 33.504 181.11 33.7119C181.11 34.1488 181.11 34.5887 181.11 35.0256C181.288 29.3884 183.417 23.721 183.218 18.2043C183.2 18.7437 183.161 19.286 183.11 19.8283C183.214 17.9623 183.018 16.0918 182.531 14.2875C182.351 13.6518 182.107 12.995 181.586 12.5701C181.094 12.228 180.529 12.0043 179.936 11.9163C178.511 11.5514 177.063 11.2817 175.603 11.1089C175.381 10.4291 175.051 9.78925 174.627 9.21373C171.574 5.01972 167.051 1.0788 161.703 0.174921C159.02 -0.277019 155.933 0.0995975 154.109 2.01884C153.918 2.18744 153.739 2.36862 153.573 2.56117C152.591 3.7332 152.169 5.27281 151.164 6.44183C151.097 6.52017 151.022 6.59248 150.95 6.6678C148.98 8.43037 145.912 8.79795 143.723 10.3797C143.337 10.6637 142.976 10.9791 142.642 11.3228C141.76 12.1974 140.969 13.1595 140.281 14.1941C139.296 15.5801 138.285 17.0233 137.971 18.6774C137.342 21.9916 139.597 25.1341 140.016 28.4694C140.949 35.9325 132.696 42.5549 134.259 49.9185C134.676 51.7275 135.596 53.3813 136.914 54.688C133.695 57.6045 130.955 60.4337 130.955 60.4337V60.6024H130.446L130.498 61.205H130.446L130.726 64.474L130.446 69.2345C130.446 69.2345 130.446 69.2857 130.446 69.3821V69.4062V69.5358C130.446 69.5358 130.446 69.587 130.446 69.6834H130.464C130.558 71.4279 130.928 77.7008 131.368 79.0235C131.886 80.5571 132.148 88.1316 132.148 88.1316C132.148 88.1316 132.72 98.8366 133.244 100.253C133.768 101.669 133.024 106.812 135.743 108.026C136.539 108.637 137.48 109.027 138.474 109.159C138.336 110.286 138.423 111.102 138.872 111.358C139.064 111.471 139.281 111.534 139.504 111.539C139.32 111.813 139.156 112.1 139.013 112.398C137.934 112.285 136.873 112.035 135.857 111.654C132.937 110.448 123.243 107.737 120.428 109.644C117.612 111.551 110.837 113.281 113.966 120.958C117.095 128.635 118.552 128.827 118.552 128.827C119.515 129.527 120.36 130.376 121.054 131.343C121.994 132.756 130.747 135.989 132.937 135.989C133.867 135.975 134.798 136.021 135.722 136.128C135.722 136.128 133.346 138.213 133.662 139.424C133.978 140.635 132.94 150.331 132.94 150.331C132.94 150.331 135.349 152.759 136.378 149.574L136.415 149.623C136.607 149.885 137.649 151.069 139.609 149.574C140.412 148.965 141.264 148.425 142.157 147.96L151.648 146.616C152.638 146.554 153.63 146.547 154.62 146.595C156.126 146.718 157.605 145.826 158.535 145.136C160.501 145.884 162.712 146.7 163.763 146.998C165.894 147.601 175.693 150.231 177.985 149.409C178.461 149.219 178.884 148.917 179.219 148.529L181.405 148.598L180.381 148.803C180.381 148.803 182.375 148.836 185.085 148.872L184.971 148.939L188.37 148.909C193.345 148.954 198.934 148.969 199.668 148.803C200.819 148.547 206.796 148.728 208.557 148.803H209.048C209.048 148.803 215.616 147.493 212.906 140.825C210.822 135.703 204.417 134.214 201.574 133.805C202.375 133.645 203.065 133.522 203.523 133.449C205.507 133.148 209.361 131.34 209.675 130.722C209.988 130.105 213.219 128.312 214.053 127.291C214.887 126.269 217.269 119.029 215.291 113.675ZM160.893 128.659L160.571 128.764L160.354 128.836L159.938 129.246C159.607 129.023 159.252 128.788 158.881 128.547C159.535 128.586 160.206 128.625 160.893 128.659Z" fill="url(#paint0_linear)"/>
<path d="M180.092 96.89C180.092 96.89 184.699 108.942 187.319 107.737C189.939 106.531 189.228 101.409 189.728 100.005C190.228 98.6014 190.782 87.9536 190.782 87.9536C190.782 87.9536 191.035 80.4213 191.535 78.8967C191.998 77.4957 192.375 70.4304 192.438 69.3186C192.438 69.2222 192.438 69.171 192.438 69.171L191.941 60.4335L189.129 59.7314L182.607 62.1418L181.703 67.303L181.351 69.3186L181.2 70.1773L180.092 96.89Z" fill="#BE6F72"/>
<path opacity="0.1" d="M181.61 94.8716C181.61 94.8716 186.006 98.472 187.331 98.7884C188.656 99.1048 189.469 101.913 189.469 101.913" fill="black"/>
<path d="M144.063 97.4173C144.063 97.4173 139.456 109.469 136.836 108.264C134.216 107.059 134.927 101.937 134.427 100.533C133.927 99.1287 133.373 88.481 133.373 88.481C133.373 88.481 133.12 80.9486 132.62 79.4241C132.157 78.0231 131.78 70.9577 131.717 69.846C131.717 69.7495 131.717 69.6983 131.717 69.6983L132.217 60.9608L135.029 60.2588L141.552 62.6691L142.455 67.8303L142.807 69.846L142.958 70.7046L144.063 97.4173Z" fill="#BE6F72"/>
<path d="M174.064 32.9224H163.78V48.9603H174.064V32.9224Z" fill="#3E373A"/>
<path opacity="0.1" d="M174.064 32.9224H163.78V48.9603H174.064V32.9224Z" fill="black"/>
<path d="M142.256 109.421C142.256 109.421 138.742 113.286 140.046 113.988C141.35 114.69 149.784 127.848 149.784 127.848C149.784 127.848 177.488 131.261 182.712 126.139C187.936 121.017 187.831 111.867 187.831 111.867C187.831 111.867 183.633 112.771 183.176 112.28C182.718 111.789 180.204 109.421 180.204 109.421C180.204 109.421 144.665 107.263 142.256 109.421Z" fill="#4B4B5B"/>
<path opacity="0.02" d="M142.256 109.421C142.256 109.421 138.742 113.286 140.046 113.988C141.35 114.69 149.784 127.848 149.784 127.848C149.784 127.848 177.488 131.261 182.712 126.139C187.936 121.017 187.831 111.867 187.831 111.867C187.831 111.867 183.633 112.771 183.176 112.28C182.718 111.789 180.204 109.421 180.204 109.421C180.204 109.421 144.665 107.263 142.256 109.421Z" fill="black"/>
<path d="M192.128 60.5601L183.095 67.7912L180.363 67.99L179.361 68.0623L162.519 69.2976L145.054 68.0202L142.455 67.8303L139.143 67.5893L132.217 60.9608C132.217 60.9608 137.119 55.7063 141.413 52.1601C143.105 50.759 144.704 49.6262 145.87 49.1803L146.068 49.111C146.801 48.825 147.456 48.3685 147.978 47.7793C151.368 44.2812 154.503 35.6492 154.503 35.6492C154.503 35.6492 169.46 27.918 167.653 38.0595C165.846 48.2011 174.377 45.6943 174.377 45.6943L177.189 46.9778L178.301 47.487L181.134 48.7856L187.527 51.7202C192.544 54.0311 192.128 60.5601 192.128 60.5601Z" fill="#BE6F72"/>
<path opacity="0.1" d="M161.817 43.9078C169.246 43.9078 175.268 37.8821 175.268 30.449C175.268 23.0159 169.246 16.9902 161.817 16.9902C154.388 16.9902 148.366 23.0159 148.366 30.449C148.366 37.8821 154.388 43.9078 161.817 43.9078Z" fill="black"/>
<path opacity="0.1" d="M192.149 70.1472H131.717C131.717 70.0508 131.717 69.9995 131.717 69.9995L132.217 61.262C132.217 61.262 137.119 56.0075 141.413 52.4612L179.354 50.9548L181.119 49.0928L187.512 52.0274C192.532 54.3353 192.128 60.8643 192.128 60.8643C192.128 60.8643 192.815 68.4298 192.149 70.1472Z" fill="black"/>
<path d="M192.149 69.8459H131.717C131.717 69.7495 131.717 69.6983 131.717 69.6983L132.217 60.9608C132.217 60.9608 137.119 55.7062 141.413 52.16L179.354 50.6535L181.119 48.7915L187.512 51.7261C192.532 54.034 192.128 60.5631 192.128 60.5631C192.128 60.5631 192.815 68.1286 192.149 69.8459Z" fill="#E7C7CA"/>
<path opacity="0.1" d="M152.13 45.3449C152.13 45.3449 161.664 57.4991 174.362 45.0948C187.06 32.6905 175.768 72.7626 175.768 72.7626L148.366 76.0166L152.13 45.3449Z" fill="black"/>
<path d="M152.13 45.9474C152.13 45.9474 161.664 58.1016 174.362 45.6973C187.06 33.2931 175.768 73.3651 175.768 73.3651L148.366 76.6191L152.13 45.9474Z" fill="#E7C7CA"/>
<path opacity="0.1" d="M178.286 48.0806L179.294 63.4737L180.375 68.5957L181.2 72.5125C181.2 72.5125 183.308 102.642 182.706 104.148C182.104 105.655 183.007 106.86 183.134 107.661C183.26 108.463 183.007 110.476 183.106 111.379C183.206 112.283 183.106 112.684 180.8 112.362C178.493 112.039 175.277 111.479 175.277 111.479C175.277 111.479 167.147 112.081 164.338 111.078C161.528 110.075 156.207 110.072 156.207 110.072C156.207 110.072 148.176 110.274 145.569 109.972C142.961 109.671 141.552 113.187 139.847 112.181C138.143 111.175 141.853 101.437 143.057 98.6227C144.262 95.8086 141.452 88.68 141.452 88.68L145.066 68.6228L145.87 64.0763V49.7829L146.068 49.7136C146.801 49.4276 147.456 48.9711 147.978 48.3819L148.881 62.7657L177.186 63.772V47.5835" fill="black"/>
<path d="M178.286 47.4781L179.294 62.8712L180.375 67.9932L181.2 71.91C181.2 71.91 183.308 102.039 182.706 103.546C182.104 105.052 183.007 106.257 183.134 107.059C183.26 107.86 183.007 109.873 183.106 110.777C183.206 111.681 183.106 112.081 180.8 111.759C178.493 111.437 175.277 110.876 175.277 110.876C175.277 110.876 167.147 111.479 164.338 110.476C161.528 109.472 156.207 109.469 156.207 109.469C156.207 109.469 148.176 109.671 145.569 109.37C142.961 109.069 141.552 112.585 139.847 111.578C138.143 110.572 141.853 100.834 143.057 98.0201C144.262 95.206 141.452 88.0774 141.452 88.0774L145.066 68.0203L145.87 63.4738V49.1804L146.068 49.1111C146.801 48.8251 147.456 48.3686 147.978 47.7794L148.881 62.1631L177.186 63.1695V46.981" fill="#E7C7CA"/>
<path opacity="0.1" d="M181.541 15.3539C181.369 14.7242 181.131 14.0704 180.637 13.6485C180.166 13.3097 179.621 13.0868 179.047 12.9977C177.674 12.6364 176.278 12.3686 174.868 12.1963C174.666 11.5273 174.362 10.8939 173.964 10.3192C171.013 6.14934 166.647 2.21746 161.51 1.32865C158.821 0.861642 155.704 1.28044 153.982 3.40155C153.036 4.56755 152.63 6.11319 151.675 7.25811C149.836 9.48165 146.514 9.75583 144.195 11.4762C142.958 12.3801 142.061 13.6907 141.184 14.9622C140.236 16.3391 139.26 17.7733 138.959 19.4183C138.357 22.7054 140.528 25.8389 140.928 29.1561C141.832 36.577 133.882 43.1603 135.385 50.4817C136.261 54.751 140.203 57.7579 144.28 59.2825C145.716 59.8218 147.357 60.3581 148.029 61.738C148.33 62.3406 148.381 63.0366 148.664 63.6452C149.616 65.6759 152.744 65.7543 154.425 64.2749C156.105 62.7956 156.635 60.4033 156.834 58.1707C157.641 48.4208 153.738 38.7885 154.193 29.0145C154.328 26.0588 155.159 22.7054 157.806 21.3677C161.369 19.5599 165.653 22.5729 169.574 21.9974C171.429 26.5142 171.823 31.4992 170.7 36.2516C170.077 38.8518 168.999 41.3736 168.921 44.0551C168.803 48.1376 171.004 51.8676 172.908 55.4771C173.316 56.1521 173.589 56.9002 173.712 57.6796C173.742 58.4704 173.594 59.2579 173.281 59.9845C172.206 62.8799 170.351 65.5675 170.14 68.6497C170.078 69.0095 170.159 69.3792 170.366 69.6801C170.578 69.881 170.852 70.0041 171.143 70.0296C174.395 70.587 177.208 67.7036 178.795 64.8082C180.564 61.6102 181.595 58.0564 181.812 54.4075C182.14 48.2732 179.942 42.2383 180.077 36.0979C180.234 29.117 183.387 22.0878 181.541 15.3539Z" fill="black"/>
<path d="M181.842 15.0526C181.67 14.4229 181.432 13.7691 180.938 13.3473C180.467 13.0085 179.922 12.7855 179.348 12.6965C177.975 12.3351 176.579 12.0673 175.169 11.895C174.968 11.226 174.663 10.5927 174.266 10.018C171.315 5.84808 166.948 1.91619 161.811 1.02738C159.122 0.560372 156.005 0.97917 154.283 3.10028C153.338 4.26628 152.931 5.81192 151.976 6.95684C150.137 9.18039 146.815 9.45456 144.497 11.175C143.259 12.0788 142.362 13.3895 141.485 14.6609C140.537 16.0378 139.561 17.472 139.26 19.1171C138.658 22.4042 140.829 25.5376 141.229 28.8549C142.133 36.2757 134.183 42.859 135.686 50.1804C136.562 54.4498 140.504 57.4567 144.581 58.9812C146.017 59.5205 147.658 60.0568 148.33 61.4368C148.631 62.0394 148.682 62.7353 148.965 63.344C149.917 65.3747 153.045 65.453 154.726 63.9737C156.406 62.4943 156.936 60.102 157.135 57.8695C157.942 48.1196 154.039 38.4872 154.494 28.7133C154.629 25.7576 155.46 22.4042 158.107 21.0664C161.67 19.2587 165.955 22.2716 169.875 21.6961C171.73 26.2129 172.124 31.198 171.001 35.9503C170.378 38.5505 169.3 41.0723 169.222 43.7538C169.104 47.8364 171.306 51.5664 173.209 55.1759C173.617 55.8509 173.89 56.5989 174.013 57.3783C174.043 58.1692 173.895 58.9567 173.582 59.6832C172.507 62.5787 170.652 65.2662 170.441 68.3484C170.38 68.7082 170.461 69.078 170.667 69.3789C170.879 69.5797 171.153 69.7029 171.444 69.7284C174.696 70.2858 177.509 67.4024 179.096 64.507C180.865 61.309 181.896 57.7551 182.113 54.1063C182.441 47.972 180.243 41.937 180.378 35.7967C180.535 28.8157 183.688 21.7865 181.842 15.0526Z" fill="#3E373A"/>
<path d="M175.19 148.457L187.135 148.839L185.422 139.975L176.271 140.846L175.19 148.457Z" fill="#C3C7D9"/>
<path d="M212.204 127.447C211.4 128.451 208.289 130.258 207.988 130.861C207.687 131.464 203.974 133.271 202.065 133.573C200.156 133.874 194.137 135.182 193.031 135.884C192.239 136.39 185.883 137.993 181.706 138.881C180.575 139.149 179.43 139.355 178.276 139.499C176.47 139.599 156.698 132.871 156.698 132.871L160.51 128.954L160.721 128.882C161.799 128.517 166.78 126.833 169.544 126.031C172.657 125.127 176.271 121.413 176.271 121.413C176.271 121.413 181.589 119.605 182.293 119.403C182.998 119.201 180.487 112.374 180.487 112.374C180.487 112.374 192.029 110.771 196.546 109.412C201.062 108.053 211.502 108.556 213.408 113.88C215.314 119.204 213.02 126.444 212.204 127.447Z" fill="#4B4B5B"/>
<path d="M159.607 144.419C159.607 144.419 157.3 146.829 154.991 146.631C152.681 146.432 144.605 147.233 144.605 147.233C143.141 147.817 141.771 148.612 140.537 149.592C138.649 151.081 137.646 149.894 137.459 149.641L137.426 149.592C136.421 152.759 134.114 150.346 134.114 150.346C134.114 150.346 135.117 140.704 134.81 139.499C134.502 138.294 136.794 136.224 136.794 136.224L139.504 135.534L146.37 133.774L156.207 137.188L159.607 144.419Z" fill="#E7C7CA"/>
<path opacity="0.1" d="M139.492 135.534L137.459 149.641L137.426 149.592C136.421 152.759 134.114 150.346 134.114 150.346C134.114 150.346 135.117 140.704 134.81 139.499C134.502 138.294 136.794 136.224 136.794 136.224L139.492 135.534Z" fill="black"/>
<path opacity="0.1" d="M153.699 95.4077C153.699 95.4077 159.017 97.2156 163.636 95.4077H153.699Z" fill="black"/>
<path opacity="0.1" d="M171.854 98.8242C171.854 98.8242 174.061 99.927 175.768 98.8242H171.854Z" fill="black"/>
<path opacity="0.1" d="M171.854 101.44C171.854 101.44 175.566 101.937 176.271 100.934L171.854 101.44Z" fill="black"/>
<path opacity="0.1" d="M170.649 107.059C170.649 107.059 177.623 106.155 179.354 104.95L170.649 107.059Z" fill="black"/>
<path opacity="0.1" d="M149.369 104.95C149.369 104.95 153.283 107.158 156.195 107.059L149.369 104.95Z" fill="black"/>
<path opacity="0.1" d="M181.703 138.881C180.572 139.149 179.427 139.355 178.273 139.499C176.467 139.598 156.695 132.87 156.695 132.87L160.507 128.954L160.718 128.881C161.32 129.306 161.814 129.671 162.166 129.948C163.826 131.256 165.428 129.547 166.03 129.547C166.632 129.547 171.851 133.865 171.851 133.865C171.851 133.865 176.668 134.97 177.472 135.974C178.276 136.977 181.086 136.778 181.586 137.48C181.736 137.697 181.754 138.23 181.703 138.881Z" fill="black"/>
<path d="M144.605 112.783C144.605 112.783 139.733 113.064 136.923 111.88C134.114 110.695 124.779 107.963 122.069 109.882C119.359 111.801 112.834 113.497 115.845 121.132C118.856 128.767 120.262 128.966 120.262 128.966C121.194 129.665 122.007 130.509 122.671 131.467C123.575 132.874 132.006 136.085 134.114 136.085C136.222 136.085 139.935 136.085 145.153 139.701C150.371 143.316 155.09 143.72 155.09 143.72C155.09 143.72 161.715 146.432 163.777 147.034C165.84 147.637 175.265 150.246 177.476 149.445C179.686 148.643 181.089 143.618 181.089 143.618C181.089 143.618 182.092 139.098 181.589 138.396C181.086 137.694 178.277 137.893 177.476 136.89C176.675 135.887 171.854 134.781 171.854 134.781C171.854 134.781 166.647 130.46 166.045 130.46C165.443 130.46 163.841 132.166 162.182 130.861C158.876 128.412 155.404 126.197 151.79 124.233C147.978 122.223 144.605 112.783 144.605 112.783Z" fill="#4B4B5B"/>
<path opacity="0.1" d="M134.809 115.697C135.677 115.519 136.574 115.545 137.43 115.771C138.286 115.997 139.078 116.418 139.745 117.001C142.154 119.011 150.26 123.045 150.26 123.045" fill="black"/>
<path opacity="0.1" d="M195.04 115.57C195.04 115.57 184.299 117.197 182.293 119.406L195.04 115.57Z" fill="black"/>
<path d="M207.386 148.839H206.913C205.215 148.779 199.46 148.598 198.352 148.839C197.048 149.14 179.782 148.839 179.782 148.839L183.158 148.137C183.158 148.137 181.905 143.744 182.7 143.38C182.7 143.38 178.183 140.403 181.589 138.393C184.994 136.384 188.665 137.23 188.665 137.23L197.214 134.332L198.855 133.774C198.855 133.774 208.491 134.278 211.099 140.906C213.706 147.534 207.386 148.839 207.386 148.839Z" fill="#E7C7CA"/>
<path opacity="0.1" d="M207.386 148.839H206.913C209.717 146.525 216.058 139.481 197.214 134.347L198.855 133.79C198.855 133.79 208.491 134.293 211.099 140.921C213.707 147.55 207.386 148.839 207.386 148.839Z" fill="black"/>
<path d="M189.671 141.03C189.962 141.03 190.198 140.794 190.198 140.502C190.198 140.211 189.962 139.975 189.671 139.975C189.38 139.975 189.144 140.211 189.144 140.502C189.144 140.794 189.38 141.03 189.671 141.03Z" fill="#4B4B5B"/>
<path d="M186.609 141.9C186.9 141.9 187.136 141.664 187.136 141.373C187.136 141.082 186.9 140.846 186.609 140.846C186.318 140.846 186.082 141.082 186.082 141.373C186.082 141.664 186.318 141.9 186.609 141.9Z" fill="#4B4B5B"/>
<g opacity="0.1">
<path opacity="0.1" d="M171.688 29.9513C171.805 26.6373 171.216 23.3364 169.96 20.2677C166.045 20.8522 161.757 17.8302 158.192 19.638C155.554 20.9757 154.726 24.3291 154.578 27.2848C154.542 28.0652 154.536 28.8455 154.551 29.6259C154.551 29.3487 154.551 29.0685 154.578 28.7913C154.717 25.8356 155.545 22.4822 158.192 21.1445C161.757 19.3367 166.039 22.3496 169.96 21.7742C171.023 24.3734 171.609 27.1437 171.688 29.9513Z" fill="black"/>
<path opacity="0.1" d="M141.353 29.4C141.404 28.7435 141.391 28.0835 141.314 27.4295C140.995 24.7782 139.546 22.2443 139.284 19.6592C138.947 22.7776 140.931 25.7724 141.314 28.936C141.353 29.0987 141.353 29.2433 141.353 29.4Z" fill="black"/>
<path opacity="0.1" d="M157.219 56.4382C157.032 58.6738 156.505 61.063 154.81 62.5454C153.115 64.0278 149.992 63.9464 149.05 61.9157C148.748 61.3131 148.703 60.6111 148.411 60.0085C147.743 58.6286 146.099 58.0923 144.662 57.553C140.582 56.0254 136.646 53.0336 135.77 48.7522C135.692 48.3643 135.638 47.9718 135.61 47.5771C135.536 48.474 135.59 49.3769 135.77 50.2587C136.646 54.528 140.588 57.5319 144.662 59.0594C146.099 59.5988 147.743 60.1351 148.411 61.515C148.712 62.1176 148.764 62.8136 149.05 63.4222C149.998 65.4529 153.127 65.5312 154.81 64.0519C156.493 62.5725 157.017 60.1803 157.219 57.9447C157.311 56.768 157.342 55.5874 157.312 54.4075C157.312 55.0914 157.273 55.7663 157.219 56.4382Z" fill="black"/>
<path opacity="0.1" d="M180.478 34.3685C180.478 34.8053 180.478 35.2392 180.478 35.6731C180.646 30.069 182.7 24.4348 182.498 18.9482C182.342 24.022 180.592 29.2103 180.478 34.3685Z" fill="black"/>
<path opacity="0.1" d="M174.016 57.0376C174.09 56.6801 174.113 56.3139 174.085 55.9499C173.964 55.1701 173.69 54.4218 173.281 53.7474C171.54 50.4332 169.556 47.0406 169.321 43.3618C169.321 43.5185 169.3 43.6631 169.297 43.8318C169.177 47.9114 171.378 51.6444 173.281 55.2539C173.604 55.8129 173.851 56.4128 174.016 57.0376Z" fill="black"/>
<path opacity="0.1" d="M182.209 52.6783C181.984 56.3285 180.946 59.8822 179.171 63.0789C177.581 65.9744 174.771 68.8578 171.516 68.3004C171.225 68.2752 170.95 68.1508 170.739 67.9479C170.678 67.8788 170.63 67.7992 170.598 67.7128C170.562 67.9479 170.532 68.1859 170.514 68.4269C170.451 68.7858 170.532 69.1547 170.739 69.4543C170.95 69.6573 171.225 69.7817 171.516 69.8068C174.771 70.3642 177.581 67.4808 179.171 64.5854C180.946 61.3887 181.984 57.835 182.209 54.1847C182.245 53.4797 182.248 52.7777 182.227 52.0757C182.221 52.2776 182.221 52.4764 182.209 52.6783Z" fill="black"/>
</g>
<path opacity="0.1" d="M182.7 143.38C182.7 143.38 190.321 146.579 195.347 139.499" stroke="black" stroke-miterlimit="10"/>
<path opacity="0.1" d="M184.199 148.971C184.199 148.971 190.424 144.922 198.352 148.839" stroke="black" stroke-miterlimit="10"/>
<path opacity="0.1" d="M142.536 148.053C142.536 148.053 145.15 142.153 152.13 146.652" stroke="black" stroke-miterlimit="10"/>
<path opacity="0.1" d="M134.063 60.8098L139.393 55.9891C139.393 55.9891 160.059 54.6333 160.914 61.6625C160.914 61.6625 168.24 53.3287 183.648 55.1847L190.168 60.379L172.149 68.2909L154.638 74.368L141.741 68.5922L134.063 60.8098Z" fill="black"/>
<path d="M134.063 61.1116L139.393 56.2909C139.393 56.2909 160.059 54.9351 160.914 61.9642C160.914 61.9642 168.24 53.6305 183.648 55.4864L190.168 60.6807L172.149 68.5927L154.638 74.6698L141.741 68.894L134.063 61.1116Z" fill="#D5D6DB"/>
<path opacity="0.1" d="M131.705 61.7139L134.063 89.9361L159.056 91.1925L157.972 63.0908L157.951 62.6177L131.705 61.7139Z" fill="black"/>
<path d="M131.705 61.1113L134.063 89.3335L159.056 90.5899L157.972 62.4882L157.951 62.0152L131.705 61.1113Z" fill="#397EF3"/>
<path opacity="0.1" d="M191.312 61.1113L165.53 64.9799V93.3286L190.725 89.686L191.312 61.1113Z" fill="black"/>
<path d="M191.312 60.5088L165.53 64.3774V92.7262L190.725 89.0835L191.312 60.5088Z" fill="#397EF3"/>
<path opacity="0.3" d="M185.232 67.4263L171.306 68.9749L171.61 73.7233L185.223 72.2349L185.232 67.4263Z" fill="white"/>
<path d="M135.418 104.447L136.836 108.264C136.836 108.264 138.944 110.072 141.251 109.168C143.557 108.264 145.569 107.815 146.571 106.935C147.574 106.056 148.98 101.636 148.98 101.636C148.98 101.636 150.387 96.8149 151.79 95.6097C153.193 94.4045 156.909 77.8002 151.79 79.4242C146.671 81.0482 142.756 96.1129 142.756 96.1129C142.756 96.1129 141.853 97.2156 140.549 97.318C139.245 97.4205 136.634 97.1162 136.131 98.2219C135.629 99.3277 133.912 102.238 135.418 104.447Z" fill="#BE6F72"/>
<path opacity="0.1" d="M165.53 64.9769C164.21 65.2745 162.839 65.259 161.526 64.9315C160.213 64.604 158.995 63.9736 157.969 63.0908L159.056 91.1895C159.056 91.1895 161.615 93.9614 165.53 93.3287V64.9769Z" fill="black"/>
<path d="M165.53 64.3744C164.21 64.672 162.839 64.6564 161.526 64.3289C160.213 64.0014 158.995 63.3711 157.969 62.4883L159.056 90.5869C159.056 90.5869 161.615 93.3588 165.53 92.7261V64.3744Z" fill="#397EF3"/>
<path opacity="0.1" d="M165.53 64.3744C164.21 64.672 162.839 64.6564 161.526 64.3289C160.213 64.0014 158.995 63.3711 157.969 62.4883L159.056 90.5869C159.056 90.5869 161.615 93.3588 165.53 92.7261V64.3744Z" fill="black"/>
<path opacity="0.1" d="M166.132 61.2077C166.132 61.2077 176.62 57.9989 179.355 58.4508L166.132 61.2077Z" fill="black"/>
<path opacity="0.1" d="M154.401 59.8066C154.401 59.8066 144.235 57.3963 142.536 58.0802L154.401 59.8066Z" fill="black"/>
<path opacity="0.1" d="M172.745 61.6083C172.745 61.6083 179.758 59.0353 182.293 60.2585L172.745 61.6083Z" fill="black"/>
<path opacity="0.1" d="M169.213 126.155C170.3 125.338 171.456 124.619 172.67 124.006C174.476 123.136 177.789 120.876 177.789 120.876" fill="black"/>
<path opacity="0.1" d="M142.536 95.4077C142.536 95.4077 138.137 99.0082 136.815 99.3246C135.493 99.6409 134.677 102.449 134.677 102.449" fill="black"/>
<path d="M188.725 103.91L187.322 107.737C187.322 107.737 185.214 109.544 182.905 108.641C180.595 107.737 178.59 107.288 177.584 106.408C176.578 105.528 175.175 101.108 175.175 101.108C175.175 101.108 173.772 96.2875 172.365 95.0823C170.959 93.8772 167.246 77.2729 172.365 78.8968C177.485 80.5208 181.399 95.5855 181.399 95.5855C181.399 95.5855 182.303 96.6882 183.606 96.7907C184.91 96.8931 187.521 96.5888 188.024 97.6946C188.527 98.8003 190.231 101.711 188.725 103.91Z" fill="#BE6F72"/>
<path opacity="0.1" d="M186.265 96.8721C186.265 96.8721 189.141 98.722 189.129 100.934L186.265 96.8721Z" fill="black"/>
<path d="M161.865 43.2477C169.294 43.2477 175.316 37.222 175.316 29.7889C175.316 22.3558 169.294 16.3301 161.865 16.3301C154.436 16.3301 148.414 22.3558 148.414 29.7889C148.414 37.222 154.436 43.2477 161.865 43.2477Z" fill="#BE6F72"/>
<path d="M153.419 26.1762C155.051 25.9201 156.481 24.971 158.041 24.4257C161.531 23.1994 165.391 24.04 168.924 25.1458C170.279 25.5706 171.655 26.0497 173.076 26.0497C174.497 26.0497 176.006 25.4682 176.732 24.2419C177.4 23.1151 177.271 21.6508 176.708 20.4667C176.145 19.2826 175.202 18.3305 174.25 17.4327C171.119 14.4739 167.234 11.7081 162.937 12.0094C161.209 12.1329 159.556 12.7506 157.966 13.4345C155.964 14.2977 154.015 15.2796 152.13 16.3751C150.682 17.2157 147.999 18.3395 147.165 19.8761C145.267 23.338 150.468 26.6402 153.419 26.1762Z" fill="#3E373A"/>
<path opacity="0.1" d="M176.732 22.9766C176.006 24.2028 174.497 24.7843 173.076 24.7843C171.655 24.7843 170.279 24.3234 168.921 23.8985C165.389 22.7928 161.531 21.9492 158.038 23.1784C156.481 23.7238 155.048 24.6849 153.416 24.9259C151.037 25.2995 147.207 23.2266 146.791 20.5903C146.324 23.6364 150.766 26.2456 153.416 25.8298C155.048 25.5737 156.481 24.6246 158.038 24.0823C161.531 22.853 165.389 23.6967 168.921 24.8024C170.279 25.2272 171.652 25.7063 173.076 25.6882C174.5 25.6701 176.006 25.1097 176.732 23.8805C177.108 23.2117 177.256 22.4385 177.153 21.678C177.106 22.1359 176.963 22.5785 176.732 22.9766Z" fill="black"/>
<path d="M285.892 186.263C285.892 186.263 287.677 188.598 285.067 192.126C282.456 195.654 280.306 198.631 281.173 200.83C281.173 200.83 285.112 194.28 288.316 194.187C291.52 194.093 289.412 190.201 285.892 186.263Z" fill="#397EF3"/>
<path opacity="0.1" d="M285.892 186.263C286.047 186.488 286.17 186.735 286.256 186.995C289.382 190.671 291.05 194.102 288.042 194.187C285.241 194.268 281.884 199.279 281.08 200.541C281.105 200.643 281.137 200.744 281.173 200.842C281.173 200.842 285.112 194.292 288.316 194.199C291.52 194.105 289.412 190.201 285.892 186.263Z" fill="black"/>
<path d="M289.204 189.24C289.204 190.062 289.111 190.728 288.999 190.728C288.888 190.728 288.791 190.062 288.791 189.24C288.791 188.417 288.906 188.806 289.02 188.806C289.135 188.806 289.204 188.417 289.204 189.24Z" fill="#FFD037"/>
<path d="M290.345 190.222C289.625 190.613 288.996 190.851 288.942 190.752C288.888 190.653 289.427 190.252 290.146 189.848C290.866 189.444 290.583 189.74 290.637 189.848C290.691 189.957 291.068 189.827 290.345 190.222Z" fill="#FFD037"/>
<path d="M276.454 186.263C276.454 186.263 274.669 188.598 277.28 192.126C279.89 195.654 282.04 198.631 281.17 200.83C281.17 200.83 277.234 194.28 274.027 194.187C270.82 194.093 272.943 190.201 276.454 186.263Z" fill="#397EF3"/>
<path opacity="0.1" d="M276.454 186.263C276.299 186.488 276.176 186.735 276.09 186.995C272.964 190.671 271.296 194.102 274.304 194.187C277.102 194.268 280.462 199.279 281.266 200.541C281.241 200.644 281.209 200.744 281.17 200.842C281.17 200.842 277.234 194.292 274.027 194.199C270.82 194.105 272.943 190.201 276.454 186.263Z" fill="black"/>
<path d="M273.136 189.24C273.136 190.062 273.226 190.728 273.341 190.728C273.455 190.728 273.549 190.062 273.549 189.24C273.549 188.417 273.431 188.806 273.32 188.806C273.208 188.806 273.136 188.417 273.136 189.24Z" fill="#FFD037"/>
<path d="M271.998 190.222C272.717 190.613 273.347 190.851 273.401 190.752C273.455 190.653 272.916 190.252 272.196 189.848C271.477 189.444 271.76 189.74 271.706 189.848C271.651 189.957 271.275 189.827 271.998 190.222Z" fill="#FFD037"/>
<path opacity="0.1" d="M281.173 218.703C291.484 218.703 299.843 217.42 299.843 215.838C299.843 214.256 291.484 212.973 281.173 212.973C270.862 212.973 262.503 214.256 262.503 215.838C262.503 217.42 270.862 218.703 281.173 218.703Z" fill="#397EF3"/>
<path d="M290.782 197.682L290.691 198.411L290.565 199.442L290.514 199.872L290.387 200.903L290.333 201.334L290.21 202.361L288.779 214.081C288.653 215.127 286.945 215.943 284.883 215.943H277.46C275.397 215.943 273.693 215.127 273.564 214.081L272.133 202.361L272.007 201.334L271.956 200.903L271.829 199.872L271.775 199.442L271.652 198.411L271.561 197.682C271.492 197.079 272.413 196.591 273.582 196.591H288.764C289.93 196.591 290.854 197.088 290.782 197.682Z" fill="#65617D"/>
<path d="M290.691 198.411L290.568 199.442H271.778L271.652 198.411H290.691Z" fill="#9D9CB5"/>
<path d="M290.514 199.873L290.39 200.903H271.956L271.829 199.873H290.514Z" fill="#9D9CB5"/>
<path d="M290.336 201.333L290.21 202.364H272.133L272.01 201.333H290.336Z" fill="#9D9CB5"/>
</g>
<defs>
<linearGradient id="paint0_linear" x1="164.606" y1="151.226" x2="164.606" y2="0.000169945" gradientUnits="userSpaceOnUse">
<stop stop-color="#808080" stop-opacity="0.25"/>
<stop offset="0.54" stop-color="#808080" stop-opacity="0.12"/>
<stop offset="1" stop-color="#808080" stop-opacity="0.1"/>
</linearGradient>
<clipPath id="clip0">
<rect width="308" height="245" fill="white"/>
</clipPath>
</defs>
</svg>
