<svg width="223" height="55" viewBox="0 0 223 55" fill="none" xmlns="http://www.w3.org/2000/svg">
<g clip-path="url(#clip0)">
<path d="M100.962 3.39941H63.5683C62.216 3.39941 60.919 3.93664 59.9627 4.8929C59.0065 5.84917 58.4692 7.14614 58.4692 8.4985V45.8918C58.4692 47.2442 59.0065 48.5411 59.9627 49.4974C60.919 50.4537 62.216 50.9909 63.5683 50.9909H78.1485V34.8108H71.456V27.1951H78.1485V21.3907C78.1485 14.7884 82.0791 11.1415 88.0992 11.1415C90.9823 11.1415 93.9971 11.6557 93.9971 11.6557V18.1358H90.6753C87.4023 18.1358 86.3814 20.1669 86.3814 22.2501V27.1951H93.688L92.5194 34.8108H86.3814V50.9909H100.962C102.314 50.9909 103.611 50.4537 104.567 49.4974C105.523 48.5411 106.061 47.2442 106.061 45.8918V8.4985C106.061 7.14614 105.523 5.84917 104.567 4.8929C103.611 3.93664 102.314 3.39941 100.962 3.39941Z" fill="#3B5998"/>
</g>
<g clip-path="url(#clip1)">
<path d="M23.7957 13.0452C16.0727 13.0452 9.79449 19.3234 9.78387 27.0464C9.78387 29.6916 10.5275 32.273 11.9297 34.4932L12.2591 35.0244L10.8462 40.1872L16.1471 38.7956L16.657 39.1036C18.8029 40.3784 21.2674 41.0583 23.7851 41.0583H23.7957C31.5081 41.0583 37.9563 34.78 37.9563 27.057C37.9563 23.3177 36.3416 19.8015 33.6965 17.1563C31.0407 14.5005 27.5351 13.0452 23.7957 13.0452ZM32.0286 33.0591C31.6781 34.047 29.9996 34.9394 29.1923 35.0562C27.8538 35.2581 26.8127 35.1518 24.1463 34.0045C19.9289 32.1774 17.1669 27.9281 16.9545 27.6519C16.742 27.3757 15.2335 25.368 15.2335 23.2965C15.2335 21.225 16.3171 20.2051 16.7101 19.7802C17.0926 19.3553 17.5494 19.2491 17.8362 19.2491C18.1124 19.2491 18.3992 19.2491 18.6435 19.2597C18.8985 19.2703 19.249 19.1641 19.589 19.9821C19.9395 20.8213 20.7788 22.8928 20.885 23.1053C20.9912 23.3177 21.0656 23.562 20.9169 23.8382C20.1095 25.453 19.249 25.3892 19.6846 26.1328C21.3099 28.9267 22.9353 29.8934 25.4104 31.1363C25.8354 31.3488 26.0797 31.3169 26.324 31.0301C26.5684 30.7539 27.3757 29.7978 27.6519 29.3835C27.9281 28.9586 28.2149 29.0329 28.5974 29.171C28.9798 29.3091 31.0513 30.329 31.4762 30.5414C31.9012 30.7539 32.1774 30.8601 32.2836 31.0301C32.3792 31.2319 32.3792 32.0818 32.0286 33.0591ZM42.4924 3.39941H5.09909C2.28397 3.39941 0 5.68338 0 8.4985V45.8918C0 48.7069 2.28397 50.9909 5.09909 50.9909H42.4924C45.3075 50.9909 47.5915 48.7069 47.5915 45.8918V8.4985C47.5915 5.68338 45.3075 3.39941 42.4924 3.39941ZM23.7851 43.8946C20.9594 43.8946 18.1867 43.1829 15.7328 41.8444L6.79878 44.1921L9.18898 35.4599C7.71237 32.9104 6.93688 30.0103 6.93688 27.0358C6.9475 17.7512 14.5005 10.1982 23.7851 10.1982C28.2893 10.1982 32.5173 11.951 35.7042 15.1379C38.8805 18.3249 40.7927 22.5529 40.7927 27.057C40.7927 36.3416 33.0697 43.8946 23.7851 43.8946Z" fill="#06D755"/>
</g>
<g clip-path="url(#clip2)">
<path d="M219.6 3.39941H178.797C176.927 3.39941 175.408 4.93976 175.408 6.83067V47.5596C175.408 49.4505 176.927 50.9909 178.797 50.9909H219.6C221.47 50.9909 223 49.4505 223 47.5596V6.83067C223 4.93976 221.47 3.39941 219.6 3.39941ZM189.792 44.1921H182.738V21.4799H189.802V44.1921H189.792ZM186.265 18.378C184.002 18.378 182.175 16.5402 182.175 14.2881C182.175 12.036 184.002 10.1982 186.265 10.1982C188.517 10.1982 190.355 12.036 190.355 14.2881C190.355 16.5508 188.528 18.378 186.265 18.378ZM216.233 44.1921H209.179V33.1441C209.179 30.5096 209.126 27.1208 205.514 27.1208C201.838 27.1208 201.275 29.989 201.275 32.9529V44.1921H194.222V21.4799H200.989V24.5819H201.084C202.03 22.7972 204.335 20.9169 207.766 20.9169C214.905 20.9169 216.233 25.6229 216.233 31.7418V44.1921Z" fill="#0E76A8"/>
</g>
<g clip-path="url(#clip3)">
<path d="M140.735 21.5288C139.615 21.5292 138.519 21.8619 137.588 22.4848C136.656 23.1077 135.93 23.9928 135.502 25.0282C135.073 26.0636 134.961 27.2029 135.18 28.3019C135.399 29.4009 135.939 30.4104 136.731 31.2026C137.524 31.9949 138.534 32.5343 139.633 32.7528C140.732 32.9712 141.871 32.8589 142.906 32.43C143.941 32.001 144.826 31.2748 145.449 30.343C146.071 29.4112 146.404 28.3158 146.404 27.1951C146.403 25.6923 145.805 24.2514 144.742 23.1889C143.679 22.1265 142.238 21.5294 140.735 21.5288ZM153.983 17.1733C153.695 16.4423 153.259 15.7783 152.703 15.2226C152.148 14.6669 151.484 14.2313 150.753 13.9428C148.522 13.0622 143.21 13.2598 140.735 13.2598C138.26 13.2598 132.954 13.0547 130.717 13.9428C129.986 14.2313 129.322 14.6669 128.766 15.2226C128.21 15.7783 127.775 16.4423 127.486 17.1733C126.606 19.4042 126.803 24.721 126.803 27.1941C126.803 29.6671 126.606 34.9776 127.49 37.2159C127.779 37.9469 128.214 38.6109 128.77 39.1666C129.326 39.7223 129.99 40.1579 130.721 40.4464C132.952 41.327 138.263 41.1295 140.739 41.1295C143.216 41.1295 148.52 41.3345 150.757 40.4464C151.488 40.1579 152.152 39.7223 152.708 39.1666C153.263 38.6109 153.699 37.9469 153.987 37.2159C154.875 34.9851 154.671 29.6682 154.671 27.1951C154.671 24.7221 154.875 19.4127 153.987 17.1744L153.983 17.1733ZM140.735 35.9061C139.012 35.9061 137.328 35.3952 135.896 34.438C134.463 33.4809 133.347 32.1204 132.687 30.5287C132.028 28.937 131.856 27.1855 132.192 25.4957C132.528 23.806 133.357 22.2538 134.576 21.0356C135.794 19.8173 137.346 18.9877 139.036 18.6516C140.726 18.3155 142.477 18.488 144.069 19.1473C145.66 19.8066 147.021 20.9231 147.978 22.3556C148.935 23.7881 149.446 25.4723 149.446 27.1951C149.448 28.3395 149.223 29.4728 148.786 30.5303C148.349 31.5878 147.707 32.5487 146.898 33.3578C146.089 34.167 145.128 34.8086 144.07 35.2458C143.013 35.6831 141.88 35.9075 140.735 35.9061ZM149.805 20.152C149.403 20.1522 149.01 20.0332 148.675 19.8099C148.341 19.5866 148.08 19.2691 147.926 18.8976C147.772 18.5261 147.731 18.1172 147.81 17.7228C147.888 17.3283 148.082 16.9659 148.366 16.6814C148.65 16.397 149.013 16.2032 149.407 16.1247C149.802 16.0461 150.21 16.0863 150.582 16.2402C150.954 16.394 151.271 16.6547 151.495 16.989C151.718 17.3234 151.837 17.7166 151.837 18.1188C151.839 18.3859 151.787 18.6505 151.685 18.8976C151.584 19.1447 151.435 19.3693 151.246 19.5586C151.058 19.7479 150.834 19.8982 150.588 20.0007C150.341 20.1033 150.077 20.1561 149.809 20.1563L149.805 20.152ZM159.432 3.39941H122.039C120.686 3.39941 119.389 3.93664 118.433 4.8929C117.477 5.84917 116.939 7.14614 116.939 8.4985V45.8918C116.939 47.2442 117.477 48.5411 118.433 49.4974C119.389 50.4536 120.686 50.9909 122.039 50.9909H159.432C160.784 50.9909 162.081 50.4536 163.037 49.4974C163.994 48.5411 164.531 47.2442 164.531 45.8918V8.4985C164.531 7.14614 163.994 5.84917 163.037 4.8929C162.081 3.93664 160.784 3.39941 159.432 3.39941ZM157.613 34.2064C157.476 36.9291 156.855 39.3416 154.867 41.3239C152.88 43.3061 150.469 43.9403 147.75 44.0699C144.944 44.2282 136.533 44.2282 133.727 44.0699C131.004 43.9329 128.6 43.3104 126.61 41.3239C124.619 39.3373 123.993 36.9238 123.864 34.2064C123.705 31.3998 123.705 22.9873 123.864 20.1839C124.001 17.4612 124.615 15.0487 126.61 13.0664C128.605 11.0842 131.015 10.4574 133.727 10.3278C136.533 10.1695 144.944 10.1695 147.75 10.3278C150.472 10.4648 152.884 11.0873 154.867 13.0739C156.85 15.0604 157.484 17.474 157.613 20.1966C157.771 22.9926 157.771 31.3976 157.613 34.2064Z" fill="url(#paint0_radial)"/>
</g>
<defs>
<radialGradient id="paint0_radial" cx="0" cy="0" r="1" gradientUnits="userSpaceOnUse" gradientTransform="translate(129.517 50.9909) rotate(-65.2249) scale(58.4062 56.9995)">
<stop offset="0.116162" stop-color="#FCCC63"/>
<stop offset="0.26746" stop-color="#FBAD50"/>
<stop offset="0.390625" stop-color="#FF7749"/>
<stop offset="0.510417" stop-color="#ED5F56"/>
<stop offset="0.638894" stop-color="#CD486B"/>
<stop offset="0.786637" stop-color="#BC2A8D"/>
<stop offset="0.900633" stop-color="#8A3AB9"/>
<stop offset="1" stop-color="#4C68D7"/>
</radialGradient>
<clipPath id="clip0">
<rect width="47.5915" height="54.3902" fill="white" transform="translate(58.4692)"/>
</clipPath>
<clipPath id="clip1">
<rect width="47.5915" height="54.3902" fill="white"/>
</clipPath>
<clipPath id="clip2">
<rect width="47.5915" height="54.3902" fill="white" transform="translate(175.408)"/>
</clipPath>
<clipPath id="clip3">
<rect width="47.5915" height="54.3902" fill="white" transform="translate(116.939)"/>
</clipPath>
</defs>
</svg>
